G04 #@! TF.GenerationSoftware,KiCad,Pcbnew,5.1.5-52549c5~84~ubuntu18.04.1*
G04 #@! TF.CreationDate,2020-03-30T00:09:55-04:00*
G04 #@! TF.ProjectId,mikrokosmos_panel,6d696b72-6f6b-46f7-936d-6f735f70616e,rev?*
G04 #@! TF.SameCoordinates,Original*
G04 #@! TF.FileFunction,Legend,Bot*
G04 #@! TF.FilePolarity,Positive*
%FSLAX46Y46*%
G04 Gerber Fmt 4.6, Leading zero omitted, Abs format (unit mm)*
G04 Created by KiCad (PCBNEW 5.1.5-52549c5~84~ubuntu18.04.1) date 2020-03-30 00:09:55*
%MOMM*%
%LPD*%
G04 APERTURE LIST*
%ADD10C,0.150000*%
G04 APERTURE END LIST*
D10*
X211619047Y-82452380D02*
X211619047Y-83166666D01*
X211666666Y-83309523D01*
X211761904Y-83404761D01*
X211904761Y-83452380D01*
X212000000Y-83452380D01*
X210666666Y-83452380D02*
X211142857Y-83452380D01*
X211142857Y-82452380D01*
X209761904Y-83357142D02*
X209809523Y-83404761D01*
X209952380Y-83452380D01*
X210047619Y-83452380D01*
X210190476Y-83404761D01*
X210285714Y-83309523D01*
X210333333Y-83214285D01*
X210380952Y-83023809D01*
X210380952Y-82880952D01*
X210333333Y-82690476D01*
X210285714Y-82595238D01*
X210190476Y-82500000D01*
X210047619Y-82452380D01*
X209952380Y-82452380D01*
X209809523Y-82500000D01*
X209761904Y-82547619D01*
X209047619Y-82452380D02*
X209047619Y-83166666D01*
X209095238Y-83309523D01*
X209190476Y-83404761D01*
X209333333Y-83452380D01*
X209428571Y-83452380D01*
X208095238Y-83452380D02*
X208571428Y-83452380D01*
X208571428Y-82452380D01*
X207190476Y-83357142D02*
X207238095Y-83404761D01*
X207380952Y-83452380D01*
X207476190Y-83452380D01*
X207619047Y-83404761D01*
X207714285Y-83309523D01*
X207761904Y-83214285D01*
X207809523Y-83023809D01*
X207809523Y-82880952D01*
X207761904Y-82690476D01*
X207714285Y-82595238D01*
X207619047Y-82500000D01*
X207476190Y-82452380D01*
X207380952Y-82452380D01*
X207238095Y-82500000D01*
X207190476Y-82547619D01*
X206476190Y-82452380D02*
X206476190Y-83166666D01*
X206523809Y-83309523D01*
X206619047Y-83404761D01*
X206761904Y-83452380D01*
X206857142Y-83452380D01*
X205523809Y-83452380D02*
X206000000Y-83452380D01*
X206000000Y-82452380D01*
X204619047Y-83357142D02*
X204666666Y-83404761D01*
X204809523Y-83452380D01*
X204904761Y-83452380D01*
X205047619Y-83404761D01*
X205142857Y-83309523D01*
X205190476Y-83214285D01*
X205238095Y-83023809D01*
X205238095Y-82880952D01*
X205190476Y-82690476D01*
X205142857Y-82595238D01*
X205047619Y-82500000D01*
X204904761Y-82452380D01*
X204809523Y-82452380D01*
X204666666Y-82500000D01*
X204619047Y-82547619D01*
X203904761Y-82452380D02*
X203904761Y-83166666D01*
X203952380Y-83309523D01*
X204047619Y-83404761D01*
X204190476Y-83452380D01*
X204285714Y-83452380D01*
X202952380Y-83452380D02*
X203428571Y-83452380D01*
X203428571Y-82452380D01*
X202047619Y-83357142D02*
X202095238Y-83404761D01*
X202238095Y-83452380D01*
X202333333Y-83452380D01*
X202476190Y-83404761D01*
X202571428Y-83309523D01*
X202619047Y-83214285D01*
X202666666Y-83023809D01*
X202666666Y-82880952D01*
X202619047Y-82690476D01*
X202571428Y-82595238D01*
X202476190Y-82500000D01*
X202333333Y-82452380D01*
X202238095Y-82452380D01*
X202095238Y-82500000D01*
X202047619Y-82547619D01*
M02*
