G04 #@! TF.GenerationSoftware,KiCad,Pcbnew,5.1.5-52549c5~84~ubuntu18.04.1*
G04 #@! TF.CreationDate,2020-03-30T00:09:55-04:00*
G04 #@! TF.ProjectId,mikrokosmos_panel,6d696b72-6f6b-46f7-936d-6f735f70616e,rev?*
G04 #@! TF.SameCoordinates,Original*
G04 #@! TF.FileFunction,Copper,L2,Bot*
G04 #@! TF.FilePolarity,Positive*
%FSLAX46Y46*%
G04 Gerber Fmt 4.6, Leading zero omitted, Abs format (unit mm)*
G04 Created by KiCad (PCBNEW 5.1.5-52549c5~84~ubuntu18.04.1) date 2020-03-30 00:09:55*
%MOMM*%
%LPD*%
G04 APERTURE LIST*
%ADD10C,0.254000*%
G04 APERTURE END LIST*
D10*
G36*
X249315001Y-104315000D02*
G01*
X50685000Y-104315000D01*
X50685000Y-101779872D01*
X50765000Y-101779872D01*
X50765000Y-102220128D01*
X50850890Y-102651925D01*
X51019369Y-103058669D01*
X51263962Y-103424729D01*
X51575271Y-103736038D01*
X51941331Y-103980631D01*
X52348075Y-104149110D01*
X52779872Y-104235000D01*
X53220128Y-104235000D01*
X53651925Y-104149110D01*
X54058669Y-103980631D01*
X54424729Y-103736038D01*
X54736038Y-103424729D01*
X54980631Y-103058669D01*
X55149110Y-102651925D01*
X55235000Y-102220128D01*
X55235000Y-101779872D01*
X244765000Y-101779872D01*
X244765000Y-102220128D01*
X244850890Y-102651925D01*
X245019369Y-103058669D01*
X245263962Y-103424729D01*
X245575271Y-103736038D01*
X245941331Y-103980631D01*
X246348075Y-104149110D01*
X246779872Y-104235000D01*
X247220128Y-104235000D01*
X247651925Y-104149110D01*
X248058669Y-103980631D01*
X248424729Y-103736038D01*
X248736038Y-103424729D01*
X248980631Y-103058669D01*
X249149110Y-102651925D01*
X249235000Y-102220128D01*
X249235000Y-101779872D01*
X249149110Y-101348075D01*
X248980631Y-100941331D01*
X248736038Y-100575271D01*
X248424729Y-100263962D01*
X248058669Y-100019369D01*
X247651925Y-99850890D01*
X247220128Y-99765000D01*
X246779872Y-99765000D01*
X246348075Y-99850890D01*
X245941331Y-100019369D01*
X245575271Y-100263962D01*
X245263962Y-100575271D01*
X245019369Y-100941331D01*
X244850890Y-101348075D01*
X244765000Y-101779872D01*
X55235000Y-101779872D01*
X55149110Y-101348075D01*
X54980631Y-100941331D01*
X54736038Y-100575271D01*
X54424729Y-100263962D01*
X54058669Y-100019369D01*
X53651925Y-99850890D01*
X53220128Y-99765000D01*
X52779872Y-99765000D01*
X52348075Y-99850890D01*
X51941331Y-100019369D01*
X51575271Y-100263962D01*
X51263962Y-100575271D01*
X51019369Y-100941331D01*
X50850890Y-101348075D01*
X50765000Y-101779872D01*
X50685000Y-101779872D01*
X50685000Y-92279872D01*
X86265000Y-92279872D01*
X86265000Y-92720128D01*
X86350890Y-93151925D01*
X86519369Y-93558669D01*
X86763962Y-93924729D01*
X87075271Y-94236038D01*
X87441331Y-94480631D01*
X87848075Y-94649110D01*
X88279872Y-94735000D01*
X88720128Y-94735000D01*
X89151925Y-94649110D01*
X89558669Y-94480631D01*
X89924729Y-94236038D01*
X90236038Y-93924729D01*
X90480631Y-93558669D01*
X90649110Y-93151925D01*
X90735000Y-92720128D01*
X90735000Y-92279872D01*
X90695818Y-92082889D01*
X151265000Y-92082889D01*
X151265000Y-92917111D01*
X151427749Y-93735304D01*
X151746992Y-94506025D01*
X152210461Y-95199655D01*
X152800345Y-95789539D01*
X153493975Y-96253008D01*
X154264696Y-96572251D01*
X155082889Y-96735000D01*
X155917111Y-96735000D01*
X156735304Y-96572251D01*
X157506025Y-96253008D01*
X158199655Y-95789539D01*
X158789539Y-95199655D01*
X159253008Y-94506025D01*
X159572251Y-93735304D01*
X159735000Y-92917111D01*
X159735000Y-92082889D01*
X159712471Y-91969624D01*
X190115000Y-91969624D01*
X190115000Y-93030376D01*
X190321942Y-94070747D01*
X190727875Y-95050754D01*
X191317197Y-95932738D01*
X192067262Y-96682803D01*
X192949246Y-97272125D01*
X193929253Y-97678058D01*
X194969624Y-97885000D01*
X196030376Y-97885000D01*
X197070747Y-97678058D01*
X198050754Y-97272125D01*
X198932738Y-96682803D01*
X199682803Y-95932738D01*
X200272125Y-95050754D01*
X200678058Y-94070747D01*
X200885000Y-93030376D01*
X200885000Y-91969624D01*
X215115000Y-91969624D01*
X215115000Y-93030376D01*
X215321942Y-94070747D01*
X215727875Y-95050754D01*
X216317197Y-95932738D01*
X217067262Y-96682803D01*
X217949246Y-97272125D01*
X218929253Y-97678058D01*
X219969624Y-97885000D01*
X221030376Y-97885000D01*
X222070747Y-97678058D01*
X223050754Y-97272125D01*
X223932738Y-96682803D01*
X224682803Y-95932738D01*
X225272125Y-95050754D01*
X225678058Y-94070747D01*
X225885000Y-93030376D01*
X225885000Y-91969624D01*
X225678058Y-90929253D01*
X225272125Y-89949246D01*
X224682803Y-89067262D01*
X223932738Y-88317197D01*
X223050754Y-87727875D01*
X222070747Y-87321942D01*
X221030376Y-87115000D01*
X219969624Y-87115000D01*
X218929253Y-87321942D01*
X217949246Y-87727875D01*
X217067262Y-88317197D01*
X216317197Y-89067262D01*
X215727875Y-89949246D01*
X215321942Y-90929253D01*
X215115000Y-91969624D01*
X200885000Y-91969624D01*
X200678058Y-90929253D01*
X200272125Y-89949246D01*
X199682803Y-89067262D01*
X198932738Y-88317197D01*
X198050754Y-87727875D01*
X197070747Y-87321942D01*
X196030376Y-87115000D01*
X194969624Y-87115000D01*
X193929253Y-87321942D01*
X192949246Y-87727875D01*
X192067262Y-88317197D01*
X191317197Y-89067262D01*
X190727875Y-89949246D01*
X190321942Y-90929253D01*
X190115000Y-91969624D01*
X159712471Y-91969624D01*
X159572251Y-91264696D01*
X159253008Y-90493975D01*
X158789539Y-89800345D01*
X158199655Y-89210461D01*
X157506025Y-88746992D01*
X156735304Y-88427749D01*
X155917111Y-88265000D01*
X155082889Y-88265000D01*
X154264696Y-88427749D01*
X153493975Y-88746992D01*
X152800345Y-89210461D01*
X152210461Y-89800345D01*
X151746992Y-90493975D01*
X151427749Y-91264696D01*
X151265000Y-92082889D01*
X90695818Y-92082889D01*
X90649110Y-91848075D01*
X90480631Y-91441331D01*
X90236038Y-91075271D01*
X89924729Y-90763962D01*
X89558669Y-90519369D01*
X89151925Y-90350890D01*
X88720128Y-90265000D01*
X88279872Y-90265000D01*
X87848075Y-90350890D01*
X87441331Y-90519369D01*
X87075271Y-90763962D01*
X86763962Y-91075271D01*
X86519369Y-91441331D01*
X86350890Y-91848075D01*
X86265000Y-92279872D01*
X50685000Y-92279872D01*
X50685000Y-82779872D01*
X50765000Y-82779872D01*
X50765000Y-83220128D01*
X50850890Y-83651925D01*
X51019369Y-84058669D01*
X51263962Y-84424729D01*
X51575271Y-84736038D01*
X51941331Y-84980631D01*
X52348075Y-85149110D01*
X52779872Y-85235000D01*
X53220128Y-85235000D01*
X53651925Y-85149110D01*
X54058669Y-84980631D01*
X54424729Y-84736038D01*
X54736038Y-84424729D01*
X54980631Y-84058669D01*
X55149110Y-83651925D01*
X55235000Y-83220128D01*
X55235000Y-82779872D01*
X244765000Y-82779872D01*
X244765000Y-83220128D01*
X244850890Y-83651925D01*
X245019369Y-84058669D01*
X245263962Y-84424729D01*
X245575271Y-84736038D01*
X245941331Y-84980631D01*
X246348075Y-85149110D01*
X246779872Y-85235000D01*
X247220128Y-85235000D01*
X247651925Y-85149110D01*
X248058669Y-84980631D01*
X248424729Y-84736038D01*
X248736038Y-84424729D01*
X248980631Y-84058669D01*
X249149110Y-83651925D01*
X249235000Y-83220128D01*
X249235000Y-82779872D01*
X249149110Y-82348075D01*
X248980631Y-81941331D01*
X248736038Y-81575271D01*
X248424729Y-81263962D01*
X248058669Y-81019369D01*
X247651925Y-80850890D01*
X247220128Y-80765000D01*
X246779872Y-80765000D01*
X246348075Y-80850890D01*
X245941331Y-81019369D01*
X245575271Y-81263962D01*
X245263962Y-81575271D01*
X245019369Y-81941331D01*
X244850890Y-82348075D01*
X244765000Y-82779872D01*
X55235000Y-82779872D01*
X55149110Y-82348075D01*
X54980631Y-81941331D01*
X54736038Y-81575271D01*
X54424729Y-81263962D01*
X54058669Y-81019369D01*
X53651925Y-80850890D01*
X53220128Y-80765000D01*
X52779872Y-80765000D01*
X52348075Y-80850890D01*
X51941331Y-81019369D01*
X51575271Y-81263962D01*
X51263962Y-81575271D01*
X51019369Y-81941331D01*
X50850890Y-82348075D01*
X50765000Y-82779872D01*
X50685000Y-82779872D01*
X50685000Y-80685000D01*
X249315000Y-80685000D01*
X249315001Y-104315000D01*
G37*
X249315001Y-104315000D02*
X50685000Y-104315000D01*
X50685000Y-101779872D01*
X50765000Y-101779872D01*
X50765000Y-102220128D01*
X50850890Y-102651925D01*
X51019369Y-103058669D01*
X51263962Y-103424729D01*
X51575271Y-103736038D01*
X51941331Y-103980631D01*
X52348075Y-104149110D01*
X52779872Y-104235000D01*
X53220128Y-104235000D01*
X53651925Y-104149110D01*
X54058669Y-103980631D01*
X54424729Y-103736038D01*
X54736038Y-103424729D01*
X54980631Y-103058669D01*
X55149110Y-102651925D01*
X55235000Y-102220128D01*
X55235000Y-101779872D01*
X244765000Y-101779872D01*
X244765000Y-102220128D01*
X244850890Y-102651925D01*
X245019369Y-103058669D01*
X245263962Y-103424729D01*
X245575271Y-103736038D01*
X245941331Y-103980631D01*
X246348075Y-104149110D01*
X246779872Y-104235000D01*
X247220128Y-104235000D01*
X247651925Y-104149110D01*
X248058669Y-103980631D01*
X248424729Y-103736038D01*
X248736038Y-103424729D01*
X248980631Y-103058669D01*
X249149110Y-102651925D01*
X249235000Y-102220128D01*
X249235000Y-101779872D01*
X249149110Y-101348075D01*
X248980631Y-100941331D01*
X248736038Y-100575271D01*
X248424729Y-100263962D01*
X248058669Y-100019369D01*
X247651925Y-99850890D01*
X247220128Y-99765000D01*
X246779872Y-99765000D01*
X246348075Y-99850890D01*
X245941331Y-100019369D01*
X245575271Y-100263962D01*
X245263962Y-100575271D01*
X245019369Y-100941331D01*
X244850890Y-101348075D01*
X244765000Y-101779872D01*
X55235000Y-101779872D01*
X55149110Y-101348075D01*
X54980631Y-100941331D01*
X54736038Y-100575271D01*
X54424729Y-100263962D01*
X54058669Y-100019369D01*
X53651925Y-99850890D01*
X53220128Y-99765000D01*
X52779872Y-99765000D01*
X52348075Y-99850890D01*
X51941331Y-100019369D01*
X51575271Y-100263962D01*
X51263962Y-100575271D01*
X51019369Y-100941331D01*
X50850890Y-101348075D01*
X50765000Y-101779872D01*
X50685000Y-101779872D01*
X50685000Y-92279872D01*
X86265000Y-92279872D01*
X86265000Y-92720128D01*
X86350890Y-93151925D01*
X86519369Y-93558669D01*
X86763962Y-93924729D01*
X87075271Y-94236038D01*
X87441331Y-94480631D01*
X87848075Y-94649110D01*
X88279872Y-94735000D01*
X88720128Y-94735000D01*
X89151925Y-94649110D01*
X89558669Y-94480631D01*
X89924729Y-94236038D01*
X90236038Y-93924729D01*
X90480631Y-93558669D01*
X90649110Y-93151925D01*
X90735000Y-92720128D01*
X90735000Y-92279872D01*
X90695818Y-92082889D01*
X151265000Y-92082889D01*
X151265000Y-92917111D01*
X151427749Y-93735304D01*
X151746992Y-94506025D01*
X152210461Y-95199655D01*
X152800345Y-95789539D01*
X153493975Y-96253008D01*
X154264696Y-96572251D01*
X155082889Y-96735000D01*
X155917111Y-96735000D01*
X156735304Y-96572251D01*
X157506025Y-96253008D01*
X158199655Y-95789539D01*
X158789539Y-95199655D01*
X159253008Y-94506025D01*
X159572251Y-93735304D01*
X159735000Y-92917111D01*
X159735000Y-92082889D01*
X159712471Y-91969624D01*
X190115000Y-91969624D01*
X190115000Y-93030376D01*
X190321942Y-94070747D01*
X190727875Y-95050754D01*
X191317197Y-95932738D01*
X192067262Y-96682803D01*
X192949246Y-97272125D01*
X193929253Y-97678058D01*
X194969624Y-97885000D01*
X196030376Y-97885000D01*
X197070747Y-97678058D01*
X198050754Y-97272125D01*
X198932738Y-96682803D01*
X199682803Y-95932738D01*
X200272125Y-95050754D01*
X200678058Y-94070747D01*
X200885000Y-93030376D01*
X200885000Y-91969624D01*
X215115000Y-91969624D01*
X215115000Y-93030376D01*
X215321942Y-94070747D01*
X215727875Y-95050754D01*
X216317197Y-95932738D01*
X217067262Y-96682803D01*
X217949246Y-97272125D01*
X218929253Y-97678058D01*
X219969624Y-97885000D01*
X221030376Y-97885000D01*
X222070747Y-97678058D01*
X223050754Y-97272125D01*
X223932738Y-96682803D01*
X224682803Y-95932738D01*
X225272125Y-95050754D01*
X225678058Y-94070747D01*
X225885000Y-93030376D01*
X225885000Y-91969624D01*
X225678058Y-90929253D01*
X225272125Y-89949246D01*
X224682803Y-89067262D01*
X223932738Y-88317197D01*
X223050754Y-87727875D01*
X222070747Y-87321942D01*
X221030376Y-87115000D01*
X219969624Y-87115000D01*
X218929253Y-87321942D01*
X217949246Y-87727875D01*
X217067262Y-88317197D01*
X216317197Y-89067262D01*
X215727875Y-89949246D01*
X215321942Y-90929253D01*
X215115000Y-91969624D01*
X200885000Y-91969624D01*
X200678058Y-90929253D01*
X200272125Y-89949246D01*
X199682803Y-89067262D01*
X198932738Y-88317197D01*
X198050754Y-87727875D01*
X197070747Y-87321942D01*
X196030376Y-87115000D01*
X194969624Y-87115000D01*
X193929253Y-87321942D01*
X192949246Y-87727875D01*
X192067262Y-88317197D01*
X191317197Y-89067262D01*
X190727875Y-89949246D01*
X190321942Y-90929253D01*
X190115000Y-91969624D01*
X159712471Y-91969624D01*
X159572251Y-91264696D01*
X159253008Y-90493975D01*
X158789539Y-89800345D01*
X158199655Y-89210461D01*
X157506025Y-88746992D01*
X156735304Y-88427749D01*
X155917111Y-88265000D01*
X155082889Y-88265000D01*
X154264696Y-88427749D01*
X153493975Y-88746992D01*
X152800345Y-89210461D01*
X152210461Y-89800345D01*
X151746992Y-90493975D01*
X151427749Y-91264696D01*
X151265000Y-92082889D01*
X90695818Y-92082889D01*
X90649110Y-91848075D01*
X90480631Y-91441331D01*
X90236038Y-91075271D01*
X89924729Y-90763962D01*
X89558669Y-90519369D01*
X89151925Y-90350890D01*
X88720128Y-90265000D01*
X88279872Y-90265000D01*
X87848075Y-90350890D01*
X87441331Y-90519369D01*
X87075271Y-90763962D01*
X86763962Y-91075271D01*
X86519369Y-91441331D01*
X86350890Y-91848075D01*
X86265000Y-92279872D01*
X50685000Y-92279872D01*
X50685000Y-82779872D01*
X50765000Y-82779872D01*
X50765000Y-83220128D01*
X50850890Y-83651925D01*
X51019369Y-84058669D01*
X51263962Y-84424729D01*
X51575271Y-84736038D01*
X51941331Y-84980631D01*
X52348075Y-85149110D01*
X52779872Y-85235000D01*
X53220128Y-85235000D01*
X53651925Y-85149110D01*
X54058669Y-84980631D01*
X54424729Y-84736038D01*
X54736038Y-84424729D01*
X54980631Y-84058669D01*
X55149110Y-83651925D01*
X55235000Y-83220128D01*
X55235000Y-82779872D01*
X244765000Y-82779872D01*
X244765000Y-83220128D01*
X244850890Y-83651925D01*
X245019369Y-84058669D01*
X245263962Y-84424729D01*
X245575271Y-84736038D01*
X245941331Y-84980631D01*
X246348075Y-85149110D01*
X246779872Y-85235000D01*
X247220128Y-85235000D01*
X247651925Y-85149110D01*
X248058669Y-84980631D01*
X248424729Y-84736038D01*
X248736038Y-84424729D01*
X248980631Y-84058669D01*
X249149110Y-83651925D01*
X249235000Y-83220128D01*
X249235000Y-82779872D01*
X249149110Y-82348075D01*
X248980631Y-81941331D01*
X248736038Y-81575271D01*
X248424729Y-81263962D01*
X248058669Y-81019369D01*
X247651925Y-80850890D01*
X247220128Y-80765000D01*
X246779872Y-80765000D01*
X246348075Y-80850890D01*
X245941331Y-81019369D01*
X245575271Y-81263962D01*
X245263962Y-81575271D01*
X245019369Y-81941331D01*
X244850890Y-82348075D01*
X244765000Y-82779872D01*
X55235000Y-82779872D01*
X55149110Y-82348075D01*
X54980631Y-81941331D01*
X54736038Y-81575271D01*
X54424729Y-81263962D01*
X54058669Y-81019369D01*
X53651925Y-80850890D01*
X53220128Y-80765000D01*
X52779872Y-80765000D01*
X52348075Y-80850890D01*
X51941331Y-81019369D01*
X51575271Y-81263962D01*
X51263962Y-81575271D01*
X51019369Y-81941331D01*
X50850890Y-82348075D01*
X50765000Y-82779872D01*
X50685000Y-82779872D01*
X50685000Y-80685000D01*
X249315000Y-80685000D01*
X249315001Y-104315000D01*
M02*
