M48
; DRILL file {KiCad 5.1.6-c6e7f7d~87~ubuntu20.04.1} date Fri Aug 28 15:20:57 2020
; FORMAT={-:-/ absolute / inch / decimal}
; #@! TF.CreationDate,2020-08-28T15:20:57-04:00
; #@! TF.GenerationSoftware,Kicad,Pcbnew,5.1.6-c6e7f7d~87~ubuntu20.04.1
; #@! TF.FileFunction,Plated,1,2,PTH
FMAT,2
INCH
T1C0.0315
T2C0.0394
T3C0.0400
T4C0.0433
T5C0.0472
T6C0.0709
%
G90
G05
T1
X5.8465Y-4.5228
X5.8465Y-4.8228
X5.9843Y-4.5228
X5.9843Y-4.8228
X5.8858Y-4.1929
X5.8858Y-4.2913
X4.9213Y-4.5276
X4.9213Y-4.8276
X5.448Y-4.0898
X5.448Y-4.1898
X5.448Y-4.2898
X5.448Y-4.3898
X5.748Y-4.0898
X5.748Y-4.1898
X5.748Y-4.2898
X5.748Y-4.3898
X5.315Y-4.1929
X5.315Y-4.2913
X5.7087Y-4.5276
X5.7087Y-4.8276
X6.378Y-4.7606
X6.4567Y-4.7606
X5.3937Y-4.5228
X5.3937Y-4.8228
X6.378Y-4.1142
X6.4567Y-4.1142
X5.0787Y-4.5228
X5.0787Y-4.8228
X5.5512Y-4.5276
X5.5512Y-4.8276
X5.2362Y-4.5228
X5.2362Y-4.8228
T2
X4.3504Y-4.3307
X4.3504Y-4.4291
X4.3504Y-4.5276
T3
X6.5157Y-4.3791
X6.5157Y-4.4791
X6.6157Y-4.3791
X6.6157Y-4.4791
X6.7157Y-4.3791
X6.7157Y-4.4791
X6.8157Y-4.3791
X6.8157Y-4.4791
X6.9157Y-4.3791
X6.9157Y-4.4791
T4
X6.6339Y-4.7606
X6.9339Y-4.7606
X6.6488Y-4.1142
X6.9488Y-4.1142
T5
X5.0197Y-4.2898
X5.0197Y-4.3898
X6.1614Y-4.1732
X6.1614Y-4.2732
T6
X4.6457Y-4.2402
X4.6457Y-4.6181
T0
M30
