G04 #@! TF.GenerationSoftware,KiCad,Pcbnew,5.1.6-c6e7f7d~87~ubuntu20.04.1*
G04 #@! TF.CreationDate,2020-08-28T15:20:52-04:00*
G04 #@! TF.ProjectId,Mikrokosmos,4d696b72-6f6b-46f7-936d-6f732e6b6963,rev?*
G04 #@! TF.SameCoordinates,Original*
G04 #@! TF.FileFunction,Soldermask,Bot*
G04 #@! TF.FilePolarity,Negative*
%FSLAX46Y46*%
G04 Gerber Fmt 4.6, Leading zero omitted, Abs format (unit mm)*
G04 Created by KiCad (PCBNEW 5.1.6-c6e7f7d~87~ubuntu20.04.1) date 2020-08-28 15:20:52*
%MOMM*%
%LPD*%
G01*
G04 APERTURE LIST*
%ADD10C,0.100000*%
G04 APERTURE END LIST*
D10*
G36*
X125248228Y-121801703D02*
G01*
X125403100Y-121865853D01*
X125542481Y-121958985D01*
X125661015Y-122077519D01*
X125754147Y-122216900D01*
X125818297Y-122371772D01*
X125851000Y-122536184D01*
X125851000Y-122703816D01*
X125818297Y-122868228D01*
X125754147Y-123023100D01*
X125661015Y-123162481D01*
X125542481Y-123281015D01*
X125403100Y-123374147D01*
X125248228Y-123438297D01*
X125083816Y-123471000D01*
X124916184Y-123471000D01*
X124751772Y-123438297D01*
X124596900Y-123374147D01*
X124457519Y-123281015D01*
X124338985Y-123162481D01*
X124245853Y-123023100D01*
X124181703Y-122868228D01*
X124149000Y-122703816D01*
X124149000Y-122536184D01*
X124181703Y-122371772D01*
X124245853Y-122216900D01*
X124338985Y-122077519D01*
X124457519Y-121958985D01*
X124596900Y-121865853D01*
X124751772Y-121801703D01*
X124916184Y-121769000D01*
X125083816Y-121769000D01*
X125248228Y-121801703D01*
G37*
G36*
X141248228Y-121801703D02*
G01*
X141403100Y-121865853D01*
X141542481Y-121958985D01*
X141661015Y-122077519D01*
X141754147Y-122216900D01*
X141818297Y-122371772D01*
X141851000Y-122536184D01*
X141851000Y-122703816D01*
X141818297Y-122868228D01*
X141754147Y-123023100D01*
X141661015Y-123162481D01*
X141542481Y-123281015D01*
X141403100Y-123374147D01*
X141248228Y-123438297D01*
X141083816Y-123471000D01*
X140916184Y-123471000D01*
X140751772Y-123438297D01*
X140596900Y-123374147D01*
X140457519Y-123281015D01*
X140338985Y-123162481D01*
X140245853Y-123023100D01*
X140181703Y-122868228D01*
X140149000Y-122703816D01*
X140149000Y-122536184D01*
X140181703Y-122371772D01*
X140245853Y-122216900D01*
X140338985Y-122077519D01*
X140457519Y-121958985D01*
X140596900Y-121865853D01*
X140751772Y-121801703D01*
X140916184Y-121769000D01*
X141083816Y-121769000D01*
X141248228Y-121801703D01*
G37*
G36*
X145248228Y-121801703D02*
G01*
X145403100Y-121865853D01*
X145542481Y-121958985D01*
X145661015Y-122077519D01*
X145754147Y-122216900D01*
X145818297Y-122371772D01*
X145851000Y-122536184D01*
X145851000Y-122703816D01*
X145818297Y-122868228D01*
X145754147Y-123023100D01*
X145661015Y-123162481D01*
X145542481Y-123281015D01*
X145403100Y-123374147D01*
X145248228Y-123438297D01*
X145083816Y-123471000D01*
X144916184Y-123471000D01*
X144751772Y-123438297D01*
X144596900Y-123374147D01*
X144457519Y-123281015D01*
X144338985Y-123162481D01*
X144245853Y-123023100D01*
X144181703Y-122868228D01*
X144149000Y-122703816D01*
X144149000Y-122536184D01*
X144181703Y-122371772D01*
X144245853Y-122216900D01*
X144338985Y-122077519D01*
X144457519Y-121958985D01*
X144596900Y-121865853D01*
X144751772Y-121801703D01*
X144916184Y-121769000D01*
X145083816Y-121769000D01*
X145248228Y-121801703D01*
G37*
G36*
X137248228Y-121681703D02*
G01*
X137403100Y-121745853D01*
X137542481Y-121838985D01*
X137661015Y-121957519D01*
X137754147Y-122096900D01*
X137818297Y-122251772D01*
X137851000Y-122416184D01*
X137851000Y-122583816D01*
X137818297Y-122748228D01*
X137754147Y-122903100D01*
X137661015Y-123042481D01*
X137542481Y-123161015D01*
X137403100Y-123254147D01*
X137248228Y-123318297D01*
X137083816Y-123351000D01*
X136916184Y-123351000D01*
X136751772Y-123318297D01*
X136596900Y-123254147D01*
X136457519Y-123161015D01*
X136338985Y-123042481D01*
X136245853Y-122903100D01*
X136181703Y-122748228D01*
X136149000Y-122583816D01*
X136149000Y-122416184D01*
X136181703Y-122251772D01*
X136245853Y-122096900D01*
X136338985Y-121957519D01*
X136457519Y-121838985D01*
X136596900Y-121745853D01*
X136751772Y-121681703D01*
X136916184Y-121649000D01*
X137083816Y-121649000D01*
X137248228Y-121681703D01*
G37*
G36*
X133248228Y-121681703D02*
G01*
X133403100Y-121745853D01*
X133542481Y-121838985D01*
X133661015Y-121957519D01*
X133754147Y-122096900D01*
X133818297Y-122251772D01*
X133851000Y-122416184D01*
X133851000Y-122583816D01*
X133818297Y-122748228D01*
X133754147Y-122903100D01*
X133661015Y-123042481D01*
X133542481Y-123161015D01*
X133403100Y-123254147D01*
X133248228Y-123318297D01*
X133083816Y-123351000D01*
X132916184Y-123351000D01*
X132751772Y-123318297D01*
X132596900Y-123254147D01*
X132457519Y-123161015D01*
X132338985Y-123042481D01*
X132245853Y-122903100D01*
X132181703Y-122748228D01*
X132149000Y-122583816D01*
X132149000Y-122416184D01*
X132181703Y-122251772D01*
X132245853Y-122096900D01*
X132338985Y-121957519D01*
X132457519Y-121838985D01*
X132596900Y-121745853D01*
X132751772Y-121681703D01*
X132916184Y-121649000D01*
X133083816Y-121649000D01*
X133248228Y-121681703D01*
G37*
G36*
X129248228Y-121681703D02*
G01*
X129403100Y-121745853D01*
X129542481Y-121838985D01*
X129661015Y-121957519D01*
X129754147Y-122096900D01*
X129818297Y-122251772D01*
X129851000Y-122416184D01*
X129851000Y-122583816D01*
X129818297Y-122748228D01*
X129754147Y-122903100D01*
X129661015Y-123042481D01*
X129542481Y-123161015D01*
X129403100Y-123254147D01*
X129248228Y-123318297D01*
X129083816Y-123351000D01*
X128916184Y-123351000D01*
X128751772Y-123318297D01*
X128596900Y-123254147D01*
X128457519Y-123161015D01*
X128338985Y-123042481D01*
X128245853Y-122903100D01*
X128181703Y-122748228D01*
X128149000Y-122583816D01*
X128149000Y-122416184D01*
X128181703Y-122251772D01*
X128245853Y-122096900D01*
X128338985Y-121957519D01*
X128457519Y-121838985D01*
X128596900Y-121745853D01*
X128751772Y-121681703D01*
X128916184Y-121649000D01*
X129083816Y-121649000D01*
X129248228Y-121681703D01*
G37*
G36*
X152851000Y-123351000D02*
G01*
X151149000Y-123351000D01*
X151149000Y-121649000D01*
X152851000Y-121649000D01*
X152851000Y-123351000D01*
G37*
G36*
X148748228Y-121681703D02*
G01*
X148903100Y-121745853D01*
X149042481Y-121838985D01*
X149161015Y-121957519D01*
X149254147Y-122096900D01*
X149318297Y-122251772D01*
X149351000Y-122416184D01*
X149351000Y-122583816D01*
X149318297Y-122748228D01*
X149254147Y-122903100D01*
X149161015Y-123042481D01*
X149042481Y-123161015D01*
X148903100Y-123254147D01*
X148748228Y-123318297D01*
X148583816Y-123351000D01*
X148416184Y-123351000D01*
X148251772Y-123318297D01*
X148096900Y-123254147D01*
X147957519Y-123161015D01*
X147838985Y-123042481D01*
X147745853Y-122903100D01*
X147681703Y-122748228D01*
X147649000Y-122583816D01*
X147649000Y-122416184D01*
X147681703Y-122251772D01*
X147745853Y-122096900D01*
X147838985Y-121957519D01*
X147957519Y-121838985D01*
X148096900Y-121745853D01*
X148251772Y-121681703D01*
X148416184Y-121649000D01*
X148583816Y-121649000D01*
X148748228Y-121681703D01*
G37*
G36*
X169651000Y-122071000D02*
G01*
X167349000Y-122071000D01*
X167349000Y-119769000D01*
X169651000Y-119769000D01*
X169651000Y-122071000D01*
G37*
G36*
X176344549Y-119791116D02*
G01*
X176455734Y-119813232D01*
X176665203Y-119899997D01*
X176853720Y-120025960D01*
X177014040Y-120186280D01*
X177140003Y-120374797D01*
X177140004Y-120374799D01*
X177226768Y-120584267D01*
X177271000Y-120806635D01*
X177271000Y-121033365D01*
X177226768Y-121255733D01*
X177141131Y-121462481D01*
X177140003Y-121465203D01*
X177014040Y-121653720D01*
X176853720Y-121814040D01*
X176665203Y-121940003D01*
X176665202Y-121940004D01*
X176665201Y-121940004D01*
X176603850Y-121965416D01*
X176455734Y-122026768D01*
X176344549Y-122048884D01*
X176233365Y-122071000D01*
X176006635Y-122071000D01*
X175895451Y-122048884D01*
X175784266Y-122026768D01*
X175636150Y-121965416D01*
X175574799Y-121940004D01*
X175574798Y-121940004D01*
X175574797Y-121940003D01*
X175386280Y-121814040D01*
X175225960Y-121653720D01*
X175099997Y-121465203D01*
X175098870Y-121462481D01*
X175013232Y-121255733D01*
X174969000Y-121033365D01*
X174969000Y-120806635D01*
X175013232Y-120584267D01*
X175099996Y-120374799D01*
X175099997Y-120374797D01*
X175225960Y-120186280D01*
X175386280Y-120025960D01*
X175574797Y-119899997D01*
X175784266Y-119813232D01*
X175895451Y-119791116D01*
X176006635Y-119769000D01*
X176233365Y-119769000D01*
X176344549Y-119791116D01*
G37*
G36*
X162248228Y-120101703D02*
G01*
X162403100Y-120165853D01*
X162542481Y-120258985D01*
X162661015Y-120377519D01*
X162754147Y-120516900D01*
X162818297Y-120671772D01*
X162851000Y-120836184D01*
X162851000Y-121003816D01*
X162818297Y-121168228D01*
X162754147Y-121323100D01*
X162661015Y-121462481D01*
X162542481Y-121581015D01*
X162403100Y-121674147D01*
X162248228Y-121738297D01*
X162083816Y-121771000D01*
X161916184Y-121771000D01*
X161751772Y-121738297D01*
X161596900Y-121674147D01*
X161457519Y-121581015D01*
X161338985Y-121462481D01*
X161245853Y-121323100D01*
X161181703Y-121168228D01*
X161149000Y-121003816D01*
X161149000Y-120836184D01*
X161181703Y-120671772D01*
X161245853Y-120516900D01*
X161338985Y-120377519D01*
X161457519Y-120258985D01*
X161596900Y-120165853D01*
X161751772Y-120101703D01*
X161916184Y-120069000D01*
X162083816Y-120069000D01*
X162248228Y-120101703D01*
G37*
G36*
X164851000Y-121771000D02*
G01*
X163149000Y-121771000D01*
X163149000Y-120069000D01*
X164851000Y-120069000D01*
X164851000Y-121771000D01*
G37*
G36*
X118487412Y-115693215D02*
G01*
X118791514Y-115819178D01*
X119065199Y-116002049D01*
X119297951Y-116234801D01*
X119480822Y-116508486D01*
X119606785Y-116812588D01*
X119671000Y-117135420D01*
X119671000Y-117464580D01*
X119606785Y-117787412D01*
X119480822Y-118091514D01*
X119297951Y-118365199D01*
X119065199Y-118597951D01*
X118791514Y-118780822D01*
X118487412Y-118906785D01*
X118164580Y-118971000D01*
X117835420Y-118971000D01*
X117512588Y-118906785D01*
X117208486Y-118780822D01*
X116934801Y-118597951D01*
X116702049Y-118365199D01*
X116519178Y-118091514D01*
X116393215Y-117787412D01*
X116329000Y-117464580D01*
X116329000Y-117135420D01*
X116393215Y-116812588D01*
X116519178Y-116508486D01*
X116702049Y-116234801D01*
X116934801Y-116002049D01*
X117208486Y-115819178D01*
X117512588Y-115693215D01*
X117835420Y-115629000D01*
X118164580Y-115629000D01*
X118487412Y-115693215D01*
G37*
G36*
X111451000Y-115951000D02*
G01*
X109549000Y-115951000D01*
X109549000Y-114049000D01*
X111451000Y-114049000D01*
X111451000Y-115951000D01*
G37*
G36*
X141248228Y-114181703D02*
G01*
X141403100Y-114245853D01*
X141542481Y-114338985D01*
X141661015Y-114457519D01*
X141754147Y-114596900D01*
X141818297Y-114751772D01*
X141851000Y-114916184D01*
X141851000Y-115083816D01*
X141818297Y-115248228D01*
X141754147Y-115403100D01*
X141661015Y-115542481D01*
X141542481Y-115661015D01*
X141403100Y-115754147D01*
X141248228Y-115818297D01*
X141083816Y-115851000D01*
X140916184Y-115851000D01*
X140751772Y-115818297D01*
X140596900Y-115754147D01*
X140457519Y-115661015D01*
X140338985Y-115542481D01*
X140245853Y-115403100D01*
X140181703Y-115248228D01*
X140149000Y-115083816D01*
X140149000Y-114916184D01*
X140181703Y-114751772D01*
X140245853Y-114596900D01*
X140338985Y-114457519D01*
X140457519Y-114338985D01*
X140596900Y-114245853D01*
X140751772Y-114181703D01*
X140916184Y-114149000D01*
X141083816Y-114149000D01*
X141248228Y-114181703D01*
G37*
G36*
X145248228Y-114181703D02*
G01*
X145403100Y-114245853D01*
X145542481Y-114338985D01*
X145661015Y-114457519D01*
X145754147Y-114596900D01*
X145818297Y-114751772D01*
X145851000Y-114916184D01*
X145851000Y-115083816D01*
X145818297Y-115248228D01*
X145754147Y-115403100D01*
X145661015Y-115542481D01*
X145542481Y-115661015D01*
X145403100Y-115754147D01*
X145248228Y-115818297D01*
X145083816Y-115851000D01*
X144916184Y-115851000D01*
X144751772Y-115818297D01*
X144596900Y-115754147D01*
X144457519Y-115661015D01*
X144338985Y-115542481D01*
X144245853Y-115403100D01*
X144181703Y-115248228D01*
X144149000Y-115083816D01*
X144149000Y-114916184D01*
X144181703Y-114751772D01*
X144245853Y-114596900D01*
X144338985Y-114457519D01*
X144457519Y-114338985D01*
X144596900Y-114245853D01*
X144751772Y-114181703D01*
X144916184Y-114149000D01*
X145083816Y-114149000D01*
X145248228Y-114181703D01*
G37*
G36*
X125248228Y-114181703D02*
G01*
X125403100Y-114245853D01*
X125542481Y-114338985D01*
X125661015Y-114457519D01*
X125754147Y-114596900D01*
X125818297Y-114751772D01*
X125851000Y-114916184D01*
X125851000Y-115083816D01*
X125818297Y-115248228D01*
X125754147Y-115403100D01*
X125661015Y-115542481D01*
X125542481Y-115661015D01*
X125403100Y-115754147D01*
X125248228Y-115818297D01*
X125083816Y-115851000D01*
X124916184Y-115851000D01*
X124751772Y-115818297D01*
X124596900Y-115754147D01*
X124457519Y-115661015D01*
X124338985Y-115542481D01*
X124245853Y-115403100D01*
X124181703Y-115248228D01*
X124149000Y-115083816D01*
X124149000Y-114916184D01*
X124181703Y-114751772D01*
X124245853Y-114596900D01*
X124338985Y-114457519D01*
X124457519Y-114338985D01*
X124596900Y-114245853D01*
X124751772Y-114181703D01*
X124916184Y-114149000D01*
X125083816Y-114149000D01*
X125248228Y-114181703D01*
G37*
G36*
X133248228Y-114061703D02*
G01*
X133403100Y-114125853D01*
X133542481Y-114218985D01*
X133661015Y-114337519D01*
X133754147Y-114476900D01*
X133818297Y-114631772D01*
X133851000Y-114796184D01*
X133851000Y-114963816D01*
X133818297Y-115128228D01*
X133754147Y-115283100D01*
X133661015Y-115422481D01*
X133542481Y-115541015D01*
X133403100Y-115634147D01*
X133248228Y-115698297D01*
X133083816Y-115731000D01*
X132916184Y-115731000D01*
X132751772Y-115698297D01*
X132596900Y-115634147D01*
X132457519Y-115541015D01*
X132338985Y-115422481D01*
X132245853Y-115283100D01*
X132181703Y-115128228D01*
X132149000Y-114963816D01*
X132149000Y-114796184D01*
X132181703Y-114631772D01*
X132245853Y-114476900D01*
X132338985Y-114337519D01*
X132457519Y-114218985D01*
X132596900Y-114125853D01*
X132751772Y-114061703D01*
X132916184Y-114029000D01*
X133083816Y-114029000D01*
X133248228Y-114061703D01*
G37*
G36*
X149351000Y-115731000D02*
G01*
X147649000Y-115731000D01*
X147649000Y-114029000D01*
X149351000Y-114029000D01*
X149351000Y-115731000D01*
G37*
G36*
X129248228Y-114061703D02*
G01*
X129403100Y-114125853D01*
X129542481Y-114218985D01*
X129661015Y-114337519D01*
X129754147Y-114476900D01*
X129818297Y-114631772D01*
X129851000Y-114796184D01*
X129851000Y-114963816D01*
X129818297Y-115128228D01*
X129754147Y-115283100D01*
X129661015Y-115422481D01*
X129542481Y-115541015D01*
X129403100Y-115634147D01*
X129248228Y-115698297D01*
X129083816Y-115731000D01*
X128916184Y-115731000D01*
X128751772Y-115698297D01*
X128596900Y-115634147D01*
X128457519Y-115541015D01*
X128338985Y-115422481D01*
X128245853Y-115283100D01*
X128181703Y-115128228D01*
X128149000Y-114963816D01*
X128149000Y-114796184D01*
X128181703Y-114631772D01*
X128245853Y-114476900D01*
X128338985Y-114337519D01*
X128457519Y-114218985D01*
X128596900Y-114125853D01*
X128751772Y-114061703D01*
X128916184Y-114029000D01*
X129083816Y-114029000D01*
X129248228Y-114061703D01*
G37*
G36*
X152248228Y-114061703D02*
G01*
X152403100Y-114125853D01*
X152542481Y-114218985D01*
X152661015Y-114337519D01*
X152754147Y-114476900D01*
X152818297Y-114631772D01*
X152851000Y-114796184D01*
X152851000Y-114963816D01*
X152818297Y-115128228D01*
X152754147Y-115283100D01*
X152661015Y-115422481D01*
X152542481Y-115541015D01*
X152403100Y-115634147D01*
X152248228Y-115698297D01*
X152083816Y-115731000D01*
X151916184Y-115731000D01*
X151751772Y-115698297D01*
X151596900Y-115634147D01*
X151457519Y-115541015D01*
X151338985Y-115422481D01*
X151245853Y-115283100D01*
X151181703Y-115128228D01*
X151149000Y-114963816D01*
X151149000Y-114796184D01*
X151181703Y-114631772D01*
X151245853Y-114476900D01*
X151338985Y-114337519D01*
X151457519Y-114218985D01*
X151596900Y-114125853D01*
X151751772Y-114061703D01*
X151916184Y-114029000D01*
X152083816Y-114029000D01*
X152248228Y-114061703D01*
G37*
G36*
X137248228Y-114061703D02*
G01*
X137403100Y-114125853D01*
X137542481Y-114218985D01*
X137661015Y-114337519D01*
X137754147Y-114476900D01*
X137818297Y-114631772D01*
X137851000Y-114796184D01*
X137851000Y-114963816D01*
X137818297Y-115128228D01*
X137754147Y-115283100D01*
X137661015Y-115422481D01*
X137542481Y-115541015D01*
X137403100Y-115634147D01*
X137248228Y-115698297D01*
X137083816Y-115731000D01*
X136916184Y-115731000D01*
X136751772Y-115698297D01*
X136596900Y-115634147D01*
X136457519Y-115541015D01*
X136338985Y-115422481D01*
X136245853Y-115283100D01*
X136181703Y-115128228D01*
X136149000Y-114963816D01*
X136149000Y-114796184D01*
X136181703Y-114631772D01*
X136245853Y-114476900D01*
X136338985Y-114337519D01*
X136457519Y-114218985D01*
X136596900Y-114125853D01*
X136751772Y-114061703D01*
X136916184Y-114029000D01*
X137083816Y-114029000D01*
X137248228Y-114061703D01*
G37*
G36*
X173386778Y-112890547D02*
G01*
X173553224Y-112959491D01*
X173703022Y-113059583D01*
X173830417Y-113186978D01*
X173930509Y-113336776D01*
X173999453Y-113503222D01*
X174034600Y-113679918D01*
X174034600Y-113860082D01*
X173999453Y-114036778D01*
X173930509Y-114203224D01*
X173830417Y-114353022D01*
X173703022Y-114480417D01*
X173553224Y-114580509D01*
X173386778Y-114649453D01*
X173210082Y-114684600D01*
X173029918Y-114684600D01*
X172853222Y-114649453D01*
X172686776Y-114580509D01*
X172536978Y-114480417D01*
X172409583Y-114353022D01*
X172309491Y-114203224D01*
X172240547Y-114036778D01*
X172205400Y-113860082D01*
X172205400Y-113679918D01*
X172240547Y-113503222D01*
X172309491Y-113336776D01*
X172409583Y-113186978D01*
X172536978Y-113059583D01*
X172686776Y-112959491D01*
X172853222Y-112890547D01*
X173029918Y-112855400D01*
X173210082Y-112855400D01*
X173386778Y-112890547D01*
G37*
G36*
X168306778Y-112890547D02*
G01*
X168473224Y-112959491D01*
X168623022Y-113059583D01*
X168750417Y-113186978D01*
X168850509Y-113336776D01*
X168919453Y-113503222D01*
X168954600Y-113679918D01*
X168954600Y-113860082D01*
X168919453Y-114036778D01*
X168850509Y-114203224D01*
X168750417Y-114353022D01*
X168623022Y-114480417D01*
X168473224Y-114580509D01*
X168306778Y-114649453D01*
X168130082Y-114684600D01*
X167949918Y-114684600D01*
X167773222Y-114649453D01*
X167606776Y-114580509D01*
X167456978Y-114480417D01*
X167329583Y-114353022D01*
X167229491Y-114203224D01*
X167160547Y-114036778D01*
X167125400Y-113860082D01*
X167125400Y-113679918D01*
X167160547Y-113503222D01*
X167229491Y-113336776D01*
X167329583Y-113186978D01*
X167456978Y-113059583D01*
X167606776Y-112959491D01*
X167773222Y-112890547D01*
X167949918Y-112855400D01*
X168130082Y-112855400D01*
X168306778Y-112890547D01*
G37*
G36*
X170846778Y-112890547D02*
G01*
X171013224Y-112959491D01*
X171163022Y-113059583D01*
X171290417Y-113186978D01*
X171390509Y-113336776D01*
X171459453Y-113503222D01*
X171494600Y-113679918D01*
X171494600Y-113860082D01*
X171459453Y-114036778D01*
X171390509Y-114203224D01*
X171290417Y-114353022D01*
X171163022Y-114480417D01*
X171013224Y-114580509D01*
X170846778Y-114649453D01*
X170670082Y-114684600D01*
X170489918Y-114684600D01*
X170313222Y-114649453D01*
X170146776Y-114580509D01*
X169996978Y-114480417D01*
X169869583Y-114353022D01*
X169769491Y-114203224D01*
X169700547Y-114036778D01*
X169665400Y-113860082D01*
X169665400Y-113679918D01*
X169700547Y-113503222D01*
X169769491Y-113336776D01*
X169869583Y-113186978D01*
X169996978Y-113059583D01*
X170146776Y-112959491D01*
X170313222Y-112890547D01*
X170489918Y-112855400D01*
X170670082Y-112855400D01*
X170846778Y-112890547D01*
G37*
G36*
X166414600Y-114684600D02*
G01*
X164585400Y-114684600D01*
X164585400Y-112855400D01*
X166414600Y-112855400D01*
X166414600Y-114684600D01*
G37*
G36*
X175926778Y-112890547D02*
G01*
X176093224Y-112959491D01*
X176243022Y-113059583D01*
X176370417Y-113186978D01*
X176470509Y-113336776D01*
X176539453Y-113503222D01*
X176574600Y-113679918D01*
X176574600Y-113860082D01*
X176539453Y-114036778D01*
X176470509Y-114203224D01*
X176370417Y-114353022D01*
X176243022Y-114480417D01*
X176093224Y-114580509D01*
X175926778Y-114649453D01*
X175750082Y-114684600D01*
X175569918Y-114684600D01*
X175393222Y-114649453D01*
X175226776Y-114580509D01*
X175076978Y-114480417D01*
X174949583Y-114353022D01*
X174849491Y-114203224D01*
X174780547Y-114036778D01*
X174745400Y-113860082D01*
X174745400Y-113679918D01*
X174780547Y-113503222D01*
X174849491Y-113336776D01*
X174949583Y-113186978D01*
X175076978Y-113059583D01*
X175226776Y-112959491D01*
X175393222Y-112890547D01*
X175569918Y-112855400D01*
X175750082Y-112855400D01*
X175926778Y-112890547D01*
G37*
G36*
X185375256Y-110891298D02*
G01*
X185481579Y-110912447D01*
X185782042Y-111036903D01*
X186052451Y-111217585D01*
X186282415Y-111447549D01*
X186463097Y-111717958D01*
X186587553Y-112018421D01*
X186593742Y-112049534D01*
X186651000Y-112337389D01*
X186651000Y-112662611D01*
X186612652Y-112855400D01*
X186587553Y-112981579D01*
X186463097Y-113282042D01*
X186282415Y-113552451D01*
X186052451Y-113782415D01*
X185782042Y-113963097D01*
X185481579Y-114087553D01*
X185375256Y-114108702D01*
X185162611Y-114151000D01*
X184837389Y-114151000D01*
X184624744Y-114108702D01*
X184518421Y-114087553D01*
X184217958Y-113963097D01*
X183947549Y-113782415D01*
X183717585Y-113552451D01*
X183536903Y-113282042D01*
X183412447Y-112981579D01*
X183387348Y-112855400D01*
X183349000Y-112662611D01*
X183349000Y-112337389D01*
X183406258Y-112049534D01*
X183412447Y-112018421D01*
X183536903Y-111717958D01*
X183717585Y-111447549D01*
X183947549Y-111217585D01*
X184217958Y-111036903D01*
X184518421Y-110912447D01*
X184624744Y-110891298D01*
X184837389Y-110849000D01*
X185162611Y-110849000D01*
X185375256Y-110891298D01*
G37*
G36*
X110777395Y-111585546D02*
G01*
X110950466Y-111657234D01*
X110959432Y-111663225D01*
X111106227Y-111761310D01*
X111238690Y-111893773D01*
X111238691Y-111893775D01*
X111342766Y-112049534D01*
X111414454Y-112222605D01*
X111451000Y-112406333D01*
X111451000Y-112593667D01*
X111414454Y-112777395D01*
X111342766Y-112950466D01*
X111321977Y-112981579D01*
X111238690Y-113106227D01*
X111106227Y-113238690D01*
X111041349Y-113282040D01*
X110950466Y-113342766D01*
X110777395Y-113414454D01*
X110593667Y-113451000D01*
X110406333Y-113451000D01*
X110222605Y-113414454D01*
X110049534Y-113342766D01*
X109958651Y-113282040D01*
X109893773Y-113238690D01*
X109761310Y-113106227D01*
X109678023Y-112981579D01*
X109657234Y-112950466D01*
X109585546Y-112777395D01*
X109549000Y-112593667D01*
X109549000Y-112406333D01*
X109585546Y-112222605D01*
X109657234Y-112049534D01*
X109761309Y-111893775D01*
X109761310Y-111893773D01*
X109893773Y-111761310D01*
X110040568Y-111663225D01*
X110049534Y-111657234D01*
X110222605Y-111585546D01*
X110406333Y-111549000D01*
X110593667Y-111549000D01*
X110777395Y-111585546D01*
G37*
G36*
X128509561Y-110582966D02*
G01*
X128542383Y-110592923D01*
X128572632Y-110609092D01*
X128599148Y-110630852D01*
X128620908Y-110657368D01*
X128637077Y-110687617D01*
X128647034Y-110720439D01*
X128651000Y-110760713D01*
X128651000Y-112239287D01*
X128647034Y-112279561D01*
X128637077Y-112312383D01*
X128620908Y-112342632D01*
X128599148Y-112369148D01*
X128572632Y-112390908D01*
X128542383Y-112407077D01*
X128509561Y-112417034D01*
X128469287Y-112421000D01*
X126530713Y-112421000D01*
X126490439Y-112417034D01*
X126457617Y-112407077D01*
X126427368Y-112390908D01*
X126400852Y-112369148D01*
X126379092Y-112342632D01*
X126362923Y-112312383D01*
X126352966Y-112279561D01*
X126349000Y-112239287D01*
X126349000Y-110760713D01*
X126352966Y-110720439D01*
X126362923Y-110687617D01*
X126379092Y-110657368D01*
X126400852Y-110630852D01*
X126427368Y-110609092D01*
X126457617Y-110592923D01*
X126490439Y-110582966D01*
X126530713Y-110579000D01*
X128469287Y-110579000D01*
X128509561Y-110582966D01*
G37*
G36*
X146851000Y-112351000D02*
G01*
X145149000Y-112351000D01*
X145149000Y-110649000D01*
X146851000Y-110649000D01*
X146851000Y-112351000D01*
G37*
G36*
X138628228Y-110681703D02*
G01*
X138783100Y-110745853D01*
X138922481Y-110838985D01*
X139041015Y-110957519D01*
X139134147Y-111096900D01*
X139198297Y-111251772D01*
X139231000Y-111416184D01*
X139231000Y-111583816D01*
X139198297Y-111748228D01*
X139134147Y-111903100D01*
X139041015Y-112042481D01*
X138922481Y-112161015D01*
X138783100Y-112254147D01*
X138628228Y-112318297D01*
X138463816Y-112351000D01*
X138296184Y-112351000D01*
X138131772Y-112318297D01*
X137976900Y-112254147D01*
X137837519Y-112161015D01*
X137718985Y-112042481D01*
X137625853Y-111903100D01*
X137561703Y-111748228D01*
X137529000Y-111583816D01*
X137529000Y-111416184D01*
X137561703Y-111251772D01*
X137625853Y-111096900D01*
X137718985Y-110957519D01*
X137837519Y-110838985D01*
X137976900Y-110745853D01*
X138131772Y-110681703D01*
X138296184Y-110649000D01*
X138463816Y-110649000D01*
X138628228Y-110681703D01*
G37*
G36*
X165766778Y-110350547D02*
G01*
X165933224Y-110419491D01*
X166083022Y-110519583D01*
X166210417Y-110646978D01*
X166310509Y-110796776D01*
X166379453Y-110963222D01*
X166414600Y-111139918D01*
X166414600Y-111320082D01*
X166379453Y-111496778D01*
X166310509Y-111663224D01*
X166210417Y-111813022D01*
X166083022Y-111940417D01*
X165933224Y-112040509D01*
X165766778Y-112109453D01*
X165590082Y-112144600D01*
X165409918Y-112144600D01*
X165233222Y-112109453D01*
X165066776Y-112040509D01*
X164916978Y-111940417D01*
X164789583Y-111813022D01*
X164689491Y-111663224D01*
X164620547Y-111496778D01*
X164585400Y-111320082D01*
X164585400Y-111139918D01*
X164620547Y-110963222D01*
X164689491Y-110796776D01*
X164789583Y-110646978D01*
X164916978Y-110519583D01*
X165066776Y-110419491D01*
X165233222Y-110350547D01*
X165409918Y-110315400D01*
X165590082Y-110315400D01*
X165766778Y-110350547D01*
G37*
G36*
X168306778Y-110350547D02*
G01*
X168473224Y-110419491D01*
X168623022Y-110519583D01*
X168750417Y-110646978D01*
X168850509Y-110796776D01*
X168919453Y-110963222D01*
X168954600Y-111139918D01*
X168954600Y-111320082D01*
X168919453Y-111496778D01*
X168850509Y-111663224D01*
X168750417Y-111813022D01*
X168623022Y-111940417D01*
X168473224Y-112040509D01*
X168306778Y-112109453D01*
X168130082Y-112144600D01*
X167949918Y-112144600D01*
X167773222Y-112109453D01*
X167606776Y-112040509D01*
X167456978Y-111940417D01*
X167329583Y-111813022D01*
X167229491Y-111663224D01*
X167160547Y-111496778D01*
X167125400Y-111320082D01*
X167125400Y-111139918D01*
X167160547Y-110963222D01*
X167229491Y-110796776D01*
X167329583Y-110646978D01*
X167456978Y-110519583D01*
X167606776Y-110419491D01*
X167773222Y-110350547D01*
X167949918Y-110315400D01*
X168130082Y-110315400D01*
X168306778Y-110350547D01*
G37*
G36*
X173386778Y-110350547D02*
G01*
X173553224Y-110419491D01*
X173703022Y-110519583D01*
X173830417Y-110646978D01*
X173930509Y-110796776D01*
X173999453Y-110963222D01*
X174034600Y-111139918D01*
X174034600Y-111320082D01*
X173999453Y-111496778D01*
X173930509Y-111663224D01*
X173830417Y-111813022D01*
X173703022Y-111940417D01*
X173553224Y-112040509D01*
X173386778Y-112109453D01*
X173210082Y-112144600D01*
X173029918Y-112144600D01*
X172853222Y-112109453D01*
X172686776Y-112040509D01*
X172536978Y-111940417D01*
X172409583Y-111813022D01*
X172309491Y-111663224D01*
X172240547Y-111496778D01*
X172205400Y-111320082D01*
X172205400Y-111139918D01*
X172240547Y-110963222D01*
X172309491Y-110796776D01*
X172409583Y-110646978D01*
X172536978Y-110519583D01*
X172686776Y-110419491D01*
X172853222Y-110350547D01*
X173029918Y-110315400D01*
X173210082Y-110315400D01*
X173386778Y-110350547D01*
G37*
G36*
X170846778Y-110350547D02*
G01*
X171013224Y-110419491D01*
X171163022Y-110519583D01*
X171290417Y-110646978D01*
X171390509Y-110796776D01*
X171459453Y-110963222D01*
X171494600Y-111139918D01*
X171494600Y-111320082D01*
X171459453Y-111496778D01*
X171390509Y-111663224D01*
X171290417Y-111813022D01*
X171163022Y-111940417D01*
X171013224Y-112040509D01*
X170846778Y-112109453D01*
X170670082Y-112144600D01*
X170489918Y-112144600D01*
X170313222Y-112109453D01*
X170146776Y-112040509D01*
X169996978Y-111940417D01*
X169869583Y-111813022D01*
X169769491Y-111663224D01*
X169700547Y-111496778D01*
X169665400Y-111320082D01*
X169665400Y-111139918D01*
X169700547Y-110963222D01*
X169769491Y-110796776D01*
X169869583Y-110646978D01*
X169996978Y-110519583D01*
X170146776Y-110419491D01*
X170313222Y-110350547D01*
X170489918Y-110315400D01*
X170670082Y-110315400D01*
X170846778Y-110350547D01*
G37*
G36*
X175926778Y-110350547D02*
G01*
X176093224Y-110419491D01*
X176243022Y-110519583D01*
X176370417Y-110646978D01*
X176470509Y-110796776D01*
X176539453Y-110963222D01*
X176574600Y-111139918D01*
X176574600Y-111320082D01*
X176539453Y-111496778D01*
X176470509Y-111663224D01*
X176370417Y-111813022D01*
X176243022Y-111940417D01*
X176093224Y-112040509D01*
X175926778Y-112109453D01*
X175750082Y-112144600D01*
X175569918Y-112144600D01*
X175393222Y-112109453D01*
X175226776Y-112040509D01*
X175076978Y-111940417D01*
X174949583Y-111813022D01*
X174849491Y-111663224D01*
X174780547Y-111496778D01*
X174745400Y-111320082D01*
X174745400Y-111139918D01*
X174780547Y-110963222D01*
X174849491Y-110796776D01*
X174949583Y-110646978D01*
X175076978Y-110519583D01*
X175226776Y-110419491D01*
X175393222Y-110350547D01*
X175569918Y-110315400D01*
X175750082Y-110315400D01*
X175926778Y-110350547D01*
G37*
G36*
X110777395Y-109085546D02*
G01*
X110950466Y-109157234D01*
X110950467Y-109157235D01*
X111106227Y-109261310D01*
X111238690Y-109393773D01*
X111244920Y-109403097D01*
X111342766Y-109549534D01*
X111414454Y-109722605D01*
X111451000Y-109906333D01*
X111451000Y-110093667D01*
X111414454Y-110277395D01*
X111342766Y-110450466D01*
X111342765Y-110450467D01*
X111238690Y-110606227D01*
X111106227Y-110738690D01*
X111073267Y-110760713D01*
X110950466Y-110842766D01*
X110777395Y-110914454D01*
X110593667Y-110951000D01*
X110406333Y-110951000D01*
X110222605Y-110914454D01*
X110049534Y-110842766D01*
X109926733Y-110760713D01*
X109893773Y-110738690D01*
X109761310Y-110606227D01*
X109657235Y-110450467D01*
X109657234Y-110450466D01*
X109585546Y-110277395D01*
X109549000Y-110093667D01*
X109549000Y-109906333D01*
X109585546Y-109722605D01*
X109657234Y-109549534D01*
X109755080Y-109403097D01*
X109761310Y-109393773D01*
X109893773Y-109261310D01*
X110049533Y-109157235D01*
X110049534Y-109157234D01*
X110222605Y-109085546D01*
X110406333Y-109049000D01*
X110593667Y-109049000D01*
X110777395Y-109085546D01*
G37*
G36*
X127820345Y-108043442D02*
G01*
X127910548Y-108052326D01*
X128084157Y-108104990D01*
X128244156Y-108190511D01*
X128262850Y-108205853D01*
X128384397Y-108305603D01*
X128463729Y-108402271D01*
X128499489Y-108445844D01*
X128549816Y-108540000D01*
X128580232Y-108596903D01*
X128585010Y-108605843D01*
X128637674Y-108779452D01*
X128655456Y-108960000D01*
X128637674Y-109140548D01*
X128585010Y-109314157D01*
X128499489Y-109474156D01*
X128476244Y-109502480D01*
X128384397Y-109614397D01*
X128287729Y-109693729D01*
X128244156Y-109729489D01*
X128084157Y-109815010D01*
X127910548Y-109867674D01*
X127820345Y-109876558D01*
X127775245Y-109881000D01*
X127224755Y-109881000D01*
X127179655Y-109876558D01*
X127089452Y-109867674D01*
X126915843Y-109815010D01*
X126755844Y-109729489D01*
X126712271Y-109693729D01*
X126615603Y-109614397D01*
X126523756Y-109502480D01*
X126500511Y-109474156D01*
X126414990Y-109314157D01*
X126362326Y-109140548D01*
X126344544Y-108960000D01*
X126362326Y-108779452D01*
X126414990Y-108605843D01*
X126419769Y-108596903D01*
X126450184Y-108540000D01*
X126500511Y-108445844D01*
X126536271Y-108402271D01*
X126615603Y-108305603D01*
X126737150Y-108205853D01*
X126755844Y-108190511D01*
X126915843Y-108104990D01*
X127089452Y-108052326D01*
X127179655Y-108043442D01*
X127224755Y-108039000D01*
X127775245Y-108039000D01*
X127820345Y-108043442D01*
G37*
G36*
X135248228Y-108181703D02*
G01*
X135403100Y-108245853D01*
X135542481Y-108338985D01*
X135661015Y-108457519D01*
X135754147Y-108596900D01*
X135818297Y-108751772D01*
X135851000Y-108916184D01*
X135851000Y-109083816D01*
X135818297Y-109248228D01*
X135754147Y-109403100D01*
X135661015Y-109542481D01*
X135542481Y-109661015D01*
X135403100Y-109754147D01*
X135248228Y-109818297D01*
X135083816Y-109851000D01*
X134916184Y-109851000D01*
X134751772Y-109818297D01*
X134596900Y-109754147D01*
X134457519Y-109661015D01*
X134338985Y-109542481D01*
X134245853Y-109403100D01*
X134181703Y-109248228D01*
X134149000Y-109083816D01*
X134149000Y-108916184D01*
X134181703Y-108751772D01*
X134245853Y-108596900D01*
X134338985Y-108457519D01*
X134457519Y-108338985D01*
X134596900Y-108245853D01*
X134751772Y-108181703D01*
X134916184Y-108149000D01*
X135083816Y-108149000D01*
X135248228Y-108181703D01*
G37*
G36*
X149748228Y-108181703D02*
G01*
X149903100Y-108245853D01*
X150042481Y-108338985D01*
X150161015Y-108457519D01*
X150254147Y-108596900D01*
X150318297Y-108751772D01*
X150351000Y-108916184D01*
X150351000Y-109083816D01*
X150318297Y-109248228D01*
X150254147Y-109403100D01*
X150161015Y-109542481D01*
X150042481Y-109661015D01*
X149903100Y-109754147D01*
X149748228Y-109818297D01*
X149583816Y-109851000D01*
X149416184Y-109851000D01*
X149251772Y-109818297D01*
X149096900Y-109754147D01*
X148957519Y-109661015D01*
X148838985Y-109542481D01*
X148745853Y-109403100D01*
X148681703Y-109248228D01*
X148649000Y-109083816D01*
X148649000Y-108916184D01*
X148681703Y-108751772D01*
X148745853Y-108596900D01*
X148838985Y-108457519D01*
X148957519Y-108338985D01*
X149096900Y-108245853D01*
X149251772Y-108181703D01*
X149416184Y-108149000D01*
X149583816Y-108149000D01*
X149748228Y-108181703D01*
G37*
G36*
X146248228Y-108141703D02*
G01*
X146403100Y-108205853D01*
X146542481Y-108298985D01*
X146661015Y-108417519D01*
X146754147Y-108556900D01*
X146818297Y-108711772D01*
X146851000Y-108876184D01*
X146851000Y-109043816D01*
X146818297Y-109208228D01*
X146754147Y-109363100D01*
X146661015Y-109502481D01*
X146542481Y-109621015D01*
X146403100Y-109714147D01*
X146248228Y-109778297D01*
X146083816Y-109811000D01*
X145916184Y-109811000D01*
X145751772Y-109778297D01*
X145596900Y-109714147D01*
X145457519Y-109621015D01*
X145338985Y-109502481D01*
X145245853Y-109363100D01*
X145181703Y-109208228D01*
X145149000Y-109043816D01*
X145149000Y-108876184D01*
X145181703Y-108711772D01*
X145245853Y-108556900D01*
X145338985Y-108417519D01*
X145457519Y-108298985D01*
X145596900Y-108205853D01*
X145751772Y-108141703D01*
X145916184Y-108109000D01*
X146083816Y-108109000D01*
X146248228Y-108141703D01*
G37*
G36*
X138628228Y-108141703D02*
G01*
X138783100Y-108205853D01*
X138922481Y-108298985D01*
X139041015Y-108417519D01*
X139134147Y-108556900D01*
X139198297Y-108711772D01*
X139231000Y-108876184D01*
X139231000Y-109043816D01*
X139198297Y-109208228D01*
X139134147Y-109363100D01*
X139041015Y-109502481D01*
X138922481Y-109621015D01*
X138783100Y-109714147D01*
X138628228Y-109778297D01*
X138463816Y-109811000D01*
X138296184Y-109811000D01*
X138131772Y-109778297D01*
X137976900Y-109714147D01*
X137837519Y-109621015D01*
X137718985Y-109502481D01*
X137625853Y-109363100D01*
X137561703Y-109208228D01*
X137529000Y-109043816D01*
X137529000Y-108876184D01*
X137561703Y-108711772D01*
X137625853Y-108556900D01*
X137718985Y-108417519D01*
X137837519Y-108298985D01*
X137976900Y-108205853D01*
X138131772Y-108141703D01*
X138296184Y-108109000D01*
X138463816Y-108109000D01*
X138628228Y-108141703D01*
G37*
G36*
X156820345Y-107623442D02*
G01*
X156910548Y-107632326D01*
X157084157Y-107684990D01*
X157244156Y-107770511D01*
X157287729Y-107806271D01*
X157384397Y-107885603D01*
X157463729Y-107982271D01*
X157499489Y-108025844D01*
X157585010Y-108185843D01*
X157637674Y-108359452D01*
X157655456Y-108540000D01*
X157637674Y-108720548D01*
X157585010Y-108894157D01*
X157499489Y-109054156D01*
X157473727Y-109085547D01*
X157384397Y-109194397D01*
X157302863Y-109261309D01*
X157244156Y-109309489D01*
X157084157Y-109395010D01*
X156910548Y-109447674D01*
X156820345Y-109456558D01*
X156775245Y-109461000D01*
X156224755Y-109461000D01*
X156179655Y-109456558D01*
X156089452Y-109447674D01*
X155915843Y-109395010D01*
X155755844Y-109309489D01*
X155697137Y-109261309D01*
X155615603Y-109194397D01*
X155526273Y-109085547D01*
X155500511Y-109054156D01*
X155414990Y-108894157D01*
X155362326Y-108720548D01*
X155344544Y-108540000D01*
X155362326Y-108359452D01*
X155414990Y-108185843D01*
X155500511Y-108025844D01*
X155536271Y-107982271D01*
X155615603Y-107885603D01*
X155712271Y-107806271D01*
X155755844Y-107770511D01*
X155915843Y-107684990D01*
X156089452Y-107632326D01*
X156179655Y-107623442D01*
X156224755Y-107619000D01*
X156775245Y-107619000D01*
X156820345Y-107623442D01*
G37*
G36*
X118487412Y-106093215D02*
G01*
X118791514Y-106219178D01*
X119065199Y-106402049D01*
X119297951Y-106634801D01*
X119480822Y-106908486D01*
X119606785Y-107212588D01*
X119671000Y-107535420D01*
X119671000Y-107864580D01*
X119606785Y-108187412D01*
X119480822Y-108491514D01*
X119297951Y-108765199D01*
X119065199Y-108997951D01*
X118791514Y-109180822D01*
X118487412Y-109306785D01*
X118164580Y-109371000D01*
X117835420Y-109371000D01*
X117512588Y-109306785D01*
X117208486Y-109180822D01*
X116934801Y-108997951D01*
X116702049Y-108765199D01*
X116519178Y-108491514D01*
X116393215Y-108187412D01*
X116329000Y-107864580D01*
X116329000Y-107535420D01*
X116393215Y-107212588D01*
X116519178Y-106908486D01*
X116702049Y-106634801D01*
X116934801Y-106402049D01*
X117208486Y-106219178D01*
X117512588Y-106093215D01*
X117835420Y-106029000D01*
X118164580Y-106029000D01*
X118487412Y-106093215D01*
G37*
G36*
X135248228Y-105681703D02*
G01*
X135403100Y-105745853D01*
X135542481Y-105838985D01*
X135661015Y-105957519D01*
X135754147Y-106096900D01*
X135818297Y-106251772D01*
X135851000Y-106416184D01*
X135851000Y-106583816D01*
X135818297Y-106748228D01*
X135754147Y-106903100D01*
X135661015Y-107042481D01*
X135542481Y-107161015D01*
X135403100Y-107254147D01*
X135248228Y-107318297D01*
X135083816Y-107351000D01*
X134916184Y-107351000D01*
X134751772Y-107318297D01*
X134596900Y-107254147D01*
X134457519Y-107161015D01*
X134338985Y-107042481D01*
X134245853Y-106903100D01*
X134181703Y-106748228D01*
X134149000Y-106583816D01*
X134149000Y-106416184D01*
X134181703Y-106251772D01*
X134245853Y-106096900D01*
X134338985Y-105957519D01*
X134457519Y-105838985D01*
X134596900Y-105745853D01*
X134751772Y-105681703D01*
X134916184Y-105649000D01*
X135083816Y-105649000D01*
X135248228Y-105681703D01*
G37*
G36*
X149748228Y-105681703D02*
G01*
X149903100Y-105745853D01*
X150042481Y-105838985D01*
X150161015Y-105957519D01*
X150254147Y-106096900D01*
X150318297Y-106251772D01*
X150351000Y-106416184D01*
X150351000Y-106583816D01*
X150318297Y-106748228D01*
X150254147Y-106903100D01*
X150161015Y-107042481D01*
X150042481Y-107161015D01*
X149903100Y-107254147D01*
X149748228Y-107318297D01*
X149583816Y-107351000D01*
X149416184Y-107351000D01*
X149251772Y-107318297D01*
X149096900Y-107254147D01*
X148957519Y-107161015D01*
X148838985Y-107042481D01*
X148745853Y-106903100D01*
X148681703Y-106748228D01*
X148649000Y-106583816D01*
X148649000Y-106416184D01*
X148681703Y-106251772D01*
X148745853Y-106096900D01*
X148838985Y-105957519D01*
X148957519Y-105838985D01*
X149096900Y-105745853D01*
X149251772Y-105681703D01*
X149416184Y-105649000D01*
X149583816Y-105649000D01*
X149748228Y-105681703D01*
G37*
G36*
X146248228Y-105601703D02*
G01*
X146403100Y-105665853D01*
X146542481Y-105758985D01*
X146661015Y-105877519D01*
X146754147Y-106016900D01*
X146818297Y-106171772D01*
X146851000Y-106336184D01*
X146851000Y-106503816D01*
X146818297Y-106668228D01*
X146754147Y-106823100D01*
X146661015Y-106962481D01*
X146542481Y-107081015D01*
X146403100Y-107174147D01*
X146248228Y-107238297D01*
X146083816Y-107271000D01*
X145916184Y-107271000D01*
X145751772Y-107238297D01*
X145596900Y-107174147D01*
X145457519Y-107081015D01*
X145338985Y-106962481D01*
X145245853Y-106823100D01*
X145181703Y-106668228D01*
X145149000Y-106503816D01*
X145149000Y-106336184D01*
X145181703Y-106171772D01*
X145245853Y-106016900D01*
X145338985Y-105877519D01*
X145457519Y-105758985D01*
X145596900Y-105665853D01*
X145751772Y-105601703D01*
X145916184Y-105569000D01*
X146083816Y-105569000D01*
X146248228Y-105601703D01*
G37*
G36*
X138628228Y-105601703D02*
G01*
X138783100Y-105665853D01*
X138922481Y-105758985D01*
X139041015Y-105877519D01*
X139134147Y-106016900D01*
X139198297Y-106171772D01*
X139231000Y-106336184D01*
X139231000Y-106503816D01*
X139198297Y-106668228D01*
X139134147Y-106823100D01*
X139041015Y-106962481D01*
X138922481Y-107081015D01*
X138783100Y-107174147D01*
X138628228Y-107238297D01*
X138463816Y-107271000D01*
X138296184Y-107271000D01*
X138131772Y-107238297D01*
X137976900Y-107174147D01*
X137837519Y-107081015D01*
X137718985Y-106962481D01*
X137625853Y-106823100D01*
X137561703Y-106668228D01*
X137529000Y-106503816D01*
X137529000Y-106336184D01*
X137561703Y-106171772D01*
X137625853Y-106016900D01*
X137718985Y-105877519D01*
X137837519Y-105758985D01*
X137976900Y-105665853D01*
X138131772Y-105601703D01*
X138296184Y-105569000D01*
X138463816Y-105569000D01*
X138628228Y-105601703D01*
G37*
G36*
X157509561Y-105082966D02*
G01*
X157542383Y-105092923D01*
X157572632Y-105109092D01*
X157599148Y-105130852D01*
X157620908Y-105157368D01*
X157637077Y-105187617D01*
X157647034Y-105220439D01*
X157651000Y-105260713D01*
X157651000Y-106739287D01*
X157647034Y-106779561D01*
X157637077Y-106812383D01*
X157620908Y-106842632D01*
X157599148Y-106869148D01*
X157572632Y-106890908D01*
X157542383Y-106907077D01*
X157509561Y-106917034D01*
X157469287Y-106921000D01*
X155530713Y-106921000D01*
X155490439Y-106917034D01*
X155457617Y-106907077D01*
X155427368Y-106890908D01*
X155400852Y-106869148D01*
X155379092Y-106842632D01*
X155362923Y-106812383D01*
X155352966Y-106779561D01*
X155349000Y-106739287D01*
X155349000Y-105260713D01*
X155352966Y-105220439D01*
X155362923Y-105187617D01*
X155379092Y-105157368D01*
X155400852Y-105130852D01*
X155427368Y-105109092D01*
X155457617Y-105092923D01*
X155490439Y-105082966D01*
X155530713Y-105079000D01*
X157469287Y-105079000D01*
X157509561Y-105082966D01*
G37*
G36*
X177651000Y-105651000D02*
G01*
X175349000Y-105651000D01*
X175349000Y-103349000D01*
X177651000Y-103349000D01*
X177651000Y-105651000D01*
G37*
G36*
X169104549Y-103371116D02*
G01*
X169215734Y-103393232D01*
X169363850Y-103454584D01*
X169417734Y-103476903D01*
X169425203Y-103479997D01*
X169613720Y-103605960D01*
X169774040Y-103766280D01*
X169900003Y-103954797D01*
X169900004Y-103954799D01*
X169903739Y-103963816D01*
X169971841Y-104128228D01*
X169986768Y-104164267D01*
X170031000Y-104386635D01*
X170031000Y-104613365D01*
X169986768Y-104835733D01*
X169901131Y-105042481D01*
X169900003Y-105045203D01*
X169774040Y-105233720D01*
X169613720Y-105394040D01*
X169425203Y-105520003D01*
X169215734Y-105606768D01*
X169104549Y-105628884D01*
X168993365Y-105651000D01*
X168766635Y-105651000D01*
X168655451Y-105628884D01*
X168544266Y-105606768D01*
X168334797Y-105520003D01*
X168146280Y-105394040D01*
X167985960Y-105233720D01*
X167859997Y-105045203D01*
X167858870Y-105042481D01*
X167773232Y-104835733D01*
X167729000Y-104613365D01*
X167729000Y-104386635D01*
X167773232Y-104164267D01*
X167788160Y-104128228D01*
X167856261Y-103963816D01*
X167859996Y-103954799D01*
X167859997Y-103954797D01*
X167985960Y-103766280D01*
X168146280Y-103605960D01*
X168334797Y-103479997D01*
X168342267Y-103476903D01*
X168396150Y-103454584D01*
X168544266Y-103393232D01*
X168655451Y-103371116D01*
X168766635Y-103349000D01*
X168993365Y-103349000D01*
X169104549Y-103371116D01*
G37*
G36*
X164248228Y-103681703D02*
G01*
X164403100Y-103745853D01*
X164542481Y-103838985D01*
X164661015Y-103957519D01*
X164754147Y-104096900D01*
X164818297Y-104251772D01*
X164851000Y-104416184D01*
X164851000Y-104583816D01*
X164818297Y-104748228D01*
X164754147Y-104903100D01*
X164661015Y-105042481D01*
X164542481Y-105161015D01*
X164403100Y-105254147D01*
X164248228Y-105318297D01*
X164083816Y-105351000D01*
X163916184Y-105351000D01*
X163751772Y-105318297D01*
X163596900Y-105254147D01*
X163457519Y-105161015D01*
X163338985Y-105042481D01*
X163245853Y-104903100D01*
X163181703Y-104748228D01*
X163149000Y-104583816D01*
X163149000Y-104416184D01*
X163181703Y-104251772D01*
X163245853Y-104096900D01*
X163338985Y-103957519D01*
X163457519Y-103838985D01*
X163596900Y-103745853D01*
X163751772Y-103681703D01*
X163916184Y-103649000D01*
X164083816Y-103649000D01*
X164248228Y-103681703D01*
G37*
G36*
X162851000Y-105351000D02*
G01*
X161149000Y-105351000D01*
X161149000Y-103649000D01*
X162851000Y-103649000D01*
X162851000Y-105351000D01*
G37*
G36*
X138628228Y-103061703D02*
G01*
X138783100Y-103125853D01*
X138922481Y-103218985D01*
X139041015Y-103337519D01*
X139134147Y-103476900D01*
X139198297Y-103631772D01*
X139231000Y-103796184D01*
X139231000Y-103963816D01*
X139198297Y-104128228D01*
X139134147Y-104283100D01*
X139041015Y-104422481D01*
X138922481Y-104541015D01*
X138783100Y-104634147D01*
X138628228Y-104698297D01*
X138463816Y-104731000D01*
X138296184Y-104731000D01*
X138131772Y-104698297D01*
X137976900Y-104634147D01*
X137837519Y-104541015D01*
X137718985Y-104422481D01*
X137625853Y-104283100D01*
X137561703Y-104128228D01*
X137529000Y-103963816D01*
X137529000Y-103796184D01*
X137561703Y-103631772D01*
X137625853Y-103476900D01*
X137718985Y-103337519D01*
X137837519Y-103218985D01*
X137976900Y-103125853D01*
X138131772Y-103061703D01*
X138296184Y-103029000D01*
X138463816Y-103029000D01*
X138628228Y-103061703D01*
G37*
G36*
X146248228Y-103061703D02*
G01*
X146403100Y-103125853D01*
X146542481Y-103218985D01*
X146661015Y-103337519D01*
X146754147Y-103476900D01*
X146818297Y-103631772D01*
X146851000Y-103796184D01*
X146851000Y-103963816D01*
X146818297Y-104128228D01*
X146754147Y-104283100D01*
X146661015Y-104422481D01*
X146542481Y-104541015D01*
X146403100Y-104634147D01*
X146248228Y-104698297D01*
X146083816Y-104731000D01*
X145916184Y-104731000D01*
X145751772Y-104698297D01*
X145596900Y-104634147D01*
X145457519Y-104541015D01*
X145338985Y-104422481D01*
X145245853Y-104283100D01*
X145181703Y-104128228D01*
X145149000Y-103963816D01*
X145149000Y-103796184D01*
X145181703Y-103631772D01*
X145245853Y-103476900D01*
X145338985Y-103337519D01*
X145457519Y-103218985D01*
X145596900Y-103125853D01*
X145751772Y-103061703D01*
X145916184Y-103029000D01*
X146083816Y-103029000D01*
X146248228Y-103061703D01*
G37*
M02*
