G04 #@! TF.GenerationSoftware,KiCad,Pcbnew,5.1.5-52549c5~84~ubuntu18.04.1*
G04 #@! TF.CreationDate,2020-03-23T11:13:26-04:00*
G04 #@! TF.ProjectId,Mikrokosmos,4d696b72-6f6b-46f7-936d-6f732e6b6963,rev?*
G04 #@! TF.SameCoordinates,Original*
G04 #@! TF.FileFunction,Legend,Top*
G04 #@! TF.FilePolarity,Positive*
%FSLAX46Y46*%
G04 Gerber Fmt 4.6, Leading zero omitted, Abs format (unit mm)*
G04 Created by KiCad (PCBNEW 5.1.5-52549c5~84~ubuntu18.04.1) date 2020-03-23 11:13:26*
%MOMM*%
%LPD*%
G04 APERTURE LIST*
%ADD10C,0.150000*%
%ADD11C,0.120000*%
G04 APERTURE END LIST*
D10*
X143452380Y-132722380D02*
X143642857Y-132722380D01*
X143738095Y-132674761D01*
X143785714Y-132627142D01*
X143880952Y-132484285D01*
X143928571Y-132293809D01*
X143928571Y-131912857D01*
X143880952Y-131817619D01*
X143833333Y-131770000D01*
X143738095Y-131722380D01*
X143547619Y-131722380D01*
X143452380Y-131770000D01*
X143404761Y-131817619D01*
X143357142Y-131912857D01*
X143357142Y-132150952D01*
X143404761Y-132246190D01*
X143452380Y-132293809D01*
X143547619Y-132341428D01*
X143738095Y-132341428D01*
X143833333Y-132293809D01*
X143880952Y-132246190D01*
X143928571Y-132150952D01*
X144833333Y-131722380D02*
X144357142Y-131722380D01*
X144309523Y-132198571D01*
X144357142Y-132150952D01*
X144452380Y-132103333D01*
X144690476Y-132103333D01*
X144785714Y-132150952D01*
X144833333Y-132198571D01*
X144880952Y-132293809D01*
X144880952Y-132531904D01*
X144833333Y-132627142D01*
X144785714Y-132674761D01*
X144690476Y-132722380D01*
X144452380Y-132722380D01*
X144357142Y-132674761D01*
X144309523Y-132627142D01*
X145309523Y-132627142D02*
X145357142Y-132674761D01*
X145309523Y-132722380D01*
X145261904Y-132674761D01*
X145309523Y-132627142D01*
X145309523Y-132722380D01*
X145976190Y-131722380D02*
X146071428Y-131722380D01*
X146166666Y-131770000D01*
X146214285Y-131817619D01*
X146261904Y-131912857D01*
X146309523Y-132103333D01*
X146309523Y-132341428D01*
X146261904Y-132531904D01*
X146214285Y-132627142D01*
X146166666Y-132674761D01*
X146071428Y-132722380D01*
X145976190Y-132722380D01*
X145880952Y-132674761D01*
X145833333Y-132627142D01*
X145785714Y-132531904D01*
X145738095Y-132341428D01*
X145738095Y-132103333D01*
X145785714Y-131912857D01*
X145833333Y-131817619D01*
X145880952Y-131770000D01*
X145976190Y-131722380D01*
X146928571Y-131722380D02*
X147023809Y-131722380D01*
X147119047Y-131770000D01*
X147166666Y-131817619D01*
X147214285Y-131912857D01*
X147261904Y-132103333D01*
X147261904Y-132341428D01*
X147214285Y-132531904D01*
X147166666Y-132627142D01*
X147119047Y-132674761D01*
X147023809Y-132722380D01*
X146928571Y-132722380D01*
X146833333Y-132674761D01*
X146785714Y-132627142D01*
X146738095Y-132531904D01*
X146690476Y-132341428D01*
X146690476Y-132103333D01*
X146738095Y-131912857D01*
X146785714Y-131817619D01*
X146833333Y-131770000D01*
X146928571Y-131722380D01*
X147880952Y-131722380D02*
X147976190Y-131722380D01*
X148071428Y-131770000D01*
X148119047Y-131817619D01*
X148166666Y-131912857D01*
X148214285Y-132103333D01*
X148214285Y-132341428D01*
X148166666Y-132531904D01*
X148119047Y-132627142D01*
X148071428Y-132674761D01*
X147976190Y-132722380D01*
X147880952Y-132722380D01*
X147785714Y-132674761D01*
X147738095Y-132627142D01*
X147690476Y-132531904D01*
X147642857Y-132341428D01*
X147642857Y-132103333D01*
X147690476Y-131912857D01*
X147738095Y-131817619D01*
X147785714Y-131770000D01*
X147880952Y-131722380D01*
X149404761Y-132722380D02*
X149404761Y-132055714D01*
X149404761Y-132150952D02*
X149452380Y-132103333D01*
X149547619Y-132055714D01*
X149690476Y-132055714D01*
X149785714Y-132103333D01*
X149833333Y-132198571D01*
X149833333Y-132722380D01*
X149833333Y-132198571D02*
X149880952Y-132103333D01*
X149976190Y-132055714D01*
X150119047Y-132055714D01*
X150214285Y-132103333D01*
X150261904Y-132198571D01*
X150261904Y-132722380D01*
X150738095Y-132722380D02*
X150738095Y-132055714D01*
X150738095Y-132150952D02*
X150785714Y-132103333D01*
X150880952Y-132055714D01*
X151023809Y-132055714D01*
X151119047Y-132103333D01*
X151166666Y-132198571D01*
X151166666Y-132722380D01*
X151166666Y-132198571D02*
X151214285Y-132103333D01*
X151309523Y-132055714D01*
X151452380Y-132055714D01*
X151547619Y-132103333D01*
X151595238Y-132198571D01*
X151595238Y-132722380D01*
D11*
X100000000Y-131000000D02*
X195000000Y-131000000D01*
X100000000Y-125000000D02*
X100000000Y-131586421D01*
X195000000Y-125000000D02*
X195000000Y-131586421D01*
X195000000Y-131000000D02*
X193873496Y-131586421D01*
X195000000Y-131000000D02*
X193873496Y-130413579D01*
X100000000Y-131000000D02*
X101126504Y-131586421D01*
X100000000Y-131000000D02*
X101126504Y-130413579D01*
D10*
X163000000Y-122261904D02*
X162952380Y-122357142D01*
X162952380Y-122500000D01*
X163000000Y-122642857D01*
X163095238Y-122738095D01*
X163190476Y-122785714D01*
X163380952Y-122833333D01*
X163523809Y-122833333D01*
X163714285Y-122785714D01*
X163809523Y-122738095D01*
X163904761Y-122642857D01*
X163952380Y-122500000D01*
X163952380Y-122404761D01*
X163904761Y-122261904D01*
X163857142Y-122214285D01*
X163523809Y-122214285D01*
X163523809Y-122404761D01*
X163952380Y-121785714D02*
X162952380Y-121785714D01*
X163952380Y-121214285D01*
X162952380Y-121214285D01*
X163952380Y-120738095D02*
X162952380Y-120738095D01*
X162952380Y-120500000D01*
X163000000Y-120357142D01*
X163095238Y-120261904D01*
X163190476Y-120214285D01*
X163380952Y-120166666D01*
X163523809Y-120166666D01*
X163714285Y-120214285D01*
X163809523Y-120261904D01*
X163904761Y-120357142D01*
X163952380Y-120500000D01*
X163952380Y-120738095D01*
X163119047Y-117571428D02*
X163880952Y-117571428D01*
X163500000Y-117952380D02*
X163500000Y-117190476D01*
X157619047Y-123071428D02*
X158380952Y-123071428D01*
X158000000Y-123452380D02*
X158000000Y-122690476D01*
X147738095Y-122500000D02*
X147642857Y-122452380D01*
X147500000Y-122452380D01*
X147357142Y-122500000D01*
X147261904Y-122595238D01*
X147214285Y-122690476D01*
X147166666Y-122880952D01*
X147166666Y-123023809D01*
X147214285Y-123214285D01*
X147261904Y-123309523D01*
X147357142Y-123404761D01*
X147500000Y-123452380D01*
X147595238Y-123452380D01*
X147738095Y-123404761D01*
X147785714Y-123357142D01*
X147785714Y-123023809D01*
X147595238Y-123023809D01*
X148214285Y-123452380D02*
X148214285Y-122452380D01*
X148785714Y-123452380D01*
X148785714Y-122452380D01*
X149261904Y-123452380D02*
X149261904Y-122452380D01*
X149500000Y-122452380D01*
X149642857Y-122500000D01*
X149738095Y-122595238D01*
X149785714Y-122690476D01*
X149833333Y-122880952D01*
X149833333Y-123023809D01*
X149785714Y-123214285D01*
X149738095Y-123309523D01*
X149642857Y-123404761D01*
X149500000Y-123452380D01*
X149261904Y-123452380D01*
X152334415Y-127220150D02*
X152143938Y-127220164D01*
X152048704Y-127267790D01*
X152001088Y-127315413D01*
X151905861Y-127458277D01*
X151858256Y-127648757D01*
X151858284Y-128029709D01*
X151905910Y-128124943D01*
X151953532Y-128172559D01*
X152048774Y-128220171D01*
X152239250Y-128220157D01*
X152334485Y-128172531D01*
X152382100Y-128124908D01*
X152429712Y-128029667D01*
X152429695Y-127791572D01*
X152382069Y-127696337D01*
X152334446Y-127648721D01*
X152239204Y-127601109D01*
X152048728Y-127601123D01*
X151953494Y-127648750D01*
X151905878Y-127696372D01*
X151858266Y-127791614D01*
X153001113Y-127648672D02*
X152905871Y-127601060D01*
X152858249Y-127553445D01*
X152810623Y-127458210D01*
X152810619Y-127410591D01*
X152858231Y-127315350D01*
X152905847Y-127267727D01*
X153001081Y-127220101D01*
X153191557Y-127220087D01*
X153286799Y-127267699D01*
X153334422Y-127315315D01*
X153382048Y-127410549D01*
X153382051Y-127458168D01*
X153334439Y-127553410D01*
X153286824Y-127601032D01*
X153191589Y-127648658D01*
X153001113Y-127648672D01*
X152905878Y-127696299D01*
X152858263Y-127743921D01*
X152810651Y-127839163D01*
X152810665Y-128029639D01*
X152858291Y-128124873D01*
X152905913Y-128172489D01*
X153001155Y-128220101D01*
X153191631Y-128220087D01*
X153286866Y-128172461D01*
X153334481Y-128124838D01*
X153382093Y-128029597D01*
X153382079Y-127839121D01*
X153334453Y-127743886D01*
X153286831Y-127696271D01*
X153191589Y-127648658D01*
X153810672Y-128124803D02*
X153858294Y-128172419D01*
X153810679Y-128220042D01*
X153763056Y-128172426D01*
X153810672Y-128124803D01*
X153810679Y-128220042D01*
X154477272Y-127219992D02*
X154572510Y-127219985D01*
X154667751Y-127267598D01*
X154715374Y-127315213D01*
X154763000Y-127410448D01*
X154810633Y-127600920D01*
X154810651Y-127839016D01*
X154763046Y-128029495D01*
X154715433Y-128124737D01*
X154667818Y-128172359D01*
X154572583Y-128219985D01*
X154477345Y-128219992D01*
X154382104Y-128172380D01*
X154334481Y-128124765D01*
X154286855Y-128029530D01*
X154239222Y-127839058D01*
X154239204Y-127600962D01*
X154286810Y-127410483D01*
X154334422Y-127315241D01*
X154382037Y-127267619D01*
X154477272Y-127219992D01*
X155429653Y-127219922D02*
X155524891Y-127219915D01*
X155620132Y-127267528D01*
X155667755Y-127315143D01*
X155715381Y-127410378D01*
X155763014Y-127600850D01*
X155763032Y-127838946D01*
X155715426Y-128029425D01*
X155667814Y-128124667D01*
X155620199Y-128172289D01*
X155524964Y-128219915D01*
X155429726Y-128219922D01*
X155334485Y-128172310D01*
X155286862Y-128124695D01*
X155239236Y-128029460D01*
X155191603Y-127838988D01*
X155191585Y-127600892D01*
X155239190Y-127410413D01*
X155286803Y-127315171D01*
X155334418Y-127267549D01*
X155429653Y-127219922D01*
X156382034Y-127219852D02*
X156477272Y-127219845D01*
X156572513Y-127267457D01*
X156620136Y-127315073D01*
X156667762Y-127410308D01*
X156715395Y-127600780D01*
X156715412Y-127838876D01*
X156667807Y-128029355D01*
X156620195Y-128124597D01*
X156572580Y-128172219D01*
X156477345Y-128219845D01*
X156382107Y-128219852D01*
X156286866Y-128172240D01*
X156239243Y-128124625D01*
X156191617Y-128029390D01*
X156143984Y-127838918D01*
X156143966Y-127600822D01*
X156191571Y-127410343D01*
X156239183Y-127315101D01*
X156286799Y-127267478D01*
X156382034Y-127219852D01*
X157905917Y-128219740D02*
X157905868Y-127553074D01*
X157905875Y-127648312D02*
X157953490Y-127600689D01*
X158048725Y-127553063D01*
X158191582Y-127553053D01*
X158286824Y-127600665D01*
X158334450Y-127695899D01*
X158334488Y-128219709D01*
X158334450Y-127695899D02*
X158382062Y-127600658D01*
X158477296Y-127553032D01*
X158620153Y-127553021D01*
X158715395Y-127600633D01*
X158763021Y-127695868D01*
X158763060Y-128219677D01*
X159239250Y-128219642D02*
X159239201Y-127552976D01*
X159239208Y-127648214D02*
X159286824Y-127600591D01*
X159382058Y-127552965D01*
X159524915Y-127552955D01*
X159620157Y-127600567D01*
X159667783Y-127695801D01*
X159667821Y-128219611D01*
X159667783Y-127695801D02*
X159715395Y-127600560D01*
X159810630Y-127552934D01*
X159953487Y-127552923D01*
X160048728Y-127600535D01*
X160096354Y-127695770D01*
X160096393Y-128219579D01*
D11*
X122001029Y-126500000D02*
X190001029Y-126495000D01*
X122000000Y-112505000D02*
X122001072Y-127086421D01*
X190000000Y-112500000D02*
X190001072Y-127081421D01*
X190001029Y-126495000D02*
X188874568Y-127081504D01*
X190001029Y-126495000D02*
X188874482Y-125908662D01*
X122001029Y-126500000D02*
X123127576Y-127086338D01*
X122001029Y-126500000D02*
X123127490Y-125913496D01*
D10*
X189357142Y-127222380D02*
X188880952Y-127222380D01*
X188833333Y-127698571D01*
X188880952Y-127650952D01*
X188976190Y-127603333D01*
X189214285Y-127603333D01*
X189309523Y-127650952D01*
X189357142Y-127698571D01*
X189404761Y-127793809D01*
X189404761Y-128031904D01*
X189357142Y-128127142D01*
X189309523Y-128174761D01*
X189214285Y-128222380D01*
X188976190Y-128222380D01*
X188880952Y-128174761D01*
X188833333Y-128127142D01*
X189833333Y-128127142D02*
X189880952Y-128174761D01*
X189833333Y-128222380D01*
X189785714Y-128174761D01*
X189833333Y-128127142D01*
X189833333Y-128222380D01*
X190500000Y-127222380D02*
X190595238Y-127222380D01*
X190690476Y-127270000D01*
X190738095Y-127317619D01*
X190785714Y-127412857D01*
X190833333Y-127603333D01*
X190833333Y-127841428D01*
X190785714Y-128031904D01*
X190738095Y-128127142D01*
X190690476Y-128174761D01*
X190595238Y-128222380D01*
X190500000Y-128222380D01*
X190404761Y-128174761D01*
X190357142Y-128127142D01*
X190309523Y-128031904D01*
X190261904Y-127841428D01*
X190261904Y-127603333D01*
X190309523Y-127412857D01*
X190357142Y-127317619D01*
X190404761Y-127270000D01*
X190500000Y-127222380D01*
X191452380Y-127222380D02*
X191547619Y-127222380D01*
X191642857Y-127270000D01*
X191690476Y-127317619D01*
X191738095Y-127412857D01*
X191785714Y-127603333D01*
X191785714Y-127841428D01*
X191738095Y-128031904D01*
X191690476Y-128127142D01*
X191642857Y-128174761D01*
X191547619Y-128222380D01*
X191452380Y-128222380D01*
X191357142Y-128174761D01*
X191309523Y-128127142D01*
X191261904Y-128031904D01*
X191214285Y-127841428D01*
X191214285Y-127603333D01*
X191261904Y-127412857D01*
X191309523Y-127317619D01*
X191357142Y-127270000D01*
X191452380Y-127222380D01*
X192404761Y-127222380D02*
X192500000Y-127222380D01*
X192595238Y-127270000D01*
X192642857Y-127317619D01*
X192690476Y-127412857D01*
X192738095Y-127603333D01*
X192738095Y-127841428D01*
X192690476Y-128031904D01*
X192642857Y-128127142D01*
X192595238Y-128174761D01*
X192500000Y-128222380D01*
X192404761Y-128222380D01*
X192309523Y-128174761D01*
X192261904Y-128127142D01*
X192214285Y-128031904D01*
X192166666Y-127841428D01*
X192166666Y-127603333D01*
X192214285Y-127412857D01*
X192261904Y-127317619D01*
X192309523Y-127270000D01*
X192404761Y-127222380D01*
X193928571Y-128222380D02*
X193928571Y-127555714D01*
X193928571Y-127650952D02*
X193976190Y-127603333D01*
X194071428Y-127555714D01*
X194214285Y-127555714D01*
X194309523Y-127603333D01*
X194357142Y-127698571D01*
X194357142Y-128222380D01*
X194357142Y-127698571D02*
X194404761Y-127603333D01*
X194500000Y-127555714D01*
X194642857Y-127555714D01*
X194738095Y-127603333D01*
X194785714Y-127698571D01*
X194785714Y-128222380D01*
X195261904Y-128222380D02*
X195261904Y-127555714D01*
X195261904Y-127650952D02*
X195309523Y-127603333D01*
X195404761Y-127555714D01*
X195547619Y-127555714D01*
X195642857Y-127603333D01*
X195690476Y-127698571D01*
X195690476Y-128222380D01*
X195690476Y-127698571D02*
X195738095Y-127603333D01*
X195833333Y-127555714D01*
X195976190Y-127555714D01*
X196071428Y-127603333D01*
X196119047Y-127698571D01*
X196119047Y-128222380D01*
D11*
X190000000Y-126500000D02*
X195000000Y-126500000D01*
X190000000Y-112500000D02*
X190000000Y-127086421D01*
X195000000Y-112500000D02*
X195000000Y-127086421D01*
X195000000Y-126500000D02*
X193873496Y-127086421D01*
X195000000Y-126500000D02*
X193873496Y-125913579D01*
X190000000Y-126500000D02*
X191126504Y-127086421D01*
X190000000Y-126500000D02*
X191126504Y-125913579D01*
D10*
X199317619Y-102678571D02*
X199317619Y-102107142D01*
X199317619Y-102392857D02*
X200317619Y-102392857D01*
X200174761Y-102297619D01*
X200079523Y-102202380D01*
X200031904Y-102107142D01*
X200222380Y-103059523D02*
X200270000Y-103107142D01*
X200317619Y-103202380D01*
X200317619Y-103440476D01*
X200270000Y-103535714D01*
X200222380Y-103583333D01*
X200127142Y-103630952D01*
X200031904Y-103630952D01*
X199889047Y-103583333D01*
X199317619Y-103011904D01*
X199317619Y-103630952D01*
X199412857Y-104059523D02*
X199365238Y-104107142D01*
X199317619Y-104059523D01*
X199365238Y-104011904D01*
X199412857Y-104059523D01*
X199317619Y-104059523D01*
X200317619Y-105011904D02*
X200317619Y-104535714D01*
X199841428Y-104488095D01*
X199889047Y-104535714D01*
X199936666Y-104630952D01*
X199936666Y-104869047D01*
X199889047Y-104964285D01*
X199841428Y-105011904D01*
X199746190Y-105059523D01*
X199508095Y-105059523D01*
X199412857Y-105011904D01*
X199365238Y-104964285D01*
X199317619Y-104869047D01*
X199317619Y-104630952D01*
X199365238Y-104535714D01*
X199412857Y-104488095D01*
X200317619Y-105678571D02*
X200317619Y-105773809D01*
X200270000Y-105869047D01*
X200222380Y-105916666D01*
X200127142Y-105964285D01*
X199936666Y-106011904D01*
X199698571Y-106011904D01*
X199508095Y-105964285D01*
X199412857Y-105916666D01*
X199365238Y-105869047D01*
X199317619Y-105773809D01*
X199317619Y-105678571D01*
X199365238Y-105583333D01*
X199412857Y-105535714D01*
X199508095Y-105488095D01*
X199698571Y-105440476D01*
X199936666Y-105440476D01*
X200127142Y-105488095D01*
X200222380Y-105535714D01*
X200270000Y-105583333D01*
X200317619Y-105678571D01*
X200317619Y-106630952D02*
X200317619Y-106726190D01*
X200270000Y-106821428D01*
X200222380Y-106869047D01*
X200127142Y-106916666D01*
X199936666Y-106964285D01*
X199698571Y-106964285D01*
X199508095Y-106916666D01*
X199412857Y-106869047D01*
X199365238Y-106821428D01*
X199317619Y-106726190D01*
X199317619Y-106630952D01*
X199365238Y-106535714D01*
X199412857Y-106488095D01*
X199508095Y-106440476D01*
X199698571Y-106392857D01*
X199936666Y-106392857D01*
X200127142Y-106440476D01*
X200222380Y-106488095D01*
X200270000Y-106535714D01*
X200317619Y-106630952D01*
X199317619Y-108154761D02*
X199984285Y-108154761D01*
X199889047Y-108154761D02*
X199936666Y-108202380D01*
X199984285Y-108297619D01*
X199984285Y-108440476D01*
X199936666Y-108535714D01*
X199841428Y-108583333D01*
X199317619Y-108583333D01*
X199841428Y-108583333D02*
X199936666Y-108630952D01*
X199984285Y-108726190D01*
X199984285Y-108869047D01*
X199936666Y-108964285D01*
X199841428Y-109011904D01*
X199317619Y-109011904D01*
X199317619Y-109488095D02*
X199984285Y-109488095D01*
X199889047Y-109488095D02*
X199936666Y-109535714D01*
X199984285Y-109630952D01*
X199984285Y-109773809D01*
X199936666Y-109869047D01*
X199841428Y-109916666D01*
X199317619Y-109916666D01*
X199841428Y-109916666D02*
X199936666Y-109964285D01*
X199984285Y-110059523D01*
X199984285Y-110202380D01*
X199936666Y-110297619D01*
X199841428Y-110345238D01*
X199317619Y-110345238D01*
D11*
X198500000Y-100000000D02*
X198500000Y-112500000D01*
X195000000Y-100000000D02*
X199086421Y-100000000D01*
X195000000Y-112500000D02*
X199086421Y-112500000D01*
X198500000Y-112500000D02*
X197913579Y-111373496D01*
X198500000Y-112500000D02*
X199086421Y-111373496D01*
X198500000Y-100000000D02*
X197913579Y-101126504D01*
X198500000Y-100000000D02*
X199086421Y-101126504D01*
D10*
X92277619Y-102678571D02*
X92277619Y-102107142D01*
X92277619Y-102392857D02*
X93277619Y-102392857D01*
X93134761Y-102297619D01*
X93039523Y-102202380D01*
X92991904Y-102107142D01*
X93182380Y-103059523D02*
X93230000Y-103107142D01*
X93277619Y-103202380D01*
X93277619Y-103440476D01*
X93230000Y-103535714D01*
X93182380Y-103583333D01*
X93087142Y-103630952D01*
X92991904Y-103630952D01*
X92849047Y-103583333D01*
X92277619Y-103011904D01*
X92277619Y-103630952D01*
X92372857Y-104059523D02*
X92325238Y-104107142D01*
X92277619Y-104059523D01*
X92325238Y-104011904D01*
X92372857Y-104059523D01*
X92277619Y-104059523D01*
X93277619Y-105011904D02*
X93277619Y-104535714D01*
X92801428Y-104488095D01*
X92849047Y-104535714D01*
X92896666Y-104630952D01*
X92896666Y-104869047D01*
X92849047Y-104964285D01*
X92801428Y-105011904D01*
X92706190Y-105059523D01*
X92468095Y-105059523D01*
X92372857Y-105011904D01*
X92325238Y-104964285D01*
X92277619Y-104869047D01*
X92277619Y-104630952D01*
X92325238Y-104535714D01*
X92372857Y-104488095D01*
X93277619Y-105678571D02*
X93277619Y-105773809D01*
X93230000Y-105869047D01*
X93182380Y-105916666D01*
X93087142Y-105964285D01*
X92896666Y-106011904D01*
X92658571Y-106011904D01*
X92468095Y-105964285D01*
X92372857Y-105916666D01*
X92325238Y-105869047D01*
X92277619Y-105773809D01*
X92277619Y-105678571D01*
X92325238Y-105583333D01*
X92372857Y-105535714D01*
X92468095Y-105488095D01*
X92658571Y-105440476D01*
X92896666Y-105440476D01*
X93087142Y-105488095D01*
X93182380Y-105535714D01*
X93230000Y-105583333D01*
X93277619Y-105678571D01*
X93277619Y-106630952D02*
X93277619Y-106726190D01*
X93230000Y-106821428D01*
X93182380Y-106869047D01*
X93087142Y-106916666D01*
X92896666Y-106964285D01*
X92658571Y-106964285D01*
X92468095Y-106916666D01*
X92372857Y-106869047D01*
X92325238Y-106821428D01*
X92277619Y-106726190D01*
X92277619Y-106630952D01*
X92325238Y-106535714D01*
X92372857Y-106488095D01*
X92468095Y-106440476D01*
X92658571Y-106392857D01*
X92896666Y-106392857D01*
X93087142Y-106440476D01*
X93182380Y-106488095D01*
X93230000Y-106535714D01*
X93277619Y-106630952D01*
X92277619Y-108154761D02*
X92944285Y-108154761D01*
X92849047Y-108154761D02*
X92896666Y-108202380D01*
X92944285Y-108297619D01*
X92944285Y-108440476D01*
X92896666Y-108535714D01*
X92801428Y-108583333D01*
X92277619Y-108583333D01*
X92801428Y-108583333D02*
X92896666Y-108630952D01*
X92944285Y-108726190D01*
X92944285Y-108869047D01*
X92896666Y-108964285D01*
X92801428Y-109011904D01*
X92277619Y-109011904D01*
X92277619Y-109488095D02*
X92944285Y-109488095D01*
X92849047Y-109488095D02*
X92896666Y-109535714D01*
X92944285Y-109630952D01*
X92944285Y-109773809D01*
X92896666Y-109869047D01*
X92801428Y-109916666D01*
X92277619Y-109916666D01*
X92801428Y-109916666D02*
X92896666Y-109964285D01*
X92944285Y-110059523D01*
X92944285Y-110202380D01*
X92896666Y-110297619D01*
X92801428Y-110345238D01*
X92277619Y-110345238D01*
D11*
X94000000Y-100000000D02*
X94000000Y-112500000D01*
X115000000Y-100000000D02*
X93413579Y-100000000D01*
X115000000Y-112500000D02*
X93413579Y-112500000D01*
X94000000Y-112500000D02*
X93413579Y-111373496D01*
X94000000Y-112500000D02*
X94586421Y-111373496D01*
X94000000Y-100000000D02*
X93413579Y-101126504D01*
X94000000Y-100000000D02*
X94586421Y-101126504D01*
X181360000Y-105740000D02*
X181360000Y-102800000D01*
X181120000Y-105740000D02*
X181120000Y-102800000D01*
X181240000Y-105740000D02*
X181240000Y-102800000D01*
X175680000Y-104270000D02*
X176700000Y-104270000D01*
X183160000Y-104270000D02*
X182140000Y-104270000D01*
X176700000Y-105740000D02*
X182140000Y-105740000D01*
X176700000Y-102800000D02*
X176700000Y-105740000D01*
X182140000Y-102800000D02*
X176700000Y-102800000D01*
X182140000Y-105740000D02*
X182140000Y-102800000D01*
X164900000Y-117425000D02*
X164900000Y-114885000D01*
X164900000Y-117425000D02*
X167440000Y-117425000D01*
X165150000Y-117175000D02*
X165150000Y-107825000D01*
X186010000Y-117175000D02*
X165150000Y-117175000D01*
X186010000Y-107825000D02*
X186010000Y-117175000D01*
X165150000Y-107825000D02*
X186010000Y-107825000D01*
X152390000Y-113100000D02*
X152390000Y-102820000D01*
X141990000Y-113100000D02*
X152390000Y-113100000D01*
X141990000Y-102820000D02*
X141990000Y-113100000D01*
X152390000Y-102820000D02*
X141990000Y-102820000D01*
X152330000Y-110610000D02*
X152330000Y-108960000D01*
X142050000Y-110610000D02*
X152330000Y-110610000D01*
X142050000Y-105310000D02*
X142050000Y-110610000D01*
X152330000Y-105310000D02*
X142050000Y-105310000D01*
X152330000Y-106960000D02*
X152330000Y-105310000D01*
X152330000Y-108960000D02*
G75*
G02X152330000Y-106960000I0J1000000D01*
G01*
X148420000Y-116280000D02*
X148420000Y-116610000D01*
X154960000Y-116280000D02*
X148420000Y-116280000D01*
X154960000Y-116610000D02*
X154960000Y-116280000D01*
X148420000Y-119020000D02*
X148420000Y-118690000D01*
X154960000Y-119020000D02*
X148420000Y-119020000D01*
X154960000Y-118690000D02*
X154960000Y-119020000D01*
X143960000Y-123020000D02*
X143960000Y-122690000D01*
X137420000Y-123020000D02*
X143960000Y-123020000D01*
X137420000Y-122690000D02*
X137420000Y-123020000D01*
X143960000Y-120280000D02*
X143960000Y-120610000D01*
X137420000Y-120280000D02*
X143960000Y-120280000D01*
X137420000Y-120610000D02*
X137420000Y-120280000D01*
X137420000Y-116280000D02*
X137420000Y-116610000D01*
X143960000Y-116280000D02*
X137420000Y-116280000D01*
X143960000Y-116610000D02*
X143960000Y-116280000D01*
X137420000Y-119020000D02*
X137420000Y-118690000D01*
X143960000Y-119020000D02*
X137420000Y-119020000D01*
X143960000Y-118690000D02*
X143960000Y-119020000D01*
X136370000Y-104680000D02*
X136040000Y-104680000D01*
X136370000Y-111220000D02*
X136370000Y-104680000D01*
X136040000Y-111220000D02*
X136370000Y-111220000D01*
X133630000Y-104680000D02*
X133960000Y-104680000D01*
X133630000Y-111220000D02*
X133630000Y-104680000D01*
X133960000Y-111220000D02*
X133630000Y-111220000D01*
X129630000Y-111220000D02*
X129960000Y-111220000D01*
X129630000Y-104680000D02*
X129630000Y-111220000D01*
X129960000Y-104680000D02*
X129630000Y-104680000D01*
X132370000Y-111220000D02*
X132040000Y-111220000D01*
X132370000Y-104680000D02*
X132370000Y-111220000D01*
X132040000Y-104680000D02*
X132370000Y-104680000D01*
X106130000Y-115775000D02*
X106460000Y-115775000D01*
X106130000Y-109235000D02*
X106130000Y-115775000D01*
X106460000Y-109235000D02*
X106130000Y-109235000D01*
X108870000Y-115775000D02*
X108540000Y-115775000D01*
X108870000Y-109235000D02*
X108870000Y-115775000D01*
X108540000Y-109235000D02*
X108870000Y-109235000D01*
X177690000Y-119450000D02*
X177690000Y-122390000D01*
X177930000Y-119450000D02*
X177930000Y-122390000D01*
X177810000Y-119450000D02*
X177810000Y-122390000D01*
X183370000Y-120920000D02*
X182350000Y-120920000D01*
X175890000Y-120920000D02*
X176910000Y-120920000D01*
X182350000Y-119450000D02*
X176910000Y-119450000D01*
X182350000Y-122390000D02*
X182350000Y-119450000D01*
X176910000Y-122390000D02*
X182350000Y-122390000D01*
X176910000Y-119450000D02*
X176910000Y-122390000D01*
X161380000Y-109470000D02*
X163620000Y-109470000D01*
X161380000Y-109230000D02*
X163620000Y-109230000D01*
X161380000Y-109350000D02*
X163620000Y-109350000D01*
X162500000Y-105180000D02*
X162500000Y-105830000D01*
X162500000Y-110720000D02*
X162500000Y-110070000D01*
X161380000Y-105830000D02*
X161380000Y-110070000D01*
X163620000Y-105830000D02*
X161380000Y-105830000D01*
X163620000Y-110070000D02*
X163620000Y-105830000D01*
X161380000Y-110070000D02*
X163620000Y-110070000D01*
X157880000Y-109470000D02*
X160120000Y-109470000D01*
X157880000Y-109230000D02*
X160120000Y-109230000D01*
X157880000Y-109350000D02*
X160120000Y-109350000D01*
X159000000Y-105180000D02*
X159000000Y-105830000D01*
X159000000Y-110720000D02*
X159000000Y-110070000D01*
X157880000Y-105830000D02*
X157880000Y-110070000D01*
X160120000Y-105830000D02*
X157880000Y-105830000D01*
X160120000Y-110070000D02*
X160120000Y-105830000D01*
X157880000Y-110070000D02*
X160120000Y-110070000D01*
X139920000Y-108579000D02*
X139920000Y-107321000D01*
X138080000Y-108579000D02*
X138080000Y-107321000D01*
X155920000Y-108579000D02*
X155920000Y-107321000D01*
X154080000Y-108579000D02*
X154080000Y-107321000D01*
X165445225Y-102545000D02*
X165445225Y-103045000D01*
X165195225Y-102795000D02*
X165695225Y-102795000D01*
X170601000Y-103986000D02*
X170601000Y-104554000D01*
X170561000Y-103752000D02*
X170561000Y-104788000D01*
X170521000Y-103593000D02*
X170521000Y-104947000D01*
X170481000Y-103465000D02*
X170481000Y-105075000D01*
X170441000Y-103355000D02*
X170441000Y-105185000D01*
X170401000Y-103259000D02*
X170401000Y-105281000D01*
X170361000Y-103172000D02*
X170361000Y-105368000D01*
X170321000Y-103092000D02*
X170321000Y-105448000D01*
X170281000Y-103019000D02*
X170281000Y-105521000D01*
X170241000Y-102951000D02*
X170241000Y-105589000D01*
X170201000Y-102887000D02*
X170201000Y-105653000D01*
X170161000Y-102827000D02*
X170161000Y-105713000D01*
X170121000Y-102770000D02*
X170121000Y-105770000D01*
X170081000Y-102716000D02*
X170081000Y-105824000D01*
X170041000Y-102665000D02*
X170041000Y-105875000D01*
X170001000Y-105310000D02*
X170001000Y-105923000D01*
X170001000Y-102617000D02*
X170001000Y-103230000D01*
X169961000Y-105310000D02*
X169961000Y-105969000D01*
X169961000Y-102571000D02*
X169961000Y-103230000D01*
X169921000Y-105310000D02*
X169921000Y-106013000D01*
X169921000Y-102527000D02*
X169921000Y-103230000D01*
X169881000Y-105310000D02*
X169881000Y-106055000D01*
X169881000Y-102485000D02*
X169881000Y-103230000D01*
X169841000Y-105310000D02*
X169841000Y-106096000D01*
X169841000Y-102444000D02*
X169841000Y-103230000D01*
X169801000Y-105310000D02*
X169801000Y-106134000D01*
X169801000Y-102406000D02*
X169801000Y-103230000D01*
X169761000Y-105310000D02*
X169761000Y-106171000D01*
X169761000Y-102369000D02*
X169761000Y-103230000D01*
X169721000Y-105310000D02*
X169721000Y-106207000D01*
X169721000Y-102333000D02*
X169721000Y-103230000D01*
X169681000Y-105310000D02*
X169681000Y-106241000D01*
X169681000Y-102299000D02*
X169681000Y-103230000D01*
X169641000Y-105310000D02*
X169641000Y-106274000D01*
X169641000Y-102266000D02*
X169641000Y-103230000D01*
X169601000Y-105310000D02*
X169601000Y-106305000D01*
X169601000Y-102235000D02*
X169601000Y-103230000D01*
X169561000Y-105310000D02*
X169561000Y-106335000D01*
X169561000Y-102205000D02*
X169561000Y-103230000D01*
X169521000Y-105310000D02*
X169521000Y-106365000D01*
X169521000Y-102175000D02*
X169521000Y-103230000D01*
X169481000Y-105310000D02*
X169481000Y-106392000D01*
X169481000Y-102148000D02*
X169481000Y-103230000D01*
X169441000Y-105310000D02*
X169441000Y-106419000D01*
X169441000Y-102121000D02*
X169441000Y-103230000D01*
X169401000Y-105310000D02*
X169401000Y-106445000D01*
X169401000Y-102095000D02*
X169401000Y-103230000D01*
X169361000Y-105310000D02*
X169361000Y-106470000D01*
X169361000Y-102070000D02*
X169361000Y-103230000D01*
X169321000Y-105310000D02*
X169321000Y-106494000D01*
X169321000Y-102046000D02*
X169321000Y-103230000D01*
X169281000Y-105310000D02*
X169281000Y-106517000D01*
X169281000Y-102023000D02*
X169281000Y-103230000D01*
X169241000Y-105310000D02*
X169241000Y-106538000D01*
X169241000Y-102002000D02*
X169241000Y-103230000D01*
X169201000Y-105310000D02*
X169201000Y-106560000D01*
X169201000Y-101980000D02*
X169201000Y-103230000D01*
X169161000Y-105310000D02*
X169161000Y-106580000D01*
X169161000Y-101960000D02*
X169161000Y-103230000D01*
X169121000Y-105310000D02*
X169121000Y-106599000D01*
X169121000Y-101941000D02*
X169121000Y-103230000D01*
X169081000Y-105310000D02*
X169081000Y-106618000D01*
X169081000Y-101922000D02*
X169081000Y-103230000D01*
X169041000Y-105310000D02*
X169041000Y-106635000D01*
X169041000Y-101905000D02*
X169041000Y-103230000D01*
X169001000Y-105310000D02*
X169001000Y-106652000D01*
X169001000Y-101888000D02*
X169001000Y-103230000D01*
X168961000Y-105310000D02*
X168961000Y-106668000D01*
X168961000Y-101872000D02*
X168961000Y-103230000D01*
X168921000Y-105310000D02*
X168921000Y-106684000D01*
X168921000Y-101856000D02*
X168921000Y-103230000D01*
X168881000Y-105310000D02*
X168881000Y-106698000D01*
X168881000Y-101842000D02*
X168881000Y-103230000D01*
X168841000Y-105310000D02*
X168841000Y-106712000D01*
X168841000Y-101828000D02*
X168841000Y-103230000D01*
X168801000Y-105310000D02*
X168801000Y-106725000D01*
X168801000Y-101815000D02*
X168801000Y-103230000D01*
X168761000Y-105310000D02*
X168761000Y-106738000D01*
X168761000Y-101802000D02*
X168761000Y-103230000D01*
X168721000Y-105310000D02*
X168721000Y-106750000D01*
X168721000Y-101790000D02*
X168721000Y-103230000D01*
X168680000Y-105310000D02*
X168680000Y-106761000D01*
X168680000Y-101779000D02*
X168680000Y-103230000D01*
X168640000Y-105310000D02*
X168640000Y-106771000D01*
X168640000Y-101769000D02*
X168640000Y-103230000D01*
X168600000Y-105310000D02*
X168600000Y-106781000D01*
X168600000Y-101759000D02*
X168600000Y-103230000D01*
X168560000Y-105310000D02*
X168560000Y-106790000D01*
X168560000Y-101750000D02*
X168560000Y-103230000D01*
X168520000Y-105310000D02*
X168520000Y-106798000D01*
X168520000Y-101742000D02*
X168520000Y-103230000D01*
X168480000Y-105310000D02*
X168480000Y-106806000D01*
X168480000Y-101734000D02*
X168480000Y-103230000D01*
X168440000Y-105310000D02*
X168440000Y-106813000D01*
X168440000Y-101727000D02*
X168440000Y-103230000D01*
X168400000Y-105310000D02*
X168400000Y-106820000D01*
X168400000Y-101720000D02*
X168400000Y-103230000D01*
X168360000Y-105310000D02*
X168360000Y-106826000D01*
X168360000Y-101714000D02*
X168360000Y-103230000D01*
X168320000Y-105310000D02*
X168320000Y-106831000D01*
X168320000Y-101709000D02*
X168320000Y-103230000D01*
X168280000Y-105310000D02*
X168280000Y-106835000D01*
X168280000Y-101705000D02*
X168280000Y-103230000D01*
X168240000Y-105310000D02*
X168240000Y-106839000D01*
X168240000Y-101701000D02*
X168240000Y-103230000D01*
X168200000Y-105310000D02*
X168200000Y-106843000D01*
X168200000Y-101697000D02*
X168200000Y-103230000D01*
X168160000Y-105310000D02*
X168160000Y-106846000D01*
X168160000Y-101694000D02*
X168160000Y-103230000D01*
X168120000Y-105310000D02*
X168120000Y-106848000D01*
X168120000Y-101692000D02*
X168120000Y-103230000D01*
X168080000Y-105310000D02*
X168080000Y-106849000D01*
X168080000Y-101691000D02*
X168080000Y-103230000D01*
X168040000Y-101690000D02*
X168040000Y-103230000D01*
X168040000Y-105310000D02*
X168040000Y-106850000D01*
X168000000Y-101690000D02*
X168000000Y-103230000D01*
X168000000Y-105310000D02*
X168000000Y-106850000D01*
X170620000Y-104270000D02*
G75*
G03X170620000Y-104270000I-2620000J0D01*
G01*
X170554775Y-122645000D02*
X170554775Y-122145000D01*
X170804775Y-122395000D02*
X170304775Y-122395000D01*
X165399000Y-121204000D02*
X165399000Y-120636000D01*
X165439000Y-121438000D02*
X165439000Y-120402000D01*
X165479000Y-121597000D02*
X165479000Y-120243000D01*
X165519000Y-121725000D02*
X165519000Y-120115000D01*
X165559000Y-121835000D02*
X165559000Y-120005000D01*
X165599000Y-121931000D02*
X165599000Y-119909000D01*
X165639000Y-122018000D02*
X165639000Y-119822000D01*
X165679000Y-122098000D02*
X165679000Y-119742000D01*
X165719000Y-122171000D02*
X165719000Y-119669000D01*
X165759000Y-122239000D02*
X165759000Y-119601000D01*
X165799000Y-122303000D02*
X165799000Y-119537000D01*
X165839000Y-122363000D02*
X165839000Y-119477000D01*
X165879000Y-122420000D02*
X165879000Y-119420000D01*
X165919000Y-122474000D02*
X165919000Y-119366000D01*
X165959000Y-122525000D02*
X165959000Y-119315000D01*
X165999000Y-119880000D02*
X165999000Y-119267000D01*
X165999000Y-122573000D02*
X165999000Y-121960000D01*
X166039000Y-119880000D02*
X166039000Y-119221000D01*
X166039000Y-122619000D02*
X166039000Y-121960000D01*
X166079000Y-119880000D02*
X166079000Y-119177000D01*
X166079000Y-122663000D02*
X166079000Y-121960000D01*
X166119000Y-119880000D02*
X166119000Y-119135000D01*
X166119000Y-122705000D02*
X166119000Y-121960000D01*
X166159000Y-119880000D02*
X166159000Y-119094000D01*
X166159000Y-122746000D02*
X166159000Y-121960000D01*
X166199000Y-119880000D02*
X166199000Y-119056000D01*
X166199000Y-122784000D02*
X166199000Y-121960000D01*
X166239000Y-119880000D02*
X166239000Y-119019000D01*
X166239000Y-122821000D02*
X166239000Y-121960000D01*
X166279000Y-119880000D02*
X166279000Y-118983000D01*
X166279000Y-122857000D02*
X166279000Y-121960000D01*
X166319000Y-119880000D02*
X166319000Y-118949000D01*
X166319000Y-122891000D02*
X166319000Y-121960000D01*
X166359000Y-119880000D02*
X166359000Y-118916000D01*
X166359000Y-122924000D02*
X166359000Y-121960000D01*
X166399000Y-119880000D02*
X166399000Y-118885000D01*
X166399000Y-122955000D02*
X166399000Y-121960000D01*
X166439000Y-119880000D02*
X166439000Y-118855000D01*
X166439000Y-122985000D02*
X166439000Y-121960000D01*
X166479000Y-119880000D02*
X166479000Y-118825000D01*
X166479000Y-123015000D02*
X166479000Y-121960000D01*
X166519000Y-119880000D02*
X166519000Y-118798000D01*
X166519000Y-123042000D02*
X166519000Y-121960000D01*
X166559000Y-119880000D02*
X166559000Y-118771000D01*
X166559000Y-123069000D02*
X166559000Y-121960000D01*
X166599000Y-119880000D02*
X166599000Y-118745000D01*
X166599000Y-123095000D02*
X166599000Y-121960000D01*
X166639000Y-119880000D02*
X166639000Y-118720000D01*
X166639000Y-123120000D02*
X166639000Y-121960000D01*
X166679000Y-119880000D02*
X166679000Y-118696000D01*
X166679000Y-123144000D02*
X166679000Y-121960000D01*
X166719000Y-119880000D02*
X166719000Y-118673000D01*
X166719000Y-123167000D02*
X166719000Y-121960000D01*
X166759000Y-119880000D02*
X166759000Y-118652000D01*
X166759000Y-123188000D02*
X166759000Y-121960000D01*
X166799000Y-119880000D02*
X166799000Y-118630000D01*
X166799000Y-123210000D02*
X166799000Y-121960000D01*
X166839000Y-119880000D02*
X166839000Y-118610000D01*
X166839000Y-123230000D02*
X166839000Y-121960000D01*
X166879000Y-119880000D02*
X166879000Y-118591000D01*
X166879000Y-123249000D02*
X166879000Y-121960000D01*
X166919000Y-119880000D02*
X166919000Y-118572000D01*
X166919000Y-123268000D02*
X166919000Y-121960000D01*
X166959000Y-119880000D02*
X166959000Y-118555000D01*
X166959000Y-123285000D02*
X166959000Y-121960000D01*
X166999000Y-119880000D02*
X166999000Y-118538000D01*
X166999000Y-123302000D02*
X166999000Y-121960000D01*
X167039000Y-119880000D02*
X167039000Y-118522000D01*
X167039000Y-123318000D02*
X167039000Y-121960000D01*
X167079000Y-119880000D02*
X167079000Y-118506000D01*
X167079000Y-123334000D02*
X167079000Y-121960000D01*
X167119000Y-119880000D02*
X167119000Y-118492000D01*
X167119000Y-123348000D02*
X167119000Y-121960000D01*
X167159000Y-119880000D02*
X167159000Y-118478000D01*
X167159000Y-123362000D02*
X167159000Y-121960000D01*
X167199000Y-119880000D02*
X167199000Y-118465000D01*
X167199000Y-123375000D02*
X167199000Y-121960000D01*
X167239000Y-119880000D02*
X167239000Y-118452000D01*
X167239000Y-123388000D02*
X167239000Y-121960000D01*
X167279000Y-119880000D02*
X167279000Y-118440000D01*
X167279000Y-123400000D02*
X167279000Y-121960000D01*
X167320000Y-119880000D02*
X167320000Y-118429000D01*
X167320000Y-123411000D02*
X167320000Y-121960000D01*
X167360000Y-119880000D02*
X167360000Y-118419000D01*
X167360000Y-123421000D02*
X167360000Y-121960000D01*
X167400000Y-119880000D02*
X167400000Y-118409000D01*
X167400000Y-123431000D02*
X167400000Y-121960000D01*
X167440000Y-119880000D02*
X167440000Y-118400000D01*
X167440000Y-123440000D02*
X167440000Y-121960000D01*
X167480000Y-119880000D02*
X167480000Y-118392000D01*
X167480000Y-123448000D02*
X167480000Y-121960000D01*
X167520000Y-119880000D02*
X167520000Y-118384000D01*
X167520000Y-123456000D02*
X167520000Y-121960000D01*
X167560000Y-119880000D02*
X167560000Y-118377000D01*
X167560000Y-123463000D02*
X167560000Y-121960000D01*
X167600000Y-119880000D02*
X167600000Y-118370000D01*
X167600000Y-123470000D02*
X167600000Y-121960000D01*
X167640000Y-119880000D02*
X167640000Y-118364000D01*
X167640000Y-123476000D02*
X167640000Y-121960000D01*
X167680000Y-119880000D02*
X167680000Y-118359000D01*
X167680000Y-123481000D02*
X167680000Y-121960000D01*
X167720000Y-119880000D02*
X167720000Y-118355000D01*
X167720000Y-123485000D02*
X167720000Y-121960000D01*
X167760000Y-119880000D02*
X167760000Y-118351000D01*
X167760000Y-123489000D02*
X167760000Y-121960000D01*
X167800000Y-119880000D02*
X167800000Y-118347000D01*
X167800000Y-123493000D02*
X167800000Y-121960000D01*
X167840000Y-119880000D02*
X167840000Y-118344000D01*
X167840000Y-123496000D02*
X167840000Y-121960000D01*
X167880000Y-119880000D02*
X167880000Y-118342000D01*
X167880000Y-123498000D02*
X167880000Y-121960000D01*
X167920000Y-119880000D02*
X167920000Y-118341000D01*
X167920000Y-123499000D02*
X167920000Y-121960000D01*
X167960000Y-123500000D02*
X167960000Y-121960000D01*
X167960000Y-119880000D02*
X167960000Y-118340000D01*
X168000000Y-123500000D02*
X168000000Y-121960000D01*
X168000000Y-119880000D02*
X168000000Y-118340000D01*
X170620000Y-120920000D02*
G75*
G03X170620000Y-120920000I-2620000J0D01*
G01*
D10*
X152166666Y-118452380D02*
X152357142Y-118452380D01*
X152452380Y-118500000D01*
X152547619Y-118595238D01*
X152595238Y-118785714D01*
X152595238Y-119119047D01*
X152547619Y-119309523D01*
X152452380Y-119404761D01*
X152357142Y-119452380D01*
X152166666Y-119452380D01*
X152071428Y-119404761D01*
X151976190Y-119309523D01*
X151928571Y-119119047D01*
X151928571Y-118785714D01*
X151976190Y-118595238D01*
X152071428Y-118500000D01*
X152166666Y-118452380D01*
X153452380Y-118785714D02*
X153452380Y-119452380D01*
X153023809Y-118785714D02*
X153023809Y-119309523D01*
X153071428Y-119404761D01*
X153166666Y-119452380D01*
X153309523Y-119452380D01*
X153404761Y-119404761D01*
X153452380Y-119357142D01*
X153785714Y-118785714D02*
X154166666Y-118785714D01*
X153928571Y-118452380D02*
X153928571Y-119309523D01*
X153976190Y-119404761D01*
X154071428Y-119452380D01*
X154166666Y-119452380D01*
X158952380Y-120500000D02*
X157952380Y-120500000D01*
X158666666Y-120166666D01*
X157952380Y-119833333D01*
X158952380Y-119833333D01*
X158952380Y-119357142D02*
X158285714Y-119357142D01*
X157952380Y-119357142D02*
X158000000Y-119404761D01*
X158047619Y-119357142D01*
X158000000Y-119309523D01*
X157952380Y-119357142D01*
X158047619Y-119357142D01*
X158904761Y-118452380D02*
X158952380Y-118547619D01*
X158952380Y-118738095D01*
X158904761Y-118833333D01*
X158857142Y-118880952D01*
X158761904Y-118928571D01*
X158476190Y-118928571D01*
X158380952Y-118880952D01*
X158333333Y-118833333D01*
X158285714Y-118738095D01*
X158285714Y-118547619D01*
X158333333Y-118452380D01*
X188666666Y-108752380D02*
X188333333Y-108276190D01*
X188095238Y-108752380D02*
X188095238Y-107752380D01*
X188476190Y-107752380D01*
X188571428Y-107800000D01*
X188619047Y-107847619D01*
X188666666Y-107942857D01*
X188666666Y-108085714D01*
X188619047Y-108180952D01*
X188571428Y-108228571D01*
X188476190Y-108276190D01*
X188095238Y-108276190D01*
X189095238Y-108228571D02*
X189428571Y-108228571D01*
X189571428Y-108752380D02*
X189095238Y-108752380D01*
X189095238Y-107752380D01*
X189571428Y-107752380D01*
X190333333Y-108228571D02*
X190000000Y-108228571D01*
X190000000Y-108752380D02*
X190000000Y-107752380D01*
X190476190Y-107752380D01*
X191000000Y-107752380D02*
X191000000Y-107990476D01*
X190761904Y-107895238D02*
X191000000Y-107990476D01*
X191238095Y-107895238D01*
X190857142Y-108180952D02*
X191000000Y-107990476D01*
X191142857Y-108180952D01*
X191761904Y-107752380D02*
X191761904Y-107990476D01*
X191523809Y-107895238D02*
X191761904Y-107990476D01*
X192000000Y-107895238D01*
X191619047Y-108180952D02*
X191761904Y-107990476D01*
X191904761Y-108180952D01*
X178681904Y-102452380D02*
X178681904Y-101452380D01*
X178920000Y-101452380D01*
X179062857Y-101500000D01*
X179158095Y-101595238D01*
X179205714Y-101690476D01*
X179253333Y-101880952D01*
X179253333Y-102023809D01*
X179205714Y-102214285D01*
X179158095Y-102309523D01*
X179062857Y-102404761D01*
X178920000Y-102452380D01*
X178681904Y-102452380D01*
X180110476Y-101452380D02*
X179920000Y-101452380D01*
X179824761Y-101500000D01*
X179777142Y-101547619D01*
X179681904Y-101690476D01*
X179634285Y-101880952D01*
X179634285Y-102261904D01*
X179681904Y-102357142D01*
X179729523Y-102404761D01*
X179824761Y-102452380D01*
X180015238Y-102452380D01*
X180110476Y-102404761D01*
X180158095Y-102357142D01*
X180205714Y-102261904D01*
X180205714Y-102023809D01*
X180158095Y-101928571D01*
X180110476Y-101880952D01*
X180015238Y-101833333D01*
X179824761Y-101833333D01*
X179729523Y-101880952D01*
X179681904Y-101928571D01*
X179634285Y-102023809D01*
X184238095Y-106822380D02*
X184238095Y-105822380D01*
X184809523Y-106822380D02*
X184380952Y-106250952D01*
X184809523Y-105822380D02*
X184238095Y-106393809D01*
X163352380Y-115303333D02*
X164066666Y-115303333D01*
X164209523Y-115350952D01*
X164304761Y-115446190D01*
X164352380Y-115589047D01*
X164352380Y-115684285D01*
X164352380Y-114303333D02*
X164352380Y-114874761D01*
X164352380Y-114589047D02*
X163352380Y-114589047D01*
X163495238Y-114684285D01*
X163590476Y-114779523D01*
X163638095Y-114874761D01*
X164352380Y-110812857D02*
X163876190Y-111146190D01*
X164352380Y-111384285D02*
X163352380Y-111384285D01*
X163352380Y-111003333D01*
X163400000Y-110908095D01*
X163447619Y-110860476D01*
X163542857Y-110812857D01*
X163685714Y-110812857D01*
X163780952Y-110860476D01*
X163828571Y-110908095D01*
X163876190Y-111003333D01*
X163876190Y-111384285D01*
X163828571Y-110384285D02*
X163828571Y-110050952D01*
X164352380Y-109908095D02*
X164352380Y-110384285D01*
X163352380Y-110384285D01*
X163352380Y-109908095D01*
X164352380Y-109479523D02*
X163352380Y-109479523D01*
X163352380Y-109241428D01*
X163400000Y-109098571D01*
X163495238Y-109003333D01*
X163590476Y-108955714D01*
X163780952Y-108908095D01*
X163923809Y-108908095D01*
X164114285Y-108955714D01*
X164209523Y-109003333D01*
X164304761Y-109098571D01*
X164352380Y-109241428D01*
X164352380Y-109479523D01*
X152782380Y-112261904D02*
X153591904Y-112261904D01*
X153687142Y-112214285D01*
X153734761Y-112166666D01*
X153782380Y-112071428D01*
X153782380Y-111880952D01*
X153734761Y-111785714D01*
X153687142Y-111738095D01*
X153591904Y-111690476D01*
X152782380Y-111690476D01*
X152877619Y-111261904D02*
X152830000Y-111214285D01*
X152782380Y-111119047D01*
X152782380Y-110880952D01*
X152830000Y-110785714D01*
X152877619Y-110738095D01*
X152972857Y-110690476D01*
X153068095Y-110690476D01*
X153210952Y-110738095D01*
X153782380Y-111309523D01*
X153782380Y-110690476D01*
X151047142Y-115952380D02*
X150713809Y-115476190D01*
X150475714Y-115952380D02*
X150475714Y-114952380D01*
X150856666Y-114952380D01*
X150951904Y-115000000D01*
X150999523Y-115047619D01*
X151047142Y-115142857D01*
X151047142Y-115285714D01*
X150999523Y-115380952D01*
X150951904Y-115428571D01*
X150856666Y-115476190D01*
X150475714Y-115476190D01*
X151999523Y-115952380D02*
X151428095Y-115952380D01*
X151713809Y-115952380D02*
X151713809Y-114952380D01*
X151618571Y-115095238D01*
X151523333Y-115190476D01*
X151428095Y-115238095D01*
X152856666Y-114952380D02*
X152666190Y-114952380D01*
X152570952Y-115000000D01*
X152523333Y-115047619D01*
X152428095Y-115190476D01*
X152380476Y-115380952D01*
X152380476Y-115761904D01*
X152428095Y-115857142D01*
X152475714Y-115904761D01*
X152570952Y-115952380D01*
X152761428Y-115952380D01*
X152856666Y-115904761D01*
X152904285Y-115857142D01*
X152951904Y-115761904D01*
X152951904Y-115523809D01*
X152904285Y-115428571D01*
X152856666Y-115380952D01*
X152761428Y-115333333D01*
X152570952Y-115333333D01*
X152475714Y-115380952D01*
X152428095Y-115428571D01*
X152380476Y-115523809D01*
X140047142Y-119732380D02*
X139713809Y-119256190D01*
X139475714Y-119732380D02*
X139475714Y-118732380D01*
X139856666Y-118732380D01*
X139951904Y-118780000D01*
X139999523Y-118827619D01*
X140047142Y-118922857D01*
X140047142Y-119065714D01*
X139999523Y-119160952D01*
X139951904Y-119208571D01*
X139856666Y-119256190D01*
X139475714Y-119256190D01*
X140999523Y-119732380D02*
X140428095Y-119732380D01*
X140713809Y-119732380D02*
X140713809Y-118732380D01*
X140618571Y-118875238D01*
X140523333Y-118970476D01*
X140428095Y-119018095D01*
X141856666Y-119065714D02*
X141856666Y-119732380D01*
X141618571Y-118684761D02*
X141380476Y-119399047D01*
X141999523Y-119399047D01*
X140257142Y-116002380D02*
X139923809Y-115526190D01*
X139685714Y-116002380D02*
X139685714Y-115002380D01*
X140066666Y-115002380D01*
X140161904Y-115050000D01*
X140209523Y-115097619D01*
X140257142Y-115192857D01*
X140257142Y-115335714D01*
X140209523Y-115430952D01*
X140161904Y-115478571D01*
X140066666Y-115526190D01*
X139685714Y-115526190D01*
X141209523Y-116002380D02*
X140638095Y-116002380D01*
X140923809Y-116002380D02*
X140923809Y-115002380D01*
X140828571Y-115145238D01*
X140733333Y-115240476D01*
X140638095Y-115288095D01*
X141590476Y-115097619D02*
X141638095Y-115050000D01*
X141733333Y-115002380D01*
X141971428Y-115002380D01*
X142066666Y-115050000D01*
X142114285Y-115097619D01*
X142161904Y-115192857D01*
X142161904Y-115288095D01*
X142114285Y-115430952D01*
X141542857Y-116002380D01*
X142161904Y-116002380D01*
X129452380Y-108642857D02*
X128976190Y-108976190D01*
X129452380Y-109214285D02*
X128452380Y-109214285D01*
X128452380Y-108833333D01*
X128500000Y-108738095D01*
X128547619Y-108690476D01*
X128642857Y-108642857D01*
X128785714Y-108642857D01*
X128880952Y-108690476D01*
X128928571Y-108738095D01*
X128976190Y-108833333D01*
X128976190Y-109214285D01*
X129452380Y-107690476D02*
X129452380Y-108261904D01*
X129452380Y-107976190D02*
X128452380Y-107976190D01*
X128595238Y-108071428D01*
X128690476Y-108166666D01*
X128738095Y-108261904D01*
X128452380Y-107071428D02*
X128452380Y-106976190D01*
X128500000Y-106880952D01*
X128547619Y-106833333D01*
X128642857Y-106785714D01*
X128833333Y-106738095D01*
X129071428Y-106738095D01*
X129261904Y-106785714D01*
X129357142Y-106833333D01*
X129404761Y-106880952D01*
X129452380Y-106976190D01*
X129452380Y-107071428D01*
X129404761Y-107166666D01*
X129357142Y-107214285D01*
X129261904Y-107261904D01*
X129071428Y-107309523D01*
X128833333Y-107309523D01*
X128642857Y-107261904D01*
X128547619Y-107214285D01*
X128500000Y-107166666D01*
X128452380Y-107071428D01*
X133452380Y-108166666D02*
X132976190Y-108500000D01*
X133452380Y-108738095D02*
X132452380Y-108738095D01*
X132452380Y-108357142D01*
X132500000Y-108261904D01*
X132547619Y-108214285D01*
X132642857Y-108166666D01*
X132785714Y-108166666D01*
X132880952Y-108214285D01*
X132928571Y-108261904D01*
X132976190Y-108357142D01*
X132976190Y-108738095D01*
X132880952Y-107595238D02*
X132833333Y-107690476D01*
X132785714Y-107738095D01*
X132690476Y-107785714D01*
X132642857Y-107785714D01*
X132547619Y-107738095D01*
X132500000Y-107690476D01*
X132452380Y-107595238D01*
X132452380Y-107404761D01*
X132500000Y-107309523D01*
X132547619Y-107261904D01*
X132642857Y-107214285D01*
X132690476Y-107214285D01*
X132785714Y-107261904D01*
X132833333Y-107309523D01*
X132880952Y-107404761D01*
X132880952Y-107595238D01*
X132928571Y-107690476D01*
X132976190Y-107738095D01*
X133071428Y-107785714D01*
X133261904Y-107785714D01*
X133357142Y-107738095D01*
X133404761Y-107690476D01*
X133452380Y-107595238D01*
X133452380Y-107404761D01*
X133404761Y-107309523D01*
X133357142Y-107261904D01*
X133261904Y-107214285D01*
X133071428Y-107214285D01*
X132976190Y-107261904D01*
X132928571Y-107309523D01*
X132880952Y-107404761D01*
X110322380Y-112671666D02*
X109846190Y-113005000D01*
X110322380Y-113243095D02*
X109322380Y-113243095D01*
X109322380Y-112862142D01*
X109370000Y-112766904D01*
X109417619Y-112719285D01*
X109512857Y-112671666D01*
X109655714Y-112671666D01*
X109750952Y-112719285D01*
X109798571Y-112766904D01*
X109846190Y-112862142D01*
X109846190Y-113243095D01*
X109322380Y-111766904D02*
X109322380Y-112243095D01*
X109798571Y-112290714D01*
X109750952Y-112243095D01*
X109703333Y-112147857D01*
X109703333Y-111909761D01*
X109750952Y-111814523D01*
X109798571Y-111766904D01*
X109893809Y-111719285D01*
X110131904Y-111719285D01*
X110227142Y-111766904D01*
X110274761Y-111814523D01*
X110322380Y-111909761D01*
X110322380Y-112147857D01*
X110274761Y-112243095D01*
X110227142Y-112290714D01*
X178761904Y-123952380D02*
X178761904Y-122952380D01*
X179000000Y-122952380D01*
X179142857Y-123000000D01*
X179238095Y-123095238D01*
X179285714Y-123190476D01*
X179333333Y-123380952D01*
X179333333Y-123523809D01*
X179285714Y-123714285D01*
X179238095Y-123809523D01*
X179142857Y-123904761D01*
X179000000Y-123952380D01*
X178761904Y-123952380D01*
X180238095Y-122952380D02*
X179761904Y-122952380D01*
X179714285Y-123428571D01*
X179761904Y-123380952D01*
X179857142Y-123333333D01*
X180095238Y-123333333D01*
X180190476Y-123380952D01*
X180238095Y-123428571D01*
X180285714Y-123523809D01*
X180285714Y-123761904D01*
X180238095Y-123857142D01*
X180190476Y-123904761D01*
X180095238Y-123952380D01*
X179857142Y-123952380D01*
X179761904Y-123904761D01*
X179714285Y-123857142D01*
X174288095Y-119272380D02*
X174288095Y-118272380D01*
X174859523Y-119272380D02*
X174430952Y-118700952D01*
X174859523Y-118272380D02*
X174288095Y-118843809D01*
X160832380Y-108688095D02*
X159832380Y-108688095D01*
X159832380Y-108450000D01*
X159880000Y-108307142D01*
X159975238Y-108211904D01*
X160070476Y-108164285D01*
X160260952Y-108116666D01*
X160403809Y-108116666D01*
X160594285Y-108164285D01*
X160689523Y-108211904D01*
X160784761Y-108307142D01*
X160832380Y-108450000D01*
X160832380Y-108688095D01*
X160165714Y-107259523D02*
X160832380Y-107259523D01*
X159784761Y-107497619D02*
X160499047Y-107735714D01*
X160499047Y-107116666D01*
X161152380Y-112021904D02*
X160152380Y-112021904D01*
X161152380Y-111450476D02*
X160580952Y-111879047D01*
X160152380Y-111450476D02*
X160723809Y-112021904D01*
X157332380Y-108688095D02*
X156332380Y-108688095D01*
X156332380Y-108450000D01*
X156380000Y-108307142D01*
X156475238Y-108211904D01*
X156570476Y-108164285D01*
X156760952Y-108116666D01*
X156903809Y-108116666D01*
X157094285Y-108164285D01*
X157189523Y-108211904D01*
X157284761Y-108307142D01*
X157332380Y-108450000D01*
X157332380Y-108688095D01*
X156332380Y-107783333D02*
X156332380Y-107164285D01*
X156713333Y-107497619D01*
X156713333Y-107354761D01*
X156760952Y-107259523D01*
X156808571Y-107211904D01*
X156903809Y-107164285D01*
X157141904Y-107164285D01*
X157237142Y-107211904D01*
X157284761Y-107259523D01*
X157332380Y-107354761D01*
X157332380Y-107640476D01*
X157284761Y-107735714D01*
X157237142Y-107783333D01*
X157652380Y-112021904D02*
X156652380Y-112021904D01*
X157652380Y-111450476D02*
X157080952Y-111879047D01*
X156652380Y-111450476D02*
X157223809Y-112021904D01*
X137857142Y-108166666D02*
X137904761Y-108214285D01*
X137952380Y-108357142D01*
X137952380Y-108452380D01*
X137904761Y-108595238D01*
X137809523Y-108690476D01*
X137714285Y-108738095D01*
X137523809Y-108785714D01*
X137380952Y-108785714D01*
X137190476Y-108738095D01*
X137095238Y-108690476D01*
X137000000Y-108595238D01*
X136952380Y-108452380D01*
X136952380Y-108357142D01*
X137000000Y-108214285D01*
X137047619Y-108166666D01*
X136952380Y-107261904D02*
X136952380Y-107738095D01*
X137428571Y-107785714D01*
X137380952Y-107738095D01*
X137333333Y-107642857D01*
X137333333Y-107404761D01*
X137380952Y-107309523D01*
X137428571Y-107261904D01*
X137523809Y-107214285D01*
X137761904Y-107214285D01*
X137857142Y-107261904D01*
X137904761Y-107309523D01*
X137952380Y-107404761D01*
X137952380Y-107642857D01*
X137904761Y-107738095D01*
X137857142Y-107785714D01*
X153307142Y-108116666D02*
X153354761Y-108164285D01*
X153402380Y-108307142D01*
X153402380Y-108402380D01*
X153354761Y-108545238D01*
X153259523Y-108640476D01*
X153164285Y-108688095D01*
X152973809Y-108735714D01*
X152830952Y-108735714D01*
X152640476Y-108688095D01*
X152545238Y-108640476D01*
X152450000Y-108545238D01*
X152402380Y-108402380D01*
X152402380Y-108307142D01*
X152450000Y-108164285D01*
X152497619Y-108116666D01*
X152735714Y-107259523D02*
X153402380Y-107259523D01*
X152354761Y-107497619D02*
X153069047Y-107735714D01*
X153069047Y-107116666D01*
X171333333Y-102127142D02*
X171285714Y-102174761D01*
X171142857Y-102222380D01*
X171047619Y-102222380D01*
X170904761Y-102174761D01*
X170809523Y-102079523D01*
X170761904Y-101984285D01*
X170714285Y-101793809D01*
X170714285Y-101650952D01*
X170761904Y-101460476D01*
X170809523Y-101365238D01*
X170904761Y-101270000D01*
X171047619Y-101222380D01*
X171142857Y-101222380D01*
X171285714Y-101270000D01*
X171333333Y-101317619D01*
X171714285Y-101317619D02*
X171761904Y-101270000D01*
X171857142Y-101222380D01*
X172095238Y-101222380D01*
X172190476Y-101270000D01*
X172238095Y-101317619D01*
X172285714Y-101412857D01*
X172285714Y-101508095D01*
X172238095Y-101650952D01*
X171666666Y-102222380D01*
X172285714Y-102222380D01*
X171333333Y-123857142D02*
X171285714Y-123904761D01*
X171142857Y-123952380D01*
X171047619Y-123952380D01*
X170904761Y-123904761D01*
X170809523Y-123809523D01*
X170761904Y-123714285D01*
X170714285Y-123523809D01*
X170714285Y-123380952D01*
X170761904Y-123190476D01*
X170809523Y-123095238D01*
X170904761Y-123000000D01*
X171047619Y-122952380D01*
X171142857Y-122952380D01*
X171285714Y-123000000D01*
X171333333Y-123047619D01*
X172285714Y-123952380D02*
X171714285Y-123952380D01*
X172000000Y-123952380D02*
X172000000Y-122952380D01*
X171904761Y-123095238D01*
X171809523Y-123190476D01*
X171714285Y-123238095D01*
M02*
