G04 #@! TF.GenerationSoftware,KiCad,Pcbnew,5.1.5-52549c5~84~ubuntu18.04.1*
G04 #@! TF.CreationDate,2020-03-31T17:05:22-04:00*
G04 #@! TF.ProjectId,Mikrokosmos,4d696b72-6f6b-46f7-936d-6f732e6b6963,rev?*
G04 #@! TF.SameCoordinates,Original*
G04 #@! TF.FileFunction,Copper,L1,Top*
G04 #@! TF.FilePolarity,Positive*
%FSLAX46Y46*%
G04 Gerber Fmt 4.6, Leading zero omitted, Abs format (unit mm)*
G04 Created by KiCad (PCBNEW 5.1.5-52549c5~84~ubuntu18.04.1) date 2020-03-31 17:05:22*
%MOMM*%
%LPD*%
G04 APERTURE LIST*
%ADD10O,2.200000X1.740000*%
%ADD11C,0.100000*%
%ADD12O,2.200000X2.200000*%
%ADD13R,2.200000X2.200000*%
%ADD14O,1.600000X1.600000*%
%ADD15R,1.600000X1.600000*%
%ADD16R,1.727200X1.727200*%
%ADD17O,1.727200X1.727200*%
%ADD18C,3.240000*%
%ADD19C,1.800000*%
%ADD20R,1.800000X1.800000*%
%ADD21C,1.600000*%
%ADD22C,0.250000*%
%ADD23C,0.254000*%
G04 APERTURE END LIST*
D10*
X127500000Y-108960000D03*
G04 #@! TA.AperFunction,ComponentPad*
D11*
G36*
X128374505Y-110631204D02*
G01*
X128398773Y-110634804D01*
X128422572Y-110640765D01*
X128445671Y-110649030D01*
X128467850Y-110659520D01*
X128488893Y-110672132D01*
X128508599Y-110686747D01*
X128526777Y-110703223D01*
X128543253Y-110721401D01*
X128557868Y-110741107D01*
X128570480Y-110762150D01*
X128580970Y-110784329D01*
X128589235Y-110807428D01*
X128595196Y-110831227D01*
X128598796Y-110855495D01*
X128600000Y-110879999D01*
X128600000Y-112120001D01*
X128598796Y-112144505D01*
X128595196Y-112168773D01*
X128589235Y-112192572D01*
X128580970Y-112215671D01*
X128570480Y-112237850D01*
X128557868Y-112258893D01*
X128543253Y-112278599D01*
X128526777Y-112296777D01*
X128508599Y-112313253D01*
X128488893Y-112327868D01*
X128467850Y-112340480D01*
X128445671Y-112350970D01*
X128422572Y-112359235D01*
X128398773Y-112365196D01*
X128374505Y-112368796D01*
X128350001Y-112370000D01*
X126649999Y-112370000D01*
X126625495Y-112368796D01*
X126601227Y-112365196D01*
X126577428Y-112359235D01*
X126554329Y-112350970D01*
X126532150Y-112340480D01*
X126511107Y-112327868D01*
X126491401Y-112313253D01*
X126473223Y-112296777D01*
X126456747Y-112278599D01*
X126442132Y-112258893D01*
X126429520Y-112237850D01*
X126419030Y-112215671D01*
X126410765Y-112192572D01*
X126404804Y-112168773D01*
X126401204Y-112144505D01*
X126400000Y-112120001D01*
X126400000Y-110879999D01*
X126401204Y-110855495D01*
X126404804Y-110831227D01*
X126410765Y-110807428D01*
X126419030Y-110784329D01*
X126429520Y-110762150D01*
X126442132Y-110741107D01*
X126456747Y-110721401D01*
X126473223Y-110703223D01*
X126491401Y-110686747D01*
X126511107Y-110672132D01*
X126532150Y-110659520D01*
X126554329Y-110649030D01*
X126577428Y-110640765D01*
X126601227Y-110634804D01*
X126625495Y-110631204D01*
X126649999Y-110630000D01*
X128350001Y-110630000D01*
X128374505Y-110631204D01*
G37*
G04 #@! TD.AperFunction*
D10*
X156500000Y-108540000D03*
G04 #@! TA.AperFunction,ComponentPad*
D11*
G36*
X157374505Y-105131204D02*
G01*
X157398773Y-105134804D01*
X157422572Y-105140765D01*
X157445671Y-105149030D01*
X157467850Y-105159520D01*
X157488893Y-105172132D01*
X157508599Y-105186747D01*
X157526777Y-105203223D01*
X157543253Y-105221401D01*
X157557868Y-105241107D01*
X157570480Y-105262150D01*
X157580970Y-105284329D01*
X157589235Y-105307428D01*
X157595196Y-105331227D01*
X157598796Y-105355495D01*
X157600000Y-105379999D01*
X157600000Y-106620001D01*
X157598796Y-106644505D01*
X157595196Y-106668773D01*
X157589235Y-106692572D01*
X157580970Y-106715671D01*
X157570480Y-106737850D01*
X157557868Y-106758893D01*
X157543253Y-106778599D01*
X157526777Y-106796777D01*
X157508599Y-106813253D01*
X157488893Y-106827868D01*
X157467850Y-106840480D01*
X157445671Y-106850970D01*
X157422572Y-106859235D01*
X157398773Y-106865196D01*
X157374505Y-106868796D01*
X157350001Y-106870000D01*
X155649999Y-106870000D01*
X155625495Y-106868796D01*
X155601227Y-106865196D01*
X155577428Y-106859235D01*
X155554329Y-106850970D01*
X155532150Y-106840480D01*
X155511107Y-106827868D01*
X155491401Y-106813253D01*
X155473223Y-106796777D01*
X155456747Y-106778599D01*
X155442132Y-106758893D01*
X155429520Y-106737850D01*
X155419030Y-106715671D01*
X155410765Y-106692572D01*
X155404804Y-106668773D01*
X155401204Y-106644505D01*
X155400000Y-106620001D01*
X155400000Y-105379999D01*
X155401204Y-105355495D01*
X155404804Y-105331227D01*
X155410765Y-105307428D01*
X155419030Y-105284329D01*
X155429520Y-105262150D01*
X155442132Y-105241107D01*
X155456747Y-105221401D01*
X155473223Y-105203223D01*
X155491401Y-105186747D01*
X155511107Y-105172132D01*
X155532150Y-105159520D01*
X155554329Y-105149030D01*
X155577428Y-105140765D01*
X155601227Y-105134804D01*
X155625495Y-105131204D01*
X155649999Y-105130000D01*
X157350001Y-105130000D01*
X157374505Y-105131204D01*
G37*
G04 #@! TD.AperFunction*
D12*
X168880000Y-104500000D03*
D13*
X176500000Y-104500000D03*
D12*
X176120000Y-120920000D03*
D13*
X168500000Y-120920000D03*
D14*
X152000000Y-114880000D03*
D15*
X152000000Y-122500000D03*
D14*
X148500000Y-122500000D03*
D15*
X148500000Y-114880000D03*
D16*
X165500000Y-113770000D03*
D17*
X165500000Y-111230000D03*
X168040000Y-113770000D03*
X168040000Y-111230000D03*
X170580000Y-113770000D03*
X170580000Y-111230000D03*
X173120000Y-113770000D03*
X173120000Y-111230000D03*
X175660000Y-113770000D03*
X175660000Y-111230000D03*
D18*
X118000000Y-117300000D03*
X118000000Y-107700000D03*
D19*
X110500000Y-110000000D03*
X110500000Y-112500000D03*
D20*
X110500000Y-115000000D03*
D14*
X138380000Y-111500000D03*
X146000000Y-103880000D03*
X138380000Y-108960000D03*
X146000000Y-106420000D03*
X138380000Y-106420000D03*
X146000000Y-108960000D03*
X138380000Y-103880000D03*
D15*
X146000000Y-111500000D03*
D14*
X125000000Y-122620000D03*
D21*
X125000000Y-115000000D03*
D14*
X129000000Y-114880000D03*
D21*
X129000000Y-122500000D03*
D14*
X133000000Y-122500000D03*
D21*
X133000000Y-114880000D03*
D14*
X141000000Y-122620000D03*
D21*
X141000000Y-115000000D03*
D14*
X137000000Y-122500000D03*
D21*
X137000000Y-114880000D03*
D14*
X145000000Y-122620000D03*
D21*
X145000000Y-115000000D03*
X149500000Y-106500000D03*
X149500000Y-109000000D03*
X135000000Y-106500000D03*
X135000000Y-109000000D03*
X164000000Y-104500000D03*
D15*
X162000000Y-104500000D03*
D21*
X162000000Y-120920000D03*
D15*
X164000000Y-120920000D03*
D22*
X138948630Y-114880000D02*
X137000000Y-114880000D01*
X144868630Y-108960000D02*
X138948630Y-114880000D01*
X146000000Y-108960000D02*
X144868630Y-108960000D01*
X137000000Y-118620000D02*
X141000000Y-122620000D01*
X137000000Y-114880000D02*
X137000000Y-118620000D01*
X143500000Y-111500000D02*
X146000000Y-111500000D01*
X141000000Y-115000000D02*
X141000000Y-114000000D01*
X141000000Y-114000000D02*
X143500000Y-111500000D01*
X129000000Y-114880000D02*
X133000000Y-114880000D01*
X140000000Y-111772501D02*
X140000000Y-108040000D01*
X140000000Y-108040000D02*
X139179999Y-107219999D01*
X138772501Y-113000000D02*
X140000000Y-111772501D01*
X139179999Y-107219999D02*
X138380000Y-106420000D01*
X133000000Y-114880000D02*
X134880000Y-113000000D01*
X134880000Y-113000000D02*
X138772501Y-113000000D01*
X111650000Y-115000000D02*
X110500000Y-115000000D01*
X127500000Y-124000000D02*
X123857499Y-124000000D01*
X129000000Y-122500000D02*
X127500000Y-124000000D01*
X113650000Y-113000000D02*
X111650000Y-115000000D01*
X123857499Y-124000000D02*
X121000000Y-121142501D01*
X121000000Y-121142501D02*
X121000000Y-115000000D01*
X121000000Y-115000000D02*
X119000000Y-113000000D01*
X119000000Y-113000000D02*
X113650000Y-113000000D01*
X110500000Y-110005000D02*
X110500000Y-112505000D01*
X137045001Y-107625001D02*
X138380000Y-108960000D01*
X133000000Y-107000000D02*
X133625001Y-107625001D01*
X123500000Y-110000000D02*
X126500000Y-107000000D01*
X126500000Y-107000000D02*
X133000000Y-107000000D01*
X133625001Y-107625001D02*
X137045001Y-107625001D01*
X122000000Y-119620000D02*
X125000000Y-122620000D01*
X122000000Y-111500000D02*
X122000000Y-119620000D01*
X123500000Y-110000000D02*
X122000000Y-111500000D01*
X121500000Y-112000000D02*
X123500000Y-110000000D01*
X110500000Y-110000000D02*
X112500000Y-112000000D01*
X112500000Y-112000000D02*
X121500000Y-112000000D01*
X127500000Y-112500000D02*
X127500000Y-111500000D01*
X125000000Y-115000000D02*
X127500000Y-112500000D01*
X152000000Y-122500000D02*
X148500000Y-122500000D01*
X148500000Y-118500000D02*
X148500000Y-122500000D01*
X145000000Y-115000000D02*
X148500000Y-118500000D01*
X148000000Y-108420000D02*
X146000000Y-106420000D01*
X145000000Y-115000000D02*
X148000000Y-112000000D01*
X148000000Y-112000000D02*
X148000000Y-108420000D01*
X155400000Y-106000000D02*
X156500000Y-106000000D01*
X154400000Y-105000000D02*
X155400000Y-106000000D01*
X146000000Y-106420000D02*
X147420000Y-105000000D01*
X147420000Y-105000000D02*
X154400000Y-105000000D01*
D23*
G36*
X188340000Y-124340000D02*
G01*
X128234801Y-124340000D01*
X128676114Y-123898688D01*
X128858665Y-123935000D01*
X129141335Y-123935000D01*
X129418574Y-123879853D01*
X129679727Y-123771680D01*
X129914759Y-123614637D01*
X130114637Y-123414759D01*
X130271680Y-123179727D01*
X130379853Y-122918574D01*
X130393684Y-122849040D01*
X131608091Y-122849040D01*
X131702930Y-123113881D01*
X131847615Y-123355131D01*
X132036586Y-123563519D01*
X132262580Y-123731037D01*
X132516913Y-123851246D01*
X132650961Y-123891904D01*
X132873000Y-123769915D01*
X132873000Y-122627000D01*
X133127000Y-122627000D01*
X133127000Y-123769915D01*
X133349039Y-123891904D01*
X133483087Y-123851246D01*
X133737420Y-123731037D01*
X133963414Y-123563519D01*
X134152385Y-123355131D01*
X134297070Y-123113881D01*
X134391909Y-122849040D01*
X135608091Y-122849040D01*
X135702930Y-123113881D01*
X135847615Y-123355131D01*
X136036586Y-123563519D01*
X136262580Y-123731037D01*
X136516913Y-123851246D01*
X136650961Y-123891904D01*
X136873000Y-123769915D01*
X136873000Y-122627000D01*
X137127000Y-122627000D01*
X137127000Y-123769915D01*
X137349039Y-123891904D01*
X137483087Y-123851246D01*
X137737420Y-123731037D01*
X137963414Y-123563519D01*
X138152385Y-123355131D01*
X138297070Y-123113881D01*
X138391909Y-122849040D01*
X138270624Y-122627000D01*
X137127000Y-122627000D01*
X136873000Y-122627000D01*
X135729376Y-122627000D01*
X135608091Y-122849040D01*
X134391909Y-122849040D01*
X134270624Y-122627000D01*
X133127000Y-122627000D01*
X132873000Y-122627000D01*
X131729376Y-122627000D01*
X131608091Y-122849040D01*
X130393684Y-122849040D01*
X130435000Y-122641335D01*
X130435000Y-122358665D01*
X130393685Y-122150960D01*
X131608091Y-122150960D01*
X131729376Y-122373000D01*
X132873000Y-122373000D01*
X132873000Y-121230085D01*
X133127000Y-121230085D01*
X133127000Y-122373000D01*
X134270624Y-122373000D01*
X134391909Y-122150960D01*
X135608091Y-122150960D01*
X135729376Y-122373000D01*
X136873000Y-122373000D01*
X136873000Y-121230085D01*
X137127000Y-121230085D01*
X137127000Y-122373000D01*
X138270624Y-122373000D01*
X138391909Y-122150960D01*
X138297070Y-121886119D01*
X138152385Y-121644869D01*
X137963414Y-121436481D01*
X137737420Y-121268963D01*
X137483087Y-121148754D01*
X137349039Y-121108096D01*
X137127000Y-121230085D01*
X136873000Y-121230085D01*
X136650961Y-121108096D01*
X136516913Y-121148754D01*
X136262580Y-121268963D01*
X136036586Y-121436481D01*
X135847615Y-121644869D01*
X135702930Y-121886119D01*
X135608091Y-122150960D01*
X134391909Y-122150960D01*
X134297070Y-121886119D01*
X134152385Y-121644869D01*
X133963414Y-121436481D01*
X133737420Y-121268963D01*
X133483087Y-121148754D01*
X133349039Y-121108096D01*
X133127000Y-121230085D01*
X132873000Y-121230085D01*
X132650961Y-121108096D01*
X132516913Y-121148754D01*
X132262580Y-121268963D01*
X132036586Y-121436481D01*
X131847615Y-121644869D01*
X131702930Y-121886119D01*
X131608091Y-122150960D01*
X130393685Y-122150960D01*
X130379853Y-122081426D01*
X130271680Y-121820273D01*
X130114637Y-121585241D01*
X129914759Y-121385363D01*
X129679727Y-121228320D01*
X129418574Y-121120147D01*
X129141335Y-121065000D01*
X128858665Y-121065000D01*
X128581426Y-121120147D01*
X128320273Y-121228320D01*
X128085241Y-121385363D01*
X127885363Y-121585241D01*
X127728320Y-121820273D01*
X127620147Y-122081426D01*
X127565000Y-122358665D01*
X127565000Y-122641335D01*
X127601312Y-122823886D01*
X127185199Y-123240000D01*
X126296420Y-123240000D01*
X126379853Y-123038574D01*
X126435000Y-122761335D01*
X126435000Y-122478665D01*
X126379853Y-122201426D01*
X126271680Y-121940273D01*
X126114637Y-121705241D01*
X125914759Y-121505363D01*
X125679727Y-121348320D01*
X125418574Y-121240147D01*
X125141335Y-121185000D01*
X124858665Y-121185000D01*
X124676114Y-121221312D01*
X122760000Y-119305199D01*
X122760000Y-114858665D01*
X123565000Y-114858665D01*
X123565000Y-115141335D01*
X123620147Y-115418574D01*
X123728320Y-115679727D01*
X123885363Y-115914759D01*
X124085241Y-116114637D01*
X124320273Y-116271680D01*
X124581426Y-116379853D01*
X124858665Y-116435000D01*
X125141335Y-116435000D01*
X125418574Y-116379853D01*
X125679727Y-116271680D01*
X125914759Y-116114637D01*
X126114637Y-115914759D01*
X126271680Y-115679727D01*
X126379853Y-115418574D01*
X126435000Y-115141335D01*
X126435000Y-114858665D01*
X126398688Y-114676114D01*
X128011004Y-113063798D01*
X128040001Y-113040001D01*
X128066204Y-113008072D01*
X128350001Y-113008072D01*
X128523255Y-112991008D01*
X128689851Y-112940472D01*
X128843387Y-112858405D01*
X128977962Y-112747962D01*
X129088405Y-112613387D01*
X129170472Y-112459851D01*
X129221008Y-112293255D01*
X129238072Y-112120001D01*
X129238072Y-110879999D01*
X129221008Y-110706745D01*
X129170472Y-110540149D01*
X129088405Y-110386613D01*
X128977962Y-110252038D01*
X128843387Y-110141595D01*
X128734686Y-110083493D01*
X128890536Y-109930494D01*
X129057571Y-109685437D01*
X129173588Y-109412502D01*
X129191302Y-109320031D01*
X129070246Y-109087000D01*
X127627000Y-109087000D01*
X127627000Y-109107000D01*
X127373000Y-109107000D01*
X127373000Y-109087000D01*
X125929754Y-109087000D01*
X125808698Y-109320031D01*
X125826412Y-109412502D01*
X125942429Y-109685437D01*
X126109464Y-109930494D01*
X126265314Y-110083493D01*
X126156613Y-110141595D01*
X126022038Y-110252038D01*
X125911595Y-110386613D01*
X125829528Y-110540149D01*
X125778992Y-110706745D01*
X125761928Y-110879999D01*
X125761928Y-112120001D01*
X125778992Y-112293255D01*
X125829528Y-112459851D01*
X125911595Y-112613387D01*
X126022038Y-112747962D01*
X126107280Y-112817918D01*
X125323886Y-113601312D01*
X125141335Y-113565000D01*
X124858665Y-113565000D01*
X124581426Y-113620147D01*
X124320273Y-113728320D01*
X124085241Y-113885363D01*
X123885363Y-114085241D01*
X123728320Y-114320273D01*
X123620147Y-114581426D01*
X123565000Y-114858665D01*
X122760000Y-114858665D01*
X122760000Y-111814801D01*
X124063799Y-110511003D01*
X124063803Y-110510998D01*
X125865496Y-108709305D01*
X125929754Y-108833000D01*
X127373000Y-108833000D01*
X127373000Y-108813000D01*
X127627000Y-108813000D01*
X127627000Y-108833000D01*
X129070246Y-108833000D01*
X129191302Y-108599969D01*
X129173588Y-108507498D01*
X129057571Y-108234563D01*
X128890536Y-107989506D01*
X128678903Y-107781744D01*
X128645701Y-107760000D01*
X132685199Y-107760000D01*
X133061201Y-108136003D01*
X133085000Y-108165002D01*
X133113998Y-108188800D01*
X133200724Y-108259975D01*
X133238699Y-108280273D01*
X133332754Y-108330547D01*
X133476015Y-108374004D01*
X133587668Y-108385001D01*
X133587678Y-108385001D01*
X133625001Y-108388677D01*
X133662324Y-108385001D01*
X133701509Y-108385001D01*
X133620147Y-108581426D01*
X133565000Y-108858665D01*
X133565000Y-109141335D01*
X133620147Y-109418574D01*
X133728320Y-109679727D01*
X133885363Y-109914759D01*
X134085241Y-110114637D01*
X134320273Y-110271680D01*
X134581426Y-110379853D01*
X134858665Y-110435000D01*
X135141335Y-110435000D01*
X135418574Y-110379853D01*
X135679727Y-110271680D01*
X135914759Y-110114637D01*
X136114637Y-109914759D01*
X136271680Y-109679727D01*
X136379853Y-109418574D01*
X136435000Y-109141335D01*
X136435000Y-108858665D01*
X136379853Y-108581426D01*
X136298491Y-108385001D01*
X136730200Y-108385001D01*
X136981312Y-108636114D01*
X136945000Y-108818665D01*
X136945000Y-109101335D01*
X137000147Y-109378574D01*
X137108320Y-109639727D01*
X137265363Y-109874759D01*
X137465241Y-110074637D01*
X137697759Y-110230000D01*
X137465241Y-110385363D01*
X137265363Y-110585241D01*
X137108320Y-110820273D01*
X137000147Y-111081426D01*
X136945000Y-111358665D01*
X136945000Y-111641335D01*
X137000147Y-111918574D01*
X137108320Y-112179727D01*
X137148593Y-112240000D01*
X134917322Y-112240000D01*
X134879999Y-112236324D01*
X134842676Y-112240000D01*
X134842667Y-112240000D01*
X134731014Y-112250997D01*
X134587753Y-112294454D01*
X134455724Y-112365026D01*
X134455722Y-112365027D01*
X134455723Y-112365027D01*
X134368996Y-112436201D01*
X134368992Y-112436205D01*
X134339999Y-112459999D01*
X134316205Y-112488992D01*
X133323886Y-113481312D01*
X133141335Y-113445000D01*
X132858665Y-113445000D01*
X132581426Y-113500147D01*
X132320273Y-113608320D01*
X132085241Y-113765363D01*
X131885363Y-113965241D01*
X131781957Y-114120000D01*
X130218043Y-114120000D01*
X130114637Y-113965241D01*
X129914759Y-113765363D01*
X129679727Y-113608320D01*
X129418574Y-113500147D01*
X129141335Y-113445000D01*
X128858665Y-113445000D01*
X128581426Y-113500147D01*
X128320273Y-113608320D01*
X128085241Y-113765363D01*
X127885363Y-113965241D01*
X127728320Y-114200273D01*
X127620147Y-114461426D01*
X127565000Y-114738665D01*
X127565000Y-115021335D01*
X127620147Y-115298574D01*
X127728320Y-115559727D01*
X127885363Y-115794759D01*
X128085241Y-115994637D01*
X128320273Y-116151680D01*
X128581426Y-116259853D01*
X128858665Y-116315000D01*
X129141335Y-116315000D01*
X129418574Y-116259853D01*
X129679727Y-116151680D01*
X129914759Y-115994637D01*
X130114637Y-115794759D01*
X130218043Y-115640000D01*
X131781957Y-115640000D01*
X131885363Y-115794759D01*
X132085241Y-115994637D01*
X132320273Y-116151680D01*
X132581426Y-116259853D01*
X132858665Y-116315000D01*
X133141335Y-116315000D01*
X133418574Y-116259853D01*
X133679727Y-116151680D01*
X133914759Y-115994637D01*
X134114637Y-115794759D01*
X134271680Y-115559727D01*
X134379853Y-115298574D01*
X134435000Y-115021335D01*
X134435000Y-114738665D01*
X134398688Y-114556114D01*
X135194803Y-113760000D01*
X136093267Y-113760000D01*
X136085241Y-113765363D01*
X135885363Y-113965241D01*
X135728320Y-114200273D01*
X135620147Y-114461426D01*
X135565000Y-114738665D01*
X135565000Y-115021335D01*
X135620147Y-115298574D01*
X135728320Y-115559727D01*
X135885363Y-115794759D01*
X136085241Y-115994637D01*
X136240000Y-116098044D01*
X136240001Y-118582668D01*
X136236324Y-118620000D01*
X136250998Y-118768985D01*
X136294454Y-118912246D01*
X136365026Y-119044276D01*
X136436201Y-119131002D01*
X136460000Y-119160001D01*
X136488998Y-119183799D01*
X139601312Y-122296114D01*
X139565000Y-122478665D01*
X139565000Y-122761335D01*
X139620147Y-123038574D01*
X139728320Y-123299727D01*
X139885363Y-123534759D01*
X140085241Y-123734637D01*
X140320273Y-123891680D01*
X140581426Y-123999853D01*
X140858665Y-124055000D01*
X141141335Y-124055000D01*
X141418574Y-123999853D01*
X141679727Y-123891680D01*
X141914759Y-123734637D01*
X142114637Y-123534759D01*
X142271680Y-123299727D01*
X142379853Y-123038574D01*
X142393684Y-122969040D01*
X143608091Y-122969040D01*
X143702930Y-123233881D01*
X143847615Y-123475131D01*
X144036586Y-123683519D01*
X144262580Y-123851037D01*
X144516913Y-123971246D01*
X144650961Y-124011904D01*
X144873000Y-123889915D01*
X144873000Y-122747000D01*
X145127000Y-122747000D01*
X145127000Y-123889915D01*
X145349039Y-124011904D01*
X145483087Y-123971246D01*
X145737420Y-123851037D01*
X145963414Y-123683519D01*
X146152385Y-123475131D01*
X146297070Y-123233881D01*
X146391909Y-122969040D01*
X146270624Y-122747000D01*
X145127000Y-122747000D01*
X144873000Y-122747000D01*
X143729376Y-122747000D01*
X143608091Y-122969040D01*
X142393684Y-122969040D01*
X142435000Y-122761335D01*
X142435000Y-122478665D01*
X142393685Y-122270960D01*
X143608091Y-122270960D01*
X143729376Y-122493000D01*
X144873000Y-122493000D01*
X144873000Y-121350085D01*
X145127000Y-121350085D01*
X145127000Y-122493000D01*
X146270624Y-122493000D01*
X146391909Y-122270960D01*
X146297070Y-122006119D01*
X146152385Y-121764869D01*
X145963414Y-121556481D01*
X145737420Y-121388963D01*
X145483087Y-121268754D01*
X145349039Y-121228096D01*
X145127000Y-121350085D01*
X144873000Y-121350085D01*
X144650961Y-121228096D01*
X144516913Y-121268754D01*
X144262580Y-121388963D01*
X144036586Y-121556481D01*
X143847615Y-121764869D01*
X143702930Y-122006119D01*
X143608091Y-122270960D01*
X142393685Y-122270960D01*
X142379853Y-122201426D01*
X142271680Y-121940273D01*
X142114637Y-121705241D01*
X141914759Y-121505363D01*
X141679727Y-121348320D01*
X141418574Y-121240147D01*
X141141335Y-121185000D01*
X140858665Y-121185000D01*
X140676114Y-121221312D01*
X137760000Y-118305199D01*
X137760000Y-116098043D01*
X137914759Y-115994637D01*
X138114637Y-115794759D01*
X138218043Y-115640000D01*
X138911308Y-115640000D01*
X138948630Y-115643676D01*
X138985952Y-115640000D01*
X138985963Y-115640000D01*
X139097616Y-115629003D01*
X139240877Y-115585546D01*
X139372906Y-115514974D01*
X139488631Y-115420001D01*
X139512434Y-115390997D01*
X139597701Y-115305730D01*
X139620147Y-115418574D01*
X139728320Y-115679727D01*
X139885363Y-115914759D01*
X140085241Y-116114637D01*
X140320273Y-116271680D01*
X140581426Y-116379853D01*
X140858665Y-116435000D01*
X141141335Y-116435000D01*
X141418574Y-116379853D01*
X141679727Y-116271680D01*
X141914759Y-116114637D01*
X142114637Y-115914759D01*
X142271680Y-115679727D01*
X142379853Y-115418574D01*
X142435000Y-115141335D01*
X142435000Y-114858665D01*
X142379853Y-114581426D01*
X142271680Y-114320273D01*
X142114637Y-114085241D01*
X142052099Y-114022703D01*
X143814802Y-112260000D01*
X144561928Y-112260000D01*
X144561928Y-112300000D01*
X144574188Y-112424482D01*
X144610498Y-112544180D01*
X144669463Y-112654494D01*
X144748815Y-112751185D01*
X144845506Y-112830537D01*
X144955820Y-112889502D01*
X145075518Y-112925812D01*
X145200000Y-112938072D01*
X145987126Y-112938072D01*
X145323886Y-113601312D01*
X145141335Y-113565000D01*
X144858665Y-113565000D01*
X144581426Y-113620147D01*
X144320273Y-113728320D01*
X144085241Y-113885363D01*
X143885363Y-114085241D01*
X143728320Y-114320273D01*
X143620147Y-114581426D01*
X143565000Y-114858665D01*
X143565000Y-115141335D01*
X143620147Y-115418574D01*
X143728320Y-115679727D01*
X143885363Y-115914759D01*
X144085241Y-116114637D01*
X144320273Y-116271680D01*
X144581426Y-116379853D01*
X144858665Y-116435000D01*
X145141335Y-116435000D01*
X145323886Y-116398688D01*
X147740000Y-118814803D01*
X147740001Y-121281956D01*
X147585241Y-121385363D01*
X147385363Y-121585241D01*
X147228320Y-121820273D01*
X147120147Y-122081426D01*
X147065000Y-122358665D01*
X147065000Y-122641335D01*
X147120147Y-122918574D01*
X147228320Y-123179727D01*
X147385363Y-123414759D01*
X147585241Y-123614637D01*
X147820273Y-123771680D01*
X148081426Y-123879853D01*
X148358665Y-123935000D01*
X148641335Y-123935000D01*
X148918574Y-123879853D01*
X149179727Y-123771680D01*
X149414759Y-123614637D01*
X149614637Y-123414759D01*
X149718043Y-123260000D01*
X150561928Y-123260000D01*
X150561928Y-123300000D01*
X150574188Y-123424482D01*
X150610498Y-123544180D01*
X150669463Y-123654494D01*
X150748815Y-123751185D01*
X150845506Y-123830537D01*
X150955820Y-123889502D01*
X151075518Y-123925812D01*
X151200000Y-123938072D01*
X152800000Y-123938072D01*
X152924482Y-123925812D01*
X153044180Y-123889502D01*
X153154494Y-123830537D01*
X153251185Y-123751185D01*
X153330537Y-123654494D01*
X153389502Y-123544180D01*
X153425812Y-123424482D01*
X153438072Y-123300000D01*
X153438072Y-121700000D01*
X153425812Y-121575518D01*
X153389502Y-121455820D01*
X153330537Y-121345506D01*
X153251185Y-121248815D01*
X153154494Y-121169463D01*
X153044180Y-121110498D01*
X152924482Y-121074188D01*
X152800000Y-121061928D01*
X151200000Y-121061928D01*
X151075518Y-121074188D01*
X150955820Y-121110498D01*
X150845506Y-121169463D01*
X150748815Y-121248815D01*
X150669463Y-121345506D01*
X150610498Y-121455820D01*
X150574188Y-121575518D01*
X150561928Y-121700000D01*
X150561928Y-121740000D01*
X149718043Y-121740000D01*
X149614637Y-121585241D01*
X149414759Y-121385363D01*
X149260000Y-121281957D01*
X149260000Y-120990512D01*
X160559783Y-120990512D01*
X160601213Y-121270130D01*
X160696397Y-121536292D01*
X160763329Y-121661514D01*
X161007298Y-121733097D01*
X161820395Y-120920000D01*
X161007298Y-120106903D01*
X160763329Y-120178486D01*
X160642429Y-120433996D01*
X160573700Y-120708184D01*
X160559783Y-120990512D01*
X149260000Y-120990512D01*
X149260000Y-119927298D01*
X161186903Y-119927298D01*
X162000000Y-120740395D01*
X162014143Y-120726253D01*
X162193748Y-120905858D01*
X162179605Y-120920000D01*
X162193748Y-120934143D01*
X162014143Y-121113748D01*
X162000000Y-121099605D01*
X161186903Y-121912702D01*
X161258486Y-122156671D01*
X161513996Y-122277571D01*
X161788184Y-122346300D01*
X162070512Y-122360217D01*
X162350130Y-122318787D01*
X162616292Y-122223603D01*
X162738309Y-122158384D01*
X162748815Y-122171185D01*
X162845506Y-122250537D01*
X162955820Y-122309502D01*
X163075518Y-122345812D01*
X163200000Y-122358072D01*
X164800000Y-122358072D01*
X164924482Y-122345812D01*
X165044180Y-122309502D01*
X165154494Y-122250537D01*
X165251185Y-122171185D01*
X165330537Y-122074494D01*
X165389502Y-121964180D01*
X165425812Y-121844482D01*
X165438072Y-121720000D01*
X165438072Y-120120000D01*
X165425812Y-119995518D01*
X165389502Y-119875820D01*
X165359666Y-119820000D01*
X166761928Y-119820000D01*
X166761928Y-122020000D01*
X166774188Y-122144482D01*
X166810498Y-122264180D01*
X166869463Y-122374494D01*
X166948815Y-122471185D01*
X167045506Y-122550537D01*
X167155820Y-122609502D01*
X167275518Y-122645812D01*
X167400000Y-122658072D01*
X169600000Y-122658072D01*
X169724482Y-122645812D01*
X169844180Y-122609502D01*
X169954494Y-122550537D01*
X170051185Y-122471185D01*
X170130537Y-122374494D01*
X170189502Y-122264180D01*
X170225812Y-122144482D01*
X170238072Y-122020000D01*
X170238072Y-120749117D01*
X174385000Y-120749117D01*
X174385000Y-121090883D01*
X174451675Y-121426081D01*
X174582463Y-121741831D01*
X174772337Y-122025998D01*
X175014002Y-122267663D01*
X175298169Y-122457537D01*
X175613919Y-122588325D01*
X175949117Y-122655000D01*
X176290883Y-122655000D01*
X176626081Y-122588325D01*
X176941831Y-122457537D01*
X177225998Y-122267663D01*
X177467663Y-122025998D01*
X177657537Y-121741831D01*
X177788325Y-121426081D01*
X177855000Y-121090883D01*
X177855000Y-120749117D01*
X177788325Y-120413919D01*
X177657537Y-120098169D01*
X177467663Y-119814002D01*
X177225998Y-119572337D01*
X176941831Y-119382463D01*
X176626081Y-119251675D01*
X176290883Y-119185000D01*
X175949117Y-119185000D01*
X175613919Y-119251675D01*
X175298169Y-119382463D01*
X175014002Y-119572337D01*
X174772337Y-119814002D01*
X174582463Y-120098169D01*
X174451675Y-120413919D01*
X174385000Y-120749117D01*
X170238072Y-120749117D01*
X170238072Y-119820000D01*
X170225812Y-119695518D01*
X170189502Y-119575820D01*
X170130537Y-119465506D01*
X170051185Y-119368815D01*
X169954494Y-119289463D01*
X169844180Y-119230498D01*
X169724482Y-119194188D01*
X169600000Y-119181928D01*
X167400000Y-119181928D01*
X167275518Y-119194188D01*
X167155820Y-119230498D01*
X167045506Y-119289463D01*
X166948815Y-119368815D01*
X166869463Y-119465506D01*
X166810498Y-119575820D01*
X166774188Y-119695518D01*
X166761928Y-119820000D01*
X165359666Y-119820000D01*
X165330537Y-119765506D01*
X165251185Y-119668815D01*
X165154494Y-119589463D01*
X165044180Y-119530498D01*
X164924482Y-119494188D01*
X164800000Y-119481928D01*
X163200000Y-119481928D01*
X163075518Y-119494188D01*
X162955820Y-119530498D01*
X162845506Y-119589463D01*
X162748815Y-119668815D01*
X162738193Y-119681758D01*
X162486004Y-119562429D01*
X162211816Y-119493700D01*
X161929488Y-119479783D01*
X161649870Y-119521213D01*
X161383708Y-119616397D01*
X161258486Y-119683329D01*
X161186903Y-119927298D01*
X149260000Y-119927298D01*
X149260000Y-118537322D01*
X149263676Y-118499999D01*
X149260000Y-118462676D01*
X149260000Y-118462667D01*
X149249003Y-118351014D01*
X149205546Y-118207753D01*
X149134974Y-118075724D01*
X149118952Y-118056201D01*
X149063799Y-117988996D01*
X149063795Y-117988992D01*
X149040001Y-117959999D01*
X149011009Y-117936206D01*
X146398688Y-115323886D01*
X146435000Y-115141335D01*
X146435000Y-114858665D01*
X146398688Y-114676114D01*
X147069261Y-114005540D01*
X147061928Y-114080000D01*
X147061928Y-115680000D01*
X147074188Y-115804482D01*
X147110498Y-115924180D01*
X147169463Y-116034494D01*
X147248815Y-116131185D01*
X147345506Y-116210537D01*
X147455820Y-116269502D01*
X147575518Y-116305812D01*
X147700000Y-116318072D01*
X149300000Y-116318072D01*
X149424482Y-116305812D01*
X149544180Y-116269502D01*
X149654494Y-116210537D01*
X149751185Y-116131185D01*
X149830537Y-116034494D01*
X149889502Y-115924180D01*
X149925812Y-115804482D01*
X149938072Y-115680000D01*
X149938072Y-115229040D01*
X150608091Y-115229040D01*
X150702930Y-115493881D01*
X150847615Y-115735131D01*
X151036586Y-115943519D01*
X151262580Y-116111037D01*
X151516913Y-116231246D01*
X151650961Y-116271904D01*
X151873000Y-116149915D01*
X151873000Y-115007000D01*
X152127000Y-115007000D01*
X152127000Y-116149915D01*
X152349039Y-116271904D01*
X152483087Y-116231246D01*
X152737420Y-116111037D01*
X152963414Y-115943519D01*
X153152385Y-115735131D01*
X153297070Y-115493881D01*
X153391909Y-115229040D01*
X153270624Y-115007000D01*
X152127000Y-115007000D01*
X151873000Y-115007000D01*
X150729376Y-115007000D01*
X150608091Y-115229040D01*
X149938072Y-115229040D01*
X149938072Y-114530960D01*
X150608091Y-114530960D01*
X150729376Y-114753000D01*
X151873000Y-114753000D01*
X151873000Y-113610085D01*
X152127000Y-113610085D01*
X152127000Y-114753000D01*
X153270624Y-114753000D01*
X153391909Y-114530960D01*
X153297070Y-114266119D01*
X153152385Y-114024869D01*
X152963414Y-113816481D01*
X152737420Y-113648963D01*
X152483087Y-113528754D01*
X152349039Y-113488096D01*
X152127000Y-113610085D01*
X151873000Y-113610085D01*
X151650961Y-113488096D01*
X151516913Y-113528754D01*
X151262580Y-113648963D01*
X151036586Y-113816481D01*
X150847615Y-114024869D01*
X150702930Y-114266119D01*
X150608091Y-114530960D01*
X149938072Y-114530960D01*
X149938072Y-114080000D01*
X149925812Y-113955518D01*
X149889502Y-113835820D01*
X149830537Y-113725506D01*
X149751185Y-113628815D01*
X149654494Y-113549463D01*
X149544180Y-113490498D01*
X149424482Y-113454188D01*
X149300000Y-113441928D01*
X147700000Y-113441928D01*
X147625540Y-113449261D01*
X148168401Y-112906400D01*
X163998328Y-112906400D01*
X163998328Y-114633600D01*
X164010588Y-114758082D01*
X164046898Y-114877780D01*
X164105863Y-114988094D01*
X164185215Y-115084785D01*
X164281906Y-115164137D01*
X164392220Y-115223102D01*
X164511918Y-115259412D01*
X164636400Y-115271672D01*
X166363600Y-115271672D01*
X166488082Y-115259412D01*
X166607780Y-115223102D01*
X166718094Y-115164137D01*
X166814785Y-115084785D01*
X166894137Y-114988094D01*
X166953102Y-114877780D01*
X166972624Y-114813426D01*
X167029707Y-114876854D01*
X167265056Y-115052684D01*
X167530186Y-115179222D01*
X167680974Y-115224958D01*
X167913000Y-115103817D01*
X167913000Y-113897000D01*
X168167000Y-113897000D01*
X168167000Y-115103817D01*
X168399026Y-115224958D01*
X168549814Y-115179222D01*
X168814944Y-115052684D01*
X169050293Y-114876854D01*
X169246817Y-114658488D01*
X169310000Y-114552230D01*
X169373183Y-114658488D01*
X169569707Y-114876854D01*
X169805056Y-115052684D01*
X170070186Y-115179222D01*
X170220974Y-115224958D01*
X170453000Y-115103817D01*
X170453000Y-113897000D01*
X170707000Y-113897000D01*
X170707000Y-115103817D01*
X170939026Y-115224958D01*
X171089814Y-115179222D01*
X171354944Y-115052684D01*
X171590293Y-114876854D01*
X171786817Y-114658488D01*
X171850000Y-114552230D01*
X171913183Y-114658488D01*
X172109707Y-114876854D01*
X172345056Y-115052684D01*
X172610186Y-115179222D01*
X172760974Y-115224958D01*
X172993000Y-115103817D01*
X172993000Y-113897000D01*
X170707000Y-113897000D01*
X170453000Y-113897000D01*
X168167000Y-113897000D01*
X167913000Y-113897000D01*
X167893000Y-113897000D01*
X167893000Y-113643000D01*
X167913000Y-113643000D01*
X167913000Y-111357000D01*
X168167000Y-111357000D01*
X168167000Y-113643000D01*
X170453000Y-113643000D01*
X170453000Y-111357000D01*
X170707000Y-111357000D01*
X170707000Y-113643000D01*
X172993000Y-113643000D01*
X172993000Y-111357000D01*
X170707000Y-111357000D01*
X170453000Y-111357000D01*
X168167000Y-111357000D01*
X167913000Y-111357000D01*
X167893000Y-111357000D01*
X167893000Y-111103000D01*
X167913000Y-111103000D01*
X167913000Y-109896183D01*
X168167000Y-109896183D01*
X168167000Y-111103000D01*
X170453000Y-111103000D01*
X170453000Y-109896183D01*
X170707000Y-109896183D01*
X170707000Y-111103000D01*
X172993000Y-111103000D01*
X172993000Y-109896183D01*
X173247000Y-109896183D01*
X173247000Y-111103000D01*
X173267000Y-111103000D01*
X173267000Y-111357000D01*
X173247000Y-111357000D01*
X173247000Y-113643000D01*
X173267000Y-113643000D01*
X173267000Y-113897000D01*
X173247000Y-113897000D01*
X173247000Y-115103817D01*
X173479026Y-115224958D01*
X173629814Y-115179222D01*
X173894944Y-115052684D01*
X174130293Y-114876854D01*
X174326817Y-114658488D01*
X174385441Y-114559897D01*
X174495961Y-114725302D01*
X174704698Y-114934039D01*
X174950147Y-115098042D01*
X175222875Y-115211010D01*
X175512401Y-115268600D01*
X175807599Y-115268600D01*
X176097125Y-115211010D01*
X176369853Y-115098042D01*
X176615302Y-114934039D01*
X176824039Y-114725302D01*
X176988042Y-114479853D01*
X177101010Y-114207125D01*
X177158600Y-113917599D01*
X177158600Y-113622401D01*
X177101010Y-113332875D01*
X176988042Y-113060147D01*
X176824039Y-112814698D01*
X176615302Y-112605961D01*
X176456719Y-112500000D01*
X176615302Y-112394039D01*
X176729469Y-112279872D01*
X182765000Y-112279872D01*
X182765000Y-112720128D01*
X182850890Y-113151925D01*
X183019369Y-113558669D01*
X183263962Y-113924729D01*
X183575271Y-114236038D01*
X183941331Y-114480631D01*
X184348075Y-114649110D01*
X184779872Y-114735000D01*
X185220128Y-114735000D01*
X185651925Y-114649110D01*
X186058669Y-114480631D01*
X186424729Y-114236038D01*
X186736038Y-113924729D01*
X186980631Y-113558669D01*
X187149110Y-113151925D01*
X187235000Y-112720128D01*
X187235000Y-112279872D01*
X187149110Y-111848075D01*
X186980631Y-111441331D01*
X186736038Y-111075271D01*
X186424729Y-110763962D01*
X186058669Y-110519369D01*
X185651925Y-110350890D01*
X185220128Y-110265000D01*
X184779872Y-110265000D01*
X184348075Y-110350890D01*
X183941331Y-110519369D01*
X183575271Y-110763962D01*
X183263962Y-111075271D01*
X183019369Y-111441331D01*
X182850890Y-111848075D01*
X182765000Y-112279872D01*
X176729469Y-112279872D01*
X176824039Y-112185302D01*
X176988042Y-111939853D01*
X177101010Y-111667125D01*
X177158600Y-111377599D01*
X177158600Y-111082401D01*
X177101010Y-110792875D01*
X176988042Y-110520147D01*
X176824039Y-110274698D01*
X176615302Y-110065961D01*
X176369853Y-109901958D01*
X176097125Y-109788990D01*
X175807599Y-109731400D01*
X175512401Y-109731400D01*
X175222875Y-109788990D01*
X174950147Y-109901958D01*
X174704698Y-110065961D01*
X174495961Y-110274698D01*
X174385441Y-110440103D01*
X174326817Y-110341512D01*
X174130293Y-110123146D01*
X173894944Y-109947316D01*
X173629814Y-109820778D01*
X173479026Y-109775042D01*
X173247000Y-109896183D01*
X172993000Y-109896183D01*
X172760974Y-109775042D01*
X172610186Y-109820778D01*
X172345056Y-109947316D01*
X172109707Y-110123146D01*
X171913183Y-110341512D01*
X171850000Y-110447770D01*
X171786817Y-110341512D01*
X171590293Y-110123146D01*
X171354944Y-109947316D01*
X171089814Y-109820778D01*
X170939026Y-109775042D01*
X170707000Y-109896183D01*
X170453000Y-109896183D01*
X170220974Y-109775042D01*
X170070186Y-109820778D01*
X169805056Y-109947316D01*
X169569707Y-110123146D01*
X169373183Y-110341512D01*
X169310000Y-110447770D01*
X169246817Y-110341512D01*
X169050293Y-110123146D01*
X168814944Y-109947316D01*
X168549814Y-109820778D01*
X168399026Y-109775042D01*
X168167000Y-109896183D01*
X167913000Y-109896183D01*
X167680974Y-109775042D01*
X167530186Y-109820778D01*
X167265056Y-109947316D01*
X167029707Y-110123146D01*
X166833183Y-110341512D01*
X166774559Y-110440103D01*
X166664039Y-110274698D01*
X166455302Y-110065961D01*
X166209853Y-109901958D01*
X165937125Y-109788990D01*
X165647599Y-109731400D01*
X165352401Y-109731400D01*
X165062875Y-109788990D01*
X164790147Y-109901958D01*
X164544698Y-110065961D01*
X164335961Y-110274698D01*
X164171958Y-110520147D01*
X164058990Y-110792875D01*
X164001400Y-111082401D01*
X164001400Y-111377599D01*
X164058990Y-111667125D01*
X164171958Y-111939853D01*
X164335961Y-112185302D01*
X164450023Y-112299364D01*
X164392220Y-112316898D01*
X164281906Y-112375863D01*
X164185215Y-112455215D01*
X164105863Y-112551906D01*
X164046898Y-112662220D01*
X164010588Y-112781918D01*
X163998328Y-112906400D01*
X148168401Y-112906400D01*
X148511004Y-112563798D01*
X148540001Y-112540001D01*
X148634974Y-112424276D01*
X148705546Y-112292247D01*
X148749003Y-112148986D01*
X148760000Y-112037333D01*
X148760000Y-112037325D01*
X148763676Y-112000000D01*
X148760000Y-111962675D01*
X148760000Y-110237387D01*
X149013996Y-110357571D01*
X149288184Y-110426300D01*
X149570512Y-110440217D01*
X149850130Y-110398787D01*
X150116292Y-110303603D01*
X150241514Y-110236671D01*
X150313097Y-109992702D01*
X149500000Y-109179605D01*
X149485858Y-109193748D01*
X149306253Y-109014143D01*
X149320395Y-109000000D01*
X149679605Y-109000000D01*
X150492702Y-109813097D01*
X150736671Y-109741514D01*
X150857571Y-109486004D01*
X150926300Y-109211816D01*
X150940217Y-108929488D01*
X150935853Y-108900031D01*
X154808698Y-108900031D01*
X154826412Y-108992502D01*
X154942429Y-109265437D01*
X155109464Y-109510494D01*
X155321097Y-109718256D01*
X155569196Y-109880738D01*
X155844227Y-109991696D01*
X156135620Y-110046866D01*
X156373000Y-109890586D01*
X156373000Y-108667000D01*
X156627000Y-108667000D01*
X156627000Y-109890586D01*
X156864380Y-110046866D01*
X157155773Y-109991696D01*
X157430804Y-109880738D01*
X157678903Y-109718256D01*
X157890536Y-109510494D01*
X158057571Y-109265437D01*
X158173588Y-108992502D01*
X158191302Y-108900031D01*
X158070246Y-108667000D01*
X156627000Y-108667000D01*
X156373000Y-108667000D01*
X154929754Y-108667000D01*
X154808698Y-108900031D01*
X150935853Y-108900031D01*
X150898787Y-108649870D01*
X150803603Y-108383708D01*
X150736671Y-108258486D01*
X150492702Y-108186903D01*
X149679605Y-109000000D01*
X149320395Y-109000000D01*
X149306253Y-108985858D01*
X149485858Y-108806253D01*
X149500000Y-108820395D01*
X150313097Y-108007298D01*
X150241514Y-107763329D01*
X150212659Y-107749676D01*
X150414759Y-107614637D01*
X150614637Y-107414759D01*
X150771680Y-107179727D01*
X150879853Y-106918574D01*
X150935000Y-106641335D01*
X150935000Y-106358665D01*
X150879853Y-106081426D01*
X150771680Y-105820273D01*
X150731407Y-105760000D01*
X154085199Y-105760000D01*
X154761928Y-106436730D01*
X154761928Y-106620001D01*
X154778992Y-106793255D01*
X154829528Y-106959851D01*
X154911595Y-107113387D01*
X155022038Y-107247962D01*
X155156613Y-107358405D01*
X155265314Y-107416507D01*
X155109464Y-107569506D01*
X154942429Y-107814563D01*
X154826412Y-108087498D01*
X154808698Y-108179969D01*
X154929754Y-108413000D01*
X156373000Y-108413000D01*
X156373000Y-108393000D01*
X156627000Y-108393000D01*
X156627000Y-108413000D01*
X158070246Y-108413000D01*
X158191302Y-108179969D01*
X158173588Y-108087498D01*
X158057571Y-107814563D01*
X157890536Y-107569506D01*
X157734686Y-107416507D01*
X157843387Y-107358405D01*
X157977962Y-107247962D01*
X158088405Y-107113387D01*
X158170472Y-106959851D01*
X158221008Y-106793255D01*
X158238072Y-106620001D01*
X158238072Y-105379999D01*
X158230193Y-105300000D01*
X160561928Y-105300000D01*
X160574188Y-105424482D01*
X160610498Y-105544180D01*
X160669463Y-105654494D01*
X160748815Y-105751185D01*
X160845506Y-105830537D01*
X160955820Y-105889502D01*
X161075518Y-105925812D01*
X161200000Y-105938072D01*
X161714250Y-105935000D01*
X161873000Y-105776250D01*
X161873000Y-104627000D01*
X160723750Y-104627000D01*
X160565000Y-104785750D01*
X160561928Y-105300000D01*
X158230193Y-105300000D01*
X158221008Y-105206745D01*
X158170472Y-105040149D01*
X158088405Y-104886613D01*
X157977962Y-104752038D01*
X157843387Y-104641595D01*
X157689851Y-104559528D01*
X157523255Y-104508992D01*
X157350001Y-104491928D01*
X155649999Y-104491928D01*
X155476745Y-104508992D01*
X155310149Y-104559528D01*
X155156613Y-104641595D01*
X155134524Y-104659723D01*
X154963804Y-104489002D01*
X154940001Y-104459999D01*
X154824276Y-104365026D01*
X154692247Y-104294454D01*
X154548986Y-104250997D01*
X154437333Y-104240000D01*
X154437322Y-104240000D01*
X154400000Y-104236324D01*
X154362678Y-104240000D01*
X147457322Y-104240000D01*
X147419999Y-104236324D01*
X147391681Y-104239113D01*
X147435000Y-104021335D01*
X147435000Y-103738665D01*
X147427309Y-103700000D01*
X160561928Y-103700000D01*
X160565000Y-104214250D01*
X160723750Y-104373000D01*
X161873000Y-104373000D01*
X161873000Y-103223750D01*
X162127000Y-103223750D01*
X162127000Y-104373000D01*
X162147000Y-104373000D01*
X162147000Y-104627000D01*
X162127000Y-104627000D01*
X162127000Y-105776250D01*
X162285750Y-105935000D01*
X162800000Y-105938072D01*
X162924482Y-105925812D01*
X163044180Y-105889502D01*
X163154494Y-105830537D01*
X163251185Y-105751185D01*
X163264790Y-105734607D01*
X163320273Y-105771680D01*
X163581426Y-105879853D01*
X163858665Y-105935000D01*
X164141335Y-105935000D01*
X164418574Y-105879853D01*
X164679727Y-105771680D01*
X164914759Y-105614637D01*
X165114637Y-105414759D01*
X165271680Y-105179727D01*
X165379853Y-104918574D01*
X165435000Y-104641335D01*
X165435000Y-104358665D01*
X165429123Y-104329117D01*
X167145000Y-104329117D01*
X167145000Y-104670883D01*
X167211675Y-105006081D01*
X167342463Y-105321831D01*
X167532337Y-105605998D01*
X167774002Y-105847663D01*
X168058169Y-106037537D01*
X168373919Y-106168325D01*
X168709117Y-106235000D01*
X169050883Y-106235000D01*
X169386081Y-106168325D01*
X169701831Y-106037537D01*
X169985998Y-105847663D01*
X170227663Y-105605998D01*
X170417537Y-105321831D01*
X170548325Y-105006081D01*
X170615000Y-104670883D01*
X170615000Y-104329117D01*
X170548325Y-103993919D01*
X170417537Y-103678169D01*
X170231671Y-103400000D01*
X174761928Y-103400000D01*
X174761928Y-105600000D01*
X174774188Y-105724482D01*
X174810498Y-105844180D01*
X174869463Y-105954494D01*
X174948815Y-106051185D01*
X175045506Y-106130537D01*
X175155820Y-106189502D01*
X175275518Y-106225812D01*
X175400000Y-106238072D01*
X177600000Y-106238072D01*
X177724482Y-106225812D01*
X177844180Y-106189502D01*
X177954494Y-106130537D01*
X178051185Y-106051185D01*
X178130537Y-105954494D01*
X178189502Y-105844180D01*
X178225812Y-105724482D01*
X178238072Y-105600000D01*
X178238072Y-103400000D01*
X178225812Y-103275518D01*
X178189502Y-103155820D01*
X178130537Y-103045506D01*
X178051185Y-102948815D01*
X177954494Y-102869463D01*
X177844180Y-102810498D01*
X177724482Y-102774188D01*
X177600000Y-102761928D01*
X175400000Y-102761928D01*
X175275518Y-102774188D01*
X175155820Y-102810498D01*
X175045506Y-102869463D01*
X174948815Y-102948815D01*
X174869463Y-103045506D01*
X174810498Y-103155820D01*
X174774188Y-103275518D01*
X174761928Y-103400000D01*
X170231671Y-103400000D01*
X170227663Y-103394002D01*
X169985998Y-103152337D01*
X169701831Y-102962463D01*
X169386081Y-102831675D01*
X169050883Y-102765000D01*
X168709117Y-102765000D01*
X168373919Y-102831675D01*
X168058169Y-102962463D01*
X167774002Y-103152337D01*
X167532337Y-103394002D01*
X167342463Y-103678169D01*
X167211675Y-103993919D01*
X167145000Y-104329117D01*
X165429123Y-104329117D01*
X165379853Y-104081426D01*
X165271680Y-103820273D01*
X165114637Y-103585241D01*
X164914759Y-103385363D01*
X164679727Y-103228320D01*
X164418574Y-103120147D01*
X164141335Y-103065000D01*
X163858665Y-103065000D01*
X163581426Y-103120147D01*
X163320273Y-103228320D01*
X163264790Y-103265393D01*
X163251185Y-103248815D01*
X163154494Y-103169463D01*
X163044180Y-103110498D01*
X162924482Y-103074188D01*
X162800000Y-103061928D01*
X162285750Y-103065000D01*
X162127000Y-103223750D01*
X161873000Y-103223750D01*
X161714250Y-103065000D01*
X161200000Y-103061928D01*
X161075518Y-103074188D01*
X160955820Y-103110498D01*
X160845506Y-103169463D01*
X160748815Y-103248815D01*
X160669463Y-103345506D01*
X160610498Y-103455820D01*
X160574188Y-103575518D01*
X160561928Y-103700000D01*
X147427309Y-103700000D01*
X147379853Y-103461426D01*
X147271680Y-103200273D01*
X147114637Y-102965241D01*
X146914759Y-102765363D01*
X146679727Y-102608320D01*
X146418574Y-102500147D01*
X146141335Y-102445000D01*
X145858665Y-102445000D01*
X145581426Y-102500147D01*
X145320273Y-102608320D01*
X145085241Y-102765363D01*
X144885363Y-102965241D01*
X144728320Y-103200273D01*
X144620147Y-103461426D01*
X144565000Y-103738665D01*
X144565000Y-104021335D01*
X144620147Y-104298574D01*
X144728320Y-104559727D01*
X144885363Y-104794759D01*
X145085241Y-104994637D01*
X145317759Y-105150000D01*
X145085241Y-105305363D01*
X144885363Y-105505241D01*
X144728320Y-105740273D01*
X144620147Y-106001426D01*
X144565000Y-106278665D01*
X144565000Y-106561335D01*
X144620147Y-106838574D01*
X144728320Y-107099727D01*
X144885363Y-107334759D01*
X145085241Y-107534637D01*
X145317759Y-107690000D01*
X145085241Y-107845363D01*
X144885363Y-108045241D01*
X144778481Y-108205202D01*
X144719644Y-108210997D01*
X144576383Y-108254454D01*
X144444354Y-108325026D01*
X144328629Y-108419999D01*
X144304831Y-108448997D01*
X140712715Y-112041113D01*
X140749003Y-111921487D01*
X140760000Y-111809834D01*
X140760000Y-111809826D01*
X140763676Y-111772501D01*
X140760000Y-111735176D01*
X140760000Y-108077333D01*
X140763677Y-108040000D01*
X140749003Y-107891014D01*
X140705546Y-107747753D01*
X140634974Y-107615724D01*
X140563799Y-107528997D01*
X140540001Y-107499999D01*
X140511002Y-107476201D01*
X139778688Y-106743887D01*
X139815000Y-106561335D01*
X139815000Y-106278665D01*
X139759853Y-106001426D01*
X139651680Y-105740273D01*
X139494637Y-105505241D01*
X139294759Y-105305363D01*
X139062241Y-105150000D01*
X139294759Y-104994637D01*
X139494637Y-104794759D01*
X139651680Y-104559727D01*
X139759853Y-104298574D01*
X139815000Y-104021335D01*
X139815000Y-103738665D01*
X139759853Y-103461426D01*
X139651680Y-103200273D01*
X139494637Y-102965241D01*
X139294759Y-102765363D01*
X139059727Y-102608320D01*
X138798574Y-102500147D01*
X138521335Y-102445000D01*
X138238665Y-102445000D01*
X137961426Y-102500147D01*
X137700273Y-102608320D01*
X137465241Y-102765363D01*
X137265363Y-102965241D01*
X137108320Y-103200273D01*
X137000147Y-103461426D01*
X136945000Y-103738665D01*
X136945000Y-104021335D01*
X137000147Y-104298574D01*
X137108320Y-104559727D01*
X137265363Y-104794759D01*
X137465241Y-104994637D01*
X137697759Y-105150000D01*
X137465241Y-105305363D01*
X137265363Y-105505241D01*
X137108320Y-105740273D01*
X137000147Y-106001426D01*
X136945000Y-106278665D01*
X136945000Y-106561335D01*
X137000147Y-106838574D01*
X137010960Y-106864678D01*
X137007679Y-106865001D01*
X136387902Y-106865001D01*
X136426300Y-106711816D01*
X136440217Y-106429488D01*
X136398787Y-106149870D01*
X136303603Y-105883708D01*
X136236671Y-105758486D01*
X135992702Y-105686903D01*
X135179605Y-106500000D01*
X135193748Y-106514143D01*
X135014143Y-106693748D01*
X135000000Y-106679605D01*
X134985858Y-106693748D01*
X134806253Y-106514143D01*
X134820395Y-106500000D01*
X134007298Y-105686903D01*
X133763329Y-105758486D01*
X133642429Y-106013996D01*
X133573700Y-106288184D01*
X133563801Y-106488999D01*
X133540001Y-106459999D01*
X133424276Y-106365026D01*
X133292247Y-106294454D01*
X133148986Y-106250997D01*
X133037333Y-106240000D01*
X133037322Y-106240000D01*
X133000000Y-106236324D01*
X132962678Y-106240000D01*
X126537325Y-106240000D01*
X126500000Y-106236324D01*
X126462675Y-106240000D01*
X126462667Y-106240000D01*
X126351014Y-106250997D01*
X126207753Y-106294454D01*
X126075724Y-106365026D01*
X125959999Y-106459999D01*
X125936201Y-106488997D01*
X122989002Y-109436197D01*
X122988997Y-109436201D01*
X121489001Y-110936197D01*
X121459999Y-110959999D01*
X121436199Y-110989000D01*
X121185199Y-111240000D01*
X112814802Y-111240000D01*
X111983731Y-110408930D01*
X112035000Y-110151184D01*
X112035000Y-109848816D01*
X111976011Y-109552257D01*
X111860299Y-109272905D01*
X111692312Y-109021495D01*
X111478505Y-108807688D01*
X111227095Y-108639701D01*
X110947743Y-108523989D01*
X110651184Y-108465000D01*
X110348816Y-108465000D01*
X110052257Y-108523989D01*
X109772905Y-108639701D01*
X109521495Y-108807688D01*
X109307688Y-109021495D01*
X109139701Y-109272905D01*
X109023989Y-109552257D01*
X108965000Y-109848816D01*
X108965000Y-110151184D01*
X109023989Y-110447743D01*
X109139701Y-110727095D01*
X109307688Y-110978505D01*
X109521495Y-111192312D01*
X109607831Y-111250000D01*
X109521495Y-111307688D01*
X109307688Y-111521495D01*
X109139701Y-111772905D01*
X109023989Y-112052257D01*
X108965000Y-112348816D01*
X108965000Y-112651184D01*
X109023989Y-112947743D01*
X109139701Y-113227095D01*
X109307688Y-113478505D01*
X109345303Y-113516120D01*
X109245506Y-113569463D01*
X109148815Y-113648815D01*
X109069463Y-113745506D01*
X109010498Y-113855820D01*
X108974188Y-113975518D01*
X108961928Y-114100000D01*
X108961928Y-115900000D01*
X108974188Y-116024482D01*
X109010498Y-116144180D01*
X109069463Y-116254494D01*
X109148815Y-116351185D01*
X109245506Y-116430537D01*
X109355820Y-116489502D01*
X109475518Y-116525812D01*
X109600000Y-116538072D01*
X111400000Y-116538072D01*
X111524482Y-116525812D01*
X111644180Y-116489502D01*
X111754494Y-116430537D01*
X111851185Y-116351185D01*
X111930537Y-116254494D01*
X111989502Y-116144180D01*
X112025812Y-116024482D01*
X112038072Y-115900000D01*
X112038072Y-115654326D01*
X112074276Y-115634974D01*
X112190001Y-115540001D01*
X112213804Y-115510997D01*
X113964802Y-113760000D01*
X118685199Y-113760000D01*
X120240001Y-115314803D01*
X120240001Y-117002495D01*
X120168342Y-116642241D01*
X119998355Y-116231857D01*
X119751573Y-115862521D01*
X119437479Y-115548427D01*
X119068143Y-115301645D01*
X118657759Y-115131658D01*
X118222098Y-115045000D01*
X117777902Y-115045000D01*
X117342241Y-115131658D01*
X116931857Y-115301645D01*
X116562521Y-115548427D01*
X116248427Y-115862521D01*
X116001645Y-116231857D01*
X115831658Y-116642241D01*
X115745000Y-117077902D01*
X115745000Y-117522098D01*
X115831658Y-117957759D01*
X116001645Y-118368143D01*
X116248427Y-118737479D01*
X116562521Y-119051573D01*
X116931857Y-119298355D01*
X117342241Y-119468342D01*
X117777902Y-119555000D01*
X118222098Y-119555000D01*
X118657759Y-119468342D01*
X119068143Y-119298355D01*
X119437479Y-119051573D01*
X119751573Y-118737479D01*
X119998355Y-118368143D01*
X120168342Y-117957759D01*
X120240001Y-117597506D01*
X120240000Y-121105178D01*
X120236324Y-121142501D01*
X120240000Y-121179823D01*
X120240000Y-121179833D01*
X120250997Y-121291486D01*
X120268773Y-121350085D01*
X120294454Y-121434747D01*
X120365026Y-121566777D01*
X120404871Y-121615327D01*
X120459999Y-121682502D01*
X120489003Y-121706305D01*
X123122697Y-124340000D01*
X108160000Y-124340000D01*
X108160000Y-107477902D01*
X115745000Y-107477902D01*
X115745000Y-107922098D01*
X115831658Y-108357759D01*
X116001645Y-108768143D01*
X116248427Y-109137479D01*
X116562521Y-109451573D01*
X116931857Y-109698355D01*
X117342241Y-109868342D01*
X117777902Y-109955000D01*
X118222098Y-109955000D01*
X118657759Y-109868342D01*
X119068143Y-109698355D01*
X119437479Y-109451573D01*
X119751573Y-109137479D01*
X119998355Y-108768143D01*
X120168342Y-108357759D01*
X120255000Y-107922098D01*
X120255000Y-107477902D01*
X120168342Y-107042241D01*
X119998355Y-106631857D01*
X119751573Y-106262521D01*
X119437479Y-105948427D01*
X119068143Y-105701645D01*
X118657759Y-105531658D01*
X118535293Y-105507298D01*
X134186903Y-105507298D01*
X135000000Y-106320395D01*
X135813097Y-105507298D01*
X135741514Y-105263329D01*
X135486004Y-105142429D01*
X135211816Y-105073700D01*
X134929488Y-105059783D01*
X134649870Y-105101213D01*
X134383708Y-105196397D01*
X134258486Y-105263329D01*
X134186903Y-105507298D01*
X118535293Y-105507298D01*
X118222098Y-105445000D01*
X117777902Y-105445000D01*
X117342241Y-105531658D01*
X116931857Y-105701645D01*
X116562521Y-105948427D01*
X116248427Y-106262521D01*
X116001645Y-106631857D01*
X115831658Y-107042241D01*
X115745000Y-107477902D01*
X108160000Y-107477902D01*
X108160000Y-100660000D01*
X188340001Y-100660000D01*
X188340000Y-124340000D01*
G37*
X188340000Y-124340000D02*
X128234801Y-124340000D01*
X128676114Y-123898688D01*
X128858665Y-123935000D01*
X129141335Y-123935000D01*
X129418574Y-123879853D01*
X129679727Y-123771680D01*
X129914759Y-123614637D01*
X130114637Y-123414759D01*
X130271680Y-123179727D01*
X130379853Y-122918574D01*
X130393684Y-122849040D01*
X131608091Y-122849040D01*
X131702930Y-123113881D01*
X131847615Y-123355131D01*
X132036586Y-123563519D01*
X132262580Y-123731037D01*
X132516913Y-123851246D01*
X132650961Y-123891904D01*
X132873000Y-123769915D01*
X132873000Y-122627000D01*
X133127000Y-122627000D01*
X133127000Y-123769915D01*
X133349039Y-123891904D01*
X133483087Y-123851246D01*
X133737420Y-123731037D01*
X133963414Y-123563519D01*
X134152385Y-123355131D01*
X134297070Y-123113881D01*
X134391909Y-122849040D01*
X135608091Y-122849040D01*
X135702930Y-123113881D01*
X135847615Y-123355131D01*
X136036586Y-123563519D01*
X136262580Y-123731037D01*
X136516913Y-123851246D01*
X136650961Y-123891904D01*
X136873000Y-123769915D01*
X136873000Y-122627000D01*
X137127000Y-122627000D01*
X137127000Y-123769915D01*
X137349039Y-123891904D01*
X137483087Y-123851246D01*
X137737420Y-123731037D01*
X137963414Y-123563519D01*
X138152385Y-123355131D01*
X138297070Y-123113881D01*
X138391909Y-122849040D01*
X138270624Y-122627000D01*
X137127000Y-122627000D01*
X136873000Y-122627000D01*
X135729376Y-122627000D01*
X135608091Y-122849040D01*
X134391909Y-122849040D01*
X134270624Y-122627000D01*
X133127000Y-122627000D01*
X132873000Y-122627000D01*
X131729376Y-122627000D01*
X131608091Y-122849040D01*
X130393684Y-122849040D01*
X130435000Y-122641335D01*
X130435000Y-122358665D01*
X130393685Y-122150960D01*
X131608091Y-122150960D01*
X131729376Y-122373000D01*
X132873000Y-122373000D01*
X132873000Y-121230085D01*
X133127000Y-121230085D01*
X133127000Y-122373000D01*
X134270624Y-122373000D01*
X134391909Y-122150960D01*
X135608091Y-122150960D01*
X135729376Y-122373000D01*
X136873000Y-122373000D01*
X136873000Y-121230085D01*
X137127000Y-121230085D01*
X137127000Y-122373000D01*
X138270624Y-122373000D01*
X138391909Y-122150960D01*
X138297070Y-121886119D01*
X138152385Y-121644869D01*
X137963414Y-121436481D01*
X137737420Y-121268963D01*
X137483087Y-121148754D01*
X137349039Y-121108096D01*
X137127000Y-121230085D01*
X136873000Y-121230085D01*
X136650961Y-121108096D01*
X136516913Y-121148754D01*
X136262580Y-121268963D01*
X136036586Y-121436481D01*
X135847615Y-121644869D01*
X135702930Y-121886119D01*
X135608091Y-122150960D01*
X134391909Y-122150960D01*
X134297070Y-121886119D01*
X134152385Y-121644869D01*
X133963414Y-121436481D01*
X133737420Y-121268963D01*
X133483087Y-121148754D01*
X133349039Y-121108096D01*
X133127000Y-121230085D01*
X132873000Y-121230085D01*
X132650961Y-121108096D01*
X132516913Y-121148754D01*
X132262580Y-121268963D01*
X132036586Y-121436481D01*
X131847615Y-121644869D01*
X131702930Y-121886119D01*
X131608091Y-122150960D01*
X130393685Y-122150960D01*
X130379853Y-122081426D01*
X130271680Y-121820273D01*
X130114637Y-121585241D01*
X129914759Y-121385363D01*
X129679727Y-121228320D01*
X129418574Y-121120147D01*
X129141335Y-121065000D01*
X128858665Y-121065000D01*
X128581426Y-121120147D01*
X128320273Y-121228320D01*
X128085241Y-121385363D01*
X127885363Y-121585241D01*
X127728320Y-121820273D01*
X127620147Y-122081426D01*
X127565000Y-122358665D01*
X127565000Y-122641335D01*
X127601312Y-122823886D01*
X127185199Y-123240000D01*
X126296420Y-123240000D01*
X126379853Y-123038574D01*
X126435000Y-122761335D01*
X126435000Y-122478665D01*
X126379853Y-122201426D01*
X126271680Y-121940273D01*
X126114637Y-121705241D01*
X125914759Y-121505363D01*
X125679727Y-121348320D01*
X125418574Y-121240147D01*
X125141335Y-121185000D01*
X124858665Y-121185000D01*
X124676114Y-121221312D01*
X122760000Y-119305199D01*
X122760000Y-114858665D01*
X123565000Y-114858665D01*
X123565000Y-115141335D01*
X123620147Y-115418574D01*
X123728320Y-115679727D01*
X123885363Y-115914759D01*
X124085241Y-116114637D01*
X124320273Y-116271680D01*
X124581426Y-116379853D01*
X124858665Y-116435000D01*
X125141335Y-116435000D01*
X125418574Y-116379853D01*
X125679727Y-116271680D01*
X125914759Y-116114637D01*
X126114637Y-115914759D01*
X126271680Y-115679727D01*
X126379853Y-115418574D01*
X126435000Y-115141335D01*
X126435000Y-114858665D01*
X126398688Y-114676114D01*
X128011004Y-113063798D01*
X128040001Y-113040001D01*
X128066204Y-113008072D01*
X128350001Y-113008072D01*
X128523255Y-112991008D01*
X128689851Y-112940472D01*
X128843387Y-112858405D01*
X128977962Y-112747962D01*
X129088405Y-112613387D01*
X129170472Y-112459851D01*
X129221008Y-112293255D01*
X129238072Y-112120001D01*
X129238072Y-110879999D01*
X129221008Y-110706745D01*
X129170472Y-110540149D01*
X129088405Y-110386613D01*
X128977962Y-110252038D01*
X128843387Y-110141595D01*
X128734686Y-110083493D01*
X128890536Y-109930494D01*
X129057571Y-109685437D01*
X129173588Y-109412502D01*
X129191302Y-109320031D01*
X129070246Y-109087000D01*
X127627000Y-109087000D01*
X127627000Y-109107000D01*
X127373000Y-109107000D01*
X127373000Y-109087000D01*
X125929754Y-109087000D01*
X125808698Y-109320031D01*
X125826412Y-109412502D01*
X125942429Y-109685437D01*
X126109464Y-109930494D01*
X126265314Y-110083493D01*
X126156613Y-110141595D01*
X126022038Y-110252038D01*
X125911595Y-110386613D01*
X125829528Y-110540149D01*
X125778992Y-110706745D01*
X125761928Y-110879999D01*
X125761928Y-112120001D01*
X125778992Y-112293255D01*
X125829528Y-112459851D01*
X125911595Y-112613387D01*
X126022038Y-112747962D01*
X126107280Y-112817918D01*
X125323886Y-113601312D01*
X125141335Y-113565000D01*
X124858665Y-113565000D01*
X124581426Y-113620147D01*
X124320273Y-113728320D01*
X124085241Y-113885363D01*
X123885363Y-114085241D01*
X123728320Y-114320273D01*
X123620147Y-114581426D01*
X123565000Y-114858665D01*
X122760000Y-114858665D01*
X122760000Y-111814801D01*
X124063799Y-110511003D01*
X124063803Y-110510998D01*
X125865496Y-108709305D01*
X125929754Y-108833000D01*
X127373000Y-108833000D01*
X127373000Y-108813000D01*
X127627000Y-108813000D01*
X127627000Y-108833000D01*
X129070246Y-108833000D01*
X129191302Y-108599969D01*
X129173588Y-108507498D01*
X129057571Y-108234563D01*
X128890536Y-107989506D01*
X128678903Y-107781744D01*
X128645701Y-107760000D01*
X132685199Y-107760000D01*
X133061201Y-108136003D01*
X133085000Y-108165002D01*
X133113998Y-108188800D01*
X133200724Y-108259975D01*
X133238699Y-108280273D01*
X133332754Y-108330547D01*
X133476015Y-108374004D01*
X133587668Y-108385001D01*
X133587678Y-108385001D01*
X133625001Y-108388677D01*
X133662324Y-108385001D01*
X133701509Y-108385001D01*
X133620147Y-108581426D01*
X133565000Y-108858665D01*
X133565000Y-109141335D01*
X133620147Y-109418574D01*
X133728320Y-109679727D01*
X133885363Y-109914759D01*
X134085241Y-110114637D01*
X134320273Y-110271680D01*
X134581426Y-110379853D01*
X134858665Y-110435000D01*
X135141335Y-110435000D01*
X135418574Y-110379853D01*
X135679727Y-110271680D01*
X135914759Y-110114637D01*
X136114637Y-109914759D01*
X136271680Y-109679727D01*
X136379853Y-109418574D01*
X136435000Y-109141335D01*
X136435000Y-108858665D01*
X136379853Y-108581426D01*
X136298491Y-108385001D01*
X136730200Y-108385001D01*
X136981312Y-108636114D01*
X136945000Y-108818665D01*
X136945000Y-109101335D01*
X137000147Y-109378574D01*
X137108320Y-109639727D01*
X137265363Y-109874759D01*
X137465241Y-110074637D01*
X137697759Y-110230000D01*
X137465241Y-110385363D01*
X137265363Y-110585241D01*
X137108320Y-110820273D01*
X137000147Y-111081426D01*
X136945000Y-111358665D01*
X136945000Y-111641335D01*
X137000147Y-111918574D01*
X137108320Y-112179727D01*
X137148593Y-112240000D01*
X134917322Y-112240000D01*
X134879999Y-112236324D01*
X134842676Y-112240000D01*
X134842667Y-112240000D01*
X134731014Y-112250997D01*
X134587753Y-112294454D01*
X134455724Y-112365026D01*
X134455722Y-112365027D01*
X134455723Y-112365027D01*
X134368996Y-112436201D01*
X134368992Y-112436205D01*
X134339999Y-112459999D01*
X134316205Y-112488992D01*
X133323886Y-113481312D01*
X133141335Y-113445000D01*
X132858665Y-113445000D01*
X132581426Y-113500147D01*
X132320273Y-113608320D01*
X132085241Y-113765363D01*
X131885363Y-113965241D01*
X131781957Y-114120000D01*
X130218043Y-114120000D01*
X130114637Y-113965241D01*
X129914759Y-113765363D01*
X129679727Y-113608320D01*
X129418574Y-113500147D01*
X129141335Y-113445000D01*
X128858665Y-113445000D01*
X128581426Y-113500147D01*
X128320273Y-113608320D01*
X128085241Y-113765363D01*
X127885363Y-113965241D01*
X127728320Y-114200273D01*
X127620147Y-114461426D01*
X127565000Y-114738665D01*
X127565000Y-115021335D01*
X127620147Y-115298574D01*
X127728320Y-115559727D01*
X127885363Y-115794759D01*
X128085241Y-115994637D01*
X128320273Y-116151680D01*
X128581426Y-116259853D01*
X128858665Y-116315000D01*
X129141335Y-116315000D01*
X129418574Y-116259853D01*
X129679727Y-116151680D01*
X129914759Y-115994637D01*
X130114637Y-115794759D01*
X130218043Y-115640000D01*
X131781957Y-115640000D01*
X131885363Y-115794759D01*
X132085241Y-115994637D01*
X132320273Y-116151680D01*
X132581426Y-116259853D01*
X132858665Y-116315000D01*
X133141335Y-116315000D01*
X133418574Y-116259853D01*
X133679727Y-116151680D01*
X133914759Y-115994637D01*
X134114637Y-115794759D01*
X134271680Y-115559727D01*
X134379853Y-115298574D01*
X134435000Y-115021335D01*
X134435000Y-114738665D01*
X134398688Y-114556114D01*
X135194803Y-113760000D01*
X136093267Y-113760000D01*
X136085241Y-113765363D01*
X135885363Y-113965241D01*
X135728320Y-114200273D01*
X135620147Y-114461426D01*
X135565000Y-114738665D01*
X135565000Y-115021335D01*
X135620147Y-115298574D01*
X135728320Y-115559727D01*
X135885363Y-115794759D01*
X136085241Y-115994637D01*
X136240000Y-116098044D01*
X136240001Y-118582668D01*
X136236324Y-118620000D01*
X136250998Y-118768985D01*
X136294454Y-118912246D01*
X136365026Y-119044276D01*
X136436201Y-119131002D01*
X136460000Y-119160001D01*
X136488998Y-119183799D01*
X139601312Y-122296114D01*
X139565000Y-122478665D01*
X139565000Y-122761335D01*
X139620147Y-123038574D01*
X139728320Y-123299727D01*
X139885363Y-123534759D01*
X140085241Y-123734637D01*
X140320273Y-123891680D01*
X140581426Y-123999853D01*
X140858665Y-124055000D01*
X141141335Y-124055000D01*
X141418574Y-123999853D01*
X141679727Y-123891680D01*
X141914759Y-123734637D01*
X142114637Y-123534759D01*
X142271680Y-123299727D01*
X142379853Y-123038574D01*
X142393684Y-122969040D01*
X143608091Y-122969040D01*
X143702930Y-123233881D01*
X143847615Y-123475131D01*
X144036586Y-123683519D01*
X144262580Y-123851037D01*
X144516913Y-123971246D01*
X144650961Y-124011904D01*
X144873000Y-123889915D01*
X144873000Y-122747000D01*
X145127000Y-122747000D01*
X145127000Y-123889915D01*
X145349039Y-124011904D01*
X145483087Y-123971246D01*
X145737420Y-123851037D01*
X145963414Y-123683519D01*
X146152385Y-123475131D01*
X146297070Y-123233881D01*
X146391909Y-122969040D01*
X146270624Y-122747000D01*
X145127000Y-122747000D01*
X144873000Y-122747000D01*
X143729376Y-122747000D01*
X143608091Y-122969040D01*
X142393684Y-122969040D01*
X142435000Y-122761335D01*
X142435000Y-122478665D01*
X142393685Y-122270960D01*
X143608091Y-122270960D01*
X143729376Y-122493000D01*
X144873000Y-122493000D01*
X144873000Y-121350085D01*
X145127000Y-121350085D01*
X145127000Y-122493000D01*
X146270624Y-122493000D01*
X146391909Y-122270960D01*
X146297070Y-122006119D01*
X146152385Y-121764869D01*
X145963414Y-121556481D01*
X145737420Y-121388963D01*
X145483087Y-121268754D01*
X145349039Y-121228096D01*
X145127000Y-121350085D01*
X144873000Y-121350085D01*
X144650961Y-121228096D01*
X144516913Y-121268754D01*
X144262580Y-121388963D01*
X144036586Y-121556481D01*
X143847615Y-121764869D01*
X143702930Y-122006119D01*
X143608091Y-122270960D01*
X142393685Y-122270960D01*
X142379853Y-122201426D01*
X142271680Y-121940273D01*
X142114637Y-121705241D01*
X141914759Y-121505363D01*
X141679727Y-121348320D01*
X141418574Y-121240147D01*
X141141335Y-121185000D01*
X140858665Y-121185000D01*
X140676114Y-121221312D01*
X137760000Y-118305199D01*
X137760000Y-116098043D01*
X137914759Y-115994637D01*
X138114637Y-115794759D01*
X138218043Y-115640000D01*
X138911308Y-115640000D01*
X138948630Y-115643676D01*
X138985952Y-115640000D01*
X138985963Y-115640000D01*
X139097616Y-115629003D01*
X139240877Y-115585546D01*
X139372906Y-115514974D01*
X139488631Y-115420001D01*
X139512434Y-115390997D01*
X139597701Y-115305730D01*
X139620147Y-115418574D01*
X139728320Y-115679727D01*
X139885363Y-115914759D01*
X140085241Y-116114637D01*
X140320273Y-116271680D01*
X140581426Y-116379853D01*
X140858665Y-116435000D01*
X141141335Y-116435000D01*
X141418574Y-116379853D01*
X141679727Y-116271680D01*
X141914759Y-116114637D01*
X142114637Y-115914759D01*
X142271680Y-115679727D01*
X142379853Y-115418574D01*
X142435000Y-115141335D01*
X142435000Y-114858665D01*
X142379853Y-114581426D01*
X142271680Y-114320273D01*
X142114637Y-114085241D01*
X142052099Y-114022703D01*
X143814802Y-112260000D01*
X144561928Y-112260000D01*
X144561928Y-112300000D01*
X144574188Y-112424482D01*
X144610498Y-112544180D01*
X144669463Y-112654494D01*
X144748815Y-112751185D01*
X144845506Y-112830537D01*
X144955820Y-112889502D01*
X145075518Y-112925812D01*
X145200000Y-112938072D01*
X145987126Y-112938072D01*
X145323886Y-113601312D01*
X145141335Y-113565000D01*
X144858665Y-113565000D01*
X144581426Y-113620147D01*
X144320273Y-113728320D01*
X144085241Y-113885363D01*
X143885363Y-114085241D01*
X143728320Y-114320273D01*
X143620147Y-114581426D01*
X143565000Y-114858665D01*
X143565000Y-115141335D01*
X143620147Y-115418574D01*
X143728320Y-115679727D01*
X143885363Y-115914759D01*
X144085241Y-116114637D01*
X144320273Y-116271680D01*
X144581426Y-116379853D01*
X144858665Y-116435000D01*
X145141335Y-116435000D01*
X145323886Y-116398688D01*
X147740000Y-118814803D01*
X147740001Y-121281956D01*
X147585241Y-121385363D01*
X147385363Y-121585241D01*
X147228320Y-121820273D01*
X147120147Y-122081426D01*
X147065000Y-122358665D01*
X147065000Y-122641335D01*
X147120147Y-122918574D01*
X147228320Y-123179727D01*
X147385363Y-123414759D01*
X147585241Y-123614637D01*
X147820273Y-123771680D01*
X148081426Y-123879853D01*
X148358665Y-123935000D01*
X148641335Y-123935000D01*
X148918574Y-123879853D01*
X149179727Y-123771680D01*
X149414759Y-123614637D01*
X149614637Y-123414759D01*
X149718043Y-123260000D01*
X150561928Y-123260000D01*
X150561928Y-123300000D01*
X150574188Y-123424482D01*
X150610498Y-123544180D01*
X150669463Y-123654494D01*
X150748815Y-123751185D01*
X150845506Y-123830537D01*
X150955820Y-123889502D01*
X151075518Y-123925812D01*
X151200000Y-123938072D01*
X152800000Y-123938072D01*
X152924482Y-123925812D01*
X153044180Y-123889502D01*
X153154494Y-123830537D01*
X153251185Y-123751185D01*
X153330537Y-123654494D01*
X153389502Y-123544180D01*
X153425812Y-123424482D01*
X153438072Y-123300000D01*
X153438072Y-121700000D01*
X153425812Y-121575518D01*
X153389502Y-121455820D01*
X153330537Y-121345506D01*
X153251185Y-121248815D01*
X153154494Y-121169463D01*
X153044180Y-121110498D01*
X152924482Y-121074188D01*
X152800000Y-121061928D01*
X151200000Y-121061928D01*
X151075518Y-121074188D01*
X150955820Y-121110498D01*
X150845506Y-121169463D01*
X150748815Y-121248815D01*
X150669463Y-121345506D01*
X150610498Y-121455820D01*
X150574188Y-121575518D01*
X150561928Y-121700000D01*
X150561928Y-121740000D01*
X149718043Y-121740000D01*
X149614637Y-121585241D01*
X149414759Y-121385363D01*
X149260000Y-121281957D01*
X149260000Y-120990512D01*
X160559783Y-120990512D01*
X160601213Y-121270130D01*
X160696397Y-121536292D01*
X160763329Y-121661514D01*
X161007298Y-121733097D01*
X161820395Y-120920000D01*
X161007298Y-120106903D01*
X160763329Y-120178486D01*
X160642429Y-120433996D01*
X160573700Y-120708184D01*
X160559783Y-120990512D01*
X149260000Y-120990512D01*
X149260000Y-119927298D01*
X161186903Y-119927298D01*
X162000000Y-120740395D01*
X162014143Y-120726253D01*
X162193748Y-120905858D01*
X162179605Y-120920000D01*
X162193748Y-120934143D01*
X162014143Y-121113748D01*
X162000000Y-121099605D01*
X161186903Y-121912702D01*
X161258486Y-122156671D01*
X161513996Y-122277571D01*
X161788184Y-122346300D01*
X162070512Y-122360217D01*
X162350130Y-122318787D01*
X162616292Y-122223603D01*
X162738309Y-122158384D01*
X162748815Y-122171185D01*
X162845506Y-122250537D01*
X162955820Y-122309502D01*
X163075518Y-122345812D01*
X163200000Y-122358072D01*
X164800000Y-122358072D01*
X164924482Y-122345812D01*
X165044180Y-122309502D01*
X165154494Y-122250537D01*
X165251185Y-122171185D01*
X165330537Y-122074494D01*
X165389502Y-121964180D01*
X165425812Y-121844482D01*
X165438072Y-121720000D01*
X165438072Y-120120000D01*
X165425812Y-119995518D01*
X165389502Y-119875820D01*
X165359666Y-119820000D01*
X166761928Y-119820000D01*
X166761928Y-122020000D01*
X166774188Y-122144482D01*
X166810498Y-122264180D01*
X166869463Y-122374494D01*
X166948815Y-122471185D01*
X167045506Y-122550537D01*
X167155820Y-122609502D01*
X167275518Y-122645812D01*
X167400000Y-122658072D01*
X169600000Y-122658072D01*
X169724482Y-122645812D01*
X169844180Y-122609502D01*
X169954494Y-122550537D01*
X170051185Y-122471185D01*
X170130537Y-122374494D01*
X170189502Y-122264180D01*
X170225812Y-122144482D01*
X170238072Y-122020000D01*
X170238072Y-120749117D01*
X174385000Y-120749117D01*
X174385000Y-121090883D01*
X174451675Y-121426081D01*
X174582463Y-121741831D01*
X174772337Y-122025998D01*
X175014002Y-122267663D01*
X175298169Y-122457537D01*
X175613919Y-122588325D01*
X175949117Y-122655000D01*
X176290883Y-122655000D01*
X176626081Y-122588325D01*
X176941831Y-122457537D01*
X177225998Y-122267663D01*
X177467663Y-122025998D01*
X177657537Y-121741831D01*
X177788325Y-121426081D01*
X177855000Y-121090883D01*
X177855000Y-120749117D01*
X177788325Y-120413919D01*
X177657537Y-120098169D01*
X177467663Y-119814002D01*
X177225998Y-119572337D01*
X176941831Y-119382463D01*
X176626081Y-119251675D01*
X176290883Y-119185000D01*
X175949117Y-119185000D01*
X175613919Y-119251675D01*
X175298169Y-119382463D01*
X175014002Y-119572337D01*
X174772337Y-119814002D01*
X174582463Y-120098169D01*
X174451675Y-120413919D01*
X174385000Y-120749117D01*
X170238072Y-120749117D01*
X170238072Y-119820000D01*
X170225812Y-119695518D01*
X170189502Y-119575820D01*
X170130537Y-119465506D01*
X170051185Y-119368815D01*
X169954494Y-119289463D01*
X169844180Y-119230498D01*
X169724482Y-119194188D01*
X169600000Y-119181928D01*
X167400000Y-119181928D01*
X167275518Y-119194188D01*
X167155820Y-119230498D01*
X167045506Y-119289463D01*
X166948815Y-119368815D01*
X166869463Y-119465506D01*
X166810498Y-119575820D01*
X166774188Y-119695518D01*
X166761928Y-119820000D01*
X165359666Y-119820000D01*
X165330537Y-119765506D01*
X165251185Y-119668815D01*
X165154494Y-119589463D01*
X165044180Y-119530498D01*
X164924482Y-119494188D01*
X164800000Y-119481928D01*
X163200000Y-119481928D01*
X163075518Y-119494188D01*
X162955820Y-119530498D01*
X162845506Y-119589463D01*
X162748815Y-119668815D01*
X162738193Y-119681758D01*
X162486004Y-119562429D01*
X162211816Y-119493700D01*
X161929488Y-119479783D01*
X161649870Y-119521213D01*
X161383708Y-119616397D01*
X161258486Y-119683329D01*
X161186903Y-119927298D01*
X149260000Y-119927298D01*
X149260000Y-118537322D01*
X149263676Y-118499999D01*
X149260000Y-118462676D01*
X149260000Y-118462667D01*
X149249003Y-118351014D01*
X149205546Y-118207753D01*
X149134974Y-118075724D01*
X149118952Y-118056201D01*
X149063799Y-117988996D01*
X149063795Y-117988992D01*
X149040001Y-117959999D01*
X149011009Y-117936206D01*
X146398688Y-115323886D01*
X146435000Y-115141335D01*
X146435000Y-114858665D01*
X146398688Y-114676114D01*
X147069261Y-114005540D01*
X147061928Y-114080000D01*
X147061928Y-115680000D01*
X147074188Y-115804482D01*
X147110498Y-115924180D01*
X147169463Y-116034494D01*
X147248815Y-116131185D01*
X147345506Y-116210537D01*
X147455820Y-116269502D01*
X147575518Y-116305812D01*
X147700000Y-116318072D01*
X149300000Y-116318072D01*
X149424482Y-116305812D01*
X149544180Y-116269502D01*
X149654494Y-116210537D01*
X149751185Y-116131185D01*
X149830537Y-116034494D01*
X149889502Y-115924180D01*
X149925812Y-115804482D01*
X149938072Y-115680000D01*
X149938072Y-115229040D01*
X150608091Y-115229040D01*
X150702930Y-115493881D01*
X150847615Y-115735131D01*
X151036586Y-115943519D01*
X151262580Y-116111037D01*
X151516913Y-116231246D01*
X151650961Y-116271904D01*
X151873000Y-116149915D01*
X151873000Y-115007000D01*
X152127000Y-115007000D01*
X152127000Y-116149915D01*
X152349039Y-116271904D01*
X152483087Y-116231246D01*
X152737420Y-116111037D01*
X152963414Y-115943519D01*
X153152385Y-115735131D01*
X153297070Y-115493881D01*
X153391909Y-115229040D01*
X153270624Y-115007000D01*
X152127000Y-115007000D01*
X151873000Y-115007000D01*
X150729376Y-115007000D01*
X150608091Y-115229040D01*
X149938072Y-115229040D01*
X149938072Y-114530960D01*
X150608091Y-114530960D01*
X150729376Y-114753000D01*
X151873000Y-114753000D01*
X151873000Y-113610085D01*
X152127000Y-113610085D01*
X152127000Y-114753000D01*
X153270624Y-114753000D01*
X153391909Y-114530960D01*
X153297070Y-114266119D01*
X153152385Y-114024869D01*
X152963414Y-113816481D01*
X152737420Y-113648963D01*
X152483087Y-113528754D01*
X152349039Y-113488096D01*
X152127000Y-113610085D01*
X151873000Y-113610085D01*
X151650961Y-113488096D01*
X151516913Y-113528754D01*
X151262580Y-113648963D01*
X151036586Y-113816481D01*
X150847615Y-114024869D01*
X150702930Y-114266119D01*
X150608091Y-114530960D01*
X149938072Y-114530960D01*
X149938072Y-114080000D01*
X149925812Y-113955518D01*
X149889502Y-113835820D01*
X149830537Y-113725506D01*
X149751185Y-113628815D01*
X149654494Y-113549463D01*
X149544180Y-113490498D01*
X149424482Y-113454188D01*
X149300000Y-113441928D01*
X147700000Y-113441928D01*
X147625540Y-113449261D01*
X148168401Y-112906400D01*
X163998328Y-112906400D01*
X163998328Y-114633600D01*
X164010588Y-114758082D01*
X164046898Y-114877780D01*
X164105863Y-114988094D01*
X164185215Y-115084785D01*
X164281906Y-115164137D01*
X164392220Y-115223102D01*
X164511918Y-115259412D01*
X164636400Y-115271672D01*
X166363600Y-115271672D01*
X166488082Y-115259412D01*
X166607780Y-115223102D01*
X166718094Y-115164137D01*
X166814785Y-115084785D01*
X166894137Y-114988094D01*
X166953102Y-114877780D01*
X166972624Y-114813426D01*
X167029707Y-114876854D01*
X167265056Y-115052684D01*
X167530186Y-115179222D01*
X167680974Y-115224958D01*
X167913000Y-115103817D01*
X167913000Y-113897000D01*
X168167000Y-113897000D01*
X168167000Y-115103817D01*
X168399026Y-115224958D01*
X168549814Y-115179222D01*
X168814944Y-115052684D01*
X169050293Y-114876854D01*
X169246817Y-114658488D01*
X169310000Y-114552230D01*
X169373183Y-114658488D01*
X169569707Y-114876854D01*
X169805056Y-115052684D01*
X170070186Y-115179222D01*
X170220974Y-115224958D01*
X170453000Y-115103817D01*
X170453000Y-113897000D01*
X170707000Y-113897000D01*
X170707000Y-115103817D01*
X170939026Y-115224958D01*
X171089814Y-115179222D01*
X171354944Y-115052684D01*
X171590293Y-114876854D01*
X171786817Y-114658488D01*
X171850000Y-114552230D01*
X171913183Y-114658488D01*
X172109707Y-114876854D01*
X172345056Y-115052684D01*
X172610186Y-115179222D01*
X172760974Y-115224958D01*
X172993000Y-115103817D01*
X172993000Y-113897000D01*
X170707000Y-113897000D01*
X170453000Y-113897000D01*
X168167000Y-113897000D01*
X167913000Y-113897000D01*
X167893000Y-113897000D01*
X167893000Y-113643000D01*
X167913000Y-113643000D01*
X167913000Y-111357000D01*
X168167000Y-111357000D01*
X168167000Y-113643000D01*
X170453000Y-113643000D01*
X170453000Y-111357000D01*
X170707000Y-111357000D01*
X170707000Y-113643000D01*
X172993000Y-113643000D01*
X172993000Y-111357000D01*
X170707000Y-111357000D01*
X170453000Y-111357000D01*
X168167000Y-111357000D01*
X167913000Y-111357000D01*
X167893000Y-111357000D01*
X167893000Y-111103000D01*
X167913000Y-111103000D01*
X167913000Y-109896183D01*
X168167000Y-109896183D01*
X168167000Y-111103000D01*
X170453000Y-111103000D01*
X170453000Y-109896183D01*
X170707000Y-109896183D01*
X170707000Y-111103000D01*
X172993000Y-111103000D01*
X172993000Y-109896183D01*
X173247000Y-109896183D01*
X173247000Y-111103000D01*
X173267000Y-111103000D01*
X173267000Y-111357000D01*
X173247000Y-111357000D01*
X173247000Y-113643000D01*
X173267000Y-113643000D01*
X173267000Y-113897000D01*
X173247000Y-113897000D01*
X173247000Y-115103817D01*
X173479026Y-115224958D01*
X173629814Y-115179222D01*
X173894944Y-115052684D01*
X174130293Y-114876854D01*
X174326817Y-114658488D01*
X174385441Y-114559897D01*
X174495961Y-114725302D01*
X174704698Y-114934039D01*
X174950147Y-115098042D01*
X175222875Y-115211010D01*
X175512401Y-115268600D01*
X175807599Y-115268600D01*
X176097125Y-115211010D01*
X176369853Y-115098042D01*
X176615302Y-114934039D01*
X176824039Y-114725302D01*
X176988042Y-114479853D01*
X177101010Y-114207125D01*
X177158600Y-113917599D01*
X177158600Y-113622401D01*
X177101010Y-113332875D01*
X176988042Y-113060147D01*
X176824039Y-112814698D01*
X176615302Y-112605961D01*
X176456719Y-112500000D01*
X176615302Y-112394039D01*
X176729469Y-112279872D01*
X182765000Y-112279872D01*
X182765000Y-112720128D01*
X182850890Y-113151925D01*
X183019369Y-113558669D01*
X183263962Y-113924729D01*
X183575271Y-114236038D01*
X183941331Y-114480631D01*
X184348075Y-114649110D01*
X184779872Y-114735000D01*
X185220128Y-114735000D01*
X185651925Y-114649110D01*
X186058669Y-114480631D01*
X186424729Y-114236038D01*
X186736038Y-113924729D01*
X186980631Y-113558669D01*
X187149110Y-113151925D01*
X187235000Y-112720128D01*
X187235000Y-112279872D01*
X187149110Y-111848075D01*
X186980631Y-111441331D01*
X186736038Y-111075271D01*
X186424729Y-110763962D01*
X186058669Y-110519369D01*
X185651925Y-110350890D01*
X185220128Y-110265000D01*
X184779872Y-110265000D01*
X184348075Y-110350890D01*
X183941331Y-110519369D01*
X183575271Y-110763962D01*
X183263962Y-111075271D01*
X183019369Y-111441331D01*
X182850890Y-111848075D01*
X182765000Y-112279872D01*
X176729469Y-112279872D01*
X176824039Y-112185302D01*
X176988042Y-111939853D01*
X177101010Y-111667125D01*
X177158600Y-111377599D01*
X177158600Y-111082401D01*
X177101010Y-110792875D01*
X176988042Y-110520147D01*
X176824039Y-110274698D01*
X176615302Y-110065961D01*
X176369853Y-109901958D01*
X176097125Y-109788990D01*
X175807599Y-109731400D01*
X175512401Y-109731400D01*
X175222875Y-109788990D01*
X174950147Y-109901958D01*
X174704698Y-110065961D01*
X174495961Y-110274698D01*
X174385441Y-110440103D01*
X174326817Y-110341512D01*
X174130293Y-110123146D01*
X173894944Y-109947316D01*
X173629814Y-109820778D01*
X173479026Y-109775042D01*
X173247000Y-109896183D01*
X172993000Y-109896183D01*
X172760974Y-109775042D01*
X172610186Y-109820778D01*
X172345056Y-109947316D01*
X172109707Y-110123146D01*
X171913183Y-110341512D01*
X171850000Y-110447770D01*
X171786817Y-110341512D01*
X171590293Y-110123146D01*
X171354944Y-109947316D01*
X171089814Y-109820778D01*
X170939026Y-109775042D01*
X170707000Y-109896183D01*
X170453000Y-109896183D01*
X170220974Y-109775042D01*
X170070186Y-109820778D01*
X169805056Y-109947316D01*
X169569707Y-110123146D01*
X169373183Y-110341512D01*
X169310000Y-110447770D01*
X169246817Y-110341512D01*
X169050293Y-110123146D01*
X168814944Y-109947316D01*
X168549814Y-109820778D01*
X168399026Y-109775042D01*
X168167000Y-109896183D01*
X167913000Y-109896183D01*
X167680974Y-109775042D01*
X167530186Y-109820778D01*
X167265056Y-109947316D01*
X167029707Y-110123146D01*
X166833183Y-110341512D01*
X166774559Y-110440103D01*
X166664039Y-110274698D01*
X166455302Y-110065961D01*
X166209853Y-109901958D01*
X165937125Y-109788990D01*
X165647599Y-109731400D01*
X165352401Y-109731400D01*
X165062875Y-109788990D01*
X164790147Y-109901958D01*
X164544698Y-110065961D01*
X164335961Y-110274698D01*
X164171958Y-110520147D01*
X164058990Y-110792875D01*
X164001400Y-111082401D01*
X164001400Y-111377599D01*
X164058990Y-111667125D01*
X164171958Y-111939853D01*
X164335961Y-112185302D01*
X164450023Y-112299364D01*
X164392220Y-112316898D01*
X164281906Y-112375863D01*
X164185215Y-112455215D01*
X164105863Y-112551906D01*
X164046898Y-112662220D01*
X164010588Y-112781918D01*
X163998328Y-112906400D01*
X148168401Y-112906400D01*
X148511004Y-112563798D01*
X148540001Y-112540001D01*
X148634974Y-112424276D01*
X148705546Y-112292247D01*
X148749003Y-112148986D01*
X148760000Y-112037333D01*
X148760000Y-112037325D01*
X148763676Y-112000000D01*
X148760000Y-111962675D01*
X148760000Y-110237387D01*
X149013996Y-110357571D01*
X149288184Y-110426300D01*
X149570512Y-110440217D01*
X149850130Y-110398787D01*
X150116292Y-110303603D01*
X150241514Y-110236671D01*
X150313097Y-109992702D01*
X149500000Y-109179605D01*
X149485858Y-109193748D01*
X149306253Y-109014143D01*
X149320395Y-109000000D01*
X149679605Y-109000000D01*
X150492702Y-109813097D01*
X150736671Y-109741514D01*
X150857571Y-109486004D01*
X150926300Y-109211816D01*
X150940217Y-108929488D01*
X150935853Y-108900031D01*
X154808698Y-108900031D01*
X154826412Y-108992502D01*
X154942429Y-109265437D01*
X155109464Y-109510494D01*
X155321097Y-109718256D01*
X155569196Y-109880738D01*
X155844227Y-109991696D01*
X156135620Y-110046866D01*
X156373000Y-109890586D01*
X156373000Y-108667000D01*
X156627000Y-108667000D01*
X156627000Y-109890586D01*
X156864380Y-110046866D01*
X157155773Y-109991696D01*
X157430804Y-109880738D01*
X157678903Y-109718256D01*
X157890536Y-109510494D01*
X158057571Y-109265437D01*
X158173588Y-108992502D01*
X158191302Y-108900031D01*
X158070246Y-108667000D01*
X156627000Y-108667000D01*
X156373000Y-108667000D01*
X154929754Y-108667000D01*
X154808698Y-108900031D01*
X150935853Y-108900031D01*
X150898787Y-108649870D01*
X150803603Y-108383708D01*
X150736671Y-108258486D01*
X150492702Y-108186903D01*
X149679605Y-109000000D01*
X149320395Y-109000000D01*
X149306253Y-108985858D01*
X149485858Y-108806253D01*
X149500000Y-108820395D01*
X150313097Y-108007298D01*
X150241514Y-107763329D01*
X150212659Y-107749676D01*
X150414759Y-107614637D01*
X150614637Y-107414759D01*
X150771680Y-107179727D01*
X150879853Y-106918574D01*
X150935000Y-106641335D01*
X150935000Y-106358665D01*
X150879853Y-106081426D01*
X150771680Y-105820273D01*
X150731407Y-105760000D01*
X154085199Y-105760000D01*
X154761928Y-106436730D01*
X154761928Y-106620001D01*
X154778992Y-106793255D01*
X154829528Y-106959851D01*
X154911595Y-107113387D01*
X155022038Y-107247962D01*
X155156613Y-107358405D01*
X155265314Y-107416507D01*
X155109464Y-107569506D01*
X154942429Y-107814563D01*
X154826412Y-108087498D01*
X154808698Y-108179969D01*
X154929754Y-108413000D01*
X156373000Y-108413000D01*
X156373000Y-108393000D01*
X156627000Y-108393000D01*
X156627000Y-108413000D01*
X158070246Y-108413000D01*
X158191302Y-108179969D01*
X158173588Y-108087498D01*
X158057571Y-107814563D01*
X157890536Y-107569506D01*
X157734686Y-107416507D01*
X157843387Y-107358405D01*
X157977962Y-107247962D01*
X158088405Y-107113387D01*
X158170472Y-106959851D01*
X158221008Y-106793255D01*
X158238072Y-106620001D01*
X158238072Y-105379999D01*
X158230193Y-105300000D01*
X160561928Y-105300000D01*
X160574188Y-105424482D01*
X160610498Y-105544180D01*
X160669463Y-105654494D01*
X160748815Y-105751185D01*
X160845506Y-105830537D01*
X160955820Y-105889502D01*
X161075518Y-105925812D01*
X161200000Y-105938072D01*
X161714250Y-105935000D01*
X161873000Y-105776250D01*
X161873000Y-104627000D01*
X160723750Y-104627000D01*
X160565000Y-104785750D01*
X160561928Y-105300000D01*
X158230193Y-105300000D01*
X158221008Y-105206745D01*
X158170472Y-105040149D01*
X158088405Y-104886613D01*
X157977962Y-104752038D01*
X157843387Y-104641595D01*
X157689851Y-104559528D01*
X157523255Y-104508992D01*
X157350001Y-104491928D01*
X155649999Y-104491928D01*
X155476745Y-104508992D01*
X155310149Y-104559528D01*
X155156613Y-104641595D01*
X155134524Y-104659723D01*
X154963804Y-104489002D01*
X154940001Y-104459999D01*
X154824276Y-104365026D01*
X154692247Y-104294454D01*
X154548986Y-104250997D01*
X154437333Y-104240000D01*
X154437322Y-104240000D01*
X154400000Y-104236324D01*
X154362678Y-104240000D01*
X147457322Y-104240000D01*
X147419999Y-104236324D01*
X147391681Y-104239113D01*
X147435000Y-104021335D01*
X147435000Y-103738665D01*
X147427309Y-103700000D01*
X160561928Y-103700000D01*
X160565000Y-104214250D01*
X160723750Y-104373000D01*
X161873000Y-104373000D01*
X161873000Y-103223750D01*
X162127000Y-103223750D01*
X162127000Y-104373000D01*
X162147000Y-104373000D01*
X162147000Y-104627000D01*
X162127000Y-104627000D01*
X162127000Y-105776250D01*
X162285750Y-105935000D01*
X162800000Y-105938072D01*
X162924482Y-105925812D01*
X163044180Y-105889502D01*
X163154494Y-105830537D01*
X163251185Y-105751185D01*
X163264790Y-105734607D01*
X163320273Y-105771680D01*
X163581426Y-105879853D01*
X163858665Y-105935000D01*
X164141335Y-105935000D01*
X164418574Y-105879853D01*
X164679727Y-105771680D01*
X164914759Y-105614637D01*
X165114637Y-105414759D01*
X165271680Y-105179727D01*
X165379853Y-104918574D01*
X165435000Y-104641335D01*
X165435000Y-104358665D01*
X165429123Y-104329117D01*
X167145000Y-104329117D01*
X167145000Y-104670883D01*
X167211675Y-105006081D01*
X167342463Y-105321831D01*
X167532337Y-105605998D01*
X167774002Y-105847663D01*
X168058169Y-106037537D01*
X168373919Y-106168325D01*
X168709117Y-106235000D01*
X169050883Y-106235000D01*
X169386081Y-106168325D01*
X169701831Y-106037537D01*
X169985998Y-105847663D01*
X170227663Y-105605998D01*
X170417537Y-105321831D01*
X170548325Y-105006081D01*
X170615000Y-104670883D01*
X170615000Y-104329117D01*
X170548325Y-103993919D01*
X170417537Y-103678169D01*
X170231671Y-103400000D01*
X174761928Y-103400000D01*
X174761928Y-105600000D01*
X174774188Y-105724482D01*
X174810498Y-105844180D01*
X174869463Y-105954494D01*
X174948815Y-106051185D01*
X175045506Y-106130537D01*
X175155820Y-106189502D01*
X175275518Y-106225812D01*
X175400000Y-106238072D01*
X177600000Y-106238072D01*
X177724482Y-106225812D01*
X177844180Y-106189502D01*
X177954494Y-106130537D01*
X178051185Y-106051185D01*
X178130537Y-105954494D01*
X178189502Y-105844180D01*
X178225812Y-105724482D01*
X178238072Y-105600000D01*
X178238072Y-103400000D01*
X178225812Y-103275518D01*
X178189502Y-103155820D01*
X178130537Y-103045506D01*
X178051185Y-102948815D01*
X177954494Y-102869463D01*
X177844180Y-102810498D01*
X177724482Y-102774188D01*
X177600000Y-102761928D01*
X175400000Y-102761928D01*
X175275518Y-102774188D01*
X175155820Y-102810498D01*
X175045506Y-102869463D01*
X174948815Y-102948815D01*
X174869463Y-103045506D01*
X174810498Y-103155820D01*
X174774188Y-103275518D01*
X174761928Y-103400000D01*
X170231671Y-103400000D01*
X170227663Y-103394002D01*
X169985998Y-103152337D01*
X169701831Y-102962463D01*
X169386081Y-102831675D01*
X169050883Y-102765000D01*
X168709117Y-102765000D01*
X168373919Y-102831675D01*
X168058169Y-102962463D01*
X167774002Y-103152337D01*
X167532337Y-103394002D01*
X167342463Y-103678169D01*
X167211675Y-103993919D01*
X167145000Y-104329117D01*
X165429123Y-104329117D01*
X165379853Y-104081426D01*
X165271680Y-103820273D01*
X165114637Y-103585241D01*
X164914759Y-103385363D01*
X164679727Y-103228320D01*
X164418574Y-103120147D01*
X164141335Y-103065000D01*
X163858665Y-103065000D01*
X163581426Y-103120147D01*
X163320273Y-103228320D01*
X163264790Y-103265393D01*
X163251185Y-103248815D01*
X163154494Y-103169463D01*
X163044180Y-103110498D01*
X162924482Y-103074188D01*
X162800000Y-103061928D01*
X162285750Y-103065000D01*
X162127000Y-103223750D01*
X161873000Y-103223750D01*
X161714250Y-103065000D01*
X161200000Y-103061928D01*
X161075518Y-103074188D01*
X160955820Y-103110498D01*
X160845506Y-103169463D01*
X160748815Y-103248815D01*
X160669463Y-103345506D01*
X160610498Y-103455820D01*
X160574188Y-103575518D01*
X160561928Y-103700000D01*
X147427309Y-103700000D01*
X147379853Y-103461426D01*
X147271680Y-103200273D01*
X147114637Y-102965241D01*
X146914759Y-102765363D01*
X146679727Y-102608320D01*
X146418574Y-102500147D01*
X146141335Y-102445000D01*
X145858665Y-102445000D01*
X145581426Y-102500147D01*
X145320273Y-102608320D01*
X145085241Y-102765363D01*
X144885363Y-102965241D01*
X144728320Y-103200273D01*
X144620147Y-103461426D01*
X144565000Y-103738665D01*
X144565000Y-104021335D01*
X144620147Y-104298574D01*
X144728320Y-104559727D01*
X144885363Y-104794759D01*
X145085241Y-104994637D01*
X145317759Y-105150000D01*
X145085241Y-105305363D01*
X144885363Y-105505241D01*
X144728320Y-105740273D01*
X144620147Y-106001426D01*
X144565000Y-106278665D01*
X144565000Y-106561335D01*
X144620147Y-106838574D01*
X144728320Y-107099727D01*
X144885363Y-107334759D01*
X145085241Y-107534637D01*
X145317759Y-107690000D01*
X145085241Y-107845363D01*
X144885363Y-108045241D01*
X144778481Y-108205202D01*
X144719644Y-108210997D01*
X144576383Y-108254454D01*
X144444354Y-108325026D01*
X144328629Y-108419999D01*
X144304831Y-108448997D01*
X140712715Y-112041113D01*
X140749003Y-111921487D01*
X140760000Y-111809834D01*
X140760000Y-111809826D01*
X140763676Y-111772501D01*
X140760000Y-111735176D01*
X140760000Y-108077333D01*
X140763677Y-108040000D01*
X140749003Y-107891014D01*
X140705546Y-107747753D01*
X140634974Y-107615724D01*
X140563799Y-107528997D01*
X140540001Y-107499999D01*
X140511002Y-107476201D01*
X139778688Y-106743887D01*
X139815000Y-106561335D01*
X139815000Y-106278665D01*
X139759853Y-106001426D01*
X139651680Y-105740273D01*
X139494637Y-105505241D01*
X139294759Y-105305363D01*
X139062241Y-105150000D01*
X139294759Y-104994637D01*
X139494637Y-104794759D01*
X139651680Y-104559727D01*
X139759853Y-104298574D01*
X139815000Y-104021335D01*
X139815000Y-103738665D01*
X139759853Y-103461426D01*
X139651680Y-103200273D01*
X139494637Y-102965241D01*
X139294759Y-102765363D01*
X139059727Y-102608320D01*
X138798574Y-102500147D01*
X138521335Y-102445000D01*
X138238665Y-102445000D01*
X137961426Y-102500147D01*
X137700273Y-102608320D01*
X137465241Y-102765363D01*
X137265363Y-102965241D01*
X137108320Y-103200273D01*
X137000147Y-103461426D01*
X136945000Y-103738665D01*
X136945000Y-104021335D01*
X137000147Y-104298574D01*
X137108320Y-104559727D01*
X137265363Y-104794759D01*
X137465241Y-104994637D01*
X137697759Y-105150000D01*
X137465241Y-105305363D01*
X137265363Y-105505241D01*
X137108320Y-105740273D01*
X137000147Y-106001426D01*
X136945000Y-106278665D01*
X136945000Y-106561335D01*
X137000147Y-106838574D01*
X137010960Y-106864678D01*
X137007679Y-106865001D01*
X136387902Y-106865001D01*
X136426300Y-106711816D01*
X136440217Y-106429488D01*
X136398787Y-106149870D01*
X136303603Y-105883708D01*
X136236671Y-105758486D01*
X135992702Y-105686903D01*
X135179605Y-106500000D01*
X135193748Y-106514143D01*
X135014143Y-106693748D01*
X135000000Y-106679605D01*
X134985858Y-106693748D01*
X134806253Y-106514143D01*
X134820395Y-106500000D01*
X134007298Y-105686903D01*
X133763329Y-105758486D01*
X133642429Y-106013996D01*
X133573700Y-106288184D01*
X133563801Y-106488999D01*
X133540001Y-106459999D01*
X133424276Y-106365026D01*
X133292247Y-106294454D01*
X133148986Y-106250997D01*
X133037333Y-106240000D01*
X133037322Y-106240000D01*
X133000000Y-106236324D01*
X132962678Y-106240000D01*
X126537325Y-106240000D01*
X126500000Y-106236324D01*
X126462675Y-106240000D01*
X126462667Y-106240000D01*
X126351014Y-106250997D01*
X126207753Y-106294454D01*
X126075724Y-106365026D01*
X125959999Y-106459999D01*
X125936201Y-106488997D01*
X122989002Y-109436197D01*
X122988997Y-109436201D01*
X121489001Y-110936197D01*
X121459999Y-110959999D01*
X121436199Y-110989000D01*
X121185199Y-111240000D01*
X112814802Y-111240000D01*
X111983731Y-110408930D01*
X112035000Y-110151184D01*
X112035000Y-109848816D01*
X111976011Y-109552257D01*
X111860299Y-109272905D01*
X111692312Y-109021495D01*
X111478505Y-108807688D01*
X111227095Y-108639701D01*
X110947743Y-108523989D01*
X110651184Y-108465000D01*
X110348816Y-108465000D01*
X110052257Y-108523989D01*
X109772905Y-108639701D01*
X109521495Y-108807688D01*
X109307688Y-109021495D01*
X109139701Y-109272905D01*
X109023989Y-109552257D01*
X108965000Y-109848816D01*
X108965000Y-110151184D01*
X109023989Y-110447743D01*
X109139701Y-110727095D01*
X109307688Y-110978505D01*
X109521495Y-111192312D01*
X109607831Y-111250000D01*
X109521495Y-111307688D01*
X109307688Y-111521495D01*
X109139701Y-111772905D01*
X109023989Y-112052257D01*
X108965000Y-112348816D01*
X108965000Y-112651184D01*
X109023989Y-112947743D01*
X109139701Y-113227095D01*
X109307688Y-113478505D01*
X109345303Y-113516120D01*
X109245506Y-113569463D01*
X109148815Y-113648815D01*
X109069463Y-113745506D01*
X109010498Y-113855820D01*
X108974188Y-113975518D01*
X108961928Y-114100000D01*
X108961928Y-115900000D01*
X108974188Y-116024482D01*
X109010498Y-116144180D01*
X109069463Y-116254494D01*
X109148815Y-116351185D01*
X109245506Y-116430537D01*
X109355820Y-116489502D01*
X109475518Y-116525812D01*
X109600000Y-116538072D01*
X111400000Y-116538072D01*
X111524482Y-116525812D01*
X111644180Y-116489502D01*
X111754494Y-116430537D01*
X111851185Y-116351185D01*
X111930537Y-116254494D01*
X111989502Y-116144180D01*
X112025812Y-116024482D01*
X112038072Y-115900000D01*
X112038072Y-115654326D01*
X112074276Y-115634974D01*
X112190001Y-115540001D01*
X112213804Y-115510997D01*
X113964802Y-113760000D01*
X118685199Y-113760000D01*
X120240001Y-115314803D01*
X120240001Y-117002495D01*
X120168342Y-116642241D01*
X119998355Y-116231857D01*
X119751573Y-115862521D01*
X119437479Y-115548427D01*
X119068143Y-115301645D01*
X118657759Y-115131658D01*
X118222098Y-115045000D01*
X117777902Y-115045000D01*
X117342241Y-115131658D01*
X116931857Y-115301645D01*
X116562521Y-115548427D01*
X116248427Y-115862521D01*
X116001645Y-116231857D01*
X115831658Y-116642241D01*
X115745000Y-117077902D01*
X115745000Y-117522098D01*
X115831658Y-117957759D01*
X116001645Y-118368143D01*
X116248427Y-118737479D01*
X116562521Y-119051573D01*
X116931857Y-119298355D01*
X117342241Y-119468342D01*
X117777902Y-119555000D01*
X118222098Y-119555000D01*
X118657759Y-119468342D01*
X119068143Y-119298355D01*
X119437479Y-119051573D01*
X119751573Y-118737479D01*
X119998355Y-118368143D01*
X120168342Y-117957759D01*
X120240001Y-117597506D01*
X120240000Y-121105178D01*
X120236324Y-121142501D01*
X120240000Y-121179823D01*
X120240000Y-121179833D01*
X120250997Y-121291486D01*
X120268773Y-121350085D01*
X120294454Y-121434747D01*
X120365026Y-121566777D01*
X120404871Y-121615327D01*
X120459999Y-121682502D01*
X120489003Y-121706305D01*
X123122697Y-124340000D01*
X108160000Y-124340000D01*
X108160000Y-107477902D01*
X115745000Y-107477902D01*
X115745000Y-107922098D01*
X115831658Y-108357759D01*
X116001645Y-108768143D01*
X116248427Y-109137479D01*
X116562521Y-109451573D01*
X116931857Y-109698355D01*
X117342241Y-109868342D01*
X117777902Y-109955000D01*
X118222098Y-109955000D01*
X118657759Y-109868342D01*
X119068143Y-109698355D01*
X119437479Y-109451573D01*
X119751573Y-109137479D01*
X119998355Y-108768143D01*
X120168342Y-108357759D01*
X120255000Y-107922098D01*
X120255000Y-107477902D01*
X120168342Y-107042241D01*
X119998355Y-106631857D01*
X119751573Y-106262521D01*
X119437479Y-105948427D01*
X119068143Y-105701645D01*
X118657759Y-105531658D01*
X118535293Y-105507298D01*
X134186903Y-105507298D01*
X135000000Y-106320395D01*
X135813097Y-105507298D01*
X135741514Y-105263329D01*
X135486004Y-105142429D01*
X135211816Y-105073700D01*
X134929488Y-105059783D01*
X134649870Y-105101213D01*
X134383708Y-105196397D01*
X134258486Y-105263329D01*
X134186903Y-105507298D01*
X118535293Y-105507298D01*
X118222098Y-105445000D01*
X117777902Y-105445000D01*
X117342241Y-105531658D01*
X116931857Y-105701645D01*
X116562521Y-105948427D01*
X116248427Y-106262521D01*
X116001645Y-106631857D01*
X115831658Y-107042241D01*
X115745000Y-107477902D01*
X108160000Y-107477902D01*
X108160000Y-100660000D01*
X188340001Y-100660000D01*
X188340000Y-124340000D01*
M02*
