G04 #@! TF.GenerationSoftware,KiCad,Pcbnew,5.1.5-52549c5~84~ubuntu18.04.1*
G04 #@! TF.CreationDate,2020-03-31T17:05:22-04:00*
G04 #@! TF.ProjectId,Mikrokosmos,4d696b72-6f6b-46f7-936d-6f732e6b6963,rev?*
G04 #@! TF.SameCoordinates,Original*
G04 #@! TF.FileFunction,Legend,Top*
G04 #@! TF.FilePolarity,Positive*
%FSLAX46Y46*%
G04 Gerber Fmt 4.6, Leading zero omitted, Abs format (unit mm)*
G04 Created by KiCad (PCBNEW 5.1.5-52549c5~84~ubuntu18.04.1) date 2020-03-31 17:05:22*
%MOMM*%
%LPD*%
G04 APERTURE LIST*
%ADD10C,0.150000*%
%ADD11C,0.120000*%
G04 APERTURE END LIST*
D10*
X122452380Y-113000000D02*
X122452380Y-112809523D01*
X122500000Y-112714285D01*
X122595238Y-112619047D01*
X122785714Y-112571428D01*
X123119047Y-112571428D01*
X123309523Y-112619047D01*
X123404761Y-112714285D01*
X123452380Y-112809523D01*
X123452380Y-113000000D01*
X123404761Y-113095238D01*
X123309523Y-113190476D01*
X123119047Y-113238095D01*
X122785714Y-113238095D01*
X122595238Y-113190476D01*
X122500000Y-113095238D01*
X122452380Y-113000000D01*
X122452380Y-112142857D02*
X123261904Y-112142857D01*
X123357142Y-112095238D01*
X123404761Y-112047619D01*
X123452380Y-111952380D01*
X123452380Y-111761904D01*
X123404761Y-111666666D01*
X123357142Y-111619047D01*
X123261904Y-111571428D01*
X122452380Y-111571428D01*
X122452380Y-111238095D02*
X122452380Y-110666666D01*
X123452380Y-110952380D02*
X122452380Y-110952380D01*
X152452380Y-111071428D02*
X151452380Y-111071428D01*
X152166666Y-110738095D01*
X151452380Y-110404761D01*
X152452380Y-110404761D01*
X152452380Y-109928571D02*
X151452380Y-109928571D01*
X152357142Y-108880952D02*
X152404761Y-108928571D01*
X152452380Y-109071428D01*
X152452380Y-109166666D01*
X152404761Y-109309523D01*
X152309523Y-109404761D01*
X152214285Y-109452380D01*
X152023809Y-109500000D01*
X151880952Y-109500000D01*
X151690476Y-109452380D01*
X151595238Y-109404761D01*
X151500000Y-109309523D01*
X151452380Y-109166666D01*
X151452380Y-109071428D01*
X151500000Y-108928571D01*
X151547619Y-108880952D01*
X170238095Y-115500000D02*
X170142857Y-115452380D01*
X170000000Y-115452380D01*
X169857142Y-115500000D01*
X169761904Y-115595238D01*
X169714285Y-115690476D01*
X169666666Y-115880952D01*
X169666666Y-116023809D01*
X169714285Y-116214285D01*
X169761904Y-116309523D01*
X169857142Y-116404761D01*
X170000000Y-116452380D01*
X170095238Y-116452380D01*
X170238095Y-116404761D01*
X170285714Y-116357142D01*
X170285714Y-116023809D01*
X170095238Y-116023809D01*
X170714285Y-116452380D02*
X170714285Y-115452380D01*
X171285714Y-116452380D01*
X171285714Y-115452380D01*
X171761904Y-116452380D02*
X171761904Y-115452380D01*
X172000000Y-115452380D01*
X172142857Y-115500000D01*
X172238095Y-115595238D01*
X172285714Y-115690476D01*
X172333333Y-115880952D01*
X172333333Y-116023809D01*
X172285714Y-116214285D01*
X172238095Y-116309523D01*
X172142857Y-116404761D01*
X172000000Y-116452380D01*
X171761904Y-116452380D01*
X178047619Y-112452380D02*
X178380952Y-113452380D01*
X178714285Y-112452380D01*
X179047619Y-113071428D02*
X179809523Y-113071428D01*
X179428571Y-113452380D02*
X179428571Y-112690476D01*
X161047619Y-112452380D02*
X161380952Y-113452380D01*
X161714285Y-112452380D01*
X162047619Y-113071428D02*
X162809523Y-113071428D01*
X108666666Y-100952380D02*
X108857142Y-100952380D01*
X108952380Y-101000000D01*
X109047619Y-101095238D01*
X109095238Y-101285714D01*
X109095238Y-101619047D01*
X109047619Y-101809523D01*
X108952380Y-101904761D01*
X108857142Y-101952380D01*
X108666666Y-101952380D01*
X108571428Y-101904761D01*
X108476190Y-101809523D01*
X108428571Y-101619047D01*
X108428571Y-101285714D01*
X108476190Y-101095238D01*
X108571428Y-101000000D01*
X108666666Y-100952380D01*
X109523809Y-101285714D02*
X109523809Y-102285714D01*
X109523809Y-101333333D02*
X109619047Y-101285714D01*
X109809523Y-101285714D01*
X109904761Y-101333333D01*
X109952380Y-101380952D01*
X110000000Y-101476190D01*
X110000000Y-101761904D01*
X109952380Y-101857142D01*
X109904761Y-101904761D01*
X109809523Y-101952380D01*
X109619047Y-101952380D01*
X109523809Y-101904761D01*
X110809523Y-101904761D02*
X110714285Y-101952380D01*
X110523809Y-101952380D01*
X110428571Y-101904761D01*
X110380952Y-101809523D01*
X110380952Y-101428571D01*
X110428571Y-101333333D01*
X110523809Y-101285714D01*
X110714285Y-101285714D01*
X110809523Y-101333333D01*
X110857142Y-101428571D01*
X110857142Y-101523809D01*
X110380952Y-101619047D01*
X111285714Y-101285714D02*
X111285714Y-101952380D01*
X111285714Y-101380952D02*
X111333333Y-101333333D01*
X111428571Y-101285714D01*
X111571428Y-101285714D01*
X111666666Y-101333333D01*
X111714285Y-101428571D01*
X111714285Y-101952380D01*
X112904761Y-101904761D02*
X113047619Y-101952380D01*
X113285714Y-101952380D01*
X113380952Y-101904761D01*
X113428571Y-101857142D01*
X113476190Y-101761904D01*
X113476190Y-101666666D01*
X113428571Y-101571428D01*
X113380952Y-101523809D01*
X113285714Y-101476190D01*
X113095238Y-101428571D01*
X113000000Y-101380952D01*
X112952380Y-101333333D01*
X112904761Y-101238095D01*
X112904761Y-101142857D01*
X112952380Y-101047619D01*
X113000000Y-101000000D01*
X113095238Y-100952380D01*
X113333333Y-100952380D01*
X113476190Y-101000000D01*
X114047619Y-101952380D02*
X113952380Y-101904761D01*
X113904761Y-101857142D01*
X113857142Y-101761904D01*
X113857142Y-101476190D01*
X113904761Y-101380952D01*
X113952380Y-101333333D01*
X114047619Y-101285714D01*
X114190476Y-101285714D01*
X114285714Y-101333333D01*
X114333333Y-101380952D01*
X114380952Y-101476190D01*
X114380952Y-101761904D01*
X114333333Y-101857142D01*
X114285714Y-101904761D01*
X114190476Y-101952380D01*
X114047619Y-101952380D01*
X115238095Y-101285714D02*
X115238095Y-101952380D01*
X114809523Y-101285714D02*
X114809523Y-101809523D01*
X114857142Y-101904761D01*
X114952380Y-101952380D01*
X115095238Y-101952380D01*
X115190476Y-101904761D01*
X115238095Y-101857142D01*
X115714285Y-101952380D02*
X115714285Y-101285714D01*
X115714285Y-101476190D02*
X115761904Y-101380952D01*
X115809523Y-101333333D01*
X115904761Y-101285714D01*
X116000000Y-101285714D01*
X116761904Y-101904761D02*
X116666666Y-101952380D01*
X116476190Y-101952380D01*
X116380952Y-101904761D01*
X116333333Y-101857142D01*
X116285714Y-101761904D01*
X116285714Y-101476190D01*
X116333333Y-101380952D01*
X116380952Y-101333333D01*
X116476190Y-101285714D01*
X116666666Y-101285714D01*
X116761904Y-101333333D01*
X117571428Y-101904761D02*
X117476190Y-101952380D01*
X117285714Y-101952380D01*
X117190476Y-101904761D01*
X117142857Y-101809523D01*
X117142857Y-101428571D01*
X117190476Y-101333333D01*
X117285714Y-101285714D01*
X117476190Y-101285714D01*
X117571428Y-101333333D01*
X117619047Y-101428571D01*
X117619047Y-101523809D01*
X117142857Y-101619047D01*
X118809523Y-101952380D02*
X118809523Y-100952380D01*
X118809523Y-101428571D02*
X119380952Y-101428571D01*
X119380952Y-101952380D02*
X119380952Y-100952380D01*
X120285714Y-101952380D02*
X120285714Y-101428571D01*
X120238095Y-101333333D01*
X120142857Y-101285714D01*
X119952380Y-101285714D01*
X119857142Y-101333333D01*
X120285714Y-101904761D02*
X120190476Y-101952380D01*
X119952380Y-101952380D01*
X119857142Y-101904761D01*
X119809523Y-101809523D01*
X119809523Y-101714285D01*
X119857142Y-101619047D01*
X119952380Y-101571428D01*
X120190476Y-101571428D01*
X120285714Y-101523809D01*
X120761904Y-101952380D02*
X120761904Y-101285714D01*
X120761904Y-101476190D02*
X120809523Y-101380952D01*
X120857142Y-101333333D01*
X120952380Y-101285714D01*
X121047619Y-101285714D01*
X121809523Y-101952380D02*
X121809523Y-100952380D01*
X121809523Y-101904761D02*
X121714285Y-101952380D01*
X121523809Y-101952380D01*
X121428571Y-101904761D01*
X121380952Y-101857142D01*
X121333333Y-101761904D01*
X121333333Y-101476190D01*
X121380952Y-101380952D01*
X121428571Y-101333333D01*
X121523809Y-101285714D01*
X121714285Y-101285714D01*
X121809523Y-101333333D01*
X122190476Y-101285714D02*
X122380952Y-101952380D01*
X122571428Y-101476190D01*
X122761904Y-101952380D01*
X122952380Y-101285714D01*
X123761904Y-101952380D02*
X123761904Y-101428571D01*
X123714285Y-101333333D01*
X123619047Y-101285714D01*
X123428571Y-101285714D01*
X123333333Y-101333333D01*
X123761904Y-101904761D02*
X123666666Y-101952380D01*
X123428571Y-101952380D01*
X123333333Y-101904761D01*
X123285714Y-101809523D01*
X123285714Y-101714285D01*
X123333333Y-101619047D01*
X123428571Y-101571428D01*
X123666666Y-101571428D01*
X123761904Y-101523809D01*
X124238095Y-101952380D02*
X124238095Y-101285714D01*
X124238095Y-101476190D02*
X124285714Y-101380952D01*
X124333333Y-101333333D01*
X124428571Y-101285714D01*
X124523809Y-101285714D01*
X125238095Y-101904761D02*
X125142857Y-101952380D01*
X124952380Y-101952380D01*
X124857142Y-101904761D01*
X124809523Y-101809523D01*
X124809523Y-101428571D01*
X124857142Y-101333333D01*
X124952380Y-101285714D01*
X125142857Y-101285714D01*
X125238095Y-101333333D01*
X125285714Y-101428571D01*
X125285714Y-101523809D01*
X124809523Y-101619047D01*
X125714285Y-101857142D02*
X125761904Y-101904761D01*
X125714285Y-101952380D01*
X125666666Y-101904761D01*
X125714285Y-101857142D01*
X125714285Y-101952380D01*
X125714285Y-101333333D02*
X125761904Y-101380952D01*
X125714285Y-101428571D01*
X125666666Y-101380952D01*
X125714285Y-101333333D01*
X125714285Y-101428571D01*
X127523809Y-101857142D02*
X127476190Y-101904761D01*
X127333333Y-101952380D01*
X127238095Y-101952380D01*
X127095238Y-101904761D01*
X127000000Y-101809523D01*
X126952380Y-101714285D01*
X126904761Y-101523809D01*
X126904761Y-101380952D01*
X126952380Y-101190476D01*
X127000000Y-101095238D01*
X127095238Y-101000000D01*
X127238095Y-100952380D01*
X127333333Y-100952380D01*
X127476190Y-101000000D01*
X127523809Y-101047619D01*
X128523809Y-101857142D02*
X128476190Y-101904761D01*
X128333333Y-101952380D01*
X128238095Y-101952380D01*
X128095238Y-101904761D01*
X128000000Y-101809523D01*
X127952380Y-101714285D01*
X127904761Y-101523809D01*
X127904761Y-101380952D01*
X127952380Y-101190476D01*
X128000000Y-101095238D01*
X128095238Y-101000000D01*
X128238095Y-100952380D01*
X128333333Y-100952380D01*
X128476190Y-101000000D01*
X128523809Y-101047619D01*
X128952380Y-101571428D02*
X129714285Y-101571428D01*
X130523809Y-101428571D02*
X130666666Y-101476190D01*
X130714285Y-101523809D01*
X130761904Y-101619047D01*
X130761904Y-101761904D01*
X130714285Y-101857142D01*
X130666666Y-101904761D01*
X130571428Y-101952380D01*
X130190476Y-101952380D01*
X130190476Y-100952380D01*
X130523809Y-100952380D01*
X130619047Y-101000000D01*
X130666666Y-101047619D01*
X130714285Y-101142857D01*
X130714285Y-101238095D01*
X130666666Y-101333333D01*
X130619047Y-101380952D01*
X130523809Y-101428571D01*
X130190476Y-101428571D01*
X131380952Y-101476190D02*
X131380952Y-101952380D01*
X131047619Y-100952380D02*
X131380952Y-101476190D01*
X131714285Y-100952380D01*
X132047619Y-101571428D02*
X132809523Y-101571428D01*
X133238095Y-101904761D02*
X133380952Y-101952380D01*
X133619047Y-101952380D01*
X133714285Y-101904761D01*
X133761904Y-101857142D01*
X133809523Y-101761904D01*
X133809523Y-101666666D01*
X133761904Y-101571428D01*
X133714285Y-101523809D01*
X133619047Y-101476190D01*
X133428571Y-101428571D01*
X133333333Y-101380952D01*
X133285714Y-101333333D01*
X133238095Y-101238095D01*
X133238095Y-101142857D01*
X133285714Y-101047619D01*
X133333333Y-101000000D01*
X133428571Y-100952380D01*
X133666666Y-100952380D01*
X133809523Y-101000000D01*
X134190476Y-101666666D02*
X134666666Y-101666666D01*
X134095238Y-101952380D02*
X134428571Y-100952380D01*
X134761904Y-101952380D01*
X135714285Y-100952380D02*
X136285714Y-100952380D01*
X136000000Y-101952380D02*
X136000000Y-100952380D01*
X136761904Y-101952380D02*
X136666666Y-101904761D01*
X136619047Y-101857142D01*
X136571428Y-101761904D01*
X136571428Y-101476190D01*
X136619047Y-101380952D01*
X136666666Y-101333333D01*
X136761904Y-101285714D01*
X136904761Y-101285714D01*
X137000000Y-101333333D01*
X137047619Y-101380952D01*
X137095238Y-101476190D01*
X137095238Y-101761904D01*
X137047619Y-101857142D01*
X137000000Y-101904761D01*
X136904761Y-101952380D01*
X136761904Y-101952380D01*
X137523809Y-101952380D02*
X137523809Y-101285714D01*
X137523809Y-101380952D02*
X137571428Y-101333333D01*
X137666666Y-101285714D01*
X137809523Y-101285714D01*
X137904761Y-101333333D01*
X137952380Y-101428571D01*
X137952380Y-101952380D01*
X137952380Y-101428571D02*
X138000000Y-101333333D01*
X138095238Y-101285714D01*
X138238095Y-101285714D01*
X138333333Y-101333333D01*
X138380952Y-101428571D01*
X138380952Y-101952380D01*
X139523809Y-100952380D02*
X139761904Y-101952380D01*
X139952380Y-101238095D01*
X140142857Y-101952380D01*
X140380952Y-100952380D01*
X140761904Y-101952380D02*
X140761904Y-100952380D01*
X141190476Y-101952380D02*
X141190476Y-101428571D01*
X141142857Y-101333333D01*
X141047619Y-101285714D01*
X140904761Y-101285714D01*
X140809523Y-101333333D01*
X140761904Y-101380952D01*
X141666666Y-101952380D02*
X141666666Y-101285714D01*
X141666666Y-100952380D02*
X141619047Y-101000000D01*
X141666666Y-101047619D01*
X141714285Y-101000000D01*
X141666666Y-100952380D01*
X141666666Y-101047619D01*
X142000000Y-101285714D02*
X142380952Y-101285714D01*
X142142857Y-100952380D02*
X142142857Y-101809523D01*
X142190476Y-101904761D01*
X142285714Y-101952380D01*
X142380952Y-101952380D01*
X142619047Y-101285714D02*
X142809523Y-101952380D01*
X143000000Y-101476190D01*
X143190476Y-101952380D01*
X143380952Y-101285714D01*
X144142857Y-101904761D02*
X144047619Y-101952380D01*
X143857142Y-101952380D01*
X143761904Y-101904761D01*
X143714285Y-101809523D01*
X143714285Y-101428571D01*
X143761904Y-101333333D01*
X143857142Y-101285714D01*
X144047619Y-101285714D01*
X144142857Y-101333333D01*
X144190476Y-101428571D01*
X144190476Y-101523809D01*
X143714285Y-101619047D01*
X144761904Y-101952380D02*
X144666666Y-101904761D01*
X144619047Y-101809523D01*
X144619047Y-100952380D01*
X145285714Y-101952380D02*
X145190476Y-101904761D01*
X145142857Y-101809523D01*
X145142857Y-100952380D01*
X146380952Y-101047619D02*
X146428571Y-101000000D01*
X146523809Y-100952380D01*
X146761904Y-100952380D01*
X146857142Y-101000000D01*
X146904761Y-101047619D01*
X146952380Y-101142857D01*
X146952380Y-101238095D01*
X146904761Y-101380952D01*
X146333333Y-101952380D01*
X146952380Y-101952380D01*
X147571428Y-100952380D02*
X147666666Y-100952380D01*
X147761904Y-101000000D01*
X147809523Y-101047619D01*
X147857142Y-101142857D01*
X147904761Y-101333333D01*
X147904761Y-101571428D01*
X147857142Y-101761904D01*
X147809523Y-101857142D01*
X147761904Y-101904761D01*
X147666666Y-101952380D01*
X147571428Y-101952380D01*
X147476190Y-101904761D01*
X147428571Y-101857142D01*
X147380952Y-101761904D01*
X147333333Y-101571428D01*
X147333333Y-101333333D01*
X147380952Y-101142857D01*
X147428571Y-101047619D01*
X147476190Y-101000000D01*
X147571428Y-100952380D01*
X148857142Y-101952380D02*
X148285714Y-101952380D01*
X148571428Y-101952380D02*
X148571428Y-100952380D01*
X148476190Y-101095238D01*
X148380952Y-101190476D01*
X148285714Y-101238095D01*
X149714285Y-101285714D02*
X149714285Y-101952380D01*
X149476190Y-100904761D02*
X149238095Y-101619047D01*
X149857142Y-101619047D01*
X156000000Y-112761904D02*
X155952380Y-112857142D01*
X155952380Y-113000000D01*
X156000000Y-113142857D01*
X156095238Y-113238095D01*
X156190476Y-113285714D01*
X156380952Y-113333333D01*
X156523809Y-113333333D01*
X156714285Y-113285714D01*
X156809523Y-113238095D01*
X156904761Y-113142857D01*
X156952380Y-113000000D01*
X156952380Y-112904761D01*
X156904761Y-112761904D01*
X156857142Y-112714285D01*
X156523809Y-112714285D01*
X156523809Y-112904761D01*
X156952380Y-112285714D02*
X155952380Y-112285714D01*
X156952380Y-111714285D01*
X155952380Y-111714285D01*
X156952380Y-111238095D02*
X155952380Y-111238095D01*
X155952380Y-111000000D01*
X156000000Y-110857142D01*
X156095238Y-110761904D01*
X156190476Y-110714285D01*
X156380952Y-110666666D01*
X156523809Y-110666666D01*
X156714285Y-110714285D01*
X156809523Y-110761904D01*
X156904761Y-110857142D01*
X156952380Y-111000000D01*
X156952380Y-111238095D01*
X156119047Y-103071428D02*
X156880952Y-103071428D01*
X156500000Y-103452380D02*
X156500000Y-102690476D01*
X127119047Y-114071428D02*
X127880952Y-114071428D01*
X127500000Y-114452380D02*
X127500000Y-113690476D01*
X127000000Y-106761904D02*
X126952380Y-106857142D01*
X126952380Y-107000000D01*
X127000000Y-107142857D01*
X127095238Y-107238095D01*
X127190476Y-107285714D01*
X127380952Y-107333333D01*
X127523809Y-107333333D01*
X127714285Y-107285714D01*
X127809523Y-107238095D01*
X127904761Y-107142857D01*
X127952380Y-107000000D01*
X127952380Y-106904761D01*
X127904761Y-106761904D01*
X127857142Y-106714285D01*
X127523809Y-106714285D01*
X127523809Y-106904761D01*
X127952380Y-106285714D02*
X126952380Y-106285714D01*
X127952380Y-105714285D01*
X126952380Y-105714285D01*
X127952380Y-105238095D02*
X126952380Y-105238095D01*
X126952380Y-105000000D01*
X127000000Y-104857142D01*
X127095238Y-104761904D01*
X127190476Y-104714285D01*
X127380952Y-104666666D01*
X127523809Y-104666666D01*
X127714285Y-104714285D01*
X127809523Y-104761904D01*
X127904761Y-104857142D01*
X127952380Y-105000000D01*
X127952380Y-105238095D01*
D11*
X125070000Y-108160000D02*
X124470000Y-108160000D01*
X125070000Y-109760000D02*
X125070000Y-108160000D01*
X124470000Y-109760000D02*
X125070000Y-109760000D01*
X125070000Y-110700000D02*
X124470000Y-110700000D01*
X125070000Y-112300000D02*
X125070000Y-110700000D01*
X124470000Y-112300000D02*
X125070000Y-112300000D01*
X130490000Y-109210000D02*
X129490000Y-109210000D01*
X130490000Y-111250000D02*
X129490000Y-111250000D01*
X128960000Y-109210000D02*
X129490000Y-108960000D01*
X128960000Y-111250000D02*
X128960000Y-109210000D01*
X129490000Y-111500000D02*
X128960000Y-111250000D01*
X129490000Y-108960000D02*
X130490000Y-108960000D01*
X129490000Y-111500000D02*
X129490000Y-108960000D01*
X130490000Y-111500000D02*
X129490000Y-111500000D01*
X125500000Y-113170000D02*
X129500000Y-113170000D01*
X124470000Y-107580000D02*
X124470000Y-112880000D01*
X130490000Y-107580000D02*
X124470000Y-107580000D01*
X130490000Y-112880000D02*
X130490000Y-107580000D01*
X124470000Y-112880000D02*
X130490000Y-112880000D01*
X158930000Y-109340000D02*
X159530000Y-109340000D01*
X158930000Y-107740000D02*
X158930000Y-109340000D01*
X159530000Y-107740000D02*
X158930000Y-107740000D01*
X158930000Y-106800000D02*
X159530000Y-106800000D01*
X158930000Y-105200000D02*
X158930000Y-106800000D01*
X159530000Y-105200000D02*
X158930000Y-105200000D01*
X153510000Y-108290000D02*
X154510000Y-108290000D01*
X153510000Y-106250000D02*
X154510000Y-106250000D01*
X155040000Y-108290000D02*
X154510000Y-108540000D01*
X155040000Y-106250000D02*
X155040000Y-108290000D01*
X154510000Y-106000000D02*
X155040000Y-106250000D01*
X154510000Y-108540000D02*
X153510000Y-108540000D01*
X154510000Y-106000000D02*
X154510000Y-108540000D01*
X153510000Y-106000000D02*
X154510000Y-106000000D01*
X158500000Y-104330000D02*
X154500000Y-104330000D01*
X159530000Y-109920000D02*
X159530000Y-104620000D01*
X153510000Y-109920000D02*
X159530000Y-109920000D01*
X153510000Y-104620000D02*
X153510000Y-109920000D01*
X159530000Y-104620000D02*
X153510000Y-104620000D01*
X174630000Y-105970000D02*
X174630000Y-103030000D01*
X174390000Y-105970000D02*
X174390000Y-103030000D01*
X174510000Y-105970000D02*
X174510000Y-103030000D01*
X169970000Y-103030000D02*
X169970000Y-103160000D01*
X175410000Y-103030000D02*
X169970000Y-103030000D01*
X175410000Y-103160000D02*
X175410000Y-103030000D01*
X169970000Y-105970000D02*
X169970000Y-105840000D01*
X175410000Y-105970000D02*
X169970000Y-105970000D01*
X175410000Y-105840000D02*
X175410000Y-105970000D01*
X170370000Y-119450000D02*
X170370000Y-122390000D01*
X170610000Y-119450000D02*
X170610000Y-122390000D01*
X170490000Y-119450000D02*
X170490000Y-122390000D01*
X175030000Y-122390000D02*
X175030000Y-122260000D01*
X169590000Y-122390000D02*
X175030000Y-122390000D01*
X169590000Y-122260000D02*
X169590000Y-122390000D01*
X175030000Y-119450000D02*
X175030000Y-119580000D01*
X169590000Y-119450000D02*
X175030000Y-119450000D01*
X169590000Y-119580000D02*
X169590000Y-119450000D01*
X150880000Y-120210000D02*
X153120000Y-120210000D01*
X150880000Y-119970000D02*
X153120000Y-119970000D01*
X150880000Y-120090000D02*
X153120000Y-120090000D01*
X152000000Y-115920000D02*
X152000000Y-116570000D01*
X152000000Y-121460000D02*
X152000000Y-120810000D01*
X150880000Y-116570000D02*
X150880000Y-120810000D01*
X153120000Y-116570000D02*
X150880000Y-116570000D01*
X153120000Y-120810000D02*
X153120000Y-116570000D01*
X150880000Y-120810000D02*
X153120000Y-120810000D01*
X149620000Y-117170000D02*
X147380000Y-117170000D01*
X149620000Y-117410000D02*
X147380000Y-117410000D01*
X149620000Y-117290000D02*
X147380000Y-117290000D01*
X148500000Y-121460000D02*
X148500000Y-120810000D01*
X148500000Y-115920000D02*
X148500000Y-116570000D01*
X149620000Y-120810000D02*
X149620000Y-116570000D01*
X147380000Y-120810000D02*
X149620000Y-120810000D01*
X147380000Y-116570000D02*
X147380000Y-120810000D01*
X149620000Y-116570000D02*
X147380000Y-116570000D01*
X160150000Y-107825000D02*
X181010000Y-107825000D01*
X181010000Y-107825000D02*
X181010000Y-117175000D01*
X181010000Y-117175000D02*
X160150000Y-117175000D01*
X160150000Y-117175000D02*
X160150000Y-107825000D01*
X159900000Y-117425000D02*
X162440000Y-117425000D01*
X159900000Y-117425000D02*
X159900000Y-114885000D01*
X137050000Y-112890000D02*
X147330000Y-112890000D01*
X137050000Y-102490000D02*
X137050000Y-112890000D01*
X147330000Y-102490000D02*
X137050000Y-102490000D01*
X147330000Y-112890000D02*
X147330000Y-102490000D01*
X139540000Y-112830000D02*
X141190000Y-112830000D01*
X139540000Y-102550000D02*
X139540000Y-112830000D01*
X144840000Y-102550000D02*
X139540000Y-102550000D01*
X144840000Y-112830000D02*
X144840000Y-102550000D01*
X143190000Y-112830000D02*
X144840000Y-112830000D01*
X141190000Y-112830000D02*
G75*
G02X143190000Y-112830000I1000000J0D01*
G01*
X123630000Y-122080000D02*
X123960000Y-122080000D01*
X123630000Y-115540000D02*
X123630000Y-122080000D01*
X123960000Y-115540000D02*
X123630000Y-115540000D01*
X126370000Y-122080000D02*
X126040000Y-122080000D01*
X126370000Y-115540000D02*
X126370000Y-122080000D01*
X126040000Y-115540000D02*
X126370000Y-115540000D01*
X130370000Y-115420000D02*
X130040000Y-115420000D01*
X130370000Y-121960000D02*
X130370000Y-115420000D01*
X130040000Y-121960000D02*
X130370000Y-121960000D01*
X127630000Y-115420000D02*
X127960000Y-115420000D01*
X127630000Y-121960000D02*
X127630000Y-115420000D01*
X127960000Y-121960000D02*
X127630000Y-121960000D01*
X131630000Y-121960000D02*
X131960000Y-121960000D01*
X131630000Y-115420000D02*
X131630000Y-121960000D01*
X131960000Y-115420000D02*
X131630000Y-115420000D01*
X134370000Y-121960000D02*
X134040000Y-121960000D01*
X134370000Y-115420000D02*
X134370000Y-121960000D01*
X134040000Y-115420000D02*
X134370000Y-115420000D01*
X139630000Y-122080000D02*
X139960000Y-122080000D01*
X139630000Y-115540000D02*
X139630000Y-122080000D01*
X139960000Y-115540000D02*
X139630000Y-115540000D01*
X142370000Y-122080000D02*
X142040000Y-122080000D01*
X142370000Y-115540000D02*
X142370000Y-122080000D01*
X142040000Y-115540000D02*
X142370000Y-115540000D01*
X135630000Y-121960000D02*
X135960000Y-121960000D01*
X135630000Y-115420000D02*
X135630000Y-121960000D01*
X135960000Y-115420000D02*
X135630000Y-115420000D01*
X138370000Y-121960000D02*
X138040000Y-121960000D01*
X138370000Y-115420000D02*
X138370000Y-121960000D01*
X138040000Y-115420000D02*
X138370000Y-115420000D01*
X143630000Y-122080000D02*
X143960000Y-122080000D01*
X143630000Y-115540000D02*
X143630000Y-122080000D01*
X143960000Y-115540000D02*
X143630000Y-115540000D01*
X146370000Y-122080000D02*
X146040000Y-122080000D01*
X146370000Y-115540000D02*
X146370000Y-122080000D01*
X146040000Y-115540000D02*
X146370000Y-115540000D01*
X150420000Y-108379000D02*
X150420000Y-107121000D01*
X148580000Y-108379000D02*
X148580000Y-107121000D01*
X135920000Y-108379000D02*
X135920000Y-107121000D01*
X134080000Y-108379000D02*
X134080000Y-107121000D01*
X160445225Y-102775000D02*
X160445225Y-103275000D01*
X160195225Y-103025000D02*
X160695225Y-103025000D01*
X165601000Y-104216000D02*
X165601000Y-104784000D01*
X165561000Y-103982000D02*
X165561000Y-105018000D01*
X165521000Y-103823000D02*
X165521000Y-105177000D01*
X165481000Y-103695000D02*
X165481000Y-105305000D01*
X165441000Y-103585000D02*
X165441000Y-105415000D01*
X165401000Y-103489000D02*
X165401000Y-105511000D01*
X165361000Y-103402000D02*
X165361000Y-105598000D01*
X165321000Y-103322000D02*
X165321000Y-105678000D01*
X165281000Y-103249000D02*
X165281000Y-105751000D01*
X165241000Y-103181000D02*
X165241000Y-105819000D01*
X165201000Y-103117000D02*
X165201000Y-105883000D01*
X165161000Y-103057000D02*
X165161000Y-105943000D01*
X165121000Y-103000000D02*
X165121000Y-106000000D01*
X165081000Y-102946000D02*
X165081000Y-106054000D01*
X165041000Y-102895000D02*
X165041000Y-106105000D01*
X165001000Y-105540000D02*
X165001000Y-106153000D01*
X165001000Y-102847000D02*
X165001000Y-103460000D01*
X164961000Y-105540000D02*
X164961000Y-106199000D01*
X164961000Y-102801000D02*
X164961000Y-103460000D01*
X164921000Y-105540000D02*
X164921000Y-106243000D01*
X164921000Y-102757000D02*
X164921000Y-103460000D01*
X164881000Y-105540000D02*
X164881000Y-106285000D01*
X164881000Y-102715000D02*
X164881000Y-103460000D01*
X164841000Y-105540000D02*
X164841000Y-106326000D01*
X164841000Y-102674000D02*
X164841000Y-103460000D01*
X164801000Y-105540000D02*
X164801000Y-106364000D01*
X164801000Y-102636000D02*
X164801000Y-103460000D01*
X164761000Y-105540000D02*
X164761000Y-106401000D01*
X164761000Y-102599000D02*
X164761000Y-103460000D01*
X164721000Y-105540000D02*
X164721000Y-106437000D01*
X164721000Y-102563000D02*
X164721000Y-103460000D01*
X164681000Y-105540000D02*
X164681000Y-106471000D01*
X164681000Y-102529000D02*
X164681000Y-103460000D01*
X164641000Y-105540000D02*
X164641000Y-106504000D01*
X164641000Y-102496000D02*
X164641000Y-103460000D01*
X164601000Y-105540000D02*
X164601000Y-106535000D01*
X164601000Y-102465000D02*
X164601000Y-103460000D01*
X164561000Y-105540000D02*
X164561000Y-106565000D01*
X164561000Y-102435000D02*
X164561000Y-103460000D01*
X164521000Y-105540000D02*
X164521000Y-106595000D01*
X164521000Y-102405000D02*
X164521000Y-103460000D01*
X164481000Y-105540000D02*
X164481000Y-106622000D01*
X164481000Y-102378000D02*
X164481000Y-103460000D01*
X164441000Y-105540000D02*
X164441000Y-106649000D01*
X164441000Y-102351000D02*
X164441000Y-103460000D01*
X164401000Y-105540000D02*
X164401000Y-106675000D01*
X164401000Y-102325000D02*
X164401000Y-103460000D01*
X164361000Y-105540000D02*
X164361000Y-106700000D01*
X164361000Y-102300000D02*
X164361000Y-103460000D01*
X164321000Y-105540000D02*
X164321000Y-106724000D01*
X164321000Y-102276000D02*
X164321000Y-103460000D01*
X164281000Y-105540000D02*
X164281000Y-106747000D01*
X164281000Y-102253000D02*
X164281000Y-103460000D01*
X164241000Y-105540000D02*
X164241000Y-106768000D01*
X164241000Y-102232000D02*
X164241000Y-103460000D01*
X164201000Y-105540000D02*
X164201000Y-106790000D01*
X164201000Y-102210000D02*
X164201000Y-103460000D01*
X164161000Y-105540000D02*
X164161000Y-106810000D01*
X164161000Y-102190000D02*
X164161000Y-103460000D01*
X164121000Y-105540000D02*
X164121000Y-106829000D01*
X164121000Y-102171000D02*
X164121000Y-103460000D01*
X164081000Y-105540000D02*
X164081000Y-106848000D01*
X164081000Y-102152000D02*
X164081000Y-103460000D01*
X164041000Y-105540000D02*
X164041000Y-106865000D01*
X164041000Y-102135000D02*
X164041000Y-103460000D01*
X164001000Y-105540000D02*
X164001000Y-106882000D01*
X164001000Y-102118000D02*
X164001000Y-103460000D01*
X163961000Y-105540000D02*
X163961000Y-106898000D01*
X163961000Y-102102000D02*
X163961000Y-103460000D01*
X163921000Y-105540000D02*
X163921000Y-106914000D01*
X163921000Y-102086000D02*
X163921000Y-103460000D01*
X163881000Y-105540000D02*
X163881000Y-106928000D01*
X163881000Y-102072000D02*
X163881000Y-103460000D01*
X163841000Y-105540000D02*
X163841000Y-106942000D01*
X163841000Y-102058000D02*
X163841000Y-103460000D01*
X163801000Y-105540000D02*
X163801000Y-106955000D01*
X163801000Y-102045000D02*
X163801000Y-103460000D01*
X163761000Y-105540000D02*
X163761000Y-106968000D01*
X163761000Y-102032000D02*
X163761000Y-103460000D01*
X163721000Y-105540000D02*
X163721000Y-106980000D01*
X163721000Y-102020000D02*
X163721000Y-103460000D01*
X163680000Y-105540000D02*
X163680000Y-106991000D01*
X163680000Y-102009000D02*
X163680000Y-103460000D01*
X163640000Y-105540000D02*
X163640000Y-107001000D01*
X163640000Y-101999000D02*
X163640000Y-103460000D01*
X163600000Y-105540000D02*
X163600000Y-107011000D01*
X163600000Y-101989000D02*
X163600000Y-103460000D01*
X163560000Y-105540000D02*
X163560000Y-107020000D01*
X163560000Y-101980000D02*
X163560000Y-103460000D01*
X163520000Y-105540000D02*
X163520000Y-107028000D01*
X163520000Y-101972000D02*
X163520000Y-103460000D01*
X163480000Y-105540000D02*
X163480000Y-107036000D01*
X163480000Y-101964000D02*
X163480000Y-103460000D01*
X163440000Y-105540000D02*
X163440000Y-107043000D01*
X163440000Y-101957000D02*
X163440000Y-103460000D01*
X163400000Y-105540000D02*
X163400000Y-107050000D01*
X163400000Y-101950000D02*
X163400000Y-103460000D01*
X163360000Y-105540000D02*
X163360000Y-107056000D01*
X163360000Y-101944000D02*
X163360000Y-103460000D01*
X163320000Y-105540000D02*
X163320000Y-107061000D01*
X163320000Y-101939000D02*
X163320000Y-103460000D01*
X163280000Y-105540000D02*
X163280000Y-107065000D01*
X163280000Y-101935000D02*
X163280000Y-103460000D01*
X163240000Y-105540000D02*
X163240000Y-107069000D01*
X163240000Y-101931000D02*
X163240000Y-103460000D01*
X163200000Y-105540000D02*
X163200000Y-107073000D01*
X163200000Y-101927000D02*
X163200000Y-103460000D01*
X163160000Y-105540000D02*
X163160000Y-107076000D01*
X163160000Y-101924000D02*
X163160000Y-103460000D01*
X163120000Y-105540000D02*
X163120000Y-107078000D01*
X163120000Y-101922000D02*
X163120000Y-103460000D01*
X163080000Y-105540000D02*
X163080000Y-107079000D01*
X163080000Y-101921000D02*
X163080000Y-103460000D01*
X163040000Y-101920000D02*
X163040000Y-103460000D01*
X163040000Y-105540000D02*
X163040000Y-107080000D01*
X163000000Y-101920000D02*
X163000000Y-103460000D01*
X163000000Y-105540000D02*
X163000000Y-107080000D01*
X165620000Y-104500000D02*
G75*
G03X165620000Y-104500000I-2620000J0D01*
G01*
X165554775Y-122645000D02*
X165554775Y-122145000D01*
X165804775Y-122395000D02*
X165304775Y-122395000D01*
X160399000Y-121204000D02*
X160399000Y-120636000D01*
X160439000Y-121438000D02*
X160439000Y-120402000D01*
X160479000Y-121597000D02*
X160479000Y-120243000D01*
X160519000Y-121725000D02*
X160519000Y-120115000D01*
X160559000Y-121835000D02*
X160559000Y-120005000D01*
X160599000Y-121931000D02*
X160599000Y-119909000D01*
X160639000Y-122018000D02*
X160639000Y-119822000D01*
X160679000Y-122098000D02*
X160679000Y-119742000D01*
X160719000Y-122171000D02*
X160719000Y-119669000D01*
X160759000Y-122239000D02*
X160759000Y-119601000D01*
X160799000Y-122303000D02*
X160799000Y-119537000D01*
X160839000Y-122363000D02*
X160839000Y-119477000D01*
X160879000Y-122420000D02*
X160879000Y-119420000D01*
X160919000Y-122474000D02*
X160919000Y-119366000D01*
X160959000Y-122525000D02*
X160959000Y-119315000D01*
X160999000Y-119880000D02*
X160999000Y-119267000D01*
X160999000Y-122573000D02*
X160999000Y-121960000D01*
X161039000Y-119880000D02*
X161039000Y-119221000D01*
X161039000Y-122619000D02*
X161039000Y-121960000D01*
X161079000Y-119880000D02*
X161079000Y-119177000D01*
X161079000Y-122663000D02*
X161079000Y-121960000D01*
X161119000Y-119880000D02*
X161119000Y-119135000D01*
X161119000Y-122705000D02*
X161119000Y-121960000D01*
X161159000Y-119880000D02*
X161159000Y-119094000D01*
X161159000Y-122746000D02*
X161159000Y-121960000D01*
X161199000Y-119880000D02*
X161199000Y-119056000D01*
X161199000Y-122784000D02*
X161199000Y-121960000D01*
X161239000Y-119880000D02*
X161239000Y-119019000D01*
X161239000Y-122821000D02*
X161239000Y-121960000D01*
X161279000Y-119880000D02*
X161279000Y-118983000D01*
X161279000Y-122857000D02*
X161279000Y-121960000D01*
X161319000Y-119880000D02*
X161319000Y-118949000D01*
X161319000Y-122891000D02*
X161319000Y-121960000D01*
X161359000Y-119880000D02*
X161359000Y-118916000D01*
X161359000Y-122924000D02*
X161359000Y-121960000D01*
X161399000Y-119880000D02*
X161399000Y-118885000D01*
X161399000Y-122955000D02*
X161399000Y-121960000D01*
X161439000Y-119880000D02*
X161439000Y-118855000D01*
X161439000Y-122985000D02*
X161439000Y-121960000D01*
X161479000Y-119880000D02*
X161479000Y-118825000D01*
X161479000Y-123015000D02*
X161479000Y-121960000D01*
X161519000Y-119880000D02*
X161519000Y-118798000D01*
X161519000Y-123042000D02*
X161519000Y-121960000D01*
X161559000Y-119880000D02*
X161559000Y-118771000D01*
X161559000Y-123069000D02*
X161559000Y-121960000D01*
X161599000Y-119880000D02*
X161599000Y-118745000D01*
X161599000Y-123095000D02*
X161599000Y-121960000D01*
X161639000Y-119880000D02*
X161639000Y-118720000D01*
X161639000Y-123120000D02*
X161639000Y-121960000D01*
X161679000Y-119880000D02*
X161679000Y-118696000D01*
X161679000Y-123144000D02*
X161679000Y-121960000D01*
X161719000Y-119880000D02*
X161719000Y-118673000D01*
X161719000Y-123167000D02*
X161719000Y-121960000D01*
X161759000Y-119880000D02*
X161759000Y-118652000D01*
X161759000Y-123188000D02*
X161759000Y-121960000D01*
X161799000Y-119880000D02*
X161799000Y-118630000D01*
X161799000Y-123210000D02*
X161799000Y-121960000D01*
X161839000Y-119880000D02*
X161839000Y-118610000D01*
X161839000Y-123230000D02*
X161839000Y-121960000D01*
X161879000Y-119880000D02*
X161879000Y-118591000D01*
X161879000Y-123249000D02*
X161879000Y-121960000D01*
X161919000Y-119880000D02*
X161919000Y-118572000D01*
X161919000Y-123268000D02*
X161919000Y-121960000D01*
X161959000Y-119880000D02*
X161959000Y-118555000D01*
X161959000Y-123285000D02*
X161959000Y-121960000D01*
X161999000Y-119880000D02*
X161999000Y-118538000D01*
X161999000Y-123302000D02*
X161999000Y-121960000D01*
X162039000Y-119880000D02*
X162039000Y-118522000D01*
X162039000Y-123318000D02*
X162039000Y-121960000D01*
X162079000Y-119880000D02*
X162079000Y-118506000D01*
X162079000Y-123334000D02*
X162079000Y-121960000D01*
X162119000Y-119880000D02*
X162119000Y-118492000D01*
X162119000Y-123348000D02*
X162119000Y-121960000D01*
X162159000Y-119880000D02*
X162159000Y-118478000D01*
X162159000Y-123362000D02*
X162159000Y-121960000D01*
X162199000Y-119880000D02*
X162199000Y-118465000D01*
X162199000Y-123375000D02*
X162199000Y-121960000D01*
X162239000Y-119880000D02*
X162239000Y-118452000D01*
X162239000Y-123388000D02*
X162239000Y-121960000D01*
X162279000Y-119880000D02*
X162279000Y-118440000D01*
X162279000Y-123400000D02*
X162279000Y-121960000D01*
X162320000Y-119880000D02*
X162320000Y-118429000D01*
X162320000Y-123411000D02*
X162320000Y-121960000D01*
X162360000Y-119880000D02*
X162360000Y-118419000D01*
X162360000Y-123421000D02*
X162360000Y-121960000D01*
X162400000Y-119880000D02*
X162400000Y-118409000D01*
X162400000Y-123431000D02*
X162400000Y-121960000D01*
X162440000Y-119880000D02*
X162440000Y-118400000D01*
X162440000Y-123440000D02*
X162440000Y-121960000D01*
X162480000Y-119880000D02*
X162480000Y-118392000D01*
X162480000Y-123448000D02*
X162480000Y-121960000D01*
X162520000Y-119880000D02*
X162520000Y-118384000D01*
X162520000Y-123456000D02*
X162520000Y-121960000D01*
X162560000Y-119880000D02*
X162560000Y-118377000D01*
X162560000Y-123463000D02*
X162560000Y-121960000D01*
X162600000Y-119880000D02*
X162600000Y-118370000D01*
X162600000Y-123470000D02*
X162600000Y-121960000D01*
X162640000Y-119880000D02*
X162640000Y-118364000D01*
X162640000Y-123476000D02*
X162640000Y-121960000D01*
X162680000Y-119880000D02*
X162680000Y-118359000D01*
X162680000Y-123481000D02*
X162680000Y-121960000D01*
X162720000Y-119880000D02*
X162720000Y-118355000D01*
X162720000Y-123485000D02*
X162720000Y-121960000D01*
X162760000Y-119880000D02*
X162760000Y-118351000D01*
X162760000Y-123489000D02*
X162760000Y-121960000D01*
X162800000Y-119880000D02*
X162800000Y-118347000D01*
X162800000Y-123493000D02*
X162800000Y-121960000D01*
X162840000Y-119880000D02*
X162840000Y-118344000D01*
X162840000Y-123496000D02*
X162840000Y-121960000D01*
X162880000Y-119880000D02*
X162880000Y-118342000D01*
X162880000Y-123498000D02*
X162880000Y-121960000D01*
X162920000Y-119880000D02*
X162920000Y-118341000D01*
X162920000Y-123499000D02*
X162920000Y-121960000D01*
X162960000Y-123500000D02*
X162960000Y-121960000D01*
X162960000Y-119880000D02*
X162960000Y-118340000D01*
X163000000Y-123500000D02*
X163000000Y-121960000D01*
X163000000Y-119880000D02*
X163000000Y-118340000D01*
X165620000Y-120920000D02*
G75*
G03X165620000Y-120920000I-2620000J0D01*
G01*
D10*
X130952380Y-111333333D02*
X131666666Y-111333333D01*
X131809523Y-111380952D01*
X131904761Y-111476190D01*
X131952380Y-111619047D01*
X131952380Y-111714285D01*
X130952380Y-110380952D02*
X130952380Y-110857142D01*
X131428571Y-110904761D01*
X131380952Y-110857142D01*
X131333333Y-110761904D01*
X131333333Y-110523809D01*
X131380952Y-110428571D01*
X131428571Y-110380952D01*
X131523809Y-110333333D01*
X131761904Y-110333333D01*
X131857142Y-110380952D01*
X131904761Y-110428571D01*
X131952380Y-110523809D01*
X131952380Y-110761904D01*
X131904761Y-110857142D01*
X131857142Y-110904761D01*
X151952380Y-107603333D02*
X152666666Y-107603333D01*
X152809523Y-107650952D01*
X152904761Y-107746190D01*
X152952380Y-107889047D01*
X152952380Y-107984285D01*
X152285714Y-106698571D02*
X152952380Y-106698571D01*
X151904761Y-106936666D02*
X152619047Y-107174761D01*
X152619047Y-106555714D01*
X184238095Y-108752380D02*
X184238095Y-107752380D01*
X184238095Y-108228571D02*
X184809523Y-108228571D01*
X184809523Y-108752380D02*
X184809523Y-107752380D01*
X185809523Y-108752380D02*
X185238095Y-108752380D01*
X185523809Y-108752380D02*
X185523809Y-107752380D01*
X185428571Y-107895238D01*
X185333333Y-107990476D01*
X185238095Y-108038095D01*
X171951904Y-107422380D02*
X171951904Y-106422380D01*
X172190000Y-106422380D01*
X172332857Y-106470000D01*
X172428095Y-106565238D01*
X172475714Y-106660476D01*
X172523333Y-106850952D01*
X172523333Y-106993809D01*
X172475714Y-107184285D01*
X172428095Y-107279523D01*
X172332857Y-107374761D01*
X172190000Y-107422380D01*
X171951904Y-107422380D01*
X173380476Y-106755714D02*
X173380476Y-107422380D01*
X173142380Y-106374761D02*
X172904285Y-107089047D01*
X173523333Y-107089047D01*
X176238095Y-107052380D02*
X176238095Y-106052380D01*
X176809523Y-107052380D02*
X176380952Y-106480952D01*
X176809523Y-106052380D02*
X176238095Y-106623809D01*
X171571904Y-118902380D02*
X171571904Y-117902380D01*
X171810000Y-117902380D01*
X171952857Y-117950000D01*
X172048095Y-118045238D01*
X172095714Y-118140476D01*
X172143333Y-118330952D01*
X172143333Y-118473809D01*
X172095714Y-118664285D01*
X172048095Y-118759523D01*
X171952857Y-118854761D01*
X171810000Y-118902380D01*
X171571904Y-118902380D01*
X172476666Y-117902380D02*
X173095714Y-117902380D01*
X172762380Y-118283333D01*
X172905238Y-118283333D01*
X173000476Y-118330952D01*
X173048095Y-118378571D01*
X173095714Y-118473809D01*
X173095714Y-118711904D01*
X173048095Y-118807142D01*
X173000476Y-118854761D01*
X172905238Y-118902380D01*
X172619523Y-118902380D01*
X172524285Y-118854761D01*
X172476666Y-118807142D01*
X168238095Y-119272380D02*
X168238095Y-118272380D01*
X168809523Y-119272380D02*
X168380952Y-118700952D01*
X168809523Y-118272380D02*
X168238095Y-118843809D01*
X146952380Y-119428095D02*
X145952380Y-119428095D01*
X145952380Y-119190000D01*
X146000000Y-119047142D01*
X146095238Y-118951904D01*
X146190476Y-118904285D01*
X146380952Y-118856666D01*
X146523809Y-118856666D01*
X146714285Y-118904285D01*
X146809523Y-118951904D01*
X146904761Y-119047142D01*
X146952380Y-119190000D01*
X146952380Y-119428095D01*
X146047619Y-118475714D02*
X146000000Y-118428095D01*
X145952380Y-118332857D01*
X145952380Y-118094761D01*
X146000000Y-117999523D01*
X146047619Y-117951904D01*
X146142857Y-117904285D01*
X146238095Y-117904285D01*
X146380952Y-117951904D01*
X146952380Y-118523333D01*
X146952380Y-117904285D01*
X150652380Y-122761904D02*
X149652380Y-122761904D01*
X150652380Y-122190476D02*
X150080952Y-122619047D01*
X149652380Y-122190476D02*
X150223809Y-122761904D01*
X150452380Y-119238095D02*
X149452380Y-119238095D01*
X149452380Y-119000000D01*
X149500000Y-118857142D01*
X149595238Y-118761904D01*
X149690476Y-118714285D01*
X149880952Y-118666666D01*
X150023809Y-118666666D01*
X150214285Y-118714285D01*
X150309523Y-118761904D01*
X150404761Y-118857142D01*
X150452380Y-119000000D01*
X150452380Y-119238095D01*
X150452380Y-117714285D02*
X150452380Y-118285714D01*
X150452380Y-118000000D02*
X149452380Y-118000000D01*
X149595238Y-118095238D01*
X149690476Y-118190476D01*
X149738095Y-118285714D01*
X150752380Y-115141904D02*
X149752380Y-115141904D01*
X150752380Y-114570476D02*
X150180952Y-114999047D01*
X149752380Y-114570476D02*
X150323809Y-115141904D01*
X158352380Y-115303333D02*
X159066666Y-115303333D01*
X159209523Y-115350952D01*
X159304761Y-115446190D01*
X159352380Y-115589047D01*
X159352380Y-115684285D01*
X159352380Y-114303333D02*
X159352380Y-114874761D01*
X159352380Y-114589047D02*
X158352380Y-114589047D01*
X158495238Y-114684285D01*
X158590476Y-114779523D01*
X158638095Y-114874761D01*
X159352380Y-112642857D02*
X158876190Y-112976190D01*
X159352380Y-113214285D02*
X158352380Y-113214285D01*
X158352380Y-112833333D01*
X158400000Y-112738095D01*
X158447619Y-112690476D01*
X158542857Y-112642857D01*
X158685714Y-112642857D01*
X158780952Y-112690476D01*
X158828571Y-112738095D01*
X158876190Y-112833333D01*
X158876190Y-113214285D01*
X158828571Y-112214285D02*
X158828571Y-111880952D01*
X159352380Y-111738095D02*
X159352380Y-112214285D01*
X158352380Y-112214285D01*
X158352380Y-111738095D01*
X159352380Y-111309523D02*
X158352380Y-111309523D01*
X158352380Y-111071428D01*
X158400000Y-110928571D01*
X158495238Y-110833333D01*
X158590476Y-110785714D01*
X158780952Y-110738095D01*
X158923809Y-110738095D01*
X159114285Y-110785714D01*
X159209523Y-110833333D01*
X159304761Y-110928571D01*
X159352380Y-111071428D01*
X159352380Y-111309523D01*
X137888095Y-113282380D02*
X137888095Y-114091904D01*
X137935714Y-114187142D01*
X137983333Y-114234761D01*
X138078571Y-114282380D01*
X138269047Y-114282380D01*
X138364285Y-114234761D01*
X138411904Y-114187142D01*
X138459523Y-114091904D01*
X138459523Y-113282380D01*
X138888095Y-113377619D02*
X138935714Y-113330000D01*
X139030952Y-113282380D01*
X139269047Y-113282380D01*
X139364285Y-113330000D01*
X139411904Y-113377619D01*
X139459523Y-113472857D01*
X139459523Y-113568095D01*
X139411904Y-113710952D01*
X138840476Y-114282380D01*
X139459523Y-114282380D01*
X123302380Y-119452857D02*
X122826190Y-119786190D01*
X123302380Y-120024285D02*
X122302380Y-120024285D01*
X122302380Y-119643333D01*
X122350000Y-119548095D01*
X122397619Y-119500476D01*
X122492857Y-119452857D01*
X122635714Y-119452857D01*
X122730952Y-119500476D01*
X122778571Y-119548095D01*
X122826190Y-119643333D01*
X122826190Y-120024285D01*
X123302380Y-118500476D02*
X123302380Y-119071904D01*
X123302380Y-118786190D02*
X122302380Y-118786190D01*
X122445238Y-118881428D01*
X122540476Y-118976666D01*
X122588095Y-119071904D01*
X122302380Y-117643333D02*
X122302380Y-117833809D01*
X122350000Y-117929047D01*
X122397619Y-117976666D01*
X122540476Y-118071904D01*
X122730952Y-118119523D01*
X123111904Y-118119523D01*
X123207142Y-118071904D01*
X123254761Y-118024285D01*
X123302380Y-117929047D01*
X123302380Y-117738571D01*
X123254761Y-117643333D01*
X123207142Y-117595714D01*
X123111904Y-117548095D01*
X122873809Y-117548095D01*
X122778571Y-117595714D01*
X122730952Y-117643333D01*
X122683333Y-117738571D01*
X122683333Y-117929047D01*
X122730952Y-118024285D01*
X122778571Y-118071904D01*
X122873809Y-118119523D01*
X127082380Y-119332857D02*
X126606190Y-119666190D01*
X127082380Y-119904285D02*
X126082380Y-119904285D01*
X126082380Y-119523333D01*
X126130000Y-119428095D01*
X126177619Y-119380476D01*
X126272857Y-119332857D01*
X126415714Y-119332857D01*
X126510952Y-119380476D01*
X126558571Y-119428095D01*
X126606190Y-119523333D01*
X126606190Y-119904285D01*
X127082380Y-118380476D02*
X127082380Y-118951904D01*
X127082380Y-118666190D02*
X126082380Y-118666190D01*
X126225238Y-118761428D01*
X126320476Y-118856666D01*
X126368095Y-118951904D01*
X126415714Y-117523333D02*
X127082380Y-117523333D01*
X126034761Y-117761428D02*
X126749047Y-117999523D01*
X126749047Y-117380476D01*
X131352380Y-119122857D02*
X130876190Y-119456190D01*
X131352380Y-119694285D02*
X130352380Y-119694285D01*
X130352380Y-119313333D01*
X130400000Y-119218095D01*
X130447619Y-119170476D01*
X130542857Y-119122857D01*
X130685714Y-119122857D01*
X130780952Y-119170476D01*
X130828571Y-119218095D01*
X130876190Y-119313333D01*
X130876190Y-119694285D01*
X131352380Y-118170476D02*
X131352380Y-118741904D01*
X131352380Y-118456190D02*
X130352380Y-118456190D01*
X130495238Y-118551428D01*
X130590476Y-118646666D01*
X130638095Y-118741904D01*
X130447619Y-117789523D02*
X130400000Y-117741904D01*
X130352380Y-117646666D01*
X130352380Y-117408571D01*
X130400000Y-117313333D01*
X130447619Y-117265714D01*
X130542857Y-117218095D01*
X130638095Y-117218095D01*
X130780952Y-117265714D01*
X131352380Y-117837142D01*
X131352380Y-117218095D01*
X139452380Y-119142857D02*
X138976190Y-119476190D01*
X139452380Y-119714285D02*
X138452380Y-119714285D01*
X138452380Y-119333333D01*
X138500000Y-119238095D01*
X138547619Y-119190476D01*
X138642857Y-119142857D01*
X138785714Y-119142857D01*
X138880952Y-119190476D01*
X138928571Y-119238095D01*
X138976190Y-119333333D01*
X138976190Y-119714285D01*
X139452380Y-118190476D02*
X139452380Y-118761904D01*
X139452380Y-118476190D02*
X138452380Y-118476190D01*
X138595238Y-118571428D01*
X138690476Y-118666666D01*
X138738095Y-118761904D01*
X138452380Y-117571428D02*
X138452380Y-117476190D01*
X138500000Y-117380952D01*
X138547619Y-117333333D01*
X138642857Y-117285714D01*
X138833333Y-117238095D01*
X139071428Y-117238095D01*
X139261904Y-117285714D01*
X139357142Y-117333333D01*
X139404761Y-117380952D01*
X139452380Y-117476190D01*
X139452380Y-117571428D01*
X139404761Y-117666666D01*
X139357142Y-117714285D01*
X139261904Y-117761904D01*
X139071428Y-117809523D01*
X138833333Y-117809523D01*
X138642857Y-117761904D01*
X138547619Y-117714285D01*
X138500000Y-117666666D01*
X138452380Y-117571428D01*
X135452380Y-118666666D02*
X134976190Y-119000000D01*
X135452380Y-119238095D02*
X134452380Y-119238095D01*
X134452380Y-118857142D01*
X134500000Y-118761904D01*
X134547619Y-118714285D01*
X134642857Y-118666666D01*
X134785714Y-118666666D01*
X134880952Y-118714285D01*
X134928571Y-118761904D01*
X134976190Y-118857142D01*
X134976190Y-119238095D01*
X134880952Y-118095238D02*
X134833333Y-118190476D01*
X134785714Y-118238095D01*
X134690476Y-118285714D01*
X134642857Y-118285714D01*
X134547619Y-118238095D01*
X134500000Y-118190476D01*
X134452380Y-118095238D01*
X134452380Y-117904761D01*
X134500000Y-117809523D01*
X134547619Y-117761904D01*
X134642857Y-117714285D01*
X134690476Y-117714285D01*
X134785714Y-117761904D01*
X134833333Y-117809523D01*
X134880952Y-117904761D01*
X134880952Y-118095238D01*
X134928571Y-118190476D01*
X134976190Y-118238095D01*
X135071428Y-118285714D01*
X135261904Y-118285714D01*
X135357142Y-118238095D01*
X135404761Y-118190476D01*
X135452380Y-118095238D01*
X135452380Y-117904761D01*
X135404761Y-117809523D01*
X135357142Y-117761904D01*
X135261904Y-117714285D01*
X135071428Y-117714285D01*
X134976190Y-117761904D01*
X134928571Y-117809523D01*
X134880952Y-117904761D01*
X143452380Y-118666666D02*
X142976190Y-119000000D01*
X143452380Y-119238095D02*
X142452380Y-119238095D01*
X142452380Y-118857142D01*
X142500000Y-118761904D01*
X142547619Y-118714285D01*
X142642857Y-118666666D01*
X142785714Y-118666666D01*
X142880952Y-118714285D01*
X142928571Y-118761904D01*
X142976190Y-118857142D01*
X142976190Y-119238095D01*
X142452380Y-117761904D02*
X142452380Y-118238095D01*
X142928571Y-118285714D01*
X142880952Y-118238095D01*
X142833333Y-118142857D01*
X142833333Y-117904761D01*
X142880952Y-117809523D01*
X142928571Y-117761904D01*
X143023809Y-117714285D01*
X143261904Y-117714285D01*
X143357142Y-117761904D01*
X143404761Y-117809523D01*
X143452380Y-117904761D01*
X143452380Y-118142857D01*
X143404761Y-118238095D01*
X143357142Y-118285714D01*
X148357142Y-107966666D02*
X148404761Y-108014285D01*
X148452380Y-108157142D01*
X148452380Y-108252380D01*
X148404761Y-108395238D01*
X148309523Y-108490476D01*
X148214285Y-108538095D01*
X148023809Y-108585714D01*
X147880952Y-108585714D01*
X147690476Y-108538095D01*
X147595238Y-108490476D01*
X147500000Y-108395238D01*
X147452380Y-108252380D01*
X147452380Y-108157142D01*
X147500000Y-108014285D01*
X147547619Y-107966666D01*
X147452380Y-107061904D02*
X147452380Y-107538095D01*
X147928571Y-107585714D01*
X147880952Y-107538095D01*
X147833333Y-107442857D01*
X147833333Y-107204761D01*
X147880952Y-107109523D01*
X147928571Y-107061904D01*
X148023809Y-107014285D01*
X148261904Y-107014285D01*
X148357142Y-107061904D01*
X148404761Y-107109523D01*
X148452380Y-107204761D01*
X148452380Y-107442857D01*
X148404761Y-107538095D01*
X148357142Y-107585714D01*
X133307142Y-107916666D02*
X133354761Y-107964285D01*
X133402380Y-108107142D01*
X133402380Y-108202380D01*
X133354761Y-108345238D01*
X133259523Y-108440476D01*
X133164285Y-108488095D01*
X132973809Y-108535714D01*
X132830952Y-108535714D01*
X132640476Y-108488095D01*
X132545238Y-108440476D01*
X132450000Y-108345238D01*
X132402380Y-108202380D01*
X132402380Y-108107142D01*
X132450000Y-107964285D01*
X132497619Y-107916666D01*
X132735714Y-107059523D02*
X133402380Y-107059523D01*
X132354761Y-107297619D02*
X133069047Y-107535714D01*
X133069047Y-106916666D01*
X166333333Y-102357142D02*
X166285714Y-102404761D01*
X166142857Y-102452380D01*
X166047619Y-102452380D01*
X165904761Y-102404761D01*
X165809523Y-102309523D01*
X165761904Y-102214285D01*
X165714285Y-102023809D01*
X165714285Y-101880952D01*
X165761904Y-101690476D01*
X165809523Y-101595238D01*
X165904761Y-101500000D01*
X166047619Y-101452380D01*
X166142857Y-101452380D01*
X166285714Y-101500000D01*
X166333333Y-101547619D01*
X166714285Y-101547619D02*
X166761904Y-101500000D01*
X166857142Y-101452380D01*
X167095238Y-101452380D01*
X167190476Y-101500000D01*
X167238095Y-101547619D01*
X167285714Y-101642857D01*
X167285714Y-101738095D01*
X167238095Y-101880952D01*
X166666666Y-102452380D01*
X167285714Y-102452380D01*
X166333333Y-123857142D02*
X166285714Y-123904761D01*
X166142857Y-123952380D01*
X166047619Y-123952380D01*
X165904761Y-123904761D01*
X165809523Y-123809523D01*
X165761904Y-123714285D01*
X165714285Y-123523809D01*
X165714285Y-123380952D01*
X165761904Y-123190476D01*
X165809523Y-123095238D01*
X165904761Y-123000000D01*
X166047619Y-122952380D01*
X166142857Y-122952380D01*
X166285714Y-123000000D01*
X166333333Y-123047619D01*
X167285714Y-123952380D02*
X166714285Y-123952380D01*
X167000000Y-123952380D02*
X167000000Y-122952380D01*
X166904761Y-123095238D01*
X166809523Y-123190476D01*
X166714285Y-123238095D01*
M02*
