G04 #@! TF.GenerationSoftware,KiCad,Pcbnew,5.1.5-52549c5~84~ubuntu18.04.1*
G04 #@! TF.CreationDate,2020-03-23T11:13:26-04:00*
G04 #@! TF.ProjectId,Mikrokosmos,4d696b72-6f6b-46f7-936d-6f732e6b6963,rev?*
G04 #@! TF.SameCoordinates,Original*
G04 #@! TF.FileFunction,Legend,Bot*
G04 #@! TF.FilePolarity,Positive*
%FSLAX46Y46*%
G04 Gerber Fmt 4.6, Leading zero omitted, Abs format (unit mm)*
G04 Created by KiCad (PCBNEW 5.1.5-52549c5~84~ubuntu18.04.1) date 2020-03-23 11:13:26*
%MOMM*%
%LPD*%
G04 APERTURE LIST*
%ADD10C,0.150000*%
%ADD11C,0.120000*%
G04 APERTURE END LIST*
D10*
X128833333Y-102302380D02*
X128833333Y-101302380D01*
X128500000Y-102016666D01*
X128166666Y-101302380D01*
X128166666Y-102302380D01*
X127690476Y-102302380D02*
X127690476Y-101635714D01*
X127690476Y-101302380D02*
X127738095Y-101350000D01*
X127690476Y-101397619D01*
X127642857Y-101350000D01*
X127690476Y-101302380D01*
X127690476Y-101397619D01*
X127214285Y-102302380D02*
X127214285Y-101302380D01*
X127119047Y-101921428D02*
X126833333Y-102302380D01*
X126833333Y-101635714D02*
X127214285Y-102016666D01*
X126404761Y-102302380D02*
X126404761Y-101635714D01*
X126404761Y-101826190D02*
X126357142Y-101730952D01*
X126309523Y-101683333D01*
X126214285Y-101635714D01*
X126119047Y-101635714D01*
X125642857Y-102302380D02*
X125738095Y-102254761D01*
X125785714Y-102207142D01*
X125833333Y-102111904D01*
X125833333Y-101826190D01*
X125785714Y-101730952D01*
X125738095Y-101683333D01*
X125642857Y-101635714D01*
X125500000Y-101635714D01*
X125404761Y-101683333D01*
X125357142Y-101730952D01*
X125309523Y-101826190D01*
X125309523Y-102111904D01*
X125357142Y-102207142D01*
X125404761Y-102254761D01*
X125500000Y-102302380D01*
X125642857Y-102302380D01*
X124880952Y-102302380D02*
X124880952Y-101302380D01*
X124785714Y-101921428D02*
X124500000Y-102302380D01*
X124500000Y-101635714D02*
X124880952Y-102016666D01*
X123928571Y-102302380D02*
X124023809Y-102254761D01*
X124071428Y-102207142D01*
X124119047Y-102111904D01*
X124119047Y-101826190D01*
X124071428Y-101730952D01*
X124023809Y-101683333D01*
X123928571Y-101635714D01*
X123785714Y-101635714D01*
X123690476Y-101683333D01*
X123642857Y-101730952D01*
X123595238Y-101826190D01*
X123595238Y-102111904D01*
X123642857Y-102207142D01*
X123690476Y-102254761D01*
X123785714Y-102302380D01*
X123928571Y-102302380D01*
X123214285Y-102254761D02*
X123119047Y-102302380D01*
X122928571Y-102302380D01*
X122833333Y-102254761D01*
X122785714Y-102159523D01*
X122785714Y-102111904D01*
X122833333Y-102016666D01*
X122928571Y-101969047D01*
X123071428Y-101969047D01*
X123166666Y-101921428D01*
X123214285Y-101826190D01*
X123214285Y-101778571D01*
X123166666Y-101683333D01*
X123071428Y-101635714D01*
X122928571Y-101635714D01*
X122833333Y-101683333D01*
X122357142Y-102302380D02*
X122357142Y-101635714D01*
X122357142Y-101730952D02*
X122309523Y-101683333D01*
X122214285Y-101635714D01*
X122071428Y-101635714D01*
X121976190Y-101683333D01*
X121928571Y-101778571D01*
X121928571Y-102302380D01*
X121928571Y-101778571D02*
X121880952Y-101683333D01*
X121785714Y-101635714D01*
X121642857Y-101635714D01*
X121547619Y-101683333D01*
X121500000Y-101778571D01*
X121500000Y-102302380D01*
X120880952Y-102302380D02*
X120976190Y-102254761D01*
X121023809Y-102207142D01*
X121071428Y-102111904D01*
X121071428Y-101826190D01*
X121023809Y-101730952D01*
X120976190Y-101683333D01*
X120880952Y-101635714D01*
X120738095Y-101635714D01*
X120642857Y-101683333D01*
X120595238Y-101730952D01*
X120547619Y-101826190D01*
X120547619Y-102111904D01*
X120595238Y-102207142D01*
X120642857Y-102254761D01*
X120738095Y-102302380D01*
X120880952Y-102302380D01*
X120166666Y-102254761D02*
X120071428Y-102302380D01*
X119880952Y-102302380D01*
X119785714Y-102254761D01*
X119738095Y-102159523D01*
X119738095Y-102111904D01*
X119785714Y-102016666D01*
X119880952Y-101969047D01*
X120023809Y-101969047D01*
X120119047Y-101921428D01*
X120166666Y-101826190D01*
X120166666Y-101778571D01*
X120119047Y-101683333D01*
X120023809Y-101635714D01*
X119880952Y-101635714D01*
X119785714Y-101683333D01*
X117833333Y-101254761D02*
X118690476Y-102540476D01*
X116166666Y-102302380D02*
X116500000Y-101826190D01*
X116738095Y-102302380D02*
X116738095Y-101302380D01*
X116357142Y-101302380D01*
X116261904Y-101350000D01*
X116214285Y-101397619D01*
X116166666Y-101492857D01*
X116166666Y-101635714D01*
X116214285Y-101730952D01*
X116261904Y-101778571D01*
X116357142Y-101826190D01*
X116738095Y-101826190D01*
X115738095Y-102302380D02*
X115738095Y-101635714D01*
X115738095Y-101302380D02*
X115785714Y-101350000D01*
X115738095Y-101397619D01*
X115690476Y-101350000D01*
X115738095Y-101302380D01*
X115738095Y-101397619D01*
X114833333Y-102254761D02*
X114928571Y-102302380D01*
X115119047Y-102302380D01*
X115214285Y-102254761D01*
X115261904Y-102207142D01*
X115309523Y-102111904D01*
X115309523Y-101826190D01*
X115261904Y-101730952D01*
X115214285Y-101683333D01*
X115119047Y-101635714D01*
X114928571Y-101635714D01*
X114833333Y-101683333D01*
X114404761Y-102302380D02*
X114404761Y-101302380D01*
X113976190Y-102302380D02*
X113976190Y-101778571D01*
X114023809Y-101683333D01*
X114119047Y-101635714D01*
X114261904Y-101635714D01*
X114357142Y-101683333D01*
X114404761Y-101730952D01*
X112738095Y-102302380D02*
X112738095Y-101302380D01*
X112738095Y-101778571D02*
X112166666Y-101778571D01*
X112166666Y-102302380D02*
X112166666Y-101302380D01*
X111547619Y-102302380D02*
X111642857Y-102254761D01*
X111690476Y-102207142D01*
X111738095Y-102111904D01*
X111738095Y-101826190D01*
X111690476Y-101730952D01*
X111642857Y-101683333D01*
X111547619Y-101635714D01*
X111404761Y-101635714D01*
X111309523Y-101683333D01*
X111261904Y-101730952D01*
X111214285Y-101826190D01*
X111214285Y-102111904D01*
X111261904Y-102207142D01*
X111309523Y-102254761D01*
X111404761Y-102302380D01*
X111547619Y-102302380D01*
X110642857Y-102302380D02*
X110738095Y-102254761D01*
X110785714Y-102159523D01*
X110785714Y-101302380D01*
X110261904Y-102302380D02*
X110261904Y-101635714D01*
X110261904Y-101730952D02*
X110214285Y-101683333D01*
X110119047Y-101635714D01*
X109976190Y-101635714D01*
X109880952Y-101683333D01*
X109833333Y-101778571D01*
X109833333Y-102302380D01*
X109833333Y-101778571D02*
X109785714Y-101683333D01*
X109690476Y-101635714D01*
X109547619Y-101635714D01*
X109452380Y-101683333D01*
X109404761Y-101778571D01*
X109404761Y-102302380D01*
X108547619Y-102254761D02*
X108642857Y-102302380D01*
X108833333Y-102302380D01*
X108928571Y-102254761D01*
X108976190Y-102159523D01*
X108976190Y-101778571D01*
X108928571Y-101683333D01*
X108833333Y-101635714D01*
X108642857Y-101635714D01*
X108547619Y-101683333D01*
X108500000Y-101778571D01*
X108500000Y-101873809D01*
X108976190Y-101969047D01*
X108119047Y-102254761D02*
X108023809Y-102302380D01*
X107833333Y-102302380D01*
X107738095Y-102254761D01*
X107690476Y-102159523D01*
X107690476Y-102111904D01*
X107738095Y-102016666D01*
X107833333Y-101969047D01*
X107976190Y-101969047D01*
X108071428Y-101921428D01*
X108119047Y-101826190D01*
X108119047Y-101778571D01*
X108071428Y-101683333D01*
X107976190Y-101635714D01*
X107833333Y-101635714D01*
X107738095Y-101683333D01*
X106595238Y-101302380D02*
X105976190Y-101302380D01*
X106309523Y-101683333D01*
X106166666Y-101683333D01*
X106071428Y-101730952D01*
X106023809Y-101778571D01*
X105976190Y-101873809D01*
X105976190Y-102111904D01*
X106023809Y-102207142D01*
X106071428Y-102254761D01*
X106166666Y-102302380D01*
X106452380Y-102302380D01*
X106547619Y-102254761D01*
X106595238Y-102207142D01*
X104833333Y-101254761D02*
X105690476Y-102540476D01*
X104547619Y-101397619D02*
X104500000Y-101350000D01*
X104404761Y-101302380D01*
X104166666Y-101302380D01*
X104071428Y-101350000D01*
X104023809Y-101397619D01*
X103976190Y-101492857D01*
X103976190Y-101588095D01*
X104023809Y-101730952D01*
X104595238Y-102302380D01*
X103976190Y-102302380D01*
X103357142Y-101302380D02*
X103261904Y-101302380D01*
X103166666Y-101350000D01*
X103119047Y-101397619D01*
X103071428Y-101492857D01*
X103023809Y-101683333D01*
X103023809Y-101921428D01*
X103071428Y-102111904D01*
X103119047Y-102207142D01*
X103166666Y-102254761D01*
X103261904Y-102302380D01*
X103357142Y-102302380D01*
X103452380Y-102254761D01*
X103500000Y-102207142D01*
X103547619Y-102111904D01*
X103595238Y-101921428D01*
X103595238Y-101683333D01*
X103547619Y-101492857D01*
X103500000Y-101397619D01*
X103452380Y-101350000D01*
X103357142Y-101302380D01*
X102642857Y-101397619D02*
X102595238Y-101350000D01*
X102500000Y-101302380D01*
X102261904Y-101302380D01*
X102166666Y-101350000D01*
X102119047Y-101397619D01*
X102071428Y-101492857D01*
X102071428Y-101588095D01*
X102119047Y-101730952D01*
X102690476Y-102302380D01*
X102071428Y-102302380D01*
X101452380Y-101302380D02*
X101357142Y-101302380D01*
X101261904Y-101350000D01*
X101214285Y-101397619D01*
X101166666Y-101492857D01*
X101119047Y-101683333D01*
X101119047Y-101921428D01*
X101166666Y-102111904D01*
X101214285Y-102207142D01*
X101261904Y-102254761D01*
X101357142Y-102302380D01*
X101452380Y-102302380D01*
X101547619Y-102254761D01*
X101595238Y-102207142D01*
X101642857Y-102111904D01*
X101690476Y-101921428D01*
X101690476Y-101683333D01*
X101642857Y-101492857D01*
X101595238Y-101397619D01*
X101547619Y-101350000D01*
X101452380Y-101302380D01*
X126285714Y-104333333D02*
X126333333Y-104285714D01*
X126428571Y-104142857D01*
X126476190Y-104047619D01*
X126523809Y-103904761D01*
X126571428Y-103666666D01*
X126571428Y-103476190D01*
X126523809Y-103238095D01*
X126476190Y-103095238D01*
X126428571Y-103000000D01*
X126333333Y-102857142D01*
X126285714Y-102809523D01*
X125904761Y-103952380D02*
X125904761Y-102952380D01*
X125333333Y-103952380D02*
X125761904Y-103380952D01*
X125333333Y-102952380D02*
X125904761Y-103523809D01*
X124761904Y-103952380D02*
X124857142Y-103904761D01*
X124904761Y-103857142D01*
X124952380Y-103761904D01*
X124952380Y-103476190D01*
X124904761Y-103380952D01*
X124857142Y-103333333D01*
X124761904Y-103285714D01*
X124619047Y-103285714D01*
X124523809Y-103333333D01*
X124476190Y-103380952D01*
X124428571Y-103476190D01*
X124428571Y-103761904D01*
X124476190Y-103857142D01*
X124523809Y-103904761D01*
X124619047Y-103952380D01*
X124761904Y-103952380D01*
X124047619Y-103904761D02*
X123952380Y-103952380D01*
X123761904Y-103952380D01*
X123666666Y-103904761D01*
X123619047Y-103809523D01*
X123619047Y-103761904D01*
X123666666Y-103666666D01*
X123761904Y-103619047D01*
X123904761Y-103619047D01*
X124000000Y-103571428D01*
X124047619Y-103476190D01*
X124047619Y-103428571D01*
X124000000Y-103333333D01*
X123904761Y-103285714D01*
X123761904Y-103285714D01*
X123666666Y-103333333D01*
X123190476Y-103952380D02*
X123190476Y-103285714D01*
X123190476Y-103380952D02*
X123142857Y-103333333D01*
X123047619Y-103285714D01*
X122904761Y-103285714D01*
X122809523Y-103333333D01*
X122761904Y-103428571D01*
X122761904Y-103952380D01*
X122761904Y-103428571D02*
X122714285Y-103333333D01*
X122619047Y-103285714D01*
X122476190Y-103285714D01*
X122380952Y-103333333D01*
X122333333Y-103428571D01*
X122333333Y-103952380D01*
X121714285Y-103952380D02*
X121809523Y-103904761D01*
X121857142Y-103857142D01*
X121904761Y-103761904D01*
X121904761Y-103476190D01*
X121857142Y-103380952D01*
X121809523Y-103333333D01*
X121714285Y-103285714D01*
X121571428Y-103285714D01*
X121476190Y-103333333D01*
X121428571Y-103380952D01*
X121380952Y-103476190D01*
X121380952Y-103761904D01*
X121428571Y-103857142D01*
X121476190Y-103904761D01*
X121571428Y-103952380D01*
X121714285Y-103952380D01*
X120285714Y-103285714D02*
X120047619Y-103952380D01*
X119809523Y-103285714D01*
X119047619Y-103904761D02*
X119142857Y-103952380D01*
X119333333Y-103952380D01*
X119428571Y-103904761D01*
X119476190Y-103809523D01*
X119476190Y-103428571D01*
X119428571Y-103333333D01*
X119333333Y-103285714D01*
X119142857Y-103285714D01*
X119047619Y-103333333D01*
X119000000Y-103428571D01*
X119000000Y-103523809D01*
X119476190Y-103619047D01*
X118571428Y-103952380D02*
X118571428Y-103285714D01*
X118571428Y-103476190D02*
X118523809Y-103380952D01*
X118476190Y-103333333D01*
X118380952Y-103285714D01*
X118285714Y-103285714D01*
X118000000Y-103904761D02*
X117904761Y-103952380D01*
X117714285Y-103952380D01*
X117619047Y-103904761D01*
X117571428Y-103809523D01*
X117571428Y-103761904D01*
X117619047Y-103666666D01*
X117714285Y-103619047D01*
X117857142Y-103619047D01*
X117952380Y-103571428D01*
X118000000Y-103476190D01*
X118000000Y-103428571D01*
X117952380Y-103333333D01*
X117857142Y-103285714D01*
X117714285Y-103285714D01*
X117619047Y-103333333D01*
X117142857Y-103952380D02*
X117142857Y-103285714D01*
X117142857Y-102952380D02*
X117190476Y-103000000D01*
X117142857Y-103047619D01*
X117095238Y-103000000D01*
X117142857Y-102952380D01*
X117142857Y-103047619D01*
X116523809Y-103952380D02*
X116619047Y-103904761D01*
X116666666Y-103857142D01*
X116714285Y-103761904D01*
X116714285Y-103476190D01*
X116666666Y-103380952D01*
X116619047Y-103333333D01*
X116523809Y-103285714D01*
X116380952Y-103285714D01*
X116285714Y-103333333D01*
X116238095Y-103380952D01*
X116190476Y-103476190D01*
X116190476Y-103761904D01*
X116238095Y-103857142D01*
X116285714Y-103904761D01*
X116380952Y-103952380D01*
X116523809Y-103952380D01*
X115761904Y-103285714D02*
X115761904Y-103952380D01*
X115761904Y-103380952D02*
X115714285Y-103333333D01*
X115619047Y-103285714D01*
X115476190Y-103285714D01*
X115380952Y-103333333D01*
X115333333Y-103428571D01*
X115333333Y-103952380D01*
X113952380Y-103952380D02*
X114047619Y-103904761D01*
X114095238Y-103857142D01*
X114142857Y-103761904D01*
X114142857Y-103476190D01*
X114095238Y-103380952D01*
X114047619Y-103333333D01*
X113952380Y-103285714D01*
X113809523Y-103285714D01*
X113714285Y-103333333D01*
X113666666Y-103380952D01*
X113619047Y-103476190D01*
X113619047Y-103761904D01*
X113666666Y-103857142D01*
X113714285Y-103904761D01*
X113809523Y-103952380D01*
X113952380Y-103952380D01*
X113333333Y-103285714D02*
X112952380Y-103285714D01*
X113190476Y-103952380D02*
X113190476Y-103095238D01*
X113142857Y-103000000D01*
X113047619Y-102952380D01*
X112952380Y-102952380D01*
X111857142Y-103952380D02*
X111857142Y-102952380D01*
X111523809Y-103666666D01*
X111190476Y-102952380D01*
X111190476Y-103952380D01*
X110714285Y-103952380D02*
X110714285Y-103285714D01*
X110714285Y-102952380D02*
X110761904Y-103000000D01*
X110714285Y-103047619D01*
X110666666Y-103000000D01*
X110714285Y-102952380D01*
X110714285Y-103047619D01*
X110238095Y-103952380D02*
X110238095Y-102952380D01*
X110142857Y-103571428D02*
X109857142Y-103952380D01*
X109857142Y-103285714D02*
X110238095Y-103666666D01*
X109428571Y-103952380D02*
X109428571Y-103285714D01*
X109428571Y-103476190D02*
X109380952Y-103380952D01*
X109333333Y-103333333D01*
X109238095Y-103285714D01*
X109142857Y-103285714D01*
X108666666Y-103952380D02*
X108761904Y-103904761D01*
X108809523Y-103857142D01*
X108857142Y-103761904D01*
X108857142Y-103476190D01*
X108809523Y-103380952D01*
X108761904Y-103333333D01*
X108666666Y-103285714D01*
X108523809Y-103285714D01*
X108428571Y-103333333D01*
X108380952Y-103380952D01*
X108333333Y-103476190D01*
X108333333Y-103761904D01*
X108380952Y-103857142D01*
X108428571Y-103904761D01*
X108523809Y-103952380D01*
X108666666Y-103952380D01*
X107904761Y-103285714D02*
X107904761Y-104285714D01*
X107904761Y-103333333D02*
X107809523Y-103285714D01*
X107619047Y-103285714D01*
X107523809Y-103333333D01*
X107476190Y-103380952D01*
X107428571Y-103476190D01*
X107428571Y-103761904D01*
X107476190Y-103857142D01*
X107523809Y-103904761D01*
X107619047Y-103952380D01*
X107809523Y-103952380D01*
X107904761Y-103904761D01*
X107000000Y-103952380D02*
X107000000Y-102952380D01*
X106571428Y-103952380D02*
X106571428Y-103428571D01*
X106619047Y-103333333D01*
X106714285Y-103285714D01*
X106857142Y-103285714D01*
X106952380Y-103333333D01*
X107000000Y-103380952D01*
X105952380Y-103952380D02*
X106047619Y-103904761D01*
X106095238Y-103857142D01*
X106142857Y-103761904D01*
X106142857Y-103476190D01*
X106095238Y-103380952D01*
X106047619Y-103333333D01*
X105952380Y-103285714D01*
X105809523Y-103285714D01*
X105714285Y-103333333D01*
X105666666Y-103380952D01*
X105619047Y-103476190D01*
X105619047Y-103761904D01*
X105666666Y-103857142D01*
X105714285Y-103904761D01*
X105809523Y-103952380D01*
X105952380Y-103952380D01*
X105190476Y-103285714D02*
X105190476Y-103952380D01*
X105190476Y-103380952D02*
X105142857Y-103333333D01*
X105047619Y-103285714D01*
X104904761Y-103285714D01*
X104809523Y-103333333D01*
X104761904Y-103428571D01*
X104761904Y-103952380D01*
X104285714Y-103952380D02*
X104285714Y-103285714D01*
X104285714Y-102952380D02*
X104333333Y-103000000D01*
X104285714Y-103047619D01*
X104238095Y-103000000D01*
X104285714Y-102952380D01*
X104285714Y-103047619D01*
X103428571Y-103904761D02*
X103523809Y-103952380D01*
X103714285Y-103952380D01*
X103809523Y-103904761D01*
X103857142Y-103809523D01*
X103857142Y-103428571D01*
X103809523Y-103333333D01*
X103714285Y-103285714D01*
X103523809Y-103285714D01*
X103428571Y-103333333D01*
X103380952Y-103428571D01*
X103380952Y-103523809D01*
X103857142Y-103619047D01*
X124095238Y-105602380D02*
X124095238Y-104602380D01*
X124095238Y-104983333D02*
X124000000Y-104935714D01*
X123809523Y-104935714D01*
X123714285Y-104983333D01*
X123666666Y-105030952D01*
X123619047Y-105126190D01*
X123619047Y-105411904D01*
X123666666Y-105507142D01*
X123714285Y-105554761D01*
X123809523Y-105602380D01*
X124000000Y-105602380D01*
X124095238Y-105554761D01*
X123285714Y-104935714D02*
X123047619Y-105602380D01*
X122809523Y-104935714D02*
X123047619Y-105602380D01*
X123142857Y-105840476D01*
X123190476Y-105888095D01*
X123285714Y-105935714D01*
X121666666Y-105602380D02*
X121666666Y-104602380D01*
X121333333Y-105316666D01*
X121000000Y-104602380D01*
X121000000Y-105602380D01*
X120095238Y-104935714D02*
X120095238Y-105602380D01*
X120523809Y-104935714D02*
X120523809Y-105459523D01*
X120476190Y-105554761D01*
X120380952Y-105602380D01*
X120238095Y-105602380D01*
X120142857Y-105554761D01*
X120095238Y-105507142D01*
X119666666Y-105554761D02*
X119571428Y-105602380D01*
X119380952Y-105602380D01*
X119285714Y-105554761D01*
X119238095Y-105459523D01*
X119238095Y-105411904D01*
X119285714Y-105316666D01*
X119380952Y-105269047D01*
X119523809Y-105269047D01*
X119619047Y-105221428D01*
X119666666Y-105126190D01*
X119666666Y-105078571D01*
X119619047Y-104983333D01*
X119523809Y-104935714D01*
X119380952Y-104935714D01*
X119285714Y-104983333D01*
X118809523Y-105602380D02*
X118809523Y-104935714D01*
X118809523Y-104602380D02*
X118857142Y-104650000D01*
X118809523Y-104697619D01*
X118761904Y-104650000D01*
X118809523Y-104602380D01*
X118809523Y-104697619D01*
X117904761Y-105554761D02*
X118000000Y-105602380D01*
X118190476Y-105602380D01*
X118285714Y-105554761D01*
X118333333Y-105507142D01*
X118380952Y-105411904D01*
X118380952Y-105126190D01*
X118333333Y-105030952D01*
X118285714Y-104983333D01*
X118190476Y-104935714D01*
X118000000Y-104935714D01*
X117904761Y-104983333D01*
X116857142Y-104602380D02*
X116285714Y-104602380D01*
X116571428Y-105602380D02*
X116571428Y-104602380D01*
X115952380Y-105602380D02*
X115952380Y-104602380D01*
X115523809Y-105602380D02*
X115523809Y-105078571D01*
X115571428Y-104983333D01*
X115666666Y-104935714D01*
X115809523Y-104935714D01*
X115904761Y-104983333D01*
X115952380Y-105030952D01*
X115047619Y-105602380D02*
X115047619Y-104935714D01*
X115047619Y-104602380D02*
X115095238Y-104650000D01*
X115047619Y-104697619D01*
X115000000Y-104650000D01*
X115047619Y-104602380D01*
X115047619Y-104697619D01*
X114571428Y-104935714D02*
X114571428Y-105602380D01*
X114571428Y-105030952D02*
X114523809Y-104983333D01*
X114428571Y-104935714D01*
X114285714Y-104935714D01*
X114190476Y-104983333D01*
X114142857Y-105078571D01*
X114142857Y-105602380D01*
X113238095Y-104935714D02*
X113238095Y-105745238D01*
X113285714Y-105840476D01*
X113333333Y-105888095D01*
X113428571Y-105935714D01*
X113571428Y-105935714D01*
X113666666Y-105888095D01*
X113238095Y-105554761D02*
X113333333Y-105602380D01*
X113523809Y-105602380D01*
X113619047Y-105554761D01*
X113666666Y-105507142D01*
X113714285Y-105411904D01*
X113714285Y-105126190D01*
X113666666Y-105030952D01*
X113619047Y-104983333D01*
X113523809Y-104935714D01*
X113333333Y-104935714D01*
X113238095Y-104983333D01*
X112000000Y-105602380D02*
X112000000Y-104602380D01*
X111666666Y-105316666D01*
X111333333Y-104602380D01*
X111333333Y-105602380D01*
X110714285Y-105602380D02*
X110809523Y-105554761D01*
X110857142Y-105507142D01*
X110904761Y-105411904D01*
X110904761Y-105126190D01*
X110857142Y-105030952D01*
X110809523Y-104983333D01*
X110714285Y-104935714D01*
X110571428Y-104935714D01*
X110476190Y-104983333D01*
X110428571Y-105030952D01*
X110380952Y-105126190D01*
X110380952Y-105411904D01*
X110428571Y-105507142D01*
X110476190Y-105554761D01*
X110571428Y-105602380D01*
X110714285Y-105602380D01*
X109523809Y-105602380D02*
X109523809Y-104602380D01*
X109523809Y-105554761D02*
X109619047Y-105602380D01*
X109809523Y-105602380D01*
X109904761Y-105554761D01*
X109952380Y-105507142D01*
X110000000Y-105411904D01*
X110000000Y-105126190D01*
X109952380Y-105030952D01*
X109904761Y-104983333D01*
X109809523Y-104935714D01*
X109619047Y-104935714D01*
X109523809Y-104983333D01*
X108619047Y-104935714D02*
X108619047Y-105602380D01*
X109047619Y-104935714D02*
X109047619Y-105459523D01*
X109000000Y-105554761D01*
X108904761Y-105602380D01*
X108761904Y-105602380D01*
X108666666Y-105554761D01*
X108619047Y-105507142D01*
X108000000Y-105602380D02*
X108095238Y-105554761D01*
X108142857Y-105459523D01*
X108142857Y-104602380D01*
X107190476Y-105602380D02*
X107190476Y-105078571D01*
X107238095Y-104983333D01*
X107333333Y-104935714D01*
X107523809Y-104935714D01*
X107619047Y-104983333D01*
X107190476Y-105554761D02*
X107285714Y-105602380D01*
X107523809Y-105602380D01*
X107619047Y-105554761D01*
X107666666Y-105459523D01*
X107666666Y-105364285D01*
X107619047Y-105269047D01*
X107523809Y-105221428D01*
X107285714Y-105221428D01*
X107190476Y-105173809D01*
X106714285Y-105602380D02*
X106714285Y-104935714D01*
X106714285Y-105126190D02*
X106666666Y-105030952D01*
X106619047Y-104983333D01*
X106523809Y-104935714D01*
X106428571Y-104935714D01*
X106190476Y-105983333D02*
X106142857Y-105935714D01*
X106047619Y-105792857D01*
X106000000Y-105697619D01*
X105952380Y-105554761D01*
X105904761Y-105316666D01*
X105904761Y-105126190D01*
X105952380Y-104888095D01*
X106000000Y-104745238D01*
X106047619Y-104650000D01*
X106142857Y-104507142D01*
X106190476Y-104459523D01*
D11*
X115380000Y-110845000D02*
X115380000Y-111675000D01*
X115380000Y-113295000D02*
X115380000Y-113825000D01*
X115380000Y-116195000D02*
X115380000Y-117375000D01*
X115380000Y-107635000D02*
X120100000Y-107635000D01*
X123910000Y-117375000D02*
X126970000Y-117375000D01*
X115380000Y-117385000D02*
X120100000Y-117385000D01*
X123910000Y-107635000D02*
X126970000Y-107635000D01*
X115380000Y-107635000D02*
X115380000Y-109125000D01*
X126970000Y-107635000D02*
X126970000Y-117375000D01*
D10*
X121545238Y-120257380D02*
X121878571Y-119781190D01*
X122116666Y-120257380D02*
X122116666Y-119257380D01*
X121735714Y-119257380D01*
X121640476Y-119305000D01*
X121592857Y-119352619D01*
X121545238Y-119447857D01*
X121545238Y-119590714D01*
X121592857Y-119685952D01*
X121640476Y-119733571D01*
X121735714Y-119781190D01*
X122116666Y-119781190D01*
X121259523Y-119257380D02*
X120926190Y-120257380D01*
X120592857Y-119257380D01*
X119735714Y-120257380D02*
X120307142Y-120257380D01*
X120021428Y-120257380D02*
X120021428Y-119257380D01*
X120116666Y-119400238D01*
X120211904Y-119495476D01*
X120307142Y-119543095D01*
M02*
