G04 #@! TF.GenerationSoftware,KiCad,Pcbnew,5.1.5-52549c5~84~ubuntu18.04.1*
G04 #@! TF.CreationDate,2020-03-23T11:13:26-04:00*
G04 #@! TF.ProjectId,Mikrokosmos,4d696b72-6f6b-46f7-936d-6f732e6b6963,rev?*
G04 #@! TF.SameCoordinates,Original*
G04 #@! TF.FileFunction,Soldermask,Bot*
G04 #@! TF.FilePolarity,Negative*
%FSLAX46Y46*%
G04 Gerber Fmt 4.6, Leading zero omitted, Abs format (unit mm)*
G04 Created by KiCad (PCBNEW 5.1.5-52549c5~84~ubuntu18.04.1) date 2020-03-23 11:13:26*
%MOMM*%
%LPD*%
G04 APERTURE LIST*
%ADD10C,0.100000*%
G04 APERTURE END LIST*
D10*
G36*
X156800680Y-122800680D02*
G01*
X154199320Y-122800680D01*
X154199320Y-120199320D01*
X156800680Y-120199320D01*
X156800680Y-122800680D01*
G37*
G36*
X152069393Y-120249304D02*
G01*
X152306101Y-120347352D01*
X152306103Y-120347353D01*
X152519135Y-120489696D01*
X152700304Y-120670865D01*
X152810766Y-120836184D01*
X152842648Y-120883899D01*
X152940696Y-121120607D01*
X152990680Y-121371893D01*
X152990680Y-121628107D01*
X152940696Y-121879393D01*
X152859216Y-122076103D01*
X152842647Y-122116103D01*
X152700304Y-122329135D01*
X152519135Y-122510304D01*
X152306103Y-122652647D01*
X152306102Y-122652648D01*
X152306101Y-122652648D01*
X152069393Y-122750696D01*
X151818107Y-122800680D01*
X151561893Y-122800680D01*
X151310607Y-122750696D01*
X151073899Y-122652648D01*
X151073898Y-122652648D01*
X151073897Y-122652647D01*
X150860865Y-122510304D01*
X150679696Y-122329135D01*
X150537353Y-122116103D01*
X150520784Y-122076103D01*
X150439304Y-121879393D01*
X150389320Y-121628107D01*
X150389320Y-121371893D01*
X150439304Y-121120607D01*
X150537352Y-120883899D01*
X150569234Y-120836184D01*
X150679696Y-120670865D01*
X150860865Y-120489696D01*
X151073897Y-120347353D01*
X151073899Y-120347352D01*
X151310607Y-120249304D01*
X151561893Y-120199320D01*
X151818107Y-120199320D01*
X152069393Y-120249304D01*
G37*
G36*
X161379393Y-120209304D02*
G01*
X161616101Y-120307352D01*
X161616103Y-120307353D01*
X161829135Y-120449696D01*
X162010304Y-120630865D01*
X162147493Y-120836184D01*
X162152648Y-120843899D01*
X162250696Y-121080607D01*
X162300680Y-121331893D01*
X162300680Y-121588107D01*
X162250696Y-121839393D01*
X162162175Y-122053100D01*
X162152647Y-122076103D01*
X162010304Y-122289135D01*
X161829135Y-122470304D01*
X161616103Y-122612647D01*
X161616102Y-122612648D01*
X161616101Y-122612648D01*
X161379393Y-122710696D01*
X161128107Y-122760680D01*
X160871893Y-122760680D01*
X160620607Y-122710696D01*
X160383899Y-122612648D01*
X160383898Y-122612648D01*
X160383897Y-122612647D01*
X160170865Y-122470304D01*
X159989696Y-122289135D01*
X159847353Y-122076103D01*
X159837825Y-122053100D01*
X159749304Y-121839393D01*
X159699320Y-121588107D01*
X159699320Y-121331893D01*
X159749304Y-121080607D01*
X159847352Y-120843899D01*
X159852507Y-120836184D01*
X159989696Y-120630865D01*
X160170865Y-120449696D01*
X160383897Y-120307353D01*
X160383899Y-120307352D01*
X160620607Y-120209304D01*
X160871893Y-120159320D01*
X161128107Y-120159320D01*
X161379393Y-120209304D01*
G37*
G36*
X137128228Y-120831703D02*
G01*
X137283100Y-120895853D01*
X137422481Y-120988985D01*
X137541015Y-121107519D01*
X137634147Y-121246900D01*
X137698297Y-121401772D01*
X137731000Y-121566184D01*
X137731000Y-121733816D01*
X137698297Y-121898228D01*
X137634147Y-122053100D01*
X137541015Y-122192481D01*
X137422481Y-122311015D01*
X137283100Y-122404147D01*
X137128228Y-122468297D01*
X136963816Y-122501000D01*
X136796184Y-122501000D01*
X136631772Y-122468297D01*
X136476900Y-122404147D01*
X136337519Y-122311015D01*
X136218985Y-122192481D01*
X136125853Y-122053100D01*
X136061703Y-121898228D01*
X136029000Y-121733816D01*
X136029000Y-121566184D01*
X136061703Y-121401772D01*
X136125853Y-121246900D01*
X136218985Y-121107519D01*
X136337519Y-120988985D01*
X136476900Y-120895853D01*
X136631772Y-120831703D01*
X136796184Y-120799000D01*
X136963816Y-120799000D01*
X137128228Y-120831703D01*
G37*
G36*
X144748228Y-120831703D02*
G01*
X144903100Y-120895853D01*
X145042481Y-120988985D01*
X145161015Y-121107519D01*
X145254147Y-121246900D01*
X145318297Y-121401772D01*
X145351000Y-121566184D01*
X145351000Y-121733816D01*
X145318297Y-121898228D01*
X145254147Y-122053100D01*
X145161015Y-122192481D01*
X145042481Y-122311015D01*
X144903100Y-122404147D01*
X144748228Y-122468297D01*
X144583816Y-122501000D01*
X144416184Y-122501000D01*
X144251772Y-122468297D01*
X144096900Y-122404147D01*
X143957519Y-122311015D01*
X143838985Y-122192481D01*
X143745853Y-122053100D01*
X143681703Y-121898228D01*
X143649000Y-121733816D01*
X143649000Y-121566184D01*
X143681703Y-121401772D01*
X143745853Y-121246900D01*
X143838985Y-121107519D01*
X143957519Y-120988985D01*
X144096900Y-120895853D01*
X144251772Y-120831703D01*
X144416184Y-120799000D01*
X144583816Y-120799000D01*
X144748228Y-120831703D01*
G37*
G36*
X175701000Y-122071000D02*
G01*
X173399000Y-122071000D01*
X173399000Y-119769000D01*
X175701000Y-119769000D01*
X175701000Y-122071000D01*
G37*
G36*
X184934549Y-119791116D02*
G01*
X185045734Y-119813232D01*
X185255203Y-119899997D01*
X185443720Y-120025960D01*
X185604040Y-120186280D01*
X185730003Y-120374797D01*
X185730004Y-120374799D01*
X185731131Y-120377520D01*
X185816768Y-120584266D01*
X185861000Y-120806636D01*
X185861000Y-121033364D01*
X185818525Y-121246903D01*
X185816768Y-121255733D01*
X185731131Y-121462481D01*
X185730003Y-121465203D01*
X185604040Y-121653720D01*
X185443720Y-121814040D01*
X185255203Y-121940003D01*
X185045734Y-122026768D01*
X184934549Y-122048884D01*
X184823365Y-122071000D01*
X184596635Y-122071000D01*
X184485451Y-122048884D01*
X184374266Y-122026768D01*
X184164797Y-121940003D01*
X183976280Y-121814040D01*
X183815960Y-121653720D01*
X183689997Y-121465203D01*
X183688870Y-121462481D01*
X183603232Y-121255733D01*
X183601476Y-121246903D01*
X183559000Y-121033364D01*
X183559000Y-120806636D01*
X183603232Y-120584266D01*
X183688869Y-120377520D01*
X183689996Y-120374799D01*
X183689997Y-120374797D01*
X183815960Y-120186280D01*
X183976280Y-120025960D01*
X184164797Y-119899997D01*
X184374266Y-119813232D01*
X184485451Y-119791116D01*
X184596635Y-119769000D01*
X184823365Y-119769000D01*
X184934549Y-119791116D01*
G37*
G36*
X169851000Y-121771000D02*
G01*
X168149000Y-121771000D01*
X168149000Y-120069000D01*
X169851000Y-120069000D01*
X169851000Y-121771000D01*
G37*
G36*
X167248228Y-120101703D02*
G01*
X167403100Y-120165853D01*
X167542481Y-120258985D01*
X167661015Y-120377519D01*
X167754147Y-120516900D01*
X167818297Y-120671772D01*
X167851000Y-120836184D01*
X167851000Y-121003816D01*
X167818297Y-121168228D01*
X167754147Y-121323100D01*
X167661015Y-121462481D01*
X167542481Y-121581015D01*
X167403100Y-121674147D01*
X167248228Y-121738297D01*
X167083816Y-121771000D01*
X166916184Y-121771000D01*
X166751772Y-121738297D01*
X166596900Y-121674147D01*
X166457519Y-121581015D01*
X166338985Y-121462481D01*
X166245853Y-121323100D01*
X166181703Y-121168228D01*
X166149000Y-121003816D01*
X166149000Y-120836184D01*
X166181703Y-120671772D01*
X166245853Y-120516900D01*
X166338985Y-120377519D01*
X166457519Y-120258985D01*
X166596900Y-120165853D01*
X166751772Y-120101703D01*
X166916184Y-120069000D01*
X167083816Y-120069000D01*
X167248228Y-120101703D01*
G37*
G36*
X122487412Y-115698215D02*
G01*
X122791514Y-115824178D01*
X123065199Y-116007049D01*
X123297951Y-116239801D01*
X123480822Y-116513486D01*
X123606785Y-116817588D01*
X123671000Y-117140420D01*
X123671000Y-117469580D01*
X123606785Y-117792412D01*
X123480822Y-118096514D01*
X123297951Y-118370199D01*
X123065199Y-118602951D01*
X122791514Y-118785822D01*
X122487412Y-118911785D01*
X122164580Y-118976000D01*
X121835420Y-118976000D01*
X121512588Y-118911785D01*
X121208486Y-118785822D01*
X120934801Y-118602951D01*
X120702049Y-118370199D01*
X120519178Y-118096514D01*
X120393215Y-117792412D01*
X120329000Y-117469580D01*
X120329000Y-117140420D01*
X120393215Y-116817588D01*
X120519178Y-116513486D01*
X120702049Y-116239801D01*
X120934801Y-116007049D01*
X121208486Y-115824178D01*
X121512588Y-115698215D01*
X121835420Y-115634000D01*
X122164580Y-115634000D01*
X122487412Y-115698215D01*
G37*
G36*
X162300680Y-118950680D02*
G01*
X159699320Y-118950680D01*
X159699320Y-116349320D01*
X162300680Y-116349320D01*
X162300680Y-118950680D01*
G37*
G36*
X155748228Y-116831703D02*
G01*
X155903100Y-116895853D01*
X156042481Y-116988985D01*
X156161015Y-117107519D01*
X156254147Y-117246900D01*
X156318297Y-117401772D01*
X156351000Y-117566184D01*
X156351000Y-117733816D01*
X156318297Y-117898228D01*
X156254147Y-118053100D01*
X156161015Y-118192481D01*
X156042481Y-118311015D01*
X155903100Y-118404147D01*
X155748228Y-118468297D01*
X155583816Y-118501000D01*
X155416184Y-118501000D01*
X155251772Y-118468297D01*
X155096900Y-118404147D01*
X154957519Y-118311015D01*
X154838985Y-118192481D01*
X154745853Y-118053100D01*
X154681703Y-117898228D01*
X154649000Y-117733816D01*
X154649000Y-117566184D01*
X154681703Y-117401772D01*
X154745853Y-117246900D01*
X154838985Y-117107519D01*
X154957519Y-116988985D01*
X155096900Y-116895853D01*
X155251772Y-116831703D01*
X155416184Y-116799000D01*
X155583816Y-116799000D01*
X155748228Y-116831703D01*
G37*
G36*
X148128228Y-116831703D02*
G01*
X148283100Y-116895853D01*
X148422481Y-116988985D01*
X148541015Y-117107519D01*
X148634147Y-117246900D01*
X148698297Y-117401772D01*
X148731000Y-117566184D01*
X148731000Y-117733816D01*
X148698297Y-117898228D01*
X148634147Y-118053100D01*
X148541015Y-118192481D01*
X148422481Y-118311015D01*
X148283100Y-118404147D01*
X148128228Y-118468297D01*
X147963816Y-118501000D01*
X147796184Y-118501000D01*
X147631772Y-118468297D01*
X147476900Y-118404147D01*
X147337519Y-118311015D01*
X147218985Y-118192481D01*
X147125853Y-118053100D01*
X147061703Y-117898228D01*
X147029000Y-117733816D01*
X147029000Y-117566184D01*
X147061703Y-117401772D01*
X147125853Y-117246900D01*
X147218985Y-117107519D01*
X147337519Y-116988985D01*
X147476900Y-116895853D01*
X147631772Y-116831703D01*
X147796184Y-116799000D01*
X147963816Y-116799000D01*
X148128228Y-116831703D01*
G37*
G36*
X144748228Y-116831703D02*
G01*
X144903100Y-116895853D01*
X145042481Y-116988985D01*
X145161015Y-117107519D01*
X145254147Y-117246900D01*
X145318297Y-117401772D01*
X145351000Y-117566184D01*
X145351000Y-117733816D01*
X145318297Y-117898228D01*
X145254147Y-118053100D01*
X145161015Y-118192481D01*
X145042481Y-118311015D01*
X144903100Y-118404147D01*
X144748228Y-118468297D01*
X144583816Y-118501000D01*
X144416184Y-118501000D01*
X144251772Y-118468297D01*
X144096900Y-118404147D01*
X143957519Y-118311015D01*
X143838985Y-118192481D01*
X143745853Y-118053100D01*
X143681703Y-117898228D01*
X143649000Y-117733816D01*
X143649000Y-117566184D01*
X143681703Y-117401772D01*
X143745853Y-117246900D01*
X143838985Y-117107519D01*
X143957519Y-116988985D01*
X144096900Y-116895853D01*
X144251772Y-116831703D01*
X144416184Y-116799000D01*
X144583816Y-116799000D01*
X144748228Y-116831703D01*
G37*
G36*
X137128228Y-116831703D02*
G01*
X137283100Y-116895853D01*
X137422481Y-116988985D01*
X137541015Y-117107519D01*
X137634147Y-117246900D01*
X137698297Y-117401772D01*
X137731000Y-117566184D01*
X137731000Y-117733816D01*
X137698297Y-117898228D01*
X137634147Y-118053100D01*
X137541015Y-118192481D01*
X137422481Y-118311015D01*
X137283100Y-118404147D01*
X137128228Y-118468297D01*
X136963816Y-118501000D01*
X136796184Y-118501000D01*
X136631772Y-118468297D01*
X136476900Y-118404147D01*
X136337519Y-118311015D01*
X136218985Y-118192481D01*
X136125853Y-118053100D01*
X136061703Y-117898228D01*
X136029000Y-117733816D01*
X136029000Y-117566184D01*
X136061703Y-117401772D01*
X136125853Y-117246900D01*
X136218985Y-117107519D01*
X136337519Y-116988985D01*
X136476900Y-116895853D01*
X136631772Y-116831703D01*
X136796184Y-116799000D01*
X136963816Y-116799000D01*
X137128228Y-116831703D01*
G37*
G36*
X107748228Y-115496703D02*
G01*
X107903100Y-115560853D01*
X108042481Y-115653985D01*
X108161015Y-115772519D01*
X108254147Y-115911900D01*
X108318297Y-116066772D01*
X108351000Y-116231184D01*
X108351000Y-116398816D01*
X108318297Y-116563228D01*
X108254147Y-116718100D01*
X108161015Y-116857481D01*
X108042481Y-116976015D01*
X107903100Y-117069147D01*
X107748228Y-117133297D01*
X107583816Y-117166000D01*
X107416184Y-117166000D01*
X107251772Y-117133297D01*
X107096900Y-117069147D01*
X106957519Y-116976015D01*
X106838985Y-116857481D01*
X106745853Y-116718100D01*
X106681703Y-116563228D01*
X106649000Y-116398816D01*
X106649000Y-116231184D01*
X106681703Y-116066772D01*
X106745853Y-115911900D01*
X106838985Y-115772519D01*
X106957519Y-115653985D01*
X107096900Y-115560853D01*
X107251772Y-115496703D01*
X107416184Y-115464000D01*
X107583816Y-115464000D01*
X107748228Y-115496703D01*
G37*
G36*
X115451000Y-115956000D02*
G01*
X113549000Y-115956000D01*
X113549000Y-114054000D01*
X115451000Y-114054000D01*
X115451000Y-115956000D01*
G37*
G36*
X178386778Y-112890547D02*
G01*
X178553224Y-112959491D01*
X178703022Y-113059583D01*
X178830417Y-113186978D01*
X178930509Y-113336776D01*
X178999453Y-113503222D01*
X179034600Y-113679918D01*
X179034600Y-113860082D01*
X178999453Y-114036778D01*
X178930509Y-114203224D01*
X178830417Y-114353022D01*
X178703022Y-114480417D01*
X178553224Y-114580509D01*
X178386778Y-114649453D01*
X178210082Y-114684600D01*
X178029918Y-114684600D01*
X177853222Y-114649453D01*
X177686776Y-114580509D01*
X177536978Y-114480417D01*
X177409583Y-114353022D01*
X177309491Y-114203224D01*
X177240547Y-114036778D01*
X177205400Y-113860082D01*
X177205400Y-113679918D01*
X177240547Y-113503222D01*
X177309491Y-113336776D01*
X177409583Y-113186978D01*
X177536978Y-113059583D01*
X177686776Y-112959491D01*
X177853222Y-112890547D01*
X178029918Y-112855400D01*
X178210082Y-112855400D01*
X178386778Y-112890547D01*
G37*
G36*
X171414600Y-114684600D02*
G01*
X169585400Y-114684600D01*
X169585400Y-112855400D01*
X171414600Y-112855400D01*
X171414600Y-114684600D01*
G37*
G36*
X180926778Y-112890547D02*
G01*
X181093224Y-112959491D01*
X181243022Y-113059583D01*
X181370417Y-113186978D01*
X181470509Y-113336776D01*
X181539453Y-113503222D01*
X181574600Y-113679918D01*
X181574600Y-113860082D01*
X181539453Y-114036778D01*
X181470509Y-114203224D01*
X181370417Y-114353022D01*
X181243022Y-114480417D01*
X181093224Y-114580509D01*
X180926778Y-114649453D01*
X180750082Y-114684600D01*
X180569918Y-114684600D01*
X180393222Y-114649453D01*
X180226776Y-114580509D01*
X180076978Y-114480417D01*
X179949583Y-114353022D01*
X179849491Y-114203224D01*
X179780547Y-114036778D01*
X179745400Y-113860082D01*
X179745400Y-113679918D01*
X179780547Y-113503222D01*
X179849491Y-113336776D01*
X179949583Y-113186978D01*
X180076978Y-113059583D01*
X180226776Y-112959491D01*
X180393222Y-112890547D01*
X180569918Y-112855400D01*
X180750082Y-112855400D01*
X180926778Y-112890547D01*
G37*
G36*
X175846778Y-112890547D02*
G01*
X176013224Y-112959491D01*
X176163022Y-113059583D01*
X176290417Y-113186978D01*
X176390509Y-113336776D01*
X176459453Y-113503222D01*
X176494600Y-113679918D01*
X176494600Y-113860082D01*
X176459453Y-114036778D01*
X176390509Y-114203224D01*
X176290417Y-114353022D01*
X176163022Y-114480417D01*
X176013224Y-114580509D01*
X175846778Y-114649453D01*
X175670082Y-114684600D01*
X175489918Y-114684600D01*
X175313222Y-114649453D01*
X175146776Y-114580509D01*
X174996978Y-114480417D01*
X174869583Y-114353022D01*
X174769491Y-114203224D01*
X174700547Y-114036778D01*
X174665400Y-113860082D01*
X174665400Y-113679918D01*
X174700547Y-113503222D01*
X174769491Y-113336776D01*
X174869583Y-113186978D01*
X174996978Y-113059583D01*
X175146776Y-112959491D01*
X175313222Y-112890547D01*
X175489918Y-112855400D01*
X175670082Y-112855400D01*
X175846778Y-112890547D01*
G37*
G36*
X173306778Y-112890547D02*
G01*
X173473224Y-112959491D01*
X173623022Y-113059583D01*
X173750417Y-113186978D01*
X173850509Y-113336776D01*
X173919453Y-113503222D01*
X173954600Y-113679918D01*
X173954600Y-113860082D01*
X173919453Y-114036778D01*
X173850509Y-114203224D01*
X173750417Y-114353022D01*
X173623022Y-114480417D01*
X173473224Y-114580509D01*
X173306778Y-114649453D01*
X173130082Y-114684600D01*
X172949918Y-114684600D01*
X172773222Y-114649453D01*
X172606776Y-114580509D01*
X172456978Y-114480417D01*
X172329583Y-114353022D01*
X172229491Y-114203224D01*
X172160547Y-114036778D01*
X172125400Y-113860082D01*
X172125400Y-113679918D01*
X172160547Y-113503222D01*
X172229491Y-113336776D01*
X172329583Y-113186978D01*
X172456978Y-113059583D01*
X172606776Y-112959491D01*
X172773222Y-112890547D01*
X172949918Y-112855400D01*
X173130082Y-112855400D01*
X173306778Y-112890547D01*
G37*
G36*
X190375256Y-110891298D02*
G01*
X190481579Y-110912447D01*
X190694037Y-111000450D01*
X190731221Y-111015852D01*
X190782042Y-111036903D01*
X191052451Y-111217585D01*
X191282415Y-111447549D01*
X191463097Y-111717958D01*
X191587553Y-112018421D01*
X191651000Y-112337391D01*
X191651000Y-112662609D01*
X191587553Y-112981579D01*
X191463097Y-113282042D01*
X191282415Y-113552451D01*
X191052451Y-113782415D01*
X190782042Y-113963097D01*
X190481579Y-114087553D01*
X190375256Y-114108702D01*
X190162611Y-114151000D01*
X189837389Y-114151000D01*
X189624744Y-114108702D01*
X189518421Y-114087553D01*
X189217958Y-113963097D01*
X188947549Y-113782415D01*
X188717585Y-113552451D01*
X188536903Y-113282042D01*
X188412447Y-112981579D01*
X188349000Y-112662609D01*
X188349000Y-112337391D01*
X188412447Y-112018421D01*
X188536903Y-111717958D01*
X188717585Y-111447549D01*
X188947549Y-111217585D01*
X189217958Y-111036903D01*
X189268780Y-111015852D01*
X189305963Y-111000450D01*
X189518421Y-110912447D01*
X189624744Y-110891298D01*
X189837389Y-110849000D01*
X190162611Y-110849000D01*
X190375256Y-110891298D01*
G37*
G36*
X114777395Y-111590546D02*
G01*
X114950466Y-111662234D01*
X114986311Y-111686185D01*
X115106227Y-111766310D01*
X115238690Y-111898773D01*
X115238691Y-111898775D01*
X115342766Y-112054534D01*
X115414454Y-112227605D01*
X115451000Y-112411333D01*
X115451000Y-112598667D01*
X115414454Y-112782395D01*
X115342766Y-112955466D01*
X115340076Y-112959492D01*
X115238690Y-113111227D01*
X115106227Y-113243690D01*
X115048832Y-113282040D01*
X114950466Y-113347766D01*
X114777395Y-113419454D01*
X114593667Y-113456000D01*
X114406333Y-113456000D01*
X114222605Y-113419454D01*
X114049534Y-113347766D01*
X113951168Y-113282040D01*
X113893773Y-113243690D01*
X113761310Y-113111227D01*
X113659924Y-112959492D01*
X113657234Y-112955466D01*
X113585546Y-112782395D01*
X113549000Y-112598667D01*
X113549000Y-112411333D01*
X113585546Y-112227605D01*
X113657234Y-112054534D01*
X113761309Y-111898775D01*
X113761310Y-111898773D01*
X113893773Y-111766310D01*
X114013689Y-111686185D01*
X114049534Y-111662234D01*
X114222605Y-111590546D01*
X114406333Y-111554000D01*
X114593667Y-111554000D01*
X114777395Y-111590546D01*
G37*
G36*
X148708228Y-110951703D02*
G01*
X148863100Y-111015853D01*
X149002481Y-111108985D01*
X149121015Y-111227519D01*
X149214147Y-111366900D01*
X149278297Y-111521772D01*
X149311000Y-111686184D01*
X149311000Y-111853816D01*
X149278297Y-112018228D01*
X149214147Y-112173100D01*
X149121015Y-112312481D01*
X149002481Y-112431015D01*
X148863100Y-112524147D01*
X148708228Y-112588297D01*
X148543816Y-112621000D01*
X148376184Y-112621000D01*
X148211772Y-112588297D01*
X148056900Y-112524147D01*
X147917519Y-112431015D01*
X147798985Y-112312481D01*
X147705853Y-112173100D01*
X147641703Y-112018228D01*
X147609000Y-111853816D01*
X147609000Y-111686184D01*
X147641703Y-111521772D01*
X147705853Y-111366900D01*
X147798985Y-111227519D01*
X147917519Y-111108985D01*
X148056900Y-111015853D01*
X148211772Y-110951703D01*
X148376184Y-110919000D01*
X148543816Y-110919000D01*
X148708228Y-110951703D01*
G37*
G36*
X151248228Y-110951703D02*
G01*
X151403100Y-111015853D01*
X151542481Y-111108985D01*
X151661015Y-111227519D01*
X151754147Y-111366900D01*
X151818297Y-111521772D01*
X151851000Y-111686184D01*
X151851000Y-111853816D01*
X151818297Y-112018228D01*
X151754147Y-112173100D01*
X151661015Y-112312481D01*
X151542481Y-112431015D01*
X151403100Y-112524147D01*
X151248228Y-112588297D01*
X151083816Y-112621000D01*
X150916184Y-112621000D01*
X150751772Y-112588297D01*
X150596900Y-112524147D01*
X150457519Y-112431015D01*
X150338985Y-112312481D01*
X150245853Y-112173100D01*
X150181703Y-112018228D01*
X150149000Y-111853816D01*
X150149000Y-111686184D01*
X150181703Y-111521772D01*
X150245853Y-111366900D01*
X150338985Y-111227519D01*
X150457519Y-111108985D01*
X150596900Y-111015853D01*
X150751772Y-110951703D01*
X150916184Y-110919000D01*
X151083816Y-110919000D01*
X151248228Y-110951703D01*
G37*
G36*
X146168228Y-110951703D02*
G01*
X146323100Y-111015853D01*
X146462481Y-111108985D01*
X146581015Y-111227519D01*
X146674147Y-111366900D01*
X146738297Y-111521772D01*
X146771000Y-111686184D01*
X146771000Y-111853816D01*
X146738297Y-112018228D01*
X146674147Y-112173100D01*
X146581015Y-112312481D01*
X146462481Y-112431015D01*
X146323100Y-112524147D01*
X146168228Y-112588297D01*
X146003816Y-112621000D01*
X145836184Y-112621000D01*
X145671772Y-112588297D01*
X145516900Y-112524147D01*
X145377519Y-112431015D01*
X145258985Y-112312481D01*
X145165853Y-112173100D01*
X145101703Y-112018228D01*
X145069000Y-111853816D01*
X145069000Y-111686184D01*
X145101703Y-111521772D01*
X145165853Y-111366900D01*
X145258985Y-111227519D01*
X145377519Y-111108985D01*
X145516900Y-111015853D01*
X145671772Y-110951703D01*
X145836184Y-110919000D01*
X146003816Y-110919000D01*
X146168228Y-110951703D01*
G37*
G36*
X143628228Y-110951703D02*
G01*
X143783100Y-111015853D01*
X143922481Y-111108985D01*
X144041015Y-111227519D01*
X144134147Y-111366900D01*
X144198297Y-111521772D01*
X144231000Y-111686184D01*
X144231000Y-111853816D01*
X144198297Y-112018228D01*
X144134147Y-112173100D01*
X144041015Y-112312481D01*
X143922481Y-112431015D01*
X143783100Y-112524147D01*
X143628228Y-112588297D01*
X143463816Y-112621000D01*
X143296184Y-112621000D01*
X143131772Y-112588297D01*
X142976900Y-112524147D01*
X142837519Y-112431015D01*
X142718985Y-112312481D01*
X142625853Y-112173100D01*
X142561703Y-112018228D01*
X142529000Y-111853816D01*
X142529000Y-111686184D01*
X142561703Y-111521772D01*
X142625853Y-111366900D01*
X142718985Y-111227519D01*
X142837519Y-111108985D01*
X142976900Y-111015853D01*
X143131772Y-110951703D01*
X143296184Y-110919000D01*
X143463816Y-110919000D01*
X143628228Y-110951703D01*
G37*
G36*
X159851000Y-112611000D02*
G01*
X158149000Y-112611000D01*
X158149000Y-110909000D01*
X159851000Y-110909000D01*
X159851000Y-112611000D01*
G37*
G36*
X135248228Y-110941703D02*
G01*
X135403100Y-111005853D01*
X135542481Y-111098985D01*
X135661015Y-111217519D01*
X135754147Y-111356900D01*
X135818297Y-111511772D01*
X135851000Y-111676184D01*
X135851000Y-111843816D01*
X135818297Y-112008228D01*
X135754147Y-112163100D01*
X135661015Y-112302481D01*
X135542481Y-112421015D01*
X135403100Y-112514147D01*
X135248228Y-112578297D01*
X135083816Y-112611000D01*
X134916184Y-112611000D01*
X134751772Y-112578297D01*
X134596900Y-112514147D01*
X134457519Y-112421015D01*
X134338985Y-112302481D01*
X134245853Y-112163100D01*
X134181703Y-112008228D01*
X134149000Y-111843816D01*
X134149000Y-111676184D01*
X134181703Y-111511772D01*
X134245853Y-111356900D01*
X134338985Y-111217519D01*
X134457519Y-111098985D01*
X134596900Y-111005853D01*
X134751772Y-110941703D01*
X134916184Y-110909000D01*
X135083816Y-110909000D01*
X135248228Y-110941703D01*
G37*
G36*
X131248228Y-110941703D02*
G01*
X131403100Y-111005853D01*
X131542481Y-111098985D01*
X131661015Y-111217519D01*
X131754147Y-111356900D01*
X131818297Y-111511772D01*
X131851000Y-111676184D01*
X131851000Y-111843816D01*
X131818297Y-112008228D01*
X131754147Y-112163100D01*
X131661015Y-112302481D01*
X131542481Y-112421015D01*
X131403100Y-112514147D01*
X131248228Y-112578297D01*
X131083816Y-112611000D01*
X130916184Y-112611000D01*
X130751772Y-112578297D01*
X130596900Y-112514147D01*
X130457519Y-112421015D01*
X130338985Y-112302481D01*
X130245853Y-112163100D01*
X130181703Y-112008228D01*
X130149000Y-111843816D01*
X130149000Y-111676184D01*
X130181703Y-111511772D01*
X130245853Y-111356900D01*
X130338985Y-111217519D01*
X130457519Y-111098985D01*
X130596900Y-111005853D01*
X130751772Y-110941703D01*
X130916184Y-110909000D01*
X131083816Y-110909000D01*
X131248228Y-110941703D01*
G37*
G36*
X163351000Y-112611000D02*
G01*
X161649000Y-112611000D01*
X161649000Y-110909000D01*
X163351000Y-110909000D01*
X163351000Y-112611000D01*
G37*
G36*
X178386778Y-110350547D02*
G01*
X178553224Y-110419491D01*
X178703022Y-110519583D01*
X178830417Y-110646978D01*
X178930509Y-110796776D01*
X178999453Y-110963222D01*
X179034600Y-111139918D01*
X179034600Y-111320082D01*
X178999453Y-111496778D01*
X178930509Y-111663224D01*
X178830417Y-111813022D01*
X178703022Y-111940417D01*
X178553224Y-112040509D01*
X178386778Y-112109453D01*
X178210082Y-112144600D01*
X178029918Y-112144600D01*
X177853222Y-112109453D01*
X177686776Y-112040509D01*
X177536978Y-111940417D01*
X177409583Y-111813022D01*
X177309491Y-111663224D01*
X177240547Y-111496778D01*
X177205400Y-111320082D01*
X177205400Y-111139918D01*
X177240547Y-110963222D01*
X177309491Y-110796776D01*
X177409583Y-110646978D01*
X177536978Y-110519583D01*
X177686776Y-110419491D01*
X177853222Y-110350547D01*
X178029918Y-110315400D01*
X178210082Y-110315400D01*
X178386778Y-110350547D01*
G37*
G36*
X173306778Y-110350547D02*
G01*
X173473224Y-110419491D01*
X173623022Y-110519583D01*
X173750417Y-110646978D01*
X173850509Y-110796776D01*
X173919453Y-110963222D01*
X173954600Y-111139918D01*
X173954600Y-111320082D01*
X173919453Y-111496778D01*
X173850509Y-111663224D01*
X173750417Y-111813022D01*
X173623022Y-111940417D01*
X173473224Y-112040509D01*
X173306778Y-112109453D01*
X173130082Y-112144600D01*
X172949918Y-112144600D01*
X172773222Y-112109453D01*
X172606776Y-112040509D01*
X172456978Y-111940417D01*
X172329583Y-111813022D01*
X172229491Y-111663224D01*
X172160547Y-111496778D01*
X172125400Y-111320082D01*
X172125400Y-111139918D01*
X172160547Y-110963222D01*
X172229491Y-110796776D01*
X172329583Y-110646978D01*
X172456978Y-110519583D01*
X172606776Y-110419491D01*
X172773222Y-110350547D01*
X172949918Y-110315400D01*
X173130082Y-110315400D01*
X173306778Y-110350547D01*
G37*
G36*
X170766778Y-110350547D02*
G01*
X170933224Y-110419491D01*
X171083022Y-110519583D01*
X171210417Y-110646978D01*
X171310509Y-110796776D01*
X171379453Y-110963222D01*
X171414600Y-111139918D01*
X171414600Y-111320082D01*
X171379453Y-111496778D01*
X171310509Y-111663224D01*
X171210417Y-111813022D01*
X171083022Y-111940417D01*
X170933224Y-112040509D01*
X170766778Y-112109453D01*
X170590082Y-112144600D01*
X170409918Y-112144600D01*
X170233222Y-112109453D01*
X170066776Y-112040509D01*
X169916978Y-111940417D01*
X169789583Y-111813022D01*
X169689491Y-111663224D01*
X169620547Y-111496778D01*
X169585400Y-111320082D01*
X169585400Y-111139918D01*
X169620547Y-110963222D01*
X169689491Y-110796776D01*
X169789583Y-110646978D01*
X169916978Y-110519583D01*
X170066776Y-110419491D01*
X170233222Y-110350547D01*
X170409918Y-110315400D01*
X170590082Y-110315400D01*
X170766778Y-110350547D01*
G37*
G36*
X175846778Y-110350547D02*
G01*
X176013224Y-110419491D01*
X176163022Y-110519583D01*
X176290417Y-110646978D01*
X176390509Y-110796776D01*
X176459453Y-110963222D01*
X176494600Y-111139918D01*
X176494600Y-111320082D01*
X176459453Y-111496778D01*
X176390509Y-111663224D01*
X176290417Y-111813022D01*
X176163022Y-111940417D01*
X176013224Y-112040509D01*
X175846778Y-112109453D01*
X175670082Y-112144600D01*
X175489918Y-112144600D01*
X175313222Y-112109453D01*
X175146776Y-112040509D01*
X174996978Y-111940417D01*
X174869583Y-111813022D01*
X174769491Y-111663224D01*
X174700547Y-111496778D01*
X174665400Y-111320082D01*
X174665400Y-111139918D01*
X174700547Y-110963222D01*
X174769491Y-110796776D01*
X174869583Y-110646978D01*
X174996978Y-110519583D01*
X175146776Y-110419491D01*
X175313222Y-110350547D01*
X175489918Y-110315400D01*
X175670082Y-110315400D01*
X175846778Y-110350547D01*
G37*
G36*
X180926778Y-110350547D02*
G01*
X181093224Y-110419491D01*
X181243022Y-110519583D01*
X181370417Y-110646978D01*
X181470509Y-110796776D01*
X181539453Y-110963222D01*
X181574600Y-111139918D01*
X181574600Y-111320082D01*
X181539453Y-111496778D01*
X181470509Y-111663224D01*
X181370417Y-111813022D01*
X181243022Y-111940417D01*
X181093224Y-112040509D01*
X180926778Y-112109453D01*
X180750082Y-112144600D01*
X180569918Y-112144600D01*
X180393222Y-112109453D01*
X180226776Y-112040509D01*
X180076978Y-111940417D01*
X179949583Y-111813022D01*
X179849491Y-111663224D01*
X179780547Y-111496778D01*
X179745400Y-111320082D01*
X179745400Y-111139918D01*
X179780547Y-110963222D01*
X179849491Y-110796776D01*
X179949583Y-110646978D01*
X180076978Y-110519583D01*
X180226776Y-110419491D01*
X180393222Y-110350547D01*
X180569918Y-110315400D01*
X180750082Y-110315400D01*
X180926778Y-110350547D01*
G37*
G36*
X114777395Y-109090546D02*
G01*
X114950466Y-109162234D01*
X114950467Y-109162235D01*
X115106227Y-109266310D01*
X115238690Y-109398773D01*
X115271735Y-109448229D01*
X115342766Y-109554534D01*
X115414454Y-109727605D01*
X115451000Y-109911333D01*
X115451000Y-110098667D01*
X115414454Y-110282395D01*
X115342766Y-110455466D01*
X115342765Y-110455467D01*
X115238690Y-110611227D01*
X115106227Y-110743690D01*
X115027818Y-110796081D01*
X114950466Y-110847766D01*
X114777395Y-110919454D01*
X114593667Y-110956000D01*
X114406333Y-110956000D01*
X114222605Y-110919454D01*
X114049534Y-110847766D01*
X113972182Y-110796081D01*
X113893773Y-110743690D01*
X113761310Y-110611227D01*
X113657235Y-110455467D01*
X113657234Y-110455466D01*
X113585546Y-110282395D01*
X113549000Y-110098667D01*
X113549000Y-109911333D01*
X113585546Y-109727605D01*
X113657234Y-109554534D01*
X113728265Y-109448229D01*
X113761310Y-109398773D01*
X113893773Y-109266310D01*
X114049533Y-109162235D01*
X114049534Y-109162234D01*
X114222605Y-109090546D01*
X114406333Y-109054000D01*
X114593667Y-109054000D01*
X114777395Y-109090546D01*
G37*
G36*
X155248228Y-108381703D02*
G01*
X155403100Y-108445853D01*
X155542481Y-108538985D01*
X155661015Y-108657519D01*
X155754147Y-108796900D01*
X155818297Y-108951772D01*
X155851000Y-109116184D01*
X155851000Y-109283816D01*
X155818297Y-109448228D01*
X155754147Y-109603100D01*
X155661015Y-109742481D01*
X155542481Y-109861015D01*
X155403100Y-109954147D01*
X155248228Y-110018297D01*
X155083816Y-110051000D01*
X154916184Y-110051000D01*
X154751772Y-110018297D01*
X154596900Y-109954147D01*
X154457519Y-109861015D01*
X154338985Y-109742481D01*
X154245853Y-109603100D01*
X154181703Y-109448228D01*
X154149000Y-109283816D01*
X154149000Y-109116184D01*
X154181703Y-108951772D01*
X154245853Y-108796900D01*
X154338985Y-108657519D01*
X154457519Y-108538985D01*
X154596900Y-108445853D01*
X154751772Y-108381703D01*
X154916184Y-108349000D01*
X155083816Y-108349000D01*
X155248228Y-108381703D01*
G37*
G36*
X139248228Y-108381703D02*
G01*
X139403100Y-108445853D01*
X139542481Y-108538985D01*
X139661015Y-108657519D01*
X139754147Y-108796900D01*
X139818297Y-108951772D01*
X139851000Y-109116184D01*
X139851000Y-109283816D01*
X139818297Y-109448228D01*
X139754147Y-109603100D01*
X139661015Y-109742481D01*
X139542481Y-109861015D01*
X139403100Y-109954147D01*
X139248228Y-110018297D01*
X139083816Y-110051000D01*
X138916184Y-110051000D01*
X138751772Y-110018297D01*
X138596900Y-109954147D01*
X138457519Y-109861015D01*
X138338985Y-109742481D01*
X138245853Y-109603100D01*
X138181703Y-109448228D01*
X138149000Y-109283816D01*
X138149000Y-109116184D01*
X138181703Y-108951772D01*
X138245853Y-108796900D01*
X138338985Y-108657519D01*
X138457519Y-108538985D01*
X138596900Y-108445853D01*
X138751772Y-108381703D01*
X138916184Y-108349000D01*
X139083816Y-108349000D01*
X139248228Y-108381703D01*
G37*
G36*
X107748228Y-107876703D02*
G01*
X107903100Y-107940853D01*
X108042481Y-108033985D01*
X108161015Y-108152519D01*
X108254147Y-108291900D01*
X108318297Y-108446772D01*
X108351000Y-108611184D01*
X108351000Y-108778816D01*
X108318297Y-108943228D01*
X108254147Y-109098100D01*
X108161015Y-109237481D01*
X108042481Y-109356015D01*
X107903100Y-109449147D01*
X107748228Y-109513297D01*
X107583816Y-109546000D01*
X107416184Y-109546000D01*
X107251772Y-109513297D01*
X107096900Y-109449147D01*
X106957519Y-109356015D01*
X106838985Y-109237481D01*
X106745853Y-109098100D01*
X106681703Y-108943228D01*
X106649000Y-108778816D01*
X106649000Y-108611184D01*
X106681703Y-108446772D01*
X106745853Y-108291900D01*
X106838985Y-108152519D01*
X106957519Y-108033985D01*
X107096900Y-107940853D01*
X107251772Y-107876703D01*
X107416184Y-107844000D01*
X107583816Y-107844000D01*
X107748228Y-107876703D01*
G37*
G36*
X122487412Y-106098215D02*
G01*
X122791514Y-106224178D01*
X123065199Y-106407049D01*
X123297951Y-106639801D01*
X123480822Y-106913486D01*
X123606785Y-107217588D01*
X123671000Y-107540420D01*
X123671000Y-107869580D01*
X123606785Y-108192412D01*
X123480822Y-108496514D01*
X123297951Y-108770199D01*
X123065199Y-109002951D01*
X122791514Y-109185822D01*
X122487412Y-109311785D01*
X122164580Y-109376000D01*
X121835420Y-109376000D01*
X121512588Y-109311785D01*
X121208486Y-109185822D01*
X120934801Y-109002951D01*
X120702049Y-108770199D01*
X120519178Y-108496514D01*
X120393215Y-108192412D01*
X120329000Y-107869580D01*
X120329000Y-107540420D01*
X120393215Y-107217588D01*
X120519178Y-106913486D01*
X120702049Y-106639801D01*
X120934801Y-106407049D01*
X121208486Y-106224178D01*
X121512588Y-106098215D01*
X121835420Y-106034000D01*
X122164580Y-106034000D01*
X122487412Y-106098215D01*
G37*
G36*
X139248228Y-105881703D02*
G01*
X139403100Y-105945853D01*
X139542481Y-106038985D01*
X139661015Y-106157519D01*
X139754147Y-106296900D01*
X139818297Y-106451772D01*
X139851000Y-106616184D01*
X139851000Y-106783816D01*
X139818297Y-106948228D01*
X139754147Y-107103100D01*
X139661015Y-107242481D01*
X139542481Y-107361015D01*
X139403100Y-107454147D01*
X139248228Y-107518297D01*
X139083816Y-107551000D01*
X138916184Y-107551000D01*
X138751772Y-107518297D01*
X138596900Y-107454147D01*
X138457519Y-107361015D01*
X138338985Y-107242481D01*
X138245853Y-107103100D01*
X138181703Y-106948228D01*
X138149000Y-106783816D01*
X138149000Y-106616184D01*
X138181703Y-106451772D01*
X138245853Y-106296900D01*
X138338985Y-106157519D01*
X138457519Y-106038985D01*
X138596900Y-105945853D01*
X138751772Y-105881703D01*
X138916184Y-105849000D01*
X139083816Y-105849000D01*
X139248228Y-105881703D01*
G37*
G36*
X155248228Y-105881703D02*
G01*
X155403100Y-105945853D01*
X155542481Y-106038985D01*
X155661015Y-106157519D01*
X155754147Y-106296900D01*
X155818297Y-106451772D01*
X155851000Y-106616184D01*
X155851000Y-106783816D01*
X155818297Y-106948228D01*
X155754147Y-107103100D01*
X155661015Y-107242481D01*
X155542481Y-107361015D01*
X155403100Y-107454147D01*
X155248228Y-107518297D01*
X155083816Y-107551000D01*
X154916184Y-107551000D01*
X154751772Y-107518297D01*
X154596900Y-107454147D01*
X154457519Y-107361015D01*
X154338985Y-107242481D01*
X154245853Y-107103100D01*
X154181703Y-106948228D01*
X154149000Y-106783816D01*
X154149000Y-106616184D01*
X154181703Y-106451772D01*
X154245853Y-106296900D01*
X154338985Y-106157519D01*
X154457519Y-106038985D01*
X154596900Y-105945853D01*
X154751772Y-105881703D01*
X154916184Y-105849000D01*
X155083816Y-105849000D01*
X155248228Y-105881703D01*
G37*
G36*
X185651000Y-105421000D02*
G01*
X183349000Y-105421000D01*
X183349000Y-103119000D01*
X185651000Y-103119000D01*
X185651000Y-105421000D01*
G37*
G36*
X174564549Y-103141116D02*
G01*
X174675734Y-103163232D01*
X174885203Y-103249997D01*
X175073720Y-103375960D01*
X175234040Y-103536280D01*
X175360003Y-103724797D01*
X175360004Y-103724799D01*
X175369158Y-103746900D01*
X175433309Y-103901772D01*
X175446768Y-103934267D01*
X175491000Y-104156635D01*
X175491000Y-104383365D01*
X175488043Y-104398229D01*
X175446768Y-104605734D01*
X175410836Y-104692481D01*
X175361131Y-104812481D01*
X175360003Y-104815203D01*
X175234040Y-105003720D01*
X175073720Y-105164040D01*
X174885203Y-105290003D01*
X174675734Y-105376768D01*
X174564549Y-105398884D01*
X174453365Y-105421000D01*
X174226635Y-105421000D01*
X174115451Y-105398884D01*
X174004266Y-105376768D01*
X173794797Y-105290003D01*
X173606280Y-105164040D01*
X173445960Y-105003720D01*
X173319997Y-104815203D01*
X173318870Y-104812481D01*
X173269164Y-104692481D01*
X173233232Y-104605734D01*
X173191957Y-104398229D01*
X173189000Y-104383365D01*
X173189000Y-104156635D01*
X173233232Y-103934267D01*
X173246692Y-103901772D01*
X173310842Y-103746900D01*
X173319996Y-103724799D01*
X173319997Y-103724797D01*
X173445960Y-103536280D01*
X173606280Y-103375960D01*
X173794797Y-103249997D01*
X174004266Y-103163232D01*
X174115451Y-103141116D01*
X174226635Y-103119000D01*
X174453365Y-103119000D01*
X174564549Y-103141116D01*
G37*
G36*
X169248228Y-103451703D02*
G01*
X169403100Y-103515853D01*
X169542481Y-103608985D01*
X169661015Y-103727519D01*
X169754147Y-103866900D01*
X169818297Y-104021772D01*
X169851000Y-104186184D01*
X169851000Y-104353816D01*
X169818297Y-104518228D01*
X169754147Y-104673100D01*
X169661015Y-104812481D01*
X169542481Y-104931015D01*
X169403100Y-105024147D01*
X169248228Y-105088297D01*
X169083816Y-105121000D01*
X168916184Y-105121000D01*
X168751772Y-105088297D01*
X168596900Y-105024147D01*
X168457519Y-104931015D01*
X168338985Y-104812481D01*
X168245853Y-104673100D01*
X168181703Y-104518228D01*
X168149000Y-104353816D01*
X168149000Y-104186184D01*
X168181703Y-104021772D01*
X168245853Y-103866900D01*
X168338985Y-103727519D01*
X168457519Y-103608985D01*
X168596900Y-103515853D01*
X168751772Y-103451703D01*
X168916184Y-103419000D01*
X169083816Y-103419000D01*
X169248228Y-103451703D01*
G37*
G36*
X167851000Y-105121000D02*
G01*
X166149000Y-105121000D01*
X166149000Y-103419000D01*
X167851000Y-103419000D01*
X167851000Y-105121000D01*
G37*
G36*
X146168228Y-103331703D02*
G01*
X146323100Y-103395853D01*
X146462481Y-103488985D01*
X146581015Y-103607519D01*
X146674147Y-103746900D01*
X146738297Y-103901772D01*
X146771000Y-104066184D01*
X146771000Y-104233816D01*
X146738297Y-104398228D01*
X146674147Y-104553100D01*
X146581015Y-104692481D01*
X146462481Y-104811015D01*
X146323100Y-104904147D01*
X146168228Y-104968297D01*
X146003816Y-105001000D01*
X145836184Y-105001000D01*
X145671772Y-104968297D01*
X145516900Y-104904147D01*
X145377519Y-104811015D01*
X145258985Y-104692481D01*
X145165853Y-104553100D01*
X145101703Y-104398228D01*
X145069000Y-104233816D01*
X145069000Y-104066184D01*
X145101703Y-103901772D01*
X145165853Y-103746900D01*
X145258985Y-103607519D01*
X145377519Y-103488985D01*
X145516900Y-103395853D01*
X145671772Y-103331703D01*
X145836184Y-103299000D01*
X146003816Y-103299000D01*
X146168228Y-103331703D01*
G37*
G36*
X148708228Y-103331703D02*
G01*
X148863100Y-103395853D01*
X149002481Y-103488985D01*
X149121015Y-103607519D01*
X149214147Y-103746900D01*
X149278297Y-103901772D01*
X149311000Y-104066184D01*
X149311000Y-104233816D01*
X149278297Y-104398228D01*
X149214147Y-104553100D01*
X149121015Y-104692481D01*
X149002481Y-104811015D01*
X148863100Y-104904147D01*
X148708228Y-104968297D01*
X148543816Y-105001000D01*
X148376184Y-105001000D01*
X148211772Y-104968297D01*
X148056900Y-104904147D01*
X147917519Y-104811015D01*
X147798985Y-104692481D01*
X147705853Y-104553100D01*
X147641703Y-104398228D01*
X147609000Y-104233816D01*
X147609000Y-104066184D01*
X147641703Y-103901772D01*
X147705853Y-103746900D01*
X147798985Y-103607519D01*
X147917519Y-103488985D01*
X148056900Y-103395853D01*
X148211772Y-103331703D01*
X148376184Y-103299000D01*
X148543816Y-103299000D01*
X148708228Y-103331703D01*
G37*
G36*
X143628228Y-103331703D02*
G01*
X143783100Y-103395853D01*
X143922481Y-103488985D01*
X144041015Y-103607519D01*
X144134147Y-103746900D01*
X144198297Y-103901772D01*
X144231000Y-104066184D01*
X144231000Y-104233816D01*
X144198297Y-104398228D01*
X144134147Y-104553100D01*
X144041015Y-104692481D01*
X143922481Y-104811015D01*
X143783100Y-104904147D01*
X143628228Y-104968297D01*
X143463816Y-105001000D01*
X143296184Y-105001000D01*
X143131772Y-104968297D01*
X142976900Y-104904147D01*
X142837519Y-104811015D01*
X142718985Y-104692481D01*
X142625853Y-104553100D01*
X142561703Y-104398228D01*
X142529000Y-104233816D01*
X142529000Y-104066184D01*
X142561703Y-103901772D01*
X142625853Y-103746900D01*
X142718985Y-103607519D01*
X142837519Y-103488985D01*
X142976900Y-103395853D01*
X143131772Y-103331703D01*
X143296184Y-103299000D01*
X143463816Y-103299000D01*
X143628228Y-103331703D01*
G37*
G36*
X151851000Y-105001000D02*
G01*
X150149000Y-105001000D01*
X150149000Y-103299000D01*
X151851000Y-103299000D01*
X151851000Y-105001000D01*
G37*
G36*
X162748228Y-103321703D02*
G01*
X162903100Y-103385853D01*
X163042481Y-103478985D01*
X163161015Y-103597519D01*
X163254147Y-103736900D01*
X163318297Y-103891772D01*
X163351000Y-104056184D01*
X163351000Y-104223816D01*
X163318297Y-104388228D01*
X163254147Y-104543100D01*
X163161015Y-104682481D01*
X163042481Y-104801015D01*
X162903100Y-104894147D01*
X162748228Y-104958297D01*
X162583816Y-104991000D01*
X162416184Y-104991000D01*
X162251772Y-104958297D01*
X162096900Y-104894147D01*
X161957519Y-104801015D01*
X161838985Y-104682481D01*
X161745853Y-104543100D01*
X161681703Y-104388228D01*
X161649000Y-104223816D01*
X161649000Y-104056184D01*
X161681703Y-103891772D01*
X161745853Y-103736900D01*
X161838985Y-103597519D01*
X161957519Y-103478985D01*
X162096900Y-103385853D01*
X162251772Y-103321703D01*
X162416184Y-103289000D01*
X162583816Y-103289000D01*
X162748228Y-103321703D01*
G37*
G36*
X131248228Y-103321703D02*
G01*
X131403100Y-103385853D01*
X131542481Y-103478985D01*
X131661015Y-103597519D01*
X131754147Y-103736900D01*
X131818297Y-103891772D01*
X131851000Y-104056184D01*
X131851000Y-104223816D01*
X131818297Y-104388228D01*
X131754147Y-104543100D01*
X131661015Y-104682481D01*
X131542481Y-104801015D01*
X131403100Y-104894147D01*
X131248228Y-104958297D01*
X131083816Y-104991000D01*
X130916184Y-104991000D01*
X130751772Y-104958297D01*
X130596900Y-104894147D01*
X130457519Y-104801015D01*
X130338985Y-104682481D01*
X130245853Y-104543100D01*
X130181703Y-104388228D01*
X130149000Y-104223816D01*
X130149000Y-104056184D01*
X130181703Y-103891772D01*
X130245853Y-103736900D01*
X130338985Y-103597519D01*
X130457519Y-103478985D01*
X130596900Y-103385853D01*
X130751772Y-103321703D01*
X130916184Y-103289000D01*
X131083816Y-103289000D01*
X131248228Y-103321703D01*
G37*
G36*
X159248228Y-103321703D02*
G01*
X159403100Y-103385853D01*
X159542481Y-103478985D01*
X159661015Y-103597519D01*
X159754147Y-103736900D01*
X159818297Y-103891772D01*
X159851000Y-104056184D01*
X159851000Y-104223816D01*
X159818297Y-104388228D01*
X159754147Y-104543100D01*
X159661015Y-104682481D01*
X159542481Y-104801015D01*
X159403100Y-104894147D01*
X159248228Y-104958297D01*
X159083816Y-104991000D01*
X158916184Y-104991000D01*
X158751772Y-104958297D01*
X158596900Y-104894147D01*
X158457519Y-104801015D01*
X158338985Y-104682481D01*
X158245853Y-104543100D01*
X158181703Y-104388228D01*
X158149000Y-104223816D01*
X158149000Y-104056184D01*
X158181703Y-103891772D01*
X158245853Y-103736900D01*
X158338985Y-103597519D01*
X158457519Y-103478985D01*
X158596900Y-103385853D01*
X158751772Y-103321703D01*
X158916184Y-103289000D01*
X159083816Y-103289000D01*
X159248228Y-103321703D01*
G37*
G36*
X135248228Y-103321703D02*
G01*
X135403100Y-103385853D01*
X135542481Y-103478985D01*
X135661015Y-103597519D01*
X135754147Y-103736900D01*
X135818297Y-103891772D01*
X135851000Y-104056184D01*
X135851000Y-104223816D01*
X135818297Y-104388228D01*
X135754147Y-104543100D01*
X135661015Y-104682481D01*
X135542481Y-104801015D01*
X135403100Y-104894147D01*
X135248228Y-104958297D01*
X135083816Y-104991000D01*
X134916184Y-104991000D01*
X134751772Y-104958297D01*
X134596900Y-104894147D01*
X134457519Y-104801015D01*
X134338985Y-104682481D01*
X134245853Y-104543100D01*
X134181703Y-104388228D01*
X134149000Y-104223816D01*
X134149000Y-104056184D01*
X134181703Y-103891772D01*
X134245853Y-103736900D01*
X134338985Y-103597519D01*
X134457519Y-103478985D01*
X134596900Y-103385853D01*
X134751772Y-103321703D01*
X134916184Y-103289000D01*
X135083816Y-103289000D01*
X135248228Y-103321703D01*
G37*
M02*
