M48
; DRILL file {KiCad 5.1.5-52549c5~84~ubuntu18.04.1} date Mon 23 Mar 2020 11:13:36 AM EDT
; FORMAT={-:-/ absolute / inch / decimal}
; #@! TF.CreationDate,2020-03-23T11:13:36-04:00
; #@! TF.GenerationSoftware,Kicad,Pcbnew,5.1.5-52549c5~84~ubuntu18.04.1
; #@! TF.FileFunction,Plated,1,2,PTH
FMAT,2
INCH
T1C0.0315
T2C0.0394
T3C0.0394
T4C0.0400
T5C0.0433
T6C0.0709
%
G90
G05
T1
X5.315Y-4.1
X5.315Y-4.4
X5.6449Y-4.1004
X5.6449Y-4.4004
X5.7449Y-4.1004
X5.7449Y-4.4004
X5.8449Y-4.1004
X5.8449Y-4.4004
X5.9449Y-4.1004
X5.9449Y-4.4004
X5.822Y-4.6319
X6.122Y-4.6319
X5.389Y-4.6319
X5.689Y-4.6319
X5.1575Y-4.1
X5.1575Y-4.4
X6.1024Y-4.2008
X6.1024Y-4.2992
X5.389Y-4.7894
X5.689Y-4.7894
X6.2598Y-4.1
X6.2598Y-4.4
X6.5748Y-4.7606
X6.6535Y-4.7606
X4.2323Y-4.2793
X4.2323Y-4.5793
X6.5748Y-4.1051
X6.6535Y-4.1051
X6.3976Y-4.1
X6.3976Y-4.4
X5.4724Y-4.2008
X5.4724Y-4.2992
T2
X4.5079Y-4.3309
X4.5079Y-4.4293
X4.5079Y-4.5278
T3
X6.3386Y-4.6319
X6.3386Y-4.7819
X5.972Y-4.7835
X6.122Y-4.7835
T4
X6.7126Y-4.3791
X6.7126Y-4.4791
X6.8126Y-4.3791
X6.8126Y-4.4791
X6.9126Y-4.3791
X6.9126Y-4.4791
X7.0126Y-4.3791
X7.0126Y-4.4791
X7.1126Y-4.3791
X7.1126Y-4.4791
T5
X6.872Y-4.7606
X7.272Y-4.7606
X6.8638Y-4.1051
X7.2638Y-4.1051
T6
X4.8031Y-4.2404
X4.8031Y-4.6183
T0
M30
