G04 #@! TF.GenerationSoftware,KiCad,Pcbnew,5.1.5-52549c5~84~ubuntu18.04.1*
G04 #@! TF.CreationDate,2020-03-31T17:05:22-04:00*
G04 #@! TF.ProjectId,Mikrokosmos,4d696b72-6f6b-46f7-936d-6f732e6b6963,rev?*
G04 #@! TF.SameCoordinates,Original*
G04 #@! TF.FileFunction,Legend,Bot*
G04 #@! TF.FilePolarity,Positive*
%FSLAX46Y46*%
G04 Gerber Fmt 4.6, Leading zero omitted, Abs format (unit mm)*
G04 Created by KiCad (PCBNEW 5.1.5-52549c5~84~ubuntu18.04.1) date 2020-03-31 17:05:22*
%MOMM*%
%LPD*%
G04 APERTURE LIST*
%ADD10C,0.150000*%
%ADD11C,0.120000*%
G04 APERTURE END LIST*
D10*
X136333333Y-104452380D02*
X136333333Y-103452380D01*
X136000000Y-104166666D01*
X135666666Y-103452380D01*
X135666666Y-104452380D01*
X135190476Y-104452380D02*
X135190476Y-103785714D01*
X135190476Y-103452380D02*
X135238095Y-103500000D01*
X135190476Y-103547619D01*
X135142857Y-103500000D01*
X135190476Y-103452380D01*
X135190476Y-103547619D01*
X134714285Y-104452380D02*
X134714285Y-103452380D01*
X134619047Y-104071428D02*
X134333333Y-104452380D01*
X134333333Y-103785714D02*
X134714285Y-104166666D01*
X133904761Y-104452380D02*
X133904761Y-103785714D01*
X133904761Y-103976190D02*
X133857142Y-103880952D01*
X133809523Y-103833333D01*
X133714285Y-103785714D01*
X133619047Y-103785714D01*
X133142857Y-104452380D02*
X133238095Y-104404761D01*
X133285714Y-104357142D01*
X133333333Y-104261904D01*
X133333333Y-103976190D01*
X133285714Y-103880952D01*
X133238095Y-103833333D01*
X133142857Y-103785714D01*
X133000000Y-103785714D01*
X132904761Y-103833333D01*
X132857142Y-103880952D01*
X132809523Y-103976190D01*
X132809523Y-104261904D01*
X132857142Y-104357142D01*
X132904761Y-104404761D01*
X133000000Y-104452380D01*
X133142857Y-104452380D01*
X132380952Y-104452380D02*
X132380952Y-103452380D01*
X132285714Y-104071428D02*
X132000000Y-104452380D01*
X132000000Y-103785714D02*
X132380952Y-104166666D01*
X131428571Y-104452380D02*
X131523809Y-104404761D01*
X131571428Y-104357142D01*
X131619047Y-104261904D01*
X131619047Y-103976190D01*
X131571428Y-103880952D01*
X131523809Y-103833333D01*
X131428571Y-103785714D01*
X131285714Y-103785714D01*
X131190476Y-103833333D01*
X131142857Y-103880952D01*
X131095238Y-103976190D01*
X131095238Y-104261904D01*
X131142857Y-104357142D01*
X131190476Y-104404761D01*
X131285714Y-104452380D01*
X131428571Y-104452380D01*
X130714285Y-104404761D02*
X130619047Y-104452380D01*
X130428571Y-104452380D01*
X130333333Y-104404761D01*
X130285714Y-104309523D01*
X130285714Y-104261904D01*
X130333333Y-104166666D01*
X130428571Y-104119047D01*
X130571428Y-104119047D01*
X130666666Y-104071428D01*
X130714285Y-103976190D01*
X130714285Y-103928571D01*
X130666666Y-103833333D01*
X130571428Y-103785714D01*
X130428571Y-103785714D01*
X130333333Y-103833333D01*
X129857142Y-104452380D02*
X129857142Y-103785714D01*
X129857142Y-103880952D02*
X129809523Y-103833333D01*
X129714285Y-103785714D01*
X129571428Y-103785714D01*
X129476190Y-103833333D01*
X129428571Y-103928571D01*
X129428571Y-104452380D01*
X129428571Y-103928571D02*
X129380952Y-103833333D01*
X129285714Y-103785714D01*
X129142857Y-103785714D01*
X129047619Y-103833333D01*
X129000000Y-103928571D01*
X129000000Y-104452380D01*
X128380952Y-104452380D02*
X128476190Y-104404761D01*
X128523809Y-104357142D01*
X128571428Y-104261904D01*
X128571428Y-103976190D01*
X128523809Y-103880952D01*
X128476190Y-103833333D01*
X128380952Y-103785714D01*
X128238095Y-103785714D01*
X128142857Y-103833333D01*
X128095238Y-103880952D01*
X128047619Y-103976190D01*
X128047619Y-104261904D01*
X128095238Y-104357142D01*
X128142857Y-104404761D01*
X128238095Y-104452380D01*
X128380952Y-104452380D01*
X127666666Y-104404761D02*
X127571428Y-104452380D01*
X127380952Y-104452380D01*
X127285714Y-104404761D01*
X127238095Y-104309523D01*
X127238095Y-104261904D01*
X127285714Y-104166666D01*
X127380952Y-104119047D01*
X127523809Y-104119047D01*
X127619047Y-104071428D01*
X127666666Y-103976190D01*
X127666666Y-103928571D01*
X127619047Y-103833333D01*
X127523809Y-103785714D01*
X127380952Y-103785714D01*
X127285714Y-103833333D01*
X125333333Y-103404761D02*
X126190476Y-104690476D01*
X123666666Y-104452380D02*
X124000000Y-103976190D01*
X124238095Y-104452380D02*
X124238095Y-103452380D01*
X123857142Y-103452380D01*
X123761904Y-103500000D01*
X123714285Y-103547619D01*
X123666666Y-103642857D01*
X123666666Y-103785714D01*
X123714285Y-103880952D01*
X123761904Y-103928571D01*
X123857142Y-103976190D01*
X124238095Y-103976190D01*
X123238095Y-104452380D02*
X123238095Y-103785714D01*
X123238095Y-103452380D02*
X123285714Y-103500000D01*
X123238095Y-103547619D01*
X123190476Y-103500000D01*
X123238095Y-103452380D01*
X123238095Y-103547619D01*
X122333333Y-104404761D02*
X122428571Y-104452380D01*
X122619047Y-104452380D01*
X122714285Y-104404761D01*
X122761904Y-104357142D01*
X122809523Y-104261904D01*
X122809523Y-103976190D01*
X122761904Y-103880952D01*
X122714285Y-103833333D01*
X122619047Y-103785714D01*
X122428571Y-103785714D01*
X122333333Y-103833333D01*
X121904761Y-104452380D02*
X121904761Y-103452380D01*
X121476190Y-104452380D02*
X121476190Y-103928571D01*
X121523809Y-103833333D01*
X121619047Y-103785714D01*
X121761904Y-103785714D01*
X121857142Y-103833333D01*
X121904761Y-103880952D01*
X120238095Y-104452380D02*
X120238095Y-103452380D01*
X120238095Y-103928571D02*
X119666666Y-103928571D01*
X119666666Y-104452380D02*
X119666666Y-103452380D01*
X119047619Y-104452380D02*
X119142857Y-104404761D01*
X119190476Y-104357142D01*
X119238095Y-104261904D01*
X119238095Y-103976190D01*
X119190476Y-103880952D01*
X119142857Y-103833333D01*
X119047619Y-103785714D01*
X118904761Y-103785714D01*
X118809523Y-103833333D01*
X118761904Y-103880952D01*
X118714285Y-103976190D01*
X118714285Y-104261904D01*
X118761904Y-104357142D01*
X118809523Y-104404761D01*
X118904761Y-104452380D01*
X119047619Y-104452380D01*
X118142857Y-104452380D02*
X118238095Y-104404761D01*
X118285714Y-104309523D01*
X118285714Y-103452380D01*
X117761904Y-104452380D02*
X117761904Y-103785714D01*
X117761904Y-103880952D02*
X117714285Y-103833333D01*
X117619047Y-103785714D01*
X117476190Y-103785714D01*
X117380952Y-103833333D01*
X117333333Y-103928571D01*
X117333333Y-104452380D01*
X117333333Y-103928571D02*
X117285714Y-103833333D01*
X117190476Y-103785714D01*
X117047619Y-103785714D01*
X116952380Y-103833333D01*
X116904761Y-103928571D01*
X116904761Y-104452380D01*
X116047619Y-104404761D02*
X116142857Y-104452380D01*
X116333333Y-104452380D01*
X116428571Y-104404761D01*
X116476190Y-104309523D01*
X116476190Y-103928571D01*
X116428571Y-103833333D01*
X116333333Y-103785714D01*
X116142857Y-103785714D01*
X116047619Y-103833333D01*
X116000000Y-103928571D01*
X116000000Y-104023809D01*
X116476190Y-104119047D01*
X115619047Y-104404761D02*
X115523809Y-104452380D01*
X115333333Y-104452380D01*
X115238095Y-104404761D01*
X115190476Y-104309523D01*
X115190476Y-104261904D01*
X115238095Y-104166666D01*
X115333333Y-104119047D01*
X115476190Y-104119047D01*
X115571428Y-104071428D01*
X115619047Y-103976190D01*
X115619047Y-103928571D01*
X115571428Y-103833333D01*
X115476190Y-103785714D01*
X115333333Y-103785714D01*
X115238095Y-103833333D01*
X114095238Y-103452380D02*
X113476190Y-103452380D01*
X113809523Y-103833333D01*
X113666666Y-103833333D01*
X113571428Y-103880952D01*
X113523809Y-103928571D01*
X113476190Y-104023809D01*
X113476190Y-104261904D01*
X113523809Y-104357142D01*
X113571428Y-104404761D01*
X113666666Y-104452380D01*
X113952380Y-104452380D01*
X114047619Y-104404761D01*
X114095238Y-104357142D01*
X112333333Y-103404761D02*
X113190476Y-104690476D01*
X112047619Y-103547619D02*
X112000000Y-103500000D01*
X111904761Y-103452380D01*
X111666666Y-103452380D01*
X111571428Y-103500000D01*
X111523809Y-103547619D01*
X111476190Y-103642857D01*
X111476190Y-103738095D01*
X111523809Y-103880952D01*
X112095238Y-104452380D01*
X111476190Y-104452380D01*
X110857142Y-103452380D02*
X110761904Y-103452380D01*
X110666666Y-103500000D01*
X110619047Y-103547619D01*
X110571428Y-103642857D01*
X110523809Y-103833333D01*
X110523809Y-104071428D01*
X110571428Y-104261904D01*
X110619047Y-104357142D01*
X110666666Y-104404761D01*
X110761904Y-104452380D01*
X110857142Y-104452380D01*
X110952380Y-104404761D01*
X111000000Y-104357142D01*
X111047619Y-104261904D01*
X111095238Y-104071428D01*
X111095238Y-103833333D01*
X111047619Y-103642857D01*
X111000000Y-103547619D01*
X110952380Y-103500000D01*
X110857142Y-103452380D01*
X110142857Y-103547619D02*
X110095238Y-103500000D01*
X110000000Y-103452380D01*
X109761904Y-103452380D01*
X109666666Y-103500000D01*
X109619047Y-103547619D01*
X109571428Y-103642857D01*
X109571428Y-103738095D01*
X109619047Y-103880952D01*
X110190476Y-104452380D01*
X109571428Y-104452380D01*
X108952380Y-103452380D02*
X108857142Y-103452380D01*
X108761904Y-103500000D01*
X108714285Y-103547619D01*
X108666666Y-103642857D01*
X108619047Y-103833333D01*
X108619047Y-104071428D01*
X108666666Y-104261904D01*
X108714285Y-104357142D01*
X108761904Y-104404761D01*
X108857142Y-104452380D01*
X108952380Y-104452380D01*
X109047619Y-104404761D01*
X109095238Y-104357142D01*
X109142857Y-104261904D01*
X109190476Y-104071428D01*
X109190476Y-103833333D01*
X109142857Y-103642857D01*
X109095238Y-103547619D01*
X109047619Y-103500000D01*
X108952380Y-103452380D01*
D11*
X111380000Y-110840000D02*
X111380000Y-111670000D01*
X111380000Y-113290000D02*
X111380000Y-113820000D01*
X111380000Y-116190000D02*
X111380000Y-117370000D01*
X111380000Y-107630000D02*
X116100000Y-107630000D01*
X119910000Y-117370000D02*
X122970000Y-117370000D01*
X111380000Y-117380000D02*
X116100000Y-117380000D01*
X119910000Y-107630000D02*
X122970000Y-107630000D01*
X111380000Y-107630000D02*
X111380000Y-109120000D01*
X122970000Y-107630000D02*
X122970000Y-117370000D01*
D10*
X117545238Y-120252380D02*
X117878571Y-119776190D01*
X118116666Y-120252380D02*
X118116666Y-119252380D01*
X117735714Y-119252380D01*
X117640476Y-119300000D01*
X117592857Y-119347619D01*
X117545238Y-119442857D01*
X117545238Y-119585714D01*
X117592857Y-119680952D01*
X117640476Y-119728571D01*
X117735714Y-119776190D01*
X118116666Y-119776190D01*
X117259523Y-119252380D02*
X116926190Y-120252380D01*
X116592857Y-119252380D01*
X115735714Y-120252380D02*
X116307142Y-120252380D01*
X116021428Y-120252380D02*
X116021428Y-119252380D01*
X116116666Y-119395238D01*
X116211904Y-119490476D01*
X116307142Y-119538095D01*
M02*
